<svg width="375" height="812" viewBox="0 0 375 812" fill="none" xmlns="http://www.w3.org/2000/svg">
<g clip-path="url(#clip0_536_9787)">
<rect width="375" height="812" fill="#F6F2F1"/>
<path d="M-1010.98 1278.33C-1033.9 1301.25 -1059 1315.61 -1086.27 1321.42C-1113.54 1326.64 -1141.25 1323.88 -1169.39 1313.15C-1197.53 1302.41 -1224.08 1284.57 -1249.03 1259.62C-1274.27 1234.38 -1292.25 1207.69 -1302.99 1179.55C-1313.72 1151.41 -1316.48 1123.7 -1311.26 1096.43C-1305.74 1068.87 -1291.53 1043.63 -1268.61 1020.71C-1252.36 1004.46 -1235.68 993.582 -1218.56 988.07C-1201.16 982.268 -1183.31 981.252 -1165.04 985.024L-974.864 1175.2C-971.382 1192.6 -972.253 1210.01 -977.475 1227.42C-982.697 1244.25 -993.867 1261.22 -1010.98 1278.33ZM-1055.81 1211.75C-1042.46 1198.41 -1034.63 1184.19 -1032.31 1169.1C-1030.28 1153.73 -1032.74 1138.5 -1039.71 1123.41C-1046.38 1108.03 -1056.39 1093.67 -1069.73 1080.33C-1083.37 1066.69 -1097.87 1056.54 -1113.25 1049.87C-1128.63 1042.61 -1143.86 1040.15 -1158.94 1042.47C-1174.32 1044.5 -1188.68 1052.19 -1202.03 1065.53C-1214.5 1078.01 -1221.76 1091.93 -1223.79 1107.31C-1225.82 1122.11 -1223.35 1137.34 -1216.39 1153C-1209.43 1168.09 -1199.13 1182.45 -1185.49 1196.09C-1172.14 1209.43 -1157.93 1219.59 -1142.84 1226.55C-1127.47 1233.22 -1112.24 1235.69 -1097.15 1233.95C-1082.06 1231.63 -1068.28 1224.23 -1055.81 1211.75ZM-948.318 1201.74L-1274.7 875.359L-1212.47 813.128L-886.087 1139.51L-948.318 1201.74Z" fill="#F1EDED"/>
<path d="M-1070.63 836.659L-1008.4 774.428L-764.703 1018.13L-826.934 1080.36L-1070.63 836.659ZM-1175.08 767.03L-1123.73 685.216L-1041.91 736.567L-1093.26 818.381L-1175.08 767.03Z" fill="#F1EDED"/>
<path d="M-743.767 843.139C-730.712 853.293 -717.511 856.339 -704.166 852.277C-691.11 847.926 -678.925 840.092 -667.611 828.778C-656.586 817.753 -649.333 806.729 -645.852 795.704C-642.661 784.39 -645.562 774.235 -654.555 765.242C-660.358 759.439 -667.321 757.699 -675.444 760.02C-683.857 762.05 -693.141 766.402 -703.295 773.075C-713.74 779.458 -724.909 786.856 -736.804 795.269C-748.699 803.682 -761.319 811.661 -774.665 819.204C-787.72 826.457 -801.066 831.679 -814.701 834.87C-828.337 838.062 -842.262 837.771 -856.478 834C-870.694 830.228 -884.765 821.38 -898.691 807.454C-911.746 794.399 -920.014 777.717 -923.496 757.408C-926.977 736.52 -924.801 714.616 -916.968 691.697C-909.135 668.777 -895.354 647.453 -875.626 627.725C-857.929 610.028 -837.911 597.263 -815.571 589.43C-793.522 581.306 -771.618 578.84 -749.86 582.031C-728.101 585.223 -708.953 595.087 -692.416 611.624L-754.647 673.854C-767.412 663.41 -779.742 659.783 -791.637 662.975C-803.241 665.876 -814.121 672.404 -824.275 682.558C-836.75 695.033 -843.713 706.928 -845.164 718.242C-846.904 729.267 -844.148 738.406 -836.895 745.659C-830.513 752.041 -822.969 754.362 -814.266 752.621C-805.562 750.881 -795.988 746.819 -785.544 740.436C-775.1 734.054 -763.93 726.656 -752.035 718.242C-740.141 709.249 -727.665 701.125 -714.61 693.872C-701.845 686.329 -688.644 680.962 -675.009 677.771C-661.663 674.289 -648.028 674.289 -634.102 677.771C-620.176 681.252 -606.396 689.811 -592.76 703.446C-577.384 718.823 -568.1 736.81 -564.909 757.408C-561.717 777.427 -564.473 798.46 -573.177 820.509C-581.59 842.268 -596.096 863.447 -616.695 884.045C-635.843 903.193 -657.021 917.119 -680.231 925.823C-703.44 933.946 -726.07 936.557 -748.119 933.656C-770.458 930.464 -789.896 921.181 -806.433 905.804L-743.767 843.139Z" fill="#F1EDED"/>
<path d="M-812.468 413.124L-750.237 350.894L-423.853 677.278L-486.083 739.508L-812.468 413.124ZM-543.092 558.039L-600.1 514.956C-607.643 507.413 -615.041 497.984 -622.294 486.67C-629.257 475.065 -634.044 462.154 -636.655 447.939C-639.266 433.143 -637.816 417.476 -632.303 400.939C-626.791 384.403 -615.187 367.286 -597.489 349.588C-581.823 333.922 -564.706 323.188 -546.138 317.385C-527.571 311.583 -507.407 312.598 -485.648 320.431C-464.18 327.975 -440.97 344.221 -416.02 369.171L-265.883 519.308L-328.114 581.539L-472.593 437.059C-482.167 427.485 -491.596 419.507 -500.88 413.124C-510.453 406.452 -520.172 403.405 -530.037 403.986C-539.61 404.276 -549.91 409.933 -560.934 420.958C-569.638 429.661 -576.165 441.121 -580.517 455.337C-584.869 469.553 -584.579 485.509 -579.647 503.206C-574.715 520.323 -562.53 538.601 -543.092 558.039Z" fill="#F1EDED"/>
<path d="M-552.38 153.037L-490.15 90.8066L-163.766 417.191L-225.996 479.421L-552.38 153.037Z" fill="#F1EDED"/>
<path d="M-348.169 114.194L-285.939 51.9636L-42.2387 295.664L-104.469 357.894L-348.169 114.194ZM-452.612 44.5656L-401.261 -37.2481L-319.448 14.1031L-370.799 95.9165L-452.612 44.5656Z" fill="#F1EDED"/>
<path d="M-21.3026 120.674C-8.24718 130.828 4.95313 133.875 18.2986 129.813C31.354 125.461 43.539 117.628 54.8536 106.313C65.8781 95.2889 73.1312 84.2643 76.6126 73.2398C79.8039 61.9251 76.9027 51.771 67.909 42.7773C62.1066 36.9749 55.1438 35.2341 47.0205 37.5551C38.607 39.586 29.3231 43.9378 19.169 50.6105C8.72469 56.9931 -2.44489 64.3912 -14.3397 72.8046C-26.2347 81.2181 -38.8548 89.1964 -52.2003 96.7395C-65.2557 103.992 -78.6011 109.215 -92.2367 112.406C-105.872 115.597 -119.798 115.307 -134.014 111.535C-148.23 107.764 -162.3 98.9153 -176.226 84.9896C-189.282 71.9343 -197.55 55.2524 -201.031 34.944C-204.513 14.0555 -202.337 -7.84848 -194.504 -30.7679C-186.67 -53.6873 -172.89 -75.011 -153.162 -94.7392C-135.464 -112.436 -115.446 -125.202 -93.1071 -133.035C-71.0581 -141.158 -49.1541 -143.624 -27.3951 -140.433C-5.63617 -137.242 13.5117 -127.378 30.0485 -110.841L-32.1821 -48.6103C-44.9473 -59.0545 -57.2774 -62.681 -69.1723 -59.4897C-80.777 -56.5885 -91.6565 -50.0608 -101.811 -39.9067C-114.286 -27.4316 -121.249 -15.5367 -122.699 -4.22199C-124.44 6.80252 -121.684 15.9413 -114.431 23.1942C-108.048 29.5769 -100.505 31.8978 -91.8015 30.1571C-83.0979 28.4163 -73.5241 24.3547 -63.0798 17.9721C-52.6355 11.5895 -41.4658 4.19137 -29.571 -4.22205C-17.6761 -13.2158 -5.20102 -21.339 7.8543 -28.592C20.6196 -36.1351 33.8201 -41.5024 47.4556 -44.6936C60.8011 -48.1751 74.4367 -48.1751 88.3624 -44.6937C102.288 -41.2122 116.069 -32.6536 129.704 -19.0181C145.081 -3.64174 154.364 14.3457 157.556 34.9442C160.747 54.9623 157.991 75.996 149.287 98.045C140.874 119.804 126.368 140.983 105.77 161.581C86.6217 180.729 65.443 194.655 42.2335 203.358C19.0239 211.482 -3.60529 214.093 -25.6543 211.191C-47.9935 208 -67.4315 198.716 -83.9683 183.34L-21.3026 120.674Z" fill="#F1EDED"/>
<path d="M250.783 2.64229L-53.8425 -301.983L8.38812 -364.213L259.921 -112.68L313.884 -166.642L366.975 -113.55L250.783 2.64229ZM32.323 -160.115L-20.7688 -213.206L116.312 -350.288L169.404 -297.196L32.323 -160.115Z" fill="#F1EDED"/>
<path d="M-210.922 1278.34C-233.841 1301.26 -258.936 1315.62 -286.208 1321.42C-313.479 1326.64 -341.185 1323.88 -369.327 1313.15C-397.468 1302.42 -424.014 1284.57 -448.964 1259.62C-474.205 1234.38 -492.192 1207.69 -502.927 1179.55C-513.661 1151.41 -516.417 1123.7 -511.195 1096.43C-505.683 1068.87 -491.467 1043.63 -468.547 1020.71C-452.301 1004.46 -435.619 993.584 -418.502 988.072C-401.095 982.27 -383.252 981.254 -364.975 985.026L-174.802 1175.2C-171.32 1192.61 -172.191 1210.01 -177.413 1227.42C-182.635 1244.25 -193.805 1261.22 -210.922 1278.34ZM-255.745 1211.75C-242.4 1198.41 -234.566 1184.19 -232.245 1169.11C-230.215 1153.73 -232.681 1138.5 -239.644 1123.41C-246.316 1108.04 -256.325 1093.68 -269.671 1080.33C-283.306 1066.69 -297.812 1056.54 -313.189 1049.87C-328.565 1042.61 -343.796 1040.15 -358.882 1042.47C-374.259 1044.5 -388.62 1052.19 -401.965 1065.53C-414.44 1078.01 -421.693 1091.93 -423.724 1107.31C-425.755 1122.11 -423.289 1137.34 -416.326 1153C-409.363 1168.09 -399.064 1182.45 -385.428 1196.09C-372.083 1209.43 -357.867 1219.59 -342.781 1226.55C-327.405 1233.22 -312.173 1235.69 -297.087 1233.95C-282.001 1231.63 -268.22 1224.23 -255.745 1211.75ZM-148.256 1201.74L-474.64 875.361L-412.409 813.13L-86.0254 1139.51L-148.256 1201.74Z" fill="#F1EDED"/>
<path d="M-270.572 836.66L-208.341 774.43L35.3588 1018.13L-26.8718 1080.36L-270.572 836.66ZM-375.015 767.032L-323.664 685.218L-241.85 736.569L-293.201 818.383L-375.015 767.032Z" fill="#F1EDED"/>
<path d="M56.2949 843.141C69.3503 853.295 82.5507 856.341 95.8962 852.279C108.952 847.928 121.136 840.094 132.451 828.78C143.476 817.755 150.729 806.731 154.21 795.706C157.401 784.391 154.5 774.237 145.507 765.244C139.704 759.441 132.741 757.701 124.618 760.021C116.204 762.052 106.921 766.404 96.7665 773.077C86.3222 779.459 75.1526 786.857 63.2578 795.271C51.3629 803.684 38.7427 811.663 25.3972 819.206C12.3419 826.459 -1.00362 831.681 -14.6392 834.872C-28.2748 838.064 -42.2005 837.773 -56.4164 834.002C-70.6323 830.23 -84.703 821.382 -98.6287 807.456C-111.684 794.401 -119.952 777.719 -123.434 757.41C-126.915 736.522 -124.739 714.618 -116.906 691.698C-109.073 668.779 -95.2923 647.455 -75.5642 627.727C-57.867 610.03 -37.8488 597.265 -15.5096 589.431C6.53946 581.308 28.4435 578.842 50.2024 582.033C71.9613 585.225 91.1092 595.089 107.646 611.626L45.4154 673.856C32.6501 663.412 20.3201 659.785 8.42523 662.977C-3.17954 665.878 -14.059 672.405 -24.2131 682.56C-36.6882 695.035 -43.6512 706.93 -45.1017 718.244C-46.8425 729.269 -44.0863 738.408 -36.8333 745.661C-30.4507 752.043 -22.9076 754.364 -14.204 752.623C-5.50042 750.883 4.07342 746.821 14.5177 740.438C24.962 734.056 36.1316 726.658 48.0265 718.244C59.9214 709.251 72.3964 701.127 85.4518 693.874C98.2171 686.331 111.417 680.964 125.053 677.773C138.399 674.291 152.034 674.291 165.96 677.773C179.886 681.254 193.666 689.813 207.302 703.448C222.678 718.825 231.962 736.812 235.153 757.41C238.345 777.429 235.588 798.462 226.885 820.511C218.471 842.27 203.966 863.449 183.367 884.047C164.219 903.195 143.041 917.121 119.831 925.825C96.6215 933.948 73.9921 936.559 51.9431 933.658C29.604 930.466 10.166 921.183 -6.37082 905.806L56.2949 843.141Z" fill="#F1EDED"/>
<path d="M-12.4056 413.126L49.825 350.896L376.209 677.28L313.978 739.51L-12.4056 413.126ZM256.97 558.041L199.962 514.958C192.419 507.415 185.02 497.986 177.767 486.672C170.805 475.067 166.018 462.156 163.407 447.941C160.796 433.145 162.246 417.478 167.758 400.941C173.271 384.404 184.875 367.287 202.573 349.59C218.239 333.924 235.356 323.189 253.924 317.387C272.491 311.585 292.655 312.6 314.414 320.433C335.882 327.976 359.092 344.223 384.042 369.173L534.179 519.31L471.948 581.541L327.469 437.061C317.895 427.487 308.466 419.509 299.182 413.126C289.608 406.454 279.889 403.407 270.025 403.988C260.451 404.278 250.152 409.935 239.128 420.96C230.424 429.663 223.896 441.123 219.545 455.339C215.193 469.554 215.483 485.511 220.415 503.208C225.347 520.325 237.532 538.603 256.97 558.041Z" fill="#F1EDED"/>
<path d="M247.682 153.039L309.912 90.8086L636.296 417.193L574.066 479.423L247.682 153.039Z" fill="#F1EDED"/>
<path d="M451.893 114.196L514.123 51.9656L757.823 295.666L695.593 357.896L451.893 114.196ZM347.45 44.5675L398.801 -37.2461L480.614 14.105L429.263 95.9185L347.45 44.5675Z" fill="#F1EDED"/>
<path d="M778.759 120.676C791.815 130.83 805.015 133.877 818.361 129.815C831.416 125.463 843.601 117.63 854.916 106.315C865.94 95.2908 873.193 84.2662 876.674 73.2417C879.866 61.9271 876.965 51.7729 867.971 42.7793C862.169 36.9769 855.206 35.2361 847.082 37.5571C838.669 39.5879 829.385 43.9397 819.231 50.6125C808.787 56.9951 797.617 64.3931 785.722 72.8065C773.827 81.2199 761.207 89.1983 747.862 96.7414C734.806 103.994 721.461 109.217 707.825 112.408C694.19 115.599 680.264 115.309 666.048 111.537C651.832 107.766 637.761 98.9173 623.836 84.9916C610.78 71.9362 602.512 55.2544 599.031 34.946C595.549 14.0574 597.725 -7.84661 605.558 -30.766C613.391 -53.6854 627.172 -75.0091 646.9 -94.7372C664.597 -112.434 684.616 -125.2 706.955 -133.033C729.004 -141.156 750.908 -143.622 772.667 -140.431C794.426 -137.24 813.574 -127.376 830.11 -110.839L767.88 -48.6083C755.115 -59.0526 742.785 -62.6791 730.89 -59.4877C719.285 -56.5866 708.405 -50.0589 698.251 -39.9048C685.776 -27.4297 678.813 -15.5347 677.363 -4.22003C675.622 6.80447 678.378 15.9432 685.631 23.1962C692.014 29.5788 699.557 31.8997 708.26 30.159C716.964 28.4183 726.538 24.3567 736.982 17.9741C747.426 11.5914 758.596 4.1933 770.491 -4.2201C782.386 -13.2138 794.861 -21.3371 807.916 -28.59C820.681 -36.1331 833.882 -41.5003 847.517 -44.6917C860.863 -48.1731 874.499 -48.1731 888.424 -44.6917C902.35 -41.2103 916.131 -32.6517 929.766 -19.0161C945.143 -3.63979 954.426 14.3476 957.618 34.9461C960.809 54.9643 958.053 75.9979 949.349 98.047C940.936 119.806 926.43 140.985 905.831 161.583C886.684 180.731 865.505 194.657 842.295 203.36C819.086 211.483 796.457 214.095 774.408 211.193C752.068 208.002 732.63 198.718 716.094 183.342L778.759 120.676Z" fill="#F1EDED"/>
<path d="M1050.84 2.64424L746.219 -301.981L808.45 -364.211L1059.98 -112.678L1113.95 -166.64L1167.04 -113.549L1050.84 2.64424ZM832.385 -160.113L779.293 -213.204L916.374 -350.286L969.466 -297.194L832.385 -160.113Z" fill="#F1EDED"/>
</g>
<defs>
<clipPath id="clip0_536_9787">
<rect width="375" height="812" fill="white"/>
</clipPath>
</defs>
</svg>
