<svg width="108" height="16" viewBox="0 0 108 16" fill="none" xmlns="http://www.w3.org/2000/svg">
<path d="M4.99156 16C3.94835 16 3.0504 15.7567 2.2977 15.27C1.55821 14.7702 0.99039 14.0797 0.594234 13.1985C0.198078 12.3173 0 11.3111 0 10.18C0 9.03576 0.198078 8.02302 0.594234 7.1418C0.99039 6.26058 1.55821 5.57008 2.2977 5.07028C3.0504 4.57049 3.94835 4.32059 4.99156 4.32059C5.73106 4.32059 6.3583 4.45212 6.87331 4.71517C7.40151 4.97822 7.83068 5.35964 8.16081 5.85943V14.4809C7.84389 14.9544 7.42792 15.3292 6.91292 15.6054C6.41112 15.8685 5.77067 16 4.99156 16ZM5.48676 13.4747C6.0942 13.4747 6.596 13.33 6.99215 13.0407C7.38831 12.7382 7.67882 12.337 7.8637 11.8372C8.06177 11.3374 8.16081 10.785 8.16081 10.18C8.16081 9.56186 8.06177 9.00288 7.8637 8.50308C7.67882 7.99014 7.38831 7.58898 6.99215 7.29963C6.596 6.99712 6.0942 6.84587 5.48676 6.84587C4.91894 6.84587 4.43695 6.99712 4.04079 7.29963C3.65784 7.58898 3.36733 7.99014 3.16925 8.50308C2.98437 9.00288 2.89194 9.56186 2.89194 10.18C2.89194 10.785 2.98437 11.3374 3.16925 11.8372C3.36733 12.337 3.65784 12.7382 4.04079 13.0407C4.43695 13.33 4.91894 13.4747 5.48676 13.4747ZM8.16081 15.6843V0.887792H10.9933V15.6843H8.16081Z" fill="white"/>
<path d="M13.6858 4.63625H16.5183V15.6843H13.6858V4.63625ZM12.8935 0.690505L15.9241 0L16.6173 3.0185L13.5868 3.709L12.8935 0.690505Z" fill="white"/>
<path d="M20.9772 12.1924C21.0433 12.7185 21.2743 13.0867 21.6705 13.2972C22.0667 13.4945 22.5222 13.5931 23.0372 13.5931C23.539 13.5931 23.955 13.5076 24.2851 13.3366C24.6153 13.1525 24.7803 12.8566 24.7803 12.4488C24.7803 12.1858 24.6615 11.9885 24.4238 11.857C24.1861 11.7123 23.8758 11.6005 23.4928 11.5216C23.1099 11.4295 22.6873 11.344 22.2251 11.2651C21.7629 11.1862 21.2942 11.081 20.8188 10.9494C20.3566 10.8179 19.934 10.6338 19.5511 10.397C19.1681 10.1603 18.8578 9.83806 18.6201 9.43033C18.3824 9.0226 18.2636 8.50308 18.2636 7.87176C18.2636 7.2799 18.455 6.71434 18.838 6.17509C19.2341 5.62269 19.7822 5.1755 20.482 4.83354C21.1819 4.49157 21.9808 4.32059 22.8788 4.32059C23.6843 4.32059 24.4304 4.485 25.1171 4.81381C25.8037 5.12947 26.3583 5.57008 26.7809 6.13563C27.2035 6.70119 27.4148 7.35882 27.4148 8.10851H24.5822C24.5294 7.58241 24.3314 7.22071 23.988 7.02343C23.6579 6.82614 23.2617 6.7275 22.7995 6.7275C22.2317 6.7275 21.8026 6.83929 21.512 7.06289C21.2215 7.27332 21.0763 7.54295 21.0763 7.87176C21.0763 8.16112 21.1951 8.38471 21.4328 8.54254C21.6705 8.70037 21.9808 8.82532 22.3638 8.91739C22.7467 9.00945 23.1693 9.09494 23.6315 9.17386C24.1069 9.23962 24.5756 9.33826 25.0378 9.46979C25.5 9.58816 25.9226 9.76572 26.3055 10.0025C26.6885 10.2261 26.9988 10.5351 27.2365 10.9297C27.4742 11.3243 27.593 11.8307 27.593 12.4488C27.593 13.1459 27.395 13.7641 26.9988 14.3033C26.6159 14.8294 26.0744 15.2437 25.3746 15.5462C24.6879 15.8487 23.8758 16 22.9382 16C22.0667 16 21.2677 15.8356 20.5415 15.5068C19.8284 15.1648 19.254 14.7111 18.8182 14.1455C18.3824 13.5668 18.1513 12.9157 18.1249 12.1924H20.9772Z" fill="white"/>
<path d="M29.2001 0.887792H32.0326V15.6843H29.2001V0.887792ZM32.0326 10.2787L31.7157 8.00986C31.7157 7.6679 31.7619 7.28648 31.8543 6.8656C31.96 6.44472 32.1449 6.04357 32.409 5.66215C32.6863 5.26757 33.0758 4.94533 33.5776 4.69544C34.0794 4.44554 34.7331 4.32059 35.5386 4.32059C36.2517 4.32059 36.8855 4.46527 37.4401 4.75462C37.9948 5.04398 38.4305 5.52404 38.7475 6.19482C39.0644 6.85244 39.2228 7.74681 39.2228 8.87793V15.6843H36.3903V9.1344C36.3903 8.70037 36.3573 8.30579 36.2913 7.95068C36.2253 7.58241 36.0734 7.29305 35.8357 7.08261C35.6112 6.87217 35.2481 6.76695 34.7463 6.76695C34.3501 6.76695 33.9408 6.87875 33.5182 7.10234C33.0956 7.32593 32.7391 7.6942 32.4486 8.20715C32.1713 8.70695 32.0326 9.39745 32.0326 10.2787Z" fill="white"/>
<path d="M41.0383 0.887792H43.8709V15.6843H41.0383V0.887792Z" fill="white"/>
<path d="M46.5698 4.63625H49.4023V15.6843H46.5698V4.63625ZM45.7775 0.690505L48.8081 0L49.5014 3.0185L46.4708 3.709L45.7775 0.690505Z" fill="white"/>
<path d="M53.8613 12.1924C53.9273 12.7185 54.1584 13.0867 54.5545 13.2972C54.9507 13.4945 55.4063 13.5931 55.9213 13.5931C56.4231 13.5931 56.839 13.5076 57.1692 13.3366C57.4993 13.1525 57.6644 12.8566 57.6644 12.4488C57.6644 12.1858 57.5455 11.9885 57.3078 11.857C57.0701 11.7123 56.7598 11.6005 56.3769 11.5216C55.9939 11.4295 55.5713 11.344 55.1092 11.2651C54.647 11.1862 54.1782 11.081 53.7028 10.9494C53.2406 10.8179 52.8181 10.6338 52.4351 10.397C52.0522 10.1603 51.7418 9.83806 51.5041 9.43033C51.2664 9.0226 51.1476 8.50308 51.1476 7.87176C51.1476 7.2799 51.3391 6.71434 51.722 6.17509C52.1182 5.62269 52.6662 5.1755 53.3661 4.83354C54.0659 4.49157 54.8649 4.32059 55.7628 4.32059C56.5683 4.32059 57.3144 4.485 58.0011 4.81381C58.6878 5.12947 59.2424 5.57008 59.665 6.13563C60.0875 6.70119 60.2988 7.35882 60.2988 8.10851H57.4663C57.4135 7.58241 57.2154 7.22071 56.8721 7.02343C56.5419 6.82614 56.1458 6.7275 55.6836 6.7275C55.1158 6.7275 54.6866 6.83929 54.3961 7.06289C54.1056 7.27332 53.9603 7.54295 53.9603 7.87176C53.9603 8.16112 54.0792 8.38471 54.3168 8.54254C54.5545 8.70037 54.8649 8.82532 55.2478 8.91739C55.6308 9.00945 56.0533 9.09494 56.5155 9.17386C56.9909 9.23962 57.4597 9.33826 57.9219 9.46979C58.384 9.58816 58.8066 9.76572 59.1896 10.0025C59.5725 10.2261 59.8828 10.5351 60.1205 10.9297C60.3582 11.3243 60.4771 11.8307 60.4771 12.4488C60.4771 13.1459 60.279 13.7641 59.8828 14.3033C59.4999 14.8294 58.9585 15.2437 58.2586 15.5462C57.5719 15.8487 56.7598 16 55.8222 16C54.9507 16 54.1518 15.8356 53.4255 15.5068C52.7124 15.1648 52.138 14.7111 51.7022 14.1455C51.2664 13.5668 51.0354 12.9157 51.0089 12.1924H53.8613Z" fill="white"/>
<path d="M62.7396 15.6843V1.87423H65.5722V13.2774H68.0283V15.6843H62.7396ZM61.472 7.04316V4.63625H67.7114V7.04316H61.472Z" fill="white"/>
<path d="M76.3086 3.17633H79.1807V15.6843H76.3086V3.17633ZM72.9809 1.87423H76.3086V4.36005H72.9809V1.87423ZM72.9809 13.1985H76.3086V15.6843H72.9809V13.1985ZM79.1807 13.1985H82.5084V15.6843H79.1807V13.1985Z" fill="#8979FF"/>
<path d="M89.3319 16C87.985 16 86.8758 15.6778 86.0042 15.0333C85.1459 14.3757 84.5054 13.501 84.0829 12.4094C83.6735 11.3177 83.4688 10.1011 83.4688 8.75956C83.4688 7.77312 83.5811 6.84587 83.8055 5.9778C84.0432 5.09659 84.3998 4.32717 84.8752 3.66954C85.3638 3.01192 85.9778 2.49897 86.7173 2.1307C87.4568 1.74928 88.3283 1.55857 89.3319 1.55857C90.3355 1.55857 91.2005 1.74928 91.9267 2.1307C92.6662 2.49897 93.2737 3.01192 93.7491 3.66954C94.2377 4.32717 94.5942 5.09659 94.8187 5.9778C95.0564 6.84587 95.1752 7.77312 95.1752 8.75956C95.1752 10.1011 94.9639 11.3177 94.5414 12.4094C94.132 13.501 93.4916 14.3757 92.62 15.0333C91.7617 15.6778 90.6656 16 89.3319 16ZM89.3319 13.3958C90.0318 13.3958 90.5864 13.1722 90.9958 12.725C91.4183 12.2778 91.7221 11.7057 91.9069 11.0086C92.0918 10.2984 92.1842 9.54871 92.1842 8.75956C92.1842 7.98356 92.0918 7.24702 91.9069 6.54994C91.7221 5.8397 91.4183 5.26757 90.9958 4.83354C90.5864 4.38635 90.0318 4.16276 89.3319 4.16276C88.632 4.16276 88.0708 4.38635 87.6483 4.83354C87.2257 5.26757 86.922 5.8397 86.7371 6.54994C86.5522 7.24702 86.4598 7.98356 86.4598 8.75956C86.4598 9.54871 86.5522 10.2984 86.7371 11.0086C86.922 11.7057 87.2257 12.2778 87.6483 12.725C88.0708 13.1722 88.632 13.3958 89.3319 13.3958Z" fill="#8979FF"/>
<path d="M102.157 16C100.81 16 99.7005 15.6778 98.829 15.0333C97.9706 14.3757 97.3302 13.501 96.9076 12.4094C96.4983 11.3177 96.2936 10.1011 96.2936 8.75956C96.2936 7.77312 96.4058 6.84587 96.6303 5.9778C96.868 5.09659 97.2246 4.32717 97.6999 3.66954C98.1885 3.01192 98.8026 2.49897 99.5421 2.1307C100.282 1.74928 101.153 1.55857 102.157 1.55857C103.16 1.55857 104.025 1.74928 104.752 2.1307C105.491 2.49897 106.098 3.01192 106.574 3.66954C107.062 4.32717 107.419 5.09659 107.643 5.9778C107.881 6.84587 108 7.77312 108 8.75956C108 10.1011 107.789 11.3177 107.366 12.4094C106.957 13.501 106.316 14.3757 105.445 15.0333C104.586 15.6778 103.49 16 102.157 16ZM102.157 13.3958C102.857 13.3958 103.411 13.1722 103.821 12.725C104.243 12.2778 104.547 11.7057 104.732 11.0086C104.917 10.2984 105.009 9.54871 105.009 8.75956C105.009 7.98356 104.917 7.24702 104.732 6.54994C104.547 5.8397 104.243 5.26757 103.821 4.83354C103.411 4.38635 102.857 4.16276 102.157 4.16276C101.457 4.16276 100.896 4.38635 100.473 4.83354C100.05 5.26757 99.7467 5.8397 99.5619 6.54994C99.377 7.24702 99.2846 7.98356 99.2846 8.75956C99.2846 9.54871 99.377 10.2984 99.5619 11.0086C99.7467 11.7057 100.05 12.2778 100.473 12.725C100.896 13.1722 101.457 13.3958 102.157 13.3958Z" fill="#8979FF"/>
</svg>
