<svg width="164" height="56" viewBox="0 0 164 56" fill="none" xmlns="http://www.w3.org/2000/svg">
<g clip-path="url(#clip0_306_23822)">
<path d="M50.2176 50.7397C49.9524 50.8556 49.653 50.9715 49.3346 51.0874C49.0656 51.1659 48.7472 51.2332 48.3872 51.2855C48.0158 51.3416 47.5952 51.3715 47.129 51.3715C46.2801 51.3715 45.4312 51.0649 44.5369 50.4368C43.5402 49.7339 42.5359 48.7805 41.5543 47.6028C40.5425 46.3877 39.5193 44.9557 38.515 43.3517C37.4804 41.7029 36.4534 39.9943 35.4529 38.2782C34.4373 36.5321 33.4254 34.7824 32.4249 33.0364C31.4131 31.2716 30.4088 29.634 29.431 28.1609C28.4381 26.6654 27.4452 25.3531 26.4826 24.2501C25.846 23.5211 25.1941 22.9266 24.5423 22.4705C25.0463 21.8087 25.5466 21.0946 26.0355 20.3431C26.7858 19.1915 27.5362 18.0587 28.2676 16.9819C28.999 15.9014 29.7645 14.8283 30.5452 13.8001C31.2804 12.8355 32.0497 12.013 32.8342 11.3587C33.5732 10.7418 34.3311 10.3081 35.0891 10.0613C35.7523 9.84821 36.4572 9.87438 37.2379 10.1511L37.9124 10.3866L43.3431 5.02887L41.7249 4.40449C39.8679 3.68664 38.1284 3.44362 36.5557 3.6829C35.0171 3.91845 33.5694 4.47553 32.2582 5.3392C30.9886 6.17295 29.8024 7.24599 28.7375 8.52467C27.7067 9.75848 26.7403 11.0895 25.8649 12.4878C25.0047 13.86 24.1823 15.2508 23.4206 16.6229C22.6702 17.9727 21.9501 19.199 21.2832 20.2683C20.6427 21.2927 20.006 22.1265 19.3921 22.7471C19.3428 22.7957 19.2973 22.8406 19.2481 22.8855V9.4332C19.2481 8.43494 19.1495 7.64231 18.9487 7.00671C18.7251 6.30755 18.384 5.73551 17.9293 5.31302C17.4555 4.87184 16.8719 4.58396 16.1898 4.46431C15.663 4.37084 15.0491 4.32598 14.3669 4.32598H12.3205L6.35167 10.2146H10.4749C11.4526 10.2146 11.9983 10.3006 12.2864 10.3754C12.5554 10.4427 12.7449 10.5511 12.8662 10.6969C13.014 10.8764 13.1163 11.1456 13.1694 11.4895C13.2414 11.9868 13.2793 12.6336 13.2793 13.415V37.6762C13.2793 37.8445 13.2717 37.9641 13.2603 38.0501C13.2035 38.0576 13.1315 38.0613 13.0367 38.0613H6.92771C5.787 38.0613 4.85473 37.8669 4.16121 37.4781C3.6496 37.1939 3.43359 36.8013 3.43359 36.1695V33.4626L1.49325 35.3769C0.739098 36.1209 0.265383 36.9771 0.0948456 37.9118C-0.0681122 38.8016 -0.0150562 39.684 0.250224 40.5252C0.523084 41.3926 1.02333 42.1479 1.73579 42.776C2.44826 43.4078 3.32747 43.7929 4.34691 43.9313C4.54776 43.9761 4.84715 43.9986 5.49898 43.9986H9.48955C10.6075 43.9986 11.7672 43.6621 12.9382 43.0003C14.0258 42.3834 15.0491 41.5908 15.9738 40.6411C16.8985 39.6952 17.6716 38.6446 18.2779 37.5229C18.9222 36.3265 19.2481 35.1675 19.2481 34.0795V26.9982C19.5171 26.9196 19.7824 26.8187 20.0401 26.6953C20.5176 26.9122 21.0255 27.3272 21.5598 27.9366C22.3519 28.8414 23.1856 29.993 24.0383 31.3614C24.9023 32.7522 25.7929 34.3188 26.6797 36.0274C27.5855 37.766 28.5329 39.5494 29.4955 41.3178C30.4656 43.1012 31.4775 44.8734 32.4969 46.5821C33.5391 48.3206 34.6305 49.8909 35.7485 51.2407C36.893 52.6278 38.0981 53.7606 39.3298 54.6093C40.6676 55.5328 42.0963 56.0039 43.5781 56.0039C44.7301 56.0039 45.8292 55.8581 46.8486 55.5702C47.8301 55.2935 48.6904 54.972 49.3725 54.6355C50.2593 54.2354 51.0514 53.7307 51.7222 53.1437L52.3967 52.553L51.1689 50.3284L50.2139 50.7471L50.2176 50.7397Z" fill="white"/>
<path d="M50.5625 12.5028C51.6349 11.6204 52.7302 11.0147 53.8178 10.7044C54.9585 10.3791 55.9287 10.2146 56.7056 10.2146C57.5545 10.2146 58.3238 10.3305 58.987 10.5624C59.6881 10.8091 60.2869 11.0858 60.7795 11.3998C61.3404 11.7513 61.8634 12.1476 62.3333 12.5813L63.1708 13.3552L68.1354 8.03865L67.3623 7.27593C66.7976 6.71885 66.0965 6.21037 65.2628 5.76545C64.5768 5.41026 63.7431 5.08125 62.7767 4.78588C61.7649 4.4793 60.5863 4.32227 59.2636 4.32227C57.8273 4.32227 56.3228 4.66624 54.7842 5.34296C53.31 5.99352 51.8282 6.89083 50.3843 8.01248C48.9518 9.12291 47.5762 10.4427 46.299 11.9382C45.0257 13.43 43.8812 15.0788 42.8959 16.8323C41.9067 18.5971 41.1147 20.4702 40.5349 22.4032C39.9475 24.3586 39.6519 26.3551 39.6519 28.3367C39.6519 31.2791 40.0498 33.8028 40.8342 35.833C41.6263 37.8819 42.6798 39.5756 43.9683 40.8617C45.2682 42.1628 46.7386 43.105 48.3417 43.6584C49.903 44.2005 51.472 44.4772 53.0068 44.4772C54.5417 44.4772 55.9628 44.2416 57.2058 43.7705C58.4147 43.3144 59.5592 42.6937 60.609 41.9198C61.6246 41.172 62.6062 40.3159 63.5309 39.3699C64.4252 38.4539 65.3499 37.5267 66.2746 36.6144L67.1273 35.7732L64.9634 33.8776L64.2054 34.6553C63.4778 35.4031 62.6668 36.0648 61.7762 36.6443C61.0259 37.1453 60.1315 37.609 59.1083 38.0127C58.1495 38.3941 57.058 38.5885 55.8643 38.5885C54.2082 38.5885 52.7302 38.2745 51.4644 37.6613C50.1986 37.0444 49.1299 36.1882 48.2886 35.1114C47.4284 34.0122 46.7614 32.6961 46.3104 31.2006C45.9466 29.993 45.7268 28.7106 45.6472 27.3683H59.7298L65.6986 21.4797H45.9769C46.3142 19.3785 46.8599 17.6325 47.5989 16.279C48.4781 14.6638 49.471 13.3926 50.5549 12.5028H50.5625Z" fill="#FFCB19"/>
<path d="M94.5686 26.0895C93.2157 24.9118 91.677 23.9621 89.9906 23.2704C89.2023 22.9452 88.4103 22.6872 87.6145 22.489C88.4217 21.8684 89.1796 21.2702 89.8807 20.7019C91.1957 19.6363 92.3289 18.6044 93.2422 17.636C94.1934 16.6266 94.9324 15.6283 95.4402 14.6674C95.9821 13.6355 96.2588 12.5625 96.2588 11.4782C96.2588 8.91338 94.9855 6.96919 92.5752 5.84755C90.3809 4.82685 87.118 4.32959 82.6082 4.32959H75.4874L69.5186 10.2182H77.746L76.3476 11.5979V41.4673C76.3476 42.4506 76.4954 43.4301 76.791 44.3723C77.0942 45.3407 77.5452 46.2118 78.1364 46.9671C78.7389 47.7335 79.4969 48.3654 80.3913 48.8439C81.3122 49.3375 82.3733 49.588 83.5443 49.588C85.0071 49.588 86.6594 49.2814 88.4482 48.6757C90.2256 48.0737 91.9158 47.1951 93.4809 46.066C95.065 44.9219 96.4104 43.5049 97.4867 41.8561C98.6046 40.14 99.1693 38.1621 99.1693 35.9749C99.1693 33.9298 98.7411 32.0454 97.8922 30.3705C97.0584 28.7254 95.9405 27.2897 94.5724 26.0932L94.5686 26.0895ZM88.8764 44.305C87.8532 44.4022 86.8717 44.2602 85.8863 43.8713C84.9086 43.4862 84.0786 42.8618 83.3397 41.9683C82.6499 41.1308 82.3126 40.0764 82.3126 38.7379V27.3233C83.7906 27.443 85.117 27.7421 86.2767 28.2244C87.7319 28.8301 88.9674 29.6152 89.9413 30.5462C90.9153 31.4809 91.677 32.5464 92.2076 33.7204C92.7419 34.9019 93.0489 36.1058 93.1209 37.2947C93.1929 38.4762 93.0451 39.6278 92.6813 40.7158C92.3213 41.7888 91.7756 42.6786 91.01 43.4339C90.5098 43.9274 89.8087 44.2115 88.8726 44.3013L88.8764 44.305ZM83.2032 21.7001C82.8887 21.9469 82.5931 22.175 82.3164 22.3918V10.2107H82.6082C83.8323 10.2107 84.9617 10.2818 85.9735 10.4201C86.9361 10.551 87.766 10.7604 88.4444 11.0445C89.0356 11.2913 89.4904 11.6128 89.7935 11.9942C90.0626 12.3307 90.1915 12.7606 90.1915 13.3177C90.1915 13.9832 89.858 14.7871 89.1948 15.7068C88.433 16.7649 87.5121 17.8192 86.4662 18.8399C85.3937 19.8793 84.2985 20.8439 83.2032 21.7039V21.7001Z" fill="white"/>
<path d="M129.142 37.7321C128.676 37.5078 128.343 37.2199 128.13 36.846C127.88 36.4161 127.721 35.9001 127.657 35.3131C127.581 34.614 127.539 33.855 127.539 33.0549V0L125.902 0.792629C122.616 2.38537 119.634 4.28842 117.045 6.44946C115.927 7.3879 114.825 8.44225 113.763 9.5938C112.683 10.7641 111.709 12.0539 110.872 13.4224C110.027 14.8057 109.333 16.3274 108.814 17.9538C108.363 19.3633 108.105 20.8589 108.037 22.4067H99.4346L104.945 27.7607H108.018V43.5535C108.018 44.6901 107.848 45.5837 107.51 46.2118C107.139 46.9035 106.574 47.6213 105.839 48.3504L104.994 49.1879L107.067 51.0274L107.814 50.4852C109.652 49.1505 111.141 47.6624 112.244 46.0547C113.403 44.3648 113.991 42.4617 113.991 40.3942V27.7607H121.57V36.2628C121.57 37.2237 121.68 38.1546 121.9 39.0332C122.131 39.9717 122.529 40.8167 123.075 41.5457C123.647 42.3122 124.413 42.9216 125.356 43.3553C126.273 43.7815 127.406 43.9947 128.722 43.9947H132.564C134.088 43.9947 135.403 43.46 136.471 42.4019L140.826 38.106H131.48C130.188 38.106 129.498 37.9041 129.146 37.7321H129.142ZM121.574 8.25531V22.4067H113.995V21.6328C113.995 19.2063 114.275 17.15 114.825 15.5236C115.37 13.9084 116.075 12.5624 116.924 11.5193C117.762 10.4874 118.709 9.68354 119.74 9.12645C120.346 8.79744 120.96 8.50581 121.578 8.25531H121.574Z" fill="#FFCB19"/>
<path d="M162.719 30.3628C161.885 28.7177 160.767 27.282 159.399 26.0856C158.046 24.9079 156.508 23.9582 154.821 23.2665C154.033 22.9413 153.241 22.6833 152.445 22.4851C153.252 21.8645 154.01 21.2663 154.712 20.698C156.027 19.6324 157.16 18.6005 158.073 17.6321C159.024 16.6227 159.763 15.6244 160.271 14.6635C160.813 13.6316 161.09 12.5586 161.09 11.4743C161.09 8.90947 159.816 6.96529 157.406 5.84364C155.212 4.82295 151.949 4.32568 147.439 4.32568H140.318L134.349 10.2143H142.577L141.178 11.5939V41.4634C141.178 42.4467 141.326 43.4262 141.622 44.3684C141.925 45.3368 142.376 46.2079 142.967 46.9632C143.57 47.7296 144.328 48.3615 145.222 48.84C146.143 49.3336 147.204 49.5841 148.375 49.5841C149.838 49.5841 151.49 49.2775 153.279 48.6718C155.056 48.0698 156.747 47.1912 158.312 46.0621C159.896 44.918 161.241 43.501 162.317 41.8522C163.435 40.1361 164 38.1582 164 35.971C164 33.9259 163.572 32.0415 162.723 30.3665L162.719 30.3628ZM153.711 44.3049C152.688 44.4021 151.706 44.26 150.721 43.8712C149.743 43.486 148.913 42.8617 148.174 41.9681C147.485 41.1306 147.147 40.0763 147.147 38.7378V27.3231C148.625 27.4428 149.952 27.7419 151.111 28.2242C152.567 28.8299 153.802 29.615 154.776 30.546C155.75 31.4807 156.512 32.5463 157.042 33.7203C157.577 34.9017 157.883 36.1056 157.956 37.2946C158.028 38.476 157.88 39.6276 157.516 40.7156C157.156 41.7886 156.61 42.6785 155.845 43.4337C155.344 43.9272 154.643 44.2114 153.707 44.3011L153.711 44.3049ZM148.038 21.7C147.723 21.9467 147.428 22.1748 147.151 22.3916V10.2106H147.443C148.667 10.2106 149.796 10.2816 150.808 10.42C151.771 10.5508 152.601 10.7602 153.279 11.0443C153.87 11.2911 154.325 11.6126 154.628 11.994C154.897 12.3305 155.026 12.7605 155.026 13.3175C155.026 13.983 154.693 14.7869 154.029 15.7066C153.268 16.7647 152.347 17.8191 151.301 18.8398C150.228 19.8792 149.133 20.8438 148.038 21.7037V21.7Z" fill="white"/>
</g>
<defs>
<clipPath id="clip0_306_23822">
<rect width="164" height="56" fill="white"/>
</clipPath>
</defs>
</svg>
