<svg width="253" height="34" viewBox="0 0 253 34" fill="none" xmlns="http://www.w3.org/2000/svg">
<g clip-path="url(#clip0_799_26294)">
<path d="M24.3986 4.96552C24.8831 5.23358 25.1733 5.66396 25.2668 6.25174C25.3135 6.54685 25.3159 6.83705 25.2766 7.12479L24.92 10.1916C24.8585 10.7621 24.679 11.19 24.3789 11.4753C24.0789 11.7606 23.6559 11.945 23.1075 12.0336C22.5812 12.1172 22.1434 12.0729 21.7917 11.9032C21.4401 11.7311 21.1523 11.4065 20.9236 10.9244L20.1342 9.20537C19.9989 8.90288 19.8612 8.70859 19.7185 8.62497C19.5759 8.5389 19.3029 8.52906 18.9045 8.593L15.7468 9.09224L14.9696 15.6242L15.5697 15.5283C15.8648 15.4815 16.1156 15.3979 16.3222 15.2799C16.5288 15.1618 16.7428 14.9651 16.9567 14.6946L17.8052 13.7182C18.1126 13.3469 18.3979 13.069 18.661 12.887C18.9242 12.705 19.2119 12.5894 19.5292 12.5402C19.9276 12.4763 20.2793 12.5402 20.5793 12.7296C20.8793 12.9189 21.0613 13.2263 21.1302 13.6469C21.1572 13.8166 21.1572 14.0207 21.1302 14.2617L20.5006 19.2812C20.3481 20.3633 19.8612 20.9683 19.0398 21.0986C18.3659 21.2044 17.7855 20.9412 17.2961 20.3067L16.5583 19.323C16.364 19.0525 16.1968 18.8828 16.0566 18.8188C15.9164 18.7549 15.7197 18.7426 15.4688 18.7819L14.554 18.927L13.9736 23.8432C13.9515 23.976 13.9564 24.1482 13.9908 24.3597C14.0375 24.6548 14.1433 24.886 14.3105 25.0532C14.4777 25.2204 14.7138 25.3877 15.0213 25.5549C15.2819 25.7074 15.4639 25.8352 15.5672 25.9385C15.6705 26.0418 15.7345 26.1771 15.7615 26.3443C15.8205 26.7231 15.6951 27.0133 15.3803 27.2149C15.0655 27.4166 14.5835 27.5666 13.9318 27.6699L6.00541 28.9241C5.45699 29.0102 5.03153 28.9758 4.72657 28.8184C4.42162 28.661 4.28389 28.3979 4.31095 28.0265C4.32324 27.8297 4.37735 27.665 4.47572 27.5322C4.57409 27.3994 4.72657 27.2395 4.93315 27.0551C5.25778 26.7895 5.50617 26.5214 5.68078 26.2558C5.8554 25.9902 5.96606 25.6065 6.01525 25.1024L7.74415 10.8777C7.78596 10.59 7.78596 10.3317 7.75153 10.1006C7.71218 9.84725 7.64086 9.64313 7.54002 9.48573C7.43919 9.32834 7.30147 9.16848 7.1244 9.00125C6.89077 8.75778 6.76288 8.55119 6.73583 8.38396C6.72599 8.32002 6.72845 8.20197 6.74321 8.02736C6.78502 7.73962 6.94241 7.51582 7.22031 7.35351C7.49576 7.19119 7.91876 7.06577 8.48686 6.97478L22.5074 4.75402C23.287 4.63105 23.919 4.70237 24.4035 4.97289L24.3986 4.96552Z" fill="#FAD6B3"/>
<path d="M5.4616 33.2694C4.47295 33.2694 3.56793 33.0604 2.75635 32.6423C0.916788 31.6979 -0.133339 29.8141 0.01422 27.7237C0.0830808 26.7277 0.417547 25.7882 0.985649 25.0061C1.21682 24.6889 1.48243 24.3889 1.80214 24.0839L3.36872 11.1946C2.89899 10.5233 2.60142 9.80759 2.48337 9.05996C2.39483 8.49924 2.42189 8.00984 2.45386 7.6434L2.47845 7.42206C2.70225 5.84318 3.63433 4.46597 5.03368 3.6421C5.78869 3.19942 6.69617 2.89938 7.81024 2.72231L21.8283 0.496635C23.572 0.221192 25.1361 0.457286 26.4789 1.19754H26.4838C28.1365 2.11486 29.2136 3.67161 29.5161 5.57758C29.6268 6.27356 29.6342 6.97447 29.5456 7.66307L29.1964 10.6708C28.9775 12.6653 28.0676 13.9073 27.3421 14.5959C26.747 15.1591 26.051 15.5944 25.2615 15.8944L24.7623 19.876C24.2827 23.2699 22.0005 24.8906 19.9396 25.3037C19.9666 25.4218 19.9912 25.5423 20.0109 25.6652C20.338 27.7311 19.4526 29.7133 17.6991 30.8347C16.8753 31.3635 15.862 31.7176 14.6053 31.9168L6.67896 33.1711C6.26333 33.2375 5.85755 33.2694 5.46652 33.2694H5.4616Z" fill="#3F1615"/>
<path d="M45.4231 14.0748C44.6042 14.906 43.5049 15.5184 42.1203 15.9094C43.1434 15.8332 43.9476 16.0078 44.5329 16.4333C45.1182 16.8587 45.4748 17.4809 45.6051 18.3023C45.6543 18.6171 45.6642 19.0155 45.6322 19.4951L45.5289 21.0986C45.5191 21.315 45.5215 21.4675 45.5363 21.5511C45.5805 21.8241 45.674 22.0208 45.824 22.1364C45.9716 22.2544 46.1609 22.2938 46.3921 22.2569C46.8348 22.188 47.1643 22.2003 47.3857 22.2938C47.6045 22.3897 47.7103 22.6086 47.7005 22.9554C47.6931 23.4521 47.516 23.9661 47.1668 24.4973C46.82 25.0286 46.2864 25.5057 45.5658 25.9336C44.8452 26.359 43.9377 26.6615 42.8433 26.8337C41.4538 27.0526 40.3004 26.9173 39.3806 26.4279C38.4608 25.936 37.9099 25.1122 37.7255 23.9538C37.6542 23.5112 37.6443 23.0291 37.6886 22.5028L37.873 20.4026C37.9149 20.1148 37.9099 19.8246 37.8632 19.5295C37.787 19.045 37.5681 18.7229 37.209 18.5655C36.85 18.4081 36.3114 18.3835 35.5957 18.4966L34.3956 18.686L33.7734 24.158C33.7512 24.2908 33.7562 24.4531 33.7857 24.6424C33.8324 24.9376 33.9455 25.1786 34.1275 25.3655C34.307 25.5524 34.5431 25.7418 34.8333 25.9336C35.0473 26.0516 35.2145 26.1697 35.3424 26.2902C35.4703 26.4107 35.5441 26.5435 35.5687 26.691C35.6252 27.0501 35.4974 27.328 35.1826 27.5297C34.8678 27.7313 34.3857 27.8814 33.734 27.9846L25.8077 29.2389C25.2592 29.325 24.8338 29.2905 24.5288 29.1331C24.2239 28.9758 24.0861 28.7126 24.1132 28.3412C24.1255 28.1445 24.1796 27.9797 24.278 27.8469C24.3763 27.7141 24.5288 27.5543 24.7354 27.3698C25.06 27.1042 25.3084 26.8361 25.483 26.5705C25.6576 26.3049 25.7683 25.9213 25.8175 25.4171L27.5144 11.1974C27.5562 10.9096 27.5562 10.6416 27.5144 10.3883C27.4775 10.1571 27.4111 9.96772 27.3103 9.82262C27.2119 9.67752 27.0816 9.50783 26.9217 9.31846C26.6881 9.07499 26.5602 8.86841 26.5332 8.70118C26.5233 8.63723 26.5258 8.51919 26.5405 8.34458C26.5823 8.05684 26.7348 7.83304 27.0004 7.67318C27.266 7.51333 27.694 7.38544 28.2842 7.29199L38.8617 5.6172C40.3151 5.38602 41.6186 5.40816 42.772 5.67868C43.9254 5.94921 44.8526 6.42385 45.5535 7.10016C46.2544 7.77647 46.6823 8.60034 46.8348 9.56685C46.9061 10.0095 46.911 10.462 46.8545 10.9244C46.7118 12.1983 46.2298 13.2509 45.4133 14.0822L45.4231 14.0748ZM38.7141 10.7522C38.5371 9.63572 37.8386 9.17582 36.6163 9.36765L35.2908 9.57669L34.7866 15.3856L36.1122 15.1765C36.9336 15.0462 37.5484 14.7437 37.9591 14.2691C38.3698 13.7944 38.6256 12.9976 38.7289 11.8811C38.7584 11.3794 38.751 11.0031 38.7117 10.7498L38.7141 10.7522Z" fill="#FAD6B3"/>
<path d="M25.2741 33.5894C24.2855 33.5894 23.3805 33.3803 22.5689 32.9622C20.7318 32.0179 19.6792 30.1365 19.8243 28.0485C19.8907 27.0501 20.2276 26.1106 20.7957 25.3236C21.0269 25.0088 21.2925 24.7063 21.6098 24.4014L21.9295 21.7183L22.2172 23.334L22.4951 16.989L23.1542 11.4728C22.6992 10.8112 22.4091 10.1103 22.2935 9.37251C22.2049 8.81179 22.232 8.32239 22.264 7.95595L22.2885 7.73461C22.5099 6.17787 23.4174 4.81049 24.7823 3.98416C25.5521 3.51935 26.4522 3.21931 27.6203 3.03487L38.1978 1.36007C40.1948 1.04282 42.0688 1.08463 43.7633 1.48058C45.6791 1.92817 47.2899 2.77418 48.554 3.994C49.9214 5.31465 50.7994 7.00666 51.0969 8.88557C51.2273 9.7119 51.242 10.5628 51.1412 11.4137C50.9469 13.118 50.3567 14.6773 49.4172 15.9905C49.6189 16.5021 49.7664 17.0505 49.8599 17.626C49.9189 17.9998 49.9509 18.3957 49.9583 18.8187C51.2838 19.7484 52.0487 21.2879 52.0093 23.0414C51.9847 24.3596 51.5667 25.6409 50.7698 26.8558C50.0616 27.9354 49.0508 28.8699 47.7646 29.6299C46.5767 30.3332 45.1503 30.8202 43.5223 31.0784C41.5573 31.3883 39.7767 31.2333 38.2126 30.6136C37.9962 30.8079 37.7625 30.9874 37.5092 31.1497C36.6854 31.6785 35.6721 32.0326 34.4154 32.2318L26.4891 33.4861C26.0734 33.5525 25.6676 33.5845 25.2766 33.5845L25.2741 33.5894Z" fill="#3F1615"/>
<path d="M60.6562 5.26299C60.9194 5.36137 61.0719 5.53598 61.1112 5.78929C61.1284 5.89504 61.1186 6.03768 61.0817 6.21475C61.0424 6.37214 60.9735 6.51724 60.8751 6.65251C60.7767 6.78777 60.6858 6.8886 60.5997 6.955C60.5136 7.02386 60.4521 7.08043 60.4177 7.12961C60.1103 7.37308 59.8693 7.62639 59.6971 7.892C59.5225 8.15761 59.3995 8.54372 59.3307 9.05034L57.6657 23.2652C57.6239 23.5529 57.6239 23.821 57.6657 24.0743C57.7051 24.3276 57.7764 24.5317 57.8772 24.6891C57.9781 24.8465 58.1158 25.0064 58.2928 25.1736C58.5265 25.4171 58.6544 25.6236 58.6814 25.7909C58.6888 25.8327 58.6814 25.9409 58.6691 26.1155C58.6322 26.4229 58.4748 26.659 58.1969 26.8213C57.9215 26.9836 57.4886 27.1115 56.8984 27.205L49.4787 28.3805C49.036 28.4494 48.6818 28.4322 48.4162 28.3215C48.1506 28.2133 47.9982 28.0313 47.9588 27.778C47.9391 27.6526 47.949 27.5099 47.9883 27.3525C48.0351 27.1066 48.1433 26.9074 48.313 26.75C48.4826 26.5926 48.5859 26.5016 48.6253 26.4746C48.9278 26.2114 49.1688 25.9507 49.3434 25.6974C49.518 25.4441 49.641 25.0506 49.7074 24.5219L51.4043 10.3021C51.4461 10.0144 51.4461 9.74632 51.4043 9.49301C51.3674 9.26184 51.301 9.07247 51.2002 8.92737C51.1018 8.78227 50.9715 8.61258 50.8116 8.42321C50.578 8.17974 50.4501 7.97316 50.423 7.80592C50.4132 7.74198 50.4157 7.62394 50.4304 7.44932C50.4722 7.16158 50.6247 6.93779 50.8903 6.77793C51.1559 6.61808 51.5838 6.49019 52.1741 6.39674L59.5938 5.22119C60.0365 5.15233 60.3882 5.16462 60.6538 5.26299H60.6562Z" fill="#FAD6B3"/>
<path d="M49.0014 32.726C48.207 32.726 47.4643 32.5858 46.7806 32.303C45.1329 31.6266 43.9819 30.1879 43.7065 28.4541C43.6007 27.7827 43.6278 27.0991 43.7876 26.4129C44.0262 25.3136 44.5795 24.3397 45.396 23.5872C45.4304 23.5552 45.4649 23.5257 45.4968 23.4962L47.0388 10.5823C46.5814 9.92075 46.2937 9.21493 46.1781 8.47713C46.0895 7.92871 46.1166 7.43192 46.151 7.06057L46.1756 6.84415C46.397 5.2874 47.3044 3.92003 48.6644 3.09616C49.4367 2.62889 50.3368 2.32885 51.5049 2.1444L58.9247 0.968851C60.1052 0.781943 61.1922 0.870478 62.1587 1.22954H62.1685C63.8876 1.87634 65.0804 3.32979 65.3632 5.11771C65.4615 5.73992 65.4419 6.3818 65.2992 7.07778L65.255 7.26961C65.0804 7.96068 64.7779 8.60256 64.3573 9.18296C64.136 9.48791 63.9048 9.75598 63.6539 9.99453L63.5334 10.1519L62.0333 22.9625C62.5104 23.6388 62.8104 24.3594 62.9309 25.1168C63.017 25.6554 62.9875 26.1104 62.953 26.4941L62.9383 26.6392C62.7391 28.2771 61.8021 29.6961 60.3732 30.5347C59.6158 30.9798 58.723 31.275 57.5696 31.457L50.1499 32.6325C49.7564 32.694 49.3727 32.726 48.9989 32.726H49.0014ZM51.1926 29.9322L51.141 29.9691C51.1557 29.9592 51.1705 29.9469 51.1926 29.9322Z" fill="#3F1615"/>
<path d="M80.7363 5.06124C81.2208 5.3293 81.511 5.75968 81.6044 6.34746C81.6511 6.64258 81.6536 6.93277 81.6142 7.22051L81.2576 10.2873C81.2011 10.88 81.0461 11.3079 80.7978 11.5735C80.5494 11.8391 80.1608 12.0137 79.6345 12.0973C79.1303 12.1785 78.7172 12.1293 78.3975 11.9522C78.0778 11.7752 77.8048 11.4481 77.5785 10.966L76.7891 9.24699C76.6243 8.88547 76.4571 8.65183 76.2898 8.54854C76.1226 8.44525 75.8275 8.42804 75.4069 8.49444L72.0918 9.02073L71.4032 14.8911L72.7927 14.6722C72.9402 14.6501 73.1222 14.5124 73.3436 14.2615L74.2658 13.145C74.5388 12.8228 74.7798 12.5769 74.9913 12.4146C75.2028 12.2523 75.4758 12.1441 75.8127 12.09C76.1915 12.0309 76.5186 12.0801 76.7915 12.2424C77.0645 12.4047 77.2268 12.6433 77.276 12.9581C77.2883 13.0417 77.2883 13.1721 77.2736 13.3467L76.6735 17.9407C76.6194 18.4251 76.4595 18.8014 76.189 19.0695C75.9185 19.34 75.6037 19.5023 75.2471 19.5589C74.6569 19.6523 74.1674 19.4162 73.7764 18.8531L73.0657 17.8324C72.8689 17.5398 72.6107 17.4193 72.2959 17.4685L71.0638 17.6628L70.2621 24.6521L73.0411 24.2119C73.4395 24.148 73.7813 24.0127 74.0617 23.8086C74.3421 23.602 74.6298 23.27 74.9225 22.815L76.4866 20.4319C76.7669 20.0212 77.0473 19.7114 77.3277 19.5048C77.608 19.2982 77.9695 19.1605 78.4122 19.0916C78.8746 19.0178 79.2705 19.0646 79.6001 19.2269C79.9272 19.3917 80.1264 19.6843 80.1928 20.1049C80.2198 20.2745 80.2198 20.4787 80.1928 20.7197L79.7821 24.0545C79.6763 24.8907 79.4279 25.503 79.0369 25.8892C78.6459 26.2753 78.0286 26.5335 77.185 26.6688L62.1217 29.0543C61.6791 29.1232 61.3249 29.1059 61.0593 28.9953C60.7937 28.8871 60.6412 28.7051 60.6019 28.4518C60.5822 28.3263 60.592 28.1837 60.6314 28.0263C60.6781 27.7804 60.7863 27.5812 60.956 27.4238C61.1257 27.2664 61.229 27.1754 61.2684 27.1483C61.5708 26.8852 61.8119 26.6245 61.9865 26.3712C62.1611 26.1179 62.284 25.7244 62.3505 25.1956L64.0793 10.971C64.1212 10.6832 64.1212 10.425 64.0867 10.1938C64.0474 9.94051 63.9761 9.73639 63.8752 9.579C63.7744 9.4216 63.6367 9.26174 63.4596 9.09451C63.226 8.85104 63.0981 8.64446 63.071 8.47722C63.0612 8.41328 63.0636 8.29523 63.0784 8.12062C63.1202 7.83288 63.2776 7.60909 63.5531 7.44677C63.8285 7.28446 64.2515 7.15903 64.8196 7.06804L78.8401 4.84728C79.6197 4.72431 80.2518 4.79563 80.7363 5.06616V5.06124Z" fill="#FAD6B3"/>
<path d="M61.6425 33.3927C60.8481 33.3927 60.1054 33.2525 59.4217 32.9697C57.774 32.2934 56.623 30.8547 56.3476 29.1208C56.2418 28.4495 56.2689 27.7658 56.4287 27.0796C56.6673 25.9803 57.2206 25.0064 58.0371 24.2539C58.0716 24.2219 58.106 24.1899 58.138 24.1604L59.7021 11.2834C59.2324 10.6121 58.9348 9.89394 58.8143 9.14139C58.7257 8.59296 58.7528 8.09618 58.7872 7.72482L58.8118 7.5084C59.0356 5.92952 59.9677 4.55231 61.367 3.72844C62.1245 3.28576 63.0295 2.98573 64.1436 2.80865L78.1641 0.587895C79.9078 0.312452 81.4744 0.548546 82.8147 1.29126H82.8172C84.4698 2.20858 85.547 3.76287 85.8495 5.67129C85.9602 6.36482 85.97 7.06573 85.879 7.75433L85.5322 10.7473C85.3749 12.2844 84.8363 13.5509 83.9337 14.515C83.4418 15.0413 82.859 15.4618 82.195 15.7766C83.3951 16.6177 84.1968 17.9088 84.4354 19.4287C84.5239 19.9796 84.5313 20.5551 84.4624 21.1871L84.4551 21.2412L84.0444 24.576C83.8156 26.4033 83.1418 27.8715 82.0449 28.9512C81.0022 29.9767 79.5905 30.6358 77.8493 30.9137L62.7861 33.2992C62.3926 33.3607 62.0089 33.3927 61.6351 33.3927H61.6425ZM63.8362 30.5989L63.7845 30.6358C63.7993 30.6259 63.8141 30.6136 63.8362 30.5989Z" fill="#3F1615"/>
<path d="M101.845 6.64995C103.635 7.60662 104.717 9.25436 105.089 11.5907C105.273 12.749 105.273 14.1189 105.091 15.7002C104.784 18.253 104.154 20.3385 103.2 21.9567C102.248 23.5749 100.861 24.8636 99.0362 25.8203C97.2139 26.7794 94.7939 27.4853 91.7812 27.9402L83.1859 29.2683C82.7433 29.3371 82.3891 29.3199 82.1235 29.2092C81.8579 29.101 81.7054 28.919 81.6661 28.6657C81.6464 28.5403 81.6562 28.3977 81.6956 28.2403C81.7276 28.0411 81.7964 27.891 81.8997 27.7877C82.003 27.6845 82.1579 27.5418 82.3645 27.3574C82.6719 27.1139 82.9056 26.863 83.0704 26.5974C83.2327 26.3343 83.3483 25.9383 83.4171 25.4096L85.119 11.2218C85.1608 10.9341 85.1608 10.666 85.119 10.4127C85.0821 10.1815 85.0157 9.99216 84.9148 9.84706C84.8165 9.70196 84.6861 9.53227 84.5263 9.3429C84.2926 9.09943 84.1647 8.89284 84.1377 8.72561C84.1279 8.66167 84.1303 8.54362 84.1451 8.36901C84.1869 8.08127 84.3394 7.85747 84.605 7.69762C84.8706 7.53776 85.2985 7.40988 85.8887 7.31642L94.4152 5.96626C97.5729 5.46702 100.047 5.69574 101.84 6.65241L101.845 6.64995ZM96.9778 11.485C96.8007 10.3684 96.4466 9.63802 95.9178 9.28879C95.389 8.94203 94.6906 8.83628 93.8274 8.97154L93.1314 9.08221L91.2992 25.1046L92.0567 24.9841C93.0257 24.8317 93.8077 24.4972 94.4053 23.9807C95.0029 23.4643 95.4997 22.6109 95.8932 21.4157C96.2867 20.2204 96.6212 18.5112 96.8941 16.288C97.1278 14.2222 97.1548 12.6212 96.9753 11.485H96.9778Z" fill="#FAD6B3"/>
<path d="M82.7138 33.6138C81.9219 33.6138 81.1767 33.4737 80.4906 33.1908C78.8428 32.5145 77.6919 31.0758 77.4164 29.342C77.3131 28.6903 77.3353 28.0238 77.4853 27.3549C77.6869 26.3466 78.1567 25.4514 78.8502 24.7529C78.9559 24.6472 79.0715 24.539 79.2043 24.416L80.7537 11.4997C80.2987 10.8381 80.0085 10.1323 79.8929 9.39452C79.8044 8.84609 79.8315 8.34931 79.8659 7.97795L79.8905 7.76154C80.1118 6.20479 81.0193 4.83741 82.3793 4.01354C83.1515 3.54627 84.0516 3.24624 85.2198 3.06179L93.7462 1.71163C97.8926 1.05499 101.205 1.42881 103.871 2.85275C105.959 3.96928 108.6 6.27365 109.336 10.9168C109.582 12.4736 109.592 14.2 109.365 16.1896V16.2167C108.984 19.3474 108.158 22.0133 106.908 24.1381C105.546 26.4523 103.571 28.2993 101.038 29.6297C98.7682 30.8225 95.9523 31.6611 92.4256 32.1948L83.845 33.5204C83.4589 33.5819 83.0802 33.6114 82.7113 33.6114L82.7138 33.6138Z" fill="#3F1615"/>
<path d="M24.3986 4.96552C24.8831 5.23358 25.1733 5.66396 25.2668 6.25174C25.3135 6.54685 25.3159 6.83705 25.2766 7.12479L24.92 10.1916C24.8585 10.7621 24.679 11.19 24.3789 11.4753C24.0789 11.7606 23.6559 11.945 23.1075 12.0336C22.5812 12.1172 22.1434 12.0729 21.7917 11.9032C21.4401 11.7311 21.1523 11.4065 20.9236 10.9244L20.1342 9.20537C19.9989 8.90288 19.8612 8.70859 19.7185 8.62497C19.5759 8.5389 19.3029 8.52906 18.9045 8.593L15.7468 9.09224L14.9696 15.6242L15.5697 15.5283C15.8648 15.4815 16.1156 15.3979 16.3222 15.2799C16.5288 15.1618 16.7428 14.9651 16.9567 14.6946L17.8052 13.7182C18.1126 13.3469 18.3979 13.069 18.661 12.887C18.9242 12.705 19.2119 12.5894 19.5292 12.5402C19.9276 12.4763 20.2793 12.5402 20.5793 12.7296C20.8793 12.9189 21.0613 13.2263 21.1302 13.6469C21.1572 13.8166 21.1572 14.0207 21.1302 14.2617L20.5006 19.2812C20.3481 20.3633 19.8612 20.9683 19.0398 21.0986C18.3659 21.2044 17.7855 20.9412 17.2961 20.3067L16.5583 19.323C16.364 19.0525 16.1968 18.8828 16.0566 18.8188C15.9164 18.7549 15.7197 18.7426 15.4688 18.7819L14.554 18.927L13.9736 23.8432C13.9515 23.976 13.9564 24.1482 13.9908 24.3597C14.0375 24.6548 14.1433 24.886 14.3105 25.0532C14.4777 25.2204 14.7138 25.3877 15.0213 25.5549C15.2819 25.7074 15.4639 25.8352 15.5672 25.9385C15.6705 26.0418 15.7345 26.1771 15.7615 26.3443C15.8205 26.7231 15.6951 27.0133 15.3803 27.2149C15.0655 27.4166 14.5835 27.5666 13.9318 27.6699L6.00541 28.9241C5.45699 29.0102 5.03153 28.9758 4.72657 28.8184C4.42162 28.661 4.28389 28.3979 4.31095 28.0265C4.32324 27.8297 4.37735 27.665 4.47572 27.5322C4.57409 27.3994 4.72657 27.2395 4.93315 27.0551C5.25778 26.7895 5.50617 26.5214 5.68078 26.2558C5.8554 25.9902 5.96606 25.6065 6.01525 25.1024L7.74415 10.8777C7.78596 10.59 7.78596 10.3317 7.75153 10.1006C7.71218 9.84725 7.64086 9.64313 7.54002 9.48573C7.43919 9.32834 7.30147 9.16848 7.1244 9.00125C6.89077 8.75778 6.76288 8.55119 6.73583 8.38396C6.72599 8.32002 6.72845 8.20197 6.74321 8.02736C6.78502 7.73962 6.94241 7.51582 7.22031 7.35351C7.49576 7.19119 7.91876 7.06577 8.48686 6.97478L22.5074 4.75402C23.287 4.63105 23.919 4.70237 24.4035 4.97289L24.3986 4.96552Z" fill="#FAD6B3"/>
<path d="M45.4231 14.0748C44.6042 14.906 43.5049 15.5184 42.1203 15.9094C43.1434 15.8332 43.9476 16.0078 44.5329 16.4333C45.1182 16.8587 45.4748 17.4809 45.6051 18.3023C45.6543 18.6171 45.6642 19.0155 45.6322 19.4951L45.5289 21.0986C45.5191 21.315 45.5215 21.4675 45.5363 21.5511C45.5805 21.8241 45.674 22.0208 45.824 22.1364C45.9716 22.2544 46.1609 22.2938 46.3921 22.2569C46.8348 22.188 47.1643 22.2003 47.3857 22.2938C47.6045 22.3897 47.7103 22.6086 47.7005 22.9554C47.6931 23.4521 47.516 23.9661 47.1668 24.4973C46.82 25.0286 46.2864 25.5057 45.5658 25.9336C44.8452 26.359 43.9377 26.6615 42.8433 26.8337C41.4538 27.0526 40.3004 26.9173 39.3806 26.4279C38.4608 25.936 37.9099 25.1122 37.7255 23.9538C37.6542 23.5112 37.6443 23.0291 37.6886 22.5028L37.873 20.4026C37.9149 20.1148 37.9099 19.8246 37.8632 19.5295C37.787 19.045 37.5681 18.7229 37.209 18.5655C36.85 18.4081 36.3114 18.3835 35.5957 18.4966L34.3956 18.686L33.7734 24.158C33.7512 24.2908 33.7562 24.4531 33.7857 24.6424C33.8324 24.9376 33.9455 25.1786 34.1275 25.3655C34.307 25.5524 34.5431 25.7418 34.8333 25.9336C35.0473 26.0516 35.2145 26.1697 35.3424 26.2902C35.4703 26.4107 35.5441 26.5435 35.5687 26.691C35.6252 27.0501 35.4974 27.328 35.1826 27.5297C34.8678 27.7313 34.3857 27.8814 33.734 27.9846L25.8077 29.2389C25.2592 29.325 24.8338 29.2905 24.5288 29.1331C24.2239 28.9758 24.0861 28.7126 24.1132 28.3412C24.1255 28.1445 24.1796 27.9797 24.278 27.8469C24.3763 27.7141 24.5288 27.5543 24.7354 27.3698C25.06 27.1042 25.3084 26.8361 25.483 26.5705C25.6576 26.3049 25.7683 25.9213 25.8175 25.4171L27.5144 11.1974C27.5562 10.9096 27.5562 10.6416 27.5144 10.3883C27.4775 10.1571 27.4111 9.96772 27.3103 9.82262C27.2119 9.67752 27.0816 9.50783 26.9217 9.31846C26.6881 9.07499 26.5602 8.86841 26.5332 8.70118C26.5233 8.63723 26.5258 8.51919 26.5405 8.34458C26.5823 8.05684 26.7348 7.83304 27.0004 7.67318C27.266 7.51333 27.694 7.38544 28.2842 7.29199L38.8617 5.6172C40.3151 5.38602 41.6186 5.40816 42.772 5.67868C43.9254 5.94921 44.8526 6.42385 45.5535 7.10016C46.2544 7.77647 46.6823 8.60034 46.8348 9.56685C46.9061 10.0095 46.911 10.462 46.8545 10.9244C46.7118 12.1983 46.2298 13.2509 45.4133 14.0822L45.4231 14.0748ZM38.7141 10.7522C38.5371 9.63572 37.8386 9.17582 36.6163 9.36765L35.2908 9.57669L34.7866 15.3856L36.1122 15.1765C36.9336 15.0462 37.5484 14.7437 37.9591 14.2691C38.3698 13.7944 38.6256 12.9976 38.7289 11.8811C38.7584 11.3794 38.751 11.0031 38.7117 10.7498L38.7141 10.7522Z" fill="#FAD6B3"/>
<path d="M60.6562 5.26299C60.9194 5.36137 61.0719 5.53598 61.1112 5.78929C61.1284 5.89504 61.1186 6.03768 61.0817 6.21475C61.0424 6.37214 60.9735 6.51724 60.8751 6.65251C60.7767 6.78777 60.6858 6.8886 60.5997 6.955C60.5136 7.02386 60.4521 7.08043 60.4177 7.12961C60.1103 7.37308 59.8693 7.62639 59.6971 7.892C59.5225 8.15761 59.3995 8.54372 59.3307 9.05034L57.6657 23.2652C57.6239 23.5529 57.6239 23.821 57.6657 24.0743C57.7051 24.3276 57.7764 24.5317 57.8772 24.6891C57.9781 24.8465 58.1158 25.0064 58.2928 25.1736C58.5265 25.4171 58.6544 25.6236 58.6814 25.7909C58.6888 25.8327 58.6814 25.9409 58.6691 26.1155C58.6322 26.4229 58.4748 26.659 58.1969 26.8213C57.9215 26.9836 57.4886 27.1115 56.8984 27.205L49.4787 28.3805C49.036 28.4494 48.6818 28.4322 48.4162 28.3215C48.1506 28.2133 47.9982 28.0313 47.9588 27.778C47.9391 27.6526 47.949 27.5099 47.9883 27.3525C48.0351 27.1066 48.1433 26.9074 48.313 26.75C48.4826 26.5926 48.5859 26.5016 48.6253 26.4746C48.9278 26.2114 49.1688 25.9507 49.3434 25.6974C49.518 25.4441 49.641 25.0506 49.7074 24.5219L51.4043 10.3021C51.4461 10.0144 51.4461 9.74632 51.4043 9.49301C51.3674 9.26184 51.301 9.07247 51.2002 8.92737C51.1018 8.78227 50.9715 8.61258 50.8116 8.42321C50.578 8.17974 50.4501 7.97316 50.423 7.80592C50.4132 7.74198 50.4157 7.62394 50.4304 7.44932C50.4722 7.16158 50.6247 6.93779 50.8903 6.77793C51.1559 6.61808 51.5838 6.49019 52.1741 6.39674L59.5938 5.22119C60.0365 5.15233 60.3882 5.16462 60.6538 5.26299H60.6562Z" fill="#FAD6B3"/>
<path d="M80.7363 5.06124C81.2208 5.3293 81.511 5.75968 81.6044 6.34746C81.6511 6.64258 81.6536 6.93277 81.6142 7.22051L81.2576 10.2873C81.2011 10.88 81.0461 11.3079 80.7978 11.5735C80.5494 11.8391 80.1608 12.0137 79.6345 12.0973C79.1303 12.1785 78.7172 12.1293 78.3975 11.9522C78.0778 11.7752 77.8048 11.4481 77.5785 10.966L76.7891 9.24699C76.6243 8.88547 76.4571 8.65183 76.2898 8.54854C76.1226 8.44525 75.8275 8.42804 75.4069 8.49444L72.0918 9.02073L71.4032 14.8911L72.7927 14.6722C72.9402 14.6501 73.1222 14.5124 73.3436 14.2615L74.2658 13.145C74.5388 12.8228 74.7798 12.5769 74.9913 12.4146C75.2028 12.2523 75.4758 12.1441 75.8127 12.09C76.1915 12.0309 76.5186 12.0801 76.7915 12.2424C77.0645 12.4047 77.2268 12.6433 77.276 12.9581C77.2883 13.0417 77.2883 13.1721 77.2736 13.3467L76.6735 17.9407C76.6194 18.4251 76.4595 18.8014 76.189 19.0695C75.9185 19.34 75.6037 19.5023 75.2471 19.5589C74.6569 19.6523 74.1674 19.4162 73.7764 18.8531L73.0657 17.8324C72.8689 17.5398 72.6107 17.4193 72.2959 17.4685L71.0638 17.6628L70.2621 24.6521L73.0411 24.2119C73.4395 24.148 73.7813 24.0127 74.0617 23.8086C74.3421 23.602 74.6298 23.27 74.9225 22.815L76.4866 20.4319C76.7669 20.0212 77.0473 19.7114 77.3277 19.5048C77.608 19.2982 77.9695 19.1605 78.4122 19.0916C78.8746 19.0178 79.2705 19.0646 79.6001 19.2269C79.9272 19.3917 80.1264 19.6843 80.1928 20.1049C80.2198 20.2745 80.2198 20.4787 80.1928 20.7197L79.7821 24.0545C79.6763 24.8907 79.4279 25.503 79.0369 25.8892C78.6459 26.2753 78.0286 26.5335 77.185 26.6688L62.1217 29.0543C61.6791 29.1232 61.3249 29.1059 61.0593 28.9953C60.7937 28.8871 60.6412 28.7051 60.6019 28.4518C60.5822 28.3263 60.592 28.1837 60.6314 28.0263C60.6781 27.7804 60.7863 27.5812 60.956 27.4238C61.1257 27.2664 61.229 27.1754 61.2684 27.1483C61.5708 26.8852 61.8119 26.6245 61.9865 26.3712C62.1611 26.1179 62.284 25.7244 62.3505 25.1956L64.0793 10.971C64.1212 10.6832 64.1212 10.425 64.0867 10.1938C64.0474 9.94051 63.9761 9.73639 63.8752 9.579C63.7744 9.4216 63.6367 9.26174 63.4596 9.09451C63.226 8.85104 63.0981 8.64446 63.071 8.47722C63.0612 8.41328 63.0636 8.29523 63.0784 8.12062C63.1202 7.83288 63.2776 7.60909 63.5531 7.44677C63.8285 7.28446 64.2515 7.15903 64.8196 7.06804L78.8401 4.84728C79.6197 4.72431 80.2518 4.79563 80.7363 5.06616V5.06124Z" fill="#FAD6B3"/>
<path d="M101.845 6.64995C103.635 7.60662 104.717 9.25436 105.089 11.5907C105.273 12.749 105.273 14.1189 105.091 15.7002C104.784 18.253 104.154 20.3385 103.2 21.9567C102.248 23.5749 100.861 24.8636 99.0362 25.8203C97.2139 26.7794 94.7939 27.4853 91.7812 27.9402L83.1859 29.2683C82.7433 29.3371 82.3891 29.3199 82.1235 29.2092C81.8579 29.101 81.7054 28.919 81.6661 28.6657C81.6464 28.5403 81.6562 28.3977 81.6956 28.2403C81.7276 28.0411 81.7964 27.891 81.8997 27.7877C82.003 27.6845 82.1579 27.5418 82.3645 27.3574C82.6719 27.1139 82.9056 26.863 83.0704 26.5974C83.2327 26.3343 83.3483 25.9383 83.4171 25.4096L85.119 11.2218C85.1608 10.9341 85.1608 10.666 85.119 10.4127C85.0821 10.1815 85.0157 9.99216 84.9148 9.84706C84.8165 9.70196 84.6861 9.53227 84.5263 9.3429C84.2926 9.09943 84.1647 8.89284 84.1377 8.72561C84.1279 8.66167 84.1303 8.54362 84.1451 8.36901C84.1869 8.08127 84.3394 7.85747 84.605 7.69762C84.8706 7.53776 85.2985 7.40988 85.8887 7.31642L94.4152 5.96626C97.5729 5.46702 100.047 5.69574 101.84 6.65241L101.845 6.64995ZM96.9778 11.485C96.8007 10.3684 96.4466 9.63802 95.9178 9.28879C95.389 8.94203 94.6906 8.83628 93.8274 8.97154L93.1314 9.08221L91.2992 25.1046L92.0567 24.9841C93.0257 24.8317 93.8077 24.4972 94.4053 23.9807C95.0029 23.4643 95.4997 22.6109 95.8932 21.4157C96.2867 20.2204 96.6212 18.5112 96.8941 16.288C97.1278 14.2222 97.1548 12.6212 96.9753 11.485H96.9778Z" fill="#FAD6B3"/>
<path d="M115.002 27.616C113.487 27.1881 112.216 26.4011 111.18 25.26C110.147 24.1189 109.488 22.6433 109.2 20.8308C109.001 19.5667 109.004 18.1649 109.213 16.6204C109.68 13.3102 110.784 10.7992 112.518 9.09003C114.254 7.3808 116.237 6.34789 118.47 5.99375C119.67 5.80438 120.762 5.81422 121.743 6.02572C122.727 6.23722 123.661 6.61842 124.547 7.16684L125.294 6.36757C125.793 5.83636 126.224 5.45516 126.585 5.22399C126.947 4.99527 127.372 4.84033 127.857 4.7641C128.383 4.68048 128.823 4.72966 129.175 4.91165C129.527 5.09364 129.738 5.40598 129.81 5.84619C129.846 6.07737 129.841 6.31592 129.792 6.56185L128.804 11.7682C128.705 12.3658 128.54 12.8036 128.314 13.0766C128.088 13.3496 127.712 13.5291 127.185 13.6102C126.637 13.6963 126.16 13.5734 125.752 13.2389C125.343 12.9044 124.842 12.2994 124.249 11.4215C123.587 10.5115 123.073 9.92373 122.707 9.65813C122.341 9.39252 121.854 9.30891 121.241 9.40482C120.378 9.54254 119.63 10.2041 118.998 11.3944C118.366 12.5847 117.892 14.2939 117.577 16.5245C117.311 18.401 117.277 19.9381 117.466 21.1382C117.633 22.1908 117.958 22.9433 118.44 23.3958C118.922 23.8484 119.5 24.0205 120.174 23.9148C121.163 23.7574 121.945 23.4081 122.515 22.8646C123.088 22.3211 123.649 21.6178 124.205 20.7521C124.551 20.2233 124.839 19.8249 125.068 19.5642C125.297 19.3011 125.557 19.1462 125.852 19.0994C126.231 19.0404 126.662 19.1658 127.144 19.4782C127.626 19.7905 127.884 20.1373 127.923 20.5209C128.017 20.9808 127.758 21.7555 127.144 22.845C126.529 23.9344 125.604 24.9723 124.367 25.956C123.13 26.9397 121.65 27.5668 119.923 27.8423C118.155 28.1226 116.514 28.0489 115 27.6185L115.002 27.616Z" fill="#FAD6B3"/>
<path d="M117.892 32.308C116.485 32.308 115.125 32.1236 113.829 31.7571C111.532 31.1079 109.567 29.893 107.988 28.1468C106.389 26.3811 105.366 24.148 104.948 21.5042C104.683 19.8344 104.683 17.9973 104.948 16.0446V16.02C105.553 11.7678 107.083 8.40594 109.498 6.02533C111.879 3.67915 114.672 2.24045 117.796 1.74613C119.515 1.47314 121.145 1.50019 122.645 1.8199C122.973 1.89122 123.295 1.97238 123.614 2.0683C123.838 1.89122 124.062 1.73383 124.281 1.59611C125.144 1.05014 126.12 0.688621 127.185 0.518928C128.988 0.233648 130.333 0.671406 131.147 1.09195C132.716 1.90106 133.776 3.39141 134.062 5.17933C134.177 5.90482 134.162 6.64754 134.02 7.38533L133.043 12.5351C132.812 13.8853 132.35 14.9625 131.632 15.8306C131.383 16.1306 131.049 16.4651 130.611 16.7799C131.698 17.8768 132.065 19.0744 132.18 19.8663C132.495 21.7994 131.664 23.602 130.894 24.967C130.009 26.5385 128.713 28.0067 127.048 29.3298C125.23 30.7759 123.061 31.7079 120.599 32.0965C119.68 32.2416 118.777 32.3154 117.894 32.3154L117.892 32.308ZM122.095 15.6708C122.036 15.9585 121.977 16.2782 121.92 16.6323C122.099 16.4356 122.289 16.2512 122.488 16.0839C122.358 15.956 122.227 15.8183 122.095 15.6708ZM125.567 5.76218C125.567 5.76218 125.567 5.76956 125.567 5.77448V5.76218Z" fill="#3F1615"/>
<path d="M155.972 4.40238C156.238 4.51059 156.388 4.68274 156.424 4.91392C156.442 5.01967 156.432 5.16231 156.395 5.33938C156.356 5.49677 156.287 5.64187 156.188 5.77713C156.09 5.9124 155.999 6.01323 155.913 6.07963C155.827 6.14849 155.765 6.20506 155.731 6.25424C155.423 6.49771 155.182 6.75102 155.01 7.01663C154.836 7.28223 154.713 7.66835 154.644 8.17497L152.915 22.3996C152.873 22.6874 152.873 22.9554 152.915 23.2087C152.954 23.4621 153.023 23.6563 153.122 23.7916C153.217 23.9269 153.358 24.099 153.542 24.3081C153.567 24.3253 153.638 24.3966 153.754 24.5171C153.869 24.6401 153.941 24.7729 153.963 24.9204C153.97 24.9622 153.963 25.0704 153.95 25.2451C153.891 25.5574 153.724 25.7935 153.449 25.9558C153.173 26.1181 152.74 26.246 152.15 26.3394L144.73 27.515C144.288 27.5863 143.934 27.5666 143.668 27.456C143.402 27.3478 143.25 27.1658 143.211 26.9125C143.191 26.787 143.201 26.6444 143.24 26.487C143.297 26.305 143.39 26.1452 143.52 26.005C143.648 25.8673 143.781 25.7418 143.914 25.6361C144.221 25.3926 144.46 25.1344 144.632 24.8589C144.804 24.5835 144.925 24.1826 144.991 23.6539L145.672 18.1401L140.082 19.0255L139.401 24.5392C139.359 24.827 139.359 25.095 139.401 25.3483C139.44 25.6017 139.509 25.7959 139.608 25.9312C139.704 26.0665 139.844 26.2386 140.028 26.4477C140.053 26.4649 140.124 26.5362 140.24 26.6567C140.355 26.7797 140.427 26.9125 140.449 27.06C140.456 27.1018 140.449 27.21 140.436 27.3847C140.377 27.697 140.21 27.9331 139.935 28.0954C139.659 28.2577 139.226 28.3856 138.636 28.4791L131.216 29.6546C130.774 29.7235 130.42 29.7062 130.154 29.5956C129.888 29.4874 129.736 29.3054 129.697 29.0521C129.677 28.9266 129.687 28.784 129.726 28.6266C129.783 28.4446 129.876 28.2848 130.006 28.1446C130.137 28.0069 130.267 27.8814 130.4 27.7757C130.707 27.5322 130.946 27.274 131.118 26.9985C131.29 26.7231 131.411 26.3222 131.477 25.7935L133.206 11.5688C133.248 11.2811 133.248 11.013 133.206 10.7597C133.169 10.5285 133.103 10.3392 133.002 10.1941C132.904 10.049 132.773 9.87927 132.613 9.6899C132.513 9.59891 132.422 9.50053 132.34 9.39232C132.259 9.28657 132.208 9.17099 132.188 9.0431C132.181 9.00129 132.185 8.89308 132.2 8.71847C132.242 8.43073 132.399 8.20694 132.677 8.04462C132.953 7.88231 133.386 7.75442 133.976 7.66097L141.396 6.48542C141.838 6.41656 142.192 6.43623 142.458 6.54444C142.724 6.65265 142.874 6.8248 142.91 7.05598C142.928 7.16173 142.918 7.30437 142.881 7.48144C142.842 7.63883 142.773 7.78393 142.674 7.9192C142.576 8.05446 142.485 8.15529 142.399 8.22169C142.313 8.29055 142.251 8.34712 142.217 8.3963C141.91 8.63978 141.669 8.89308 141.496 9.15869C141.322 9.4243 141.199 9.81041 141.13 10.317L140.466 15.73L146.056 14.8446L146.72 9.43167C146.762 9.14393 146.762 8.87587 146.72 8.62256C146.683 8.39138 146.617 8.20202 146.516 8.05692C146.417 7.91182 146.287 7.74213 146.127 7.55276C146.026 7.46176 145.935 7.36339 145.854 7.25518C145.773 7.14943 145.721 7.03384 145.702 6.90596C145.694 6.86415 145.702 6.75594 145.714 6.58133C145.756 6.29359 145.913 6.06979 146.191 5.90748C146.467 5.74516 146.899 5.61728 147.49 5.52383L154.909 4.34827C155.352 4.27941 155.706 4.29909 155.972 4.4073V4.40238Z" fill="#FAD6B3"/>
<path d="M130.736 34C129.942 34 129.199 33.8599 128.516 33.577C126.868 32.9007 125.717 31.462 125.442 29.7282C125.328 29.0199 125.365 28.2969 125.55 27.5714L125.621 27.3255C125.872 26.5385 126.283 25.8327 126.841 25.2252C126.979 25.0777 127.119 24.9375 127.259 24.8047L128.83 11.881C128.371 11.2416 128.061 10.4939 127.938 9.71187C127.857 9.20034 127.879 8.74782 127.916 8.33466L127.94 8.11332C128.164 6.53444 129.096 5.15722 130.495 4.33336C131.26 3.8833 132.151 3.59064 133.302 3.40865L140.721 2.2331C141.784 2.06587 142.772 2.12489 143.67 2.40771C143.781 2.33147 143.891 2.26015 144.009 2.19129C144.774 1.74124 145.664 1.44858 146.815 1.26659L154.235 0.0910406C155.465 -0.103245 156.596 0.00742395 157.6 0.418129L157.609 0.423048C159.257 1.10182 160.401 2.52822 160.674 4.23744C160.772 4.86211 160.752 5.50399 160.61 6.19997L160.568 6.38688C160.393 7.07795 160.091 7.72475 159.67 8.30515C159.449 8.6101 159.218 8.87816 158.967 9.11672L158.844 9.27411L157.292 22.0502C157.772 22.702 158.086 23.4471 158.212 24.2439C158.293 24.7604 158.271 25.2105 158.234 25.6212L158.214 25.8327L158.175 26.0417C157.885 27.5837 156.977 28.8724 155.62 29.6667C154.862 30.1119 153.97 30.407 152.816 30.589L145.396 31.7645C144.334 31.9342 143.345 31.8752 142.448 31.5899C142.337 31.6662 142.221 31.7399 142.103 31.8088C141.346 32.2539 140.453 32.549 139.3 32.731L131.88 33.9066C131.487 33.9681 131.103 34 130.729 34H130.736ZM156.608 21.2706C156.608 21.2706 156.608 21.2706 156.613 21.2756H156.611L156.608 21.2706ZM139.745 4.8326C139.745 4.8326 139.725 4.84735 139.718 4.85473C139.728 4.84735 139.738 4.83997 139.745 4.8326Z" fill="#3F1615"/>
<path d="M168.615 5.46221C168.878 5.56059 169.031 5.7352 169.07 5.98851C169.087 6.09426 169.077 6.2369 169.04 6.41397C169.001 6.57136 168.932 6.71646 168.834 6.85173C168.735 6.98699 168.645 7.08782 168.558 7.15422C168.472 7.22308 168.411 7.27965 168.376 7.32883C168.069 7.5723 167.828 7.82561 167.656 8.09122C167.481 8.35683 167.358 8.74294 167.289 9.24956L165.624 23.4644C165.583 23.7521 165.583 24.0202 165.624 24.2735C165.664 24.5268 165.735 24.7309 165.836 24.8883C165.937 25.0457 166.075 25.2056 166.252 25.3728C166.485 25.6163 166.613 25.8229 166.64 25.9901C166.648 26.0319 166.64 26.1401 166.628 26.3147C166.591 26.6221 166.434 26.8582 166.156 27.0205C165.88 27.1829 165.447 27.3107 164.857 27.4042L157.437 28.5798C156.995 28.6486 156.641 28.6314 156.375 28.5207C156.109 28.4125 155.957 28.2305 155.918 27.9772C155.898 27.8518 155.908 27.7092 155.947 27.5518C155.994 27.3058 156.102 27.1066 156.272 26.9492C156.441 26.7918 156.545 26.7008 156.584 26.6738C156.887 26.4106 157.128 26.15 157.302 25.8966C157.477 25.6433 157.6 25.2498 157.666 24.7211L159.363 10.5013C159.405 10.2136 159.405 9.94554 159.363 9.69223C159.326 9.46106 159.26 9.27169 159.159 9.12659C159.061 8.98149 158.93 8.8118 158.77 8.62243C158.537 8.37896 158.409 8.17238 158.382 8.00514C158.372 7.9412 158.374 7.82315 158.389 7.64854C158.431 7.3608 158.583 7.13701 158.849 6.97715C159.115 6.81729 159.543 6.68941 160.133 6.59596L167.553 5.42041C167.995 5.35154 168.347 5.36384 168.613 5.46221H168.615Z" fill="#FAD6B3"/>
<path d="M156.958 32.9252C156.163 32.9252 155.421 32.785 154.737 32.5022C153.089 31.8259 151.938 30.3872 151.663 28.6534C151.557 27.982 151.584 27.2983 151.744 26.6121C151.982 25.5128 152.536 24.5389 153.352 23.7864C153.387 23.7544 153.421 23.7249 153.453 23.6954L154.995 10.7815C154.538 10.12 154.25 9.41415 154.134 8.67635C154.046 8.12792 154.073 7.63114 154.107 7.25979L154.132 7.04337C154.353 5.48662 155.261 4.11924 156.621 3.29538C157.393 2.82811 158.293 2.52807 159.461 2.34362L166.881 1.16807C168.061 0.981162 169.148 1.0697 170.115 1.42876H170.125C171.844 2.07556 173.037 3.52901 173.319 5.31693C173.418 5.93914 173.398 6.58102 173.256 7.277L173.211 7.46883C173.037 8.1599 172.734 8.80178 172.314 9.38217C172.092 9.68713 171.861 9.95519 171.61 10.1937L171.49 10.3511L169.99 23.1617C170.467 23.838 170.767 24.5586 170.887 25.3161C170.973 25.8547 170.944 26.3096 170.909 26.6933L170.895 26.8384C170.695 28.4763 169.758 29.8953 168.33 30.7339C167.572 31.1791 166.679 31.4742 165.526 31.6562L158.106 32.8317C157.713 32.8932 157.329 32.9252 156.955 32.9252H156.958ZM159.149 30.1314L159.097 30.1683C159.112 30.1584 159.127 30.1462 159.149 30.1314Z" fill="#3F1615"/>
<path d="M175.604 27.616C174.089 27.1881 172.818 26.4011 171.783 25.26C170.75 24.1189 170.09 22.6433 169.803 20.8308C169.604 19.5667 169.606 18.1649 169.815 16.6204C170.282 13.3102 171.387 10.7992 173.12 9.09003C174.857 7.3808 176.839 6.34789 179.072 5.99375C180.272 5.80438 181.364 5.81422 182.345 6.02572C183.329 6.23722 184.264 6.61842 185.149 7.16684L185.896 6.36757C186.396 5.83636 186.826 5.45516 187.188 5.22399C187.549 4.99527 187.975 4.84033 188.459 4.7641C188.985 4.68048 189.426 4.72966 189.777 4.91165C190.129 5.09364 190.34 5.40598 190.412 5.84619C190.449 6.07737 190.444 6.31592 190.395 6.56185L189.406 11.7682C189.308 12.3658 189.143 12.8036 188.917 13.0766C188.69 13.3496 188.314 13.5291 187.788 13.6102C187.239 13.6963 186.762 13.5734 186.354 13.2389C185.946 12.9044 185.444 12.2994 184.851 11.4215C184.19 10.5115 183.676 9.92373 183.309 9.65813C182.943 9.39252 182.456 9.30891 181.844 9.40482C180.98 9.54254 180.233 10.2041 179.601 11.3944C178.969 12.5847 178.494 14.2939 178.179 16.5245C177.914 18.401 177.879 19.9381 178.069 21.1382C178.236 22.1908 178.56 22.9433 179.042 23.3958C179.524 23.8484 180.102 24.0205 180.776 23.9148C181.765 23.7574 182.547 23.4081 183.117 22.8646C183.69 22.3211 184.251 21.6178 184.807 20.7521C185.154 20.2233 185.442 19.8249 185.67 19.5642C185.899 19.3011 186.16 19.1462 186.455 19.0994C186.833 19.0404 187.264 19.1658 187.746 19.4782C188.228 19.7905 188.486 20.1373 188.526 20.5209C188.619 20.9808 188.361 21.7555 187.746 22.845C187.131 23.9344 186.206 24.9723 184.969 25.956C183.732 26.9397 182.252 27.5668 180.525 27.8423C178.757 28.1226 177.117 28.0489 175.602 27.6185L175.604 27.616Z" fill="#FAD6B3"/>
<path d="M178.494 32.308C177.087 32.308 175.727 32.1236 174.431 31.7571C172.134 31.1079 170.169 29.893 168.59 28.1468C166.992 26.3811 165.969 24.148 165.551 21.5042C165.285 19.8344 165.285 17.9973 165.551 16.0446V16.02C166.156 11.7678 167.685 8.40594 170.1 6.02533C172.481 3.67915 175.275 2.24045 178.398 1.74613C180.117 1.47314 181.748 1.50019 183.248 1.8199C183.575 1.89122 183.897 1.97238 184.217 2.0683C184.441 1.89122 184.665 1.73383 184.883 1.59611C185.747 1.05014 186.723 0.688621 187.788 0.518928C189.588 0.233648 190.936 0.671406 191.75 1.09195C193.319 1.90106 194.379 3.39141 194.664 5.17933C194.78 5.90482 194.765 6.64754 194.622 7.38533L193.646 12.5351C193.415 13.8853 192.952 14.9625 192.234 15.8306C191.986 16.1306 191.651 16.4651 191.214 16.7799C192.301 17.8768 192.667 19.0744 192.783 19.8663C193.098 21.7994 192.266 23.602 191.497 24.967C190.611 26.5385 189.315 28.0067 187.65 29.3298C185.833 30.7759 183.664 31.7079 181.202 32.0965C180.282 32.2416 179.379 32.3154 178.497 32.3154L178.494 32.308ZM182.697 15.6708C182.638 15.9585 182.579 16.2782 182.522 16.6323C182.702 16.4356 182.891 16.2512 183.091 16.0839C182.96 15.956 182.83 15.8183 182.697 15.6708ZM186.167 5.76218C186.167 5.76218 186.167 5.76956 186.167 5.77448V5.76218Z" fill="#3F1615"/>
<path d="M213.355 5.3119C214.034 5.78655 214.452 6.50959 214.604 7.4761C214.779 8.57049 214.592 9.50749 214.046 10.2846C213.5 11.0618 212.775 11.5217 211.87 11.6643C211.279 11.7578 210.758 11.7332 210.303 11.5881C209.848 11.4454 209.396 11.17 208.943 10.7667L206.587 13.4694L211.085 22.0475C211.358 22.5443 211.629 22.9329 211.902 23.2132C212.172 23.4936 212.492 23.7666 212.856 24.0322C213.124 24.2265 213.316 24.3863 213.434 24.5068C213.549 24.6298 213.623 24.7847 213.653 24.9741C213.707 25.311 213.594 25.5988 213.321 25.8349C213.045 26.0734 212.529 26.2505 211.771 26.371L207.635 27.0252C206.602 27.1875 205.805 27.0842 205.237 26.7079C204.671 26.3341 204.145 25.6455 203.663 24.6421L201.243 19.5882L200.446 20.4908L199.998 24.4134C199.957 24.7011 199.957 24.9692 199.998 25.2225C200.038 25.4758 200.109 25.6799 200.21 25.8373C200.311 25.9947 200.449 26.1546 200.626 26.3218C200.859 26.5653 200.987 26.7719 201.014 26.9391C201.022 26.9809 201.014 27.0891 201.002 27.2637C200.965 27.5711 200.808 27.8072 200.53 27.9696C200.254 28.1319 199.821 28.2598 199.231 28.3532L191.811 29.5288C191.369 29.5976 191.015 29.5804 190.749 29.4697C190.483 29.3615 190.331 29.1795 190.292 28.9262C190.272 28.8008 190.282 28.6582 190.321 28.5008C190.368 28.2548 190.476 28.0556 190.646 27.8982C190.815 27.7408 190.919 27.6498 190.958 27.6228C191.261 27.3596 191.502 27.099 191.676 26.8456C191.851 26.5923 191.974 26.1988 192.04 25.6701L193.737 11.4503C193.779 11.1626 193.779 10.8945 193.737 10.6412C193.7 10.4101 193.634 10.2207 193.533 10.0756C193.435 9.93049 193.304 9.7608 193.144 9.57143C192.911 9.32796 192.783 9.12138 192.756 8.95414C192.746 8.8902 192.748 8.77216 192.763 8.59754C192.805 8.3098 192.957 8.08601 193.223 7.92615C193.489 7.7663 193.917 7.63841 194.507 7.54496L201.927 6.36941C202.369 6.30055 202.721 6.31284 202.987 6.41122C203.25 6.50959 203.402 6.6842 203.442 6.93751C203.459 7.04326 203.449 7.1859 203.412 7.36297C203.373 7.52037 203.304 7.66546 203.205 7.80073C203.107 7.93599 203.016 8.03682 202.93 8.10322C202.844 8.17208 202.782 8.22865 202.748 8.27783C202.441 8.52131 202.2 8.77461 202.027 9.04022C201.853 9.30583 201.73 9.69194 201.661 10.1986L201.081 15.1147L208.304 6.55877C208.778 6.01035 209.221 5.59964 209.629 5.32912C210.04 5.05859 210.497 4.88398 211.001 4.80282C211.884 4.66264 212.666 4.82988 213.348 5.30452L213.355 5.3119Z" fill="#FAD6B3"/>
<path d="M191.337 33.8814C190.542 33.8814 189.8 33.7412 189.116 33.4584C187.468 32.7821 186.317 31.3434 186.042 29.6096C185.936 28.9382 185.963 28.2545 186.123 27.5683C186.361 26.469 186.915 25.4951 187.731 24.7426C187.766 24.7106 187.8 24.6811 187.832 24.6516L189.374 11.7377C188.917 11.0762 188.629 10.3703 188.513 9.63256C188.425 9.08413 188.452 8.58735 188.486 8.21599L188.511 7.99957C188.732 6.44283 189.64 5.07545 191 4.25158C191.772 3.78431 192.672 3.48427 193.84 3.29983L201.26 2.12427C202.44 1.93737 203.53 2.0259 204.494 2.38496C204.937 2.54974 205.345 2.76861 205.711 3.03422C206.228 2.51285 206.742 2.08739 207.268 1.74062C208.193 1.13317 209.223 0.734763 210.335 0.560152C212.324 0.24536 214.22 0.668362 215.819 1.78489C216.968 2.58908 218.426 4.1114 218.851 6.80435C219.201 9.00297 218.755 11.0614 217.565 12.7583C216.377 14.4504 214.703 15.5275 212.71 15.8866L214.872 20.0084C214.951 20.1486 215.003 20.2248 215.025 20.2568C215.096 20.3256 215.209 20.4265 215.384 20.5544C215.876 20.9134 216.245 21.2258 216.545 21.5405C217.265 22.298 217.735 23.2522 217.902 24.3048C218.187 26.1026 217.526 27.893 216.134 29.0956C215.217 29.8875 214.043 30.3744 212.442 30.6277L208.306 31.2819C206.616 31.55 205.111 31.395 203.818 30.8269C203.493 31.1565 203.122 31.4491 202.708 31.6901C201.951 32.1353 201.058 32.4304 199.905 32.6124L192.485 33.7879C192.092 33.8494 191.708 33.8814 191.334 33.8814H191.337ZM193.53 31.0876L193.479 31.1245C193.493 31.1147 193.511 31.1024 193.53 31.0876Z" fill="#3F1615"/>
<path d="M222.398 5.97642C223.182 6.5642 223.664 7.42742 223.844 8.56362C223.915 9.0063 223.925 9.48832 223.881 10.0146C223.799 10.9983 223.512 11.8812 223.02 12.6584C222.528 13.438 221.921 14.0626 221.198 14.5324C220.474 15.0021 219.744 15.2972 219.006 15.4128C218.143 15.5505 217.671 15.3661 217.592 14.8595C217.572 14.734 217.568 14.6357 217.58 14.5693C217.607 14.3282 217.703 14.1118 217.865 13.9249C218.03 13.738 218.291 13.4749 218.647 13.1379C219.058 12.7272 219.351 12.4001 219.528 12.1567C219.705 11.9132 219.771 11.6427 219.724 11.3476C219.695 11.1582 219.606 10.9787 219.461 10.8065C219.316 10.6344 219.092 10.413 218.787 10.1351C218.382 9.74655 218.069 9.41946 217.855 9.14894C217.639 8.88087 217.504 8.55624 217.442 8.17751C217.405 7.94633 217.403 7.72007 217.432 7.49874C217.511 6.90358 217.757 6.41664 218.173 6.0379C218.588 5.65917 219.142 5.4157 219.838 5.30503C220.765 5.15747 221.618 5.37881 222.403 5.96658L222.398 5.97642Z" fill="#FAD6B3"/>
<path d="M218.497 19.7632C217.759 19.7632 217.078 19.6378 216.436 19.387C214.776 18.7377 213.618 17.2966 213.34 15.5332C213.254 14.9922 213.244 14.4929 213.311 14.0085C213.424 13.1182 213.751 12.2771 214.267 11.5467C213.711 10.7622 213.347 9.85714 213.188 8.85866C213.084 8.21678 213.077 7.56752 213.163 6.93055C213.372 5.34184 214.1 3.93265 215.266 2.86777C216.313 1.91356 217.622 1.30611 219.159 1.06263C221.242 0.733086 223.256 1.2397 224.98 2.5333C226.662 3.79493 227.739 5.64925 228.093 7.89215C228.219 8.67667 228.243 9.51775 228.165 10.3933C228.027 12.0508 227.52 13.5928 226.657 14.9578C225.836 16.2612 224.786 17.3334 223.541 18.1426C222.312 18.9418 221.011 19.4558 219.678 19.6673C219.267 19.7313 218.876 19.7657 218.497 19.7657V19.7632Z" fill="#3F1615"/>
<path d="M248.161 5.1674C248.184 5.31496 248.191 5.42071 248.181 5.48711C248.152 5.70845 248.083 5.88552 247.975 6.02078C247.866 6.15604 247.709 6.3159 247.5 6.50034C247.215 6.7389 246.983 6.99221 246.811 7.25781C246.637 7.52342 246.514 7.90953 246.445 8.41615L244.75 23.0564C244.593 24.3771 244.286 25.3313 243.828 25.9215C243.371 26.5118 242.67 26.8831 241.723 27.0331C240.882 27.1659 240.142 27.0307 239.505 26.6224C238.868 26.2167 238.226 25.5354 237.579 24.5812L231.219 15.2948L230.026 24.9354C230.007 25.2182 230.014 25.4666 230.046 25.6756C230.09 25.9486 230.172 26.1675 230.294 26.3322C230.417 26.497 230.577 26.6593 230.777 26.8216C231.052 27.0577 231.204 27.2717 231.234 27.4611C231.254 27.5865 231.259 27.6849 231.246 27.7513C231.209 28.0587 231.052 28.2948 230.777 28.4571C230.501 28.6194 230.066 28.7473 229.478 28.8407L226.035 29.3867C225.172 29.5244 224.697 29.3178 224.611 28.7719C224.589 28.6243 224.582 28.5186 224.594 28.4522C224.623 28.2308 224.692 28.0538 224.8 27.9185C224.909 27.7832 225.066 27.6234 225.275 27.4389C225.56 27.2004 225.792 26.9471 225.964 26.6815C226.138 26.4159 226.259 26.0297 226.33 25.5231L228.096 10.7107L227.424 9.7491C227.147 9.36052 226.984 9.00884 226.933 8.69405C226.829 8.04233 227.198 7.64884 228.042 7.51604L232.714 6.77579C233.388 6.67004 233.922 6.74136 234.318 6.99221C234.714 7.24306 235.174 7.72508 235.698 8.44074L241.775 16.9623L242.748 9.00638C242.766 8.70143 242.758 8.4555 242.729 8.26613C242.685 7.99315 242.603 7.77427 242.478 7.60949C242.355 7.44472 242.195 7.28241 241.996 7.12009C241.72 6.884 241.568 6.67004 241.538 6.48067C241.519 6.35524 241.514 6.25687 241.526 6.19047C241.563 5.88306 241.72 5.64696 241.998 5.48465C242.274 5.32233 242.707 5.19445 243.297 5.101L246.74 4.55503C247.603 4.41731 248.078 4.62389 248.164 5.16986L248.161 5.1674Z" fill="#FAD6B3"/>
<path d="M225.585 33.7294C222.597 33.7294 220.718 31.6956 220.361 29.4453C220.268 28.8501 220.26 28.3386 220.334 27.8295C220.472 26.863 220.851 25.9703 221.429 25.2399C221.628 24.989 221.857 24.7431 222.12 24.4898L223.63 11.8071C223.133 11.0103 222.813 10.1889 222.683 9.36008C222.272 6.76304 223.748 3.83154 227.368 3.25852L232.041 2.51827C234.197 2.17642 235.72 2.77896 236.615 3.3446C236.974 3.57085 237.321 3.83892 237.663 4.15863C238.103 3.16999 238.843 2.33628 239.812 1.76572C240.577 1.31812 241.467 1.02301 242.618 0.841017L246.061 0.295049C247.31 0.0958451 248.449 0.216351 249.445 0.646731C251.029 1.33042 252.136 2.76666 252.409 4.48818C252.5 5.06366 252.509 5.58749 252.438 6.08673C252.3 7.06308 251.919 7.96565 251.334 8.70098C251.142 8.94199 250.918 9.18547 250.653 9.43877L249.02 23.5454C248.761 25.6899 248.176 27.3204 247.227 28.5501C246.437 29.5707 244.957 30.8717 242.389 31.2775C240.506 31.5751 238.705 31.2185 237.181 30.2421C236.571 29.8535 235.99 29.3666 235.43 28.7764C235.115 30.1954 234.232 31.4103 232.953 32.1628C232.193 32.6104 231.303 32.9031 230.149 33.0851L226.706 33.631C226.315 33.6925 225.942 33.722 225.582 33.722L225.585 33.7294Z" fill="#3F1615"/>
<path d="M115.002 27.616C113.487 27.1881 112.216 26.4011 111.18 25.26C110.147 24.1189 109.488 22.6433 109.2 20.8308C109.001 19.5667 109.004 18.1649 109.213 16.6204C109.68 13.3102 110.784 10.7992 112.518 9.09003C114.254 7.3808 116.237 6.34789 118.47 5.99375C119.67 5.80438 120.762 5.81422 121.743 6.02572C122.727 6.23722 123.661 6.61842 124.547 7.16684L125.294 6.36757C125.793 5.83636 126.224 5.45516 126.585 5.22399C126.947 4.99527 127.372 4.84033 127.857 4.7641C128.383 4.68048 128.823 4.72966 129.175 4.91165C129.527 5.09364 129.738 5.40598 129.81 5.84619C129.846 6.07737 129.841 6.31592 129.792 6.56185L128.804 11.7682C128.705 12.3658 128.54 12.8036 128.314 13.0766C128.088 13.3496 127.712 13.5291 127.185 13.6102C126.637 13.6963 126.16 13.5734 125.752 13.2389C125.343 12.9044 124.842 12.2994 124.249 11.4215C123.587 10.5115 123.073 9.92373 122.707 9.65813C122.341 9.39252 121.854 9.30891 121.241 9.40482C120.378 9.54254 119.63 10.2041 118.998 11.3944C118.366 12.5847 117.892 14.2939 117.577 16.5245C117.311 18.401 117.277 19.9381 117.466 21.1382C117.633 22.1908 117.958 22.9433 118.44 23.3958C118.922 23.8484 119.5 24.0205 120.174 23.9148C121.163 23.7574 121.945 23.4081 122.515 22.8646C123.088 22.3211 123.649 21.6178 124.205 20.7521C124.551 20.2233 124.839 19.8249 125.068 19.5642C125.297 19.3011 125.557 19.1462 125.852 19.0994C126.231 19.0404 126.662 19.1658 127.144 19.4782C127.626 19.7905 127.884 20.1373 127.923 20.5209C128.017 20.9808 127.758 21.7555 127.144 22.845C126.529 23.9344 125.604 24.9723 124.367 25.956C123.13 26.9397 121.65 27.5668 119.923 27.8423C118.155 28.1226 116.514 28.0489 115 27.6185L115.002 27.616Z" fill="#FAD6B3"/>
<path d="M155.972 4.40238C156.238 4.51059 156.388 4.68274 156.424 4.91392C156.442 5.01967 156.432 5.16231 156.395 5.33938C156.356 5.49677 156.287 5.64187 156.188 5.77713C156.09 5.9124 155.999 6.01323 155.913 6.07963C155.827 6.14849 155.765 6.20506 155.731 6.25424C155.423 6.49771 155.182 6.75102 155.01 7.01663C154.836 7.28223 154.713 7.66835 154.644 8.17497L152.915 22.3996C152.873 22.6874 152.873 22.9554 152.915 23.2087C152.954 23.4621 153.023 23.6563 153.122 23.7916C153.217 23.9269 153.358 24.099 153.542 24.3081C153.567 24.3253 153.638 24.3966 153.754 24.5171C153.869 24.6401 153.941 24.7729 153.963 24.9204C153.97 24.9622 153.963 25.0704 153.95 25.2451C153.891 25.5574 153.724 25.7935 153.449 25.9558C153.173 26.1181 152.74 26.246 152.15 26.3394L144.73 27.515C144.288 27.5863 143.934 27.5666 143.668 27.456C143.402 27.3478 143.25 27.1658 143.211 26.9125C143.191 26.787 143.201 26.6444 143.24 26.487C143.297 26.305 143.39 26.1452 143.52 26.005C143.648 25.8673 143.781 25.7418 143.914 25.6361C144.221 25.3926 144.46 25.1344 144.632 24.8589C144.804 24.5835 144.925 24.1826 144.991 23.6539L145.672 18.1401L140.082 19.0255L139.401 24.5392C139.359 24.827 139.359 25.095 139.401 25.3483C139.44 25.6017 139.509 25.7959 139.608 25.9312C139.704 26.0665 139.844 26.2386 140.028 26.4477C140.053 26.4649 140.124 26.5362 140.24 26.6567C140.355 26.7797 140.427 26.9125 140.449 27.06C140.456 27.1018 140.449 27.21 140.436 27.3847C140.377 27.697 140.21 27.9331 139.935 28.0954C139.659 28.2577 139.226 28.3856 138.636 28.4791L131.216 29.6546C130.774 29.7235 130.42 29.7062 130.154 29.5956C129.888 29.4874 129.736 29.3054 129.697 29.0521C129.677 28.9266 129.687 28.784 129.726 28.6266C129.783 28.4446 129.876 28.2848 130.006 28.1446C130.137 28.0069 130.267 27.8814 130.4 27.7757C130.707 27.5322 130.946 27.274 131.118 26.9985C131.29 26.7231 131.411 26.3222 131.477 25.7935L133.206 11.5688C133.248 11.2811 133.248 11.013 133.206 10.7597C133.169 10.5285 133.103 10.3392 133.002 10.1941C132.904 10.049 132.773 9.87927 132.613 9.6899C132.513 9.59891 132.422 9.50053 132.34 9.39232C132.259 9.28657 132.208 9.17099 132.188 9.0431C132.181 9.00129 132.185 8.89308 132.2 8.71847C132.242 8.43073 132.399 8.20694 132.677 8.04462C132.953 7.88231 133.386 7.75442 133.976 7.66097L141.396 6.48542C141.838 6.41656 142.192 6.43623 142.458 6.54444C142.724 6.65265 142.874 6.8248 142.91 7.05598C142.928 7.16173 142.918 7.30437 142.881 7.48144C142.842 7.63883 142.773 7.78393 142.674 7.9192C142.576 8.05446 142.485 8.15529 142.399 8.22169C142.313 8.29055 142.251 8.34712 142.217 8.3963C141.91 8.63978 141.669 8.89308 141.496 9.15869C141.322 9.4243 141.199 9.81041 141.13 10.317L140.466 15.73L146.056 14.8446L146.72 9.43167C146.762 9.14393 146.762 8.87587 146.72 8.62256C146.683 8.39138 146.617 8.20202 146.516 8.05692C146.417 7.91182 146.287 7.74213 146.127 7.55276C146.026 7.46176 145.935 7.36339 145.854 7.25518C145.773 7.14943 145.721 7.03384 145.702 6.90596C145.694 6.86415 145.702 6.75594 145.714 6.58133C145.756 6.29359 145.913 6.06979 146.191 5.90748C146.467 5.74516 146.899 5.61728 147.49 5.52383L154.909 4.34827C155.352 4.27941 155.706 4.29909 155.972 4.4073V4.40238Z" fill="#FAD6B3"/>
<path d="M168.615 5.46221C168.878 5.56059 169.031 5.7352 169.07 5.98851C169.087 6.09426 169.077 6.2369 169.04 6.41397C169.001 6.57136 168.932 6.71646 168.834 6.85173C168.735 6.98699 168.645 7.08782 168.558 7.15422C168.472 7.22308 168.411 7.27965 168.376 7.32883C168.069 7.5723 167.828 7.82561 167.656 8.09122C167.481 8.35683 167.358 8.74294 167.289 9.24956L165.624 23.4644C165.583 23.7521 165.583 24.0202 165.624 24.2735C165.664 24.5268 165.735 24.7309 165.836 24.8883C165.937 25.0457 166.075 25.2056 166.252 25.3728C166.485 25.6163 166.613 25.8229 166.64 25.9901C166.648 26.0319 166.64 26.1401 166.628 26.3147C166.591 26.6221 166.434 26.8582 166.156 27.0205C165.88 27.1829 165.447 27.3107 164.857 27.4042L157.437 28.5798C156.995 28.6486 156.641 28.6314 156.375 28.5207C156.109 28.4125 155.957 28.2305 155.918 27.9772C155.898 27.8518 155.908 27.7092 155.947 27.5518C155.994 27.3058 156.102 27.1066 156.272 26.9492C156.441 26.7918 156.545 26.7008 156.584 26.6738C156.887 26.4106 157.128 26.15 157.302 25.8966C157.477 25.6433 157.6 25.2498 157.666 24.7211L159.363 10.5013C159.405 10.2136 159.405 9.94554 159.363 9.69223C159.326 9.46106 159.26 9.27169 159.159 9.12659C159.061 8.98149 158.93 8.8118 158.77 8.62243C158.537 8.37896 158.409 8.17238 158.382 8.00514C158.372 7.9412 158.374 7.82315 158.389 7.64854C158.431 7.3608 158.583 7.13701 158.849 6.97715C159.115 6.81729 159.543 6.68941 160.133 6.59596L167.553 5.42041C167.995 5.35154 168.347 5.36384 168.613 5.46221H168.615Z" fill="#FAD6B3"/>
<path d="M175.605 27.616C174.09 27.1881 172.818 26.4011 171.783 25.26C170.75 24.1189 170.091 22.6433 169.803 20.8308C169.604 19.5667 169.606 18.1649 169.815 16.6204C170.283 13.3102 171.387 10.7992 173.121 9.09003C174.857 7.3808 176.839 6.34789 179.072 5.99375C180.272 5.80438 181.364 5.81422 182.345 6.02572C183.329 6.23722 184.264 6.61842 185.149 7.16684L185.897 6.36757C186.396 5.83636 186.826 5.45516 187.188 5.22399C187.549 4.99527 187.975 4.84033 188.459 4.7641C188.986 4.68048 189.426 4.72966 189.778 4.91165C190.129 5.09364 190.341 5.40598 190.412 5.84619C190.449 6.07737 190.444 6.31592 190.395 6.56185L189.406 11.7682C189.308 12.3658 189.143 12.8036 188.917 13.0766C188.691 13.3496 188.314 13.5291 187.788 13.6102C187.24 13.6963 186.762 13.5734 186.354 13.2389C185.946 12.9044 185.444 12.2994 184.852 11.4215C184.19 10.5115 183.676 9.92373 183.31 9.65813C182.943 9.39252 182.456 9.30891 181.844 9.40482C180.981 9.54254 180.233 10.2041 179.601 11.3944C178.969 12.5847 178.494 14.2939 178.179 16.5245C177.914 18.401 177.879 19.9381 178.069 21.1382C178.236 22.1908 178.561 22.9433 179.043 23.3958C179.525 23.8484 180.103 24.0205 180.776 23.9148C181.765 23.7574 182.547 23.4081 183.118 22.8646C183.691 22.3211 184.251 21.6178 184.807 20.7521C185.154 20.2233 185.442 19.8249 185.67 19.5642C185.899 19.3011 186.16 19.1462 186.455 19.0994C186.834 19.0404 187.264 19.1658 187.746 19.4782C188.228 19.7905 188.486 20.1373 188.526 20.5209C188.619 20.9808 188.361 21.7555 187.746 22.845C187.131 23.9344 186.207 24.9723 184.97 25.956C183.733 26.9397 182.252 27.5668 180.526 27.8423C178.757 28.1226 177.117 28.0489 175.602 27.6185L175.605 27.616Z" fill="#FAD6B3"/>
<path d="M213.355 5.3119C214.034 5.78655 214.452 6.50959 214.604 7.4761C214.779 8.57049 214.592 9.50749 214.046 10.2846C213.5 11.0618 212.775 11.5217 211.87 11.6643C211.279 11.7578 210.758 11.7332 210.303 11.5881C209.848 11.4454 209.396 11.17 208.943 10.7667L206.587 13.4694L211.085 22.0475C211.358 22.5443 211.629 22.9329 211.902 23.2132C212.172 23.4936 212.492 23.7666 212.856 24.0322C213.124 24.2265 213.316 24.3863 213.434 24.5068C213.549 24.6298 213.623 24.7847 213.653 24.9741C213.707 25.311 213.594 25.5988 213.321 25.8349C213.045 26.0734 212.529 26.2505 211.771 26.371L207.635 27.0252C206.602 27.1875 205.805 27.0842 205.237 26.7079C204.671 26.3341 204.145 25.6455 203.663 24.6421L201.243 19.5882L200.446 20.4908L199.998 24.4134C199.957 24.7011 199.957 24.9692 199.998 25.2225C200.038 25.4758 200.109 25.6799 200.21 25.8373C200.311 25.9947 200.449 26.1546 200.626 26.3218C200.859 26.5653 200.987 26.7719 201.014 26.9391C201.022 26.9809 201.014 27.0891 201.002 27.2637C200.965 27.5711 200.808 27.8072 200.53 27.9696C200.254 28.1319 199.821 28.2598 199.231 28.3532L191.811 29.5288C191.369 29.5976 191.015 29.5804 190.749 29.4697C190.483 29.3615 190.331 29.1795 190.292 28.9262C190.272 28.8008 190.282 28.6582 190.321 28.5008C190.368 28.2548 190.476 28.0556 190.646 27.8982C190.815 27.7408 190.919 27.6498 190.958 27.6228C191.261 27.3596 191.502 27.099 191.676 26.8456C191.851 26.5923 191.974 26.1988 192.04 25.6701L193.737 11.4503C193.779 11.1626 193.779 10.8945 193.737 10.6412C193.7 10.4101 193.634 10.2207 193.533 10.0756C193.435 9.93049 193.304 9.7608 193.144 9.57143C192.911 9.32796 192.783 9.12138 192.756 8.95414C192.746 8.8902 192.748 8.77216 192.763 8.59754C192.805 8.3098 192.957 8.08601 193.223 7.92615C193.489 7.7663 193.917 7.63841 194.507 7.54496L201.927 6.36941C202.369 6.30055 202.721 6.31284 202.987 6.41122C203.25 6.50959 203.402 6.6842 203.442 6.93751C203.459 7.04326 203.449 7.1859 203.412 7.36297C203.373 7.52037 203.304 7.66546 203.205 7.80073C203.107 7.93599 203.016 8.03682 202.93 8.10322C202.844 8.17208 202.782 8.22865 202.748 8.27783C202.441 8.52131 202.2 8.77461 202.027 9.04022C201.853 9.30583 201.73 9.69194 201.661 10.1986L201.081 15.1147L208.304 6.55877C208.778 6.01035 209.221 5.59964 209.629 5.32912C210.04 5.05859 210.497 4.88398 211.001 4.80282C211.884 4.66264 212.666 4.82988 213.348 5.30452L213.355 5.3119Z" fill="#FAD6B3"/>
<path d="M222.398 5.97642C223.182 6.5642 223.664 7.42742 223.844 8.56362C223.915 9.0063 223.925 9.48832 223.881 10.0146C223.799 10.9983 223.512 11.8812 223.02 12.6584C222.528 13.438 221.921 14.0626 221.198 14.5324C220.474 15.0021 219.744 15.2972 219.006 15.4128C218.143 15.5505 217.671 15.3661 217.592 14.8595C217.572 14.734 217.568 14.6357 217.58 14.5693C217.607 14.3282 217.703 14.1118 217.865 13.9249C218.03 13.738 218.291 13.4749 218.647 13.1379C219.058 12.7272 219.351 12.4001 219.528 12.1567C219.705 11.9132 219.771 11.6427 219.724 11.3476C219.695 11.1582 219.606 10.9787 219.461 10.8065C219.316 10.6344 219.092 10.413 218.787 10.1351C218.382 9.74655 218.069 9.41946 217.855 9.14894C217.639 8.88087 217.504 8.55624 217.442 8.17751C217.405 7.94633 217.403 7.72007 217.432 7.49874C217.511 6.90358 217.757 6.41664 218.173 6.0379C218.588 5.65917 219.142 5.4157 219.838 5.30503C220.765 5.15747 221.618 5.37881 222.403 5.96658L222.398 5.97642Z" fill="#FAD6B3"/>
<path d="M248.161 5.1674C248.184 5.31496 248.191 5.42071 248.181 5.48711C248.152 5.70845 248.083 5.88552 247.975 6.02078C247.866 6.15604 247.709 6.3159 247.5 6.50034C247.215 6.7389 246.983 6.99221 246.811 7.25781C246.637 7.52342 246.514 7.90953 246.445 8.41615L244.75 23.0564C244.593 24.3771 244.286 25.3313 243.828 25.9215C243.371 26.5118 242.67 26.8831 241.723 27.0331C240.882 27.1659 240.142 27.0307 239.505 26.6224C238.868 26.2167 238.226 25.5354 237.579 24.5812L231.219 15.2948L230.026 24.9354C230.007 25.2182 230.014 25.4666 230.046 25.6756C230.09 25.9486 230.172 26.1675 230.294 26.3322C230.417 26.497 230.577 26.6593 230.777 26.8216C231.052 27.0577 231.204 27.2717 231.234 27.4611C231.254 27.5865 231.259 27.6849 231.246 27.7513C231.209 28.0587 231.052 28.2948 230.777 28.4571C230.501 28.6194 230.066 28.7473 229.478 28.8407L226.035 29.3867C225.172 29.5244 224.697 29.3178 224.611 28.7719C224.589 28.6243 224.582 28.5186 224.594 28.4522C224.623 28.2308 224.692 28.0538 224.8 27.9185C224.909 27.7832 225.066 27.6234 225.275 27.4389C225.56 27.2004 225.792 26.9471 225.964 26.6815C226.138 26.4159 226.259 26.0297 226.33 25.5231L228.096 10.7107L227.424 9.7491C227.147 9.36052 226.984 9.00884 226.933 8.69405C226.829 8.04233 227.198 7.64884 228.042 7.51604L232.714 6.77579C233.388 6.67004 233.922 6.74136 234.318 6.99221C234.714 7.24306 235.174 7.72508 235.698 8.44074L241.775 16.9623L242.748 9.00638C242.766 8.70143 242.758 8.4555 242.729 8.26613C242.685 7.99315 242.603 7.77427 242.478 7.60949C242.355 7.44472 242.195 7.28241 241.996 7.12009C241.72 6.884 241.568 6.67004 241.538 6.48067C241.519 6.35524 241.514 6.25687 241.526 6.19047C241.563 5.88306 241.72 5.64696 241.998 5.48465C242.274 5.32233 242.707 5.19445 243.297 5.101L246.74 4.55503C247.603 4.41731 248.078 4.62389 248.164 5.16986L248.161 5.1674Z" fill="#FAD6B3"/>
</g>
<defs>
<clipPath id="clip0_799_26294">
<rect width="252.488" height="34" fill="white"/>
</clipPath>
</defs>
</svg>
