<svg width="221" height="48" viewBox="0 0 221 48" fill="none" xmlns="http://www.w3.org/2000/svg">
<path d="M67.791 39.1664C65.2555 39.1664 63.0731 38.5726 61.2437 37.3851C59.4464 36.1655 58.0663 34.4805 57.1034 32.3302C56.1406 30.1798 55.6592 27.7246 55.6592 24.9644C55.6592 22.1722 56.1406 19.7009 57.1034 17.5505C58.0663 15.4002 59.4464 13.7152 61.2437 12.4956C63.0731 11.276 65.2555 10.6662 67.791 10.6662C69.5883 10.6662 71.1128 10.9871 72.3645 11.629C73.6483 12.2709 74.6914 13.2017 75.4938 14.4213V35.4594C74.7235 36.6149 73.7125 37.5296 72.4608 38.2035C71.2412 38.8454 69.6846 39.1664 67.791 39.1664ZM68.9946 33.0042C70.4709 33.0042 71.6905 32.6511 72.6534 31.9451C73.6162 31.2069 74.3223 30.228 74.7716 29.0084C75.2531 27.7888 75.4938 26.4408 75.4938 24.9644C75.4938 23.456 75.2531 22.092 74.7716 20.8723C74.3223 19.6206 73.6162 18.6418 72.6534 17.9357C71.6905 17.1975 70.4709 16.8284 68.9946 16.8284C67.6145 16.8284 66.443 17.1975 65.4802 17.9357C64.5494 18.6418 63.8434 19.6206 63.3619 20.8723C62.9126 22.092 62.6879 23.456 62.6879 24.9644C62.6879 26.4408 62.9126 27.7888 63.3619 29.0084C63.8434 30.228 64.5494 31.2069 65.4802 31.9451C66.443 32.6511 67.6145 33.0042 68.9946 33.0042ZM75.4938 38.3961V2.28945H82.3781V38.3961H75.4938Z" fill="white"/>
<path d="M88.9221 11.4365H95.8064V38.3961H88.9221V11.4365ZM86.9964 1.80802L94.3621 0.123047L96.0471 7.48881L88.6814 9.17378L86.9964 1.80802Z" fill="white"/>
<path d="M106.644 29.8749C106.804 31.1587 107.366 32.0574 108.329 32.5709C109.292 33.0523 110.399 33.293 111.65 33.293C112.87 33.293 113.881 33.0844 114.683 32.6672C115.486 32.2179 115.887 31.4957 115.887 30.5008C115.887 29.8589 115.598 29.3775 115.02 29.0565C114.443 28.7035 113.688 28.4307 112.758 28.2381C111.827 28.0134 110.8 27.8048 109.677 27.6123C108.553 27.4197 107.414 27.1629 106.259 26.842C105.135 26.521 104.108 26.0717 103.177 25.494C102.247 24.9163 101.492 24.13 100.915 23.135C100.337 22.1401 100.048 20.8723 100.048 19.3318C100.048 17.8875 100.514 16.5075 101.444 15.1916C102.407 13.8436 103.739 12.7524 105.44 11.9179C107.141 11.0834 109.083 10.6662 111.265 10.6662C113.223 10.6662 115.036 11.0674 116.705 11.8698C118.374 12.64 119.722 13.7152 120.749 15.0953C121.776 16.4754 122.29 18.0801 122.29 19.9095H115.406C115.277 18.6257 114.796 17.7431 113.961 17.2617C113.159 16.7803 112.196 16.5395 111.073 16.5395C109.693 16.5395 108.65 16.8124 107.944 17.358C107.237 17.8715 106.884 18.5294 106.884 19.3318C106.884 20.0379 107.173 20.5835 107.751 20.9686C108.329 21.3538 109.083 21.6587 110.014 21.8833C110.944 22.108 111.971 22.3166 113.095 22.5092C114.25 22.6697 115.39 22.9104 116.513 23.2313C117.636 23.5202 118.663 23.9535 119.594 24.5312C120.525 25.0768 121.279 25.831 121.857 26.7938C122.434 27.7567 122.723 28.9923 122.723 30.5008C122.723 32.2018 122.242 33.7103 121.279 35.0262C120.348 36.31 119.032 37.3209 117.331 38.0591C115.662 38.7973 113.688 39.1664 111.41 39.1664C109.292 39.1664 107.35 38.7652 105.585 37.9628C103.851 37.1284 102.455 36.0211 101.396 34.641C100.337 33.2289 99.7754 31.6402 99.7112 29.8749H106.644Z" fill="white"/>
<path d="M126.629 2.28945H133.513V38.3961H126.629V2.28945ZM133.513 25.2051L132.743 19.6688C132.743 18.8343 132.855 17.9036 133.08 16.8765C133.337 15.8495 133.786 14.8706 134.428 13.9399C135.102 12.977 136.049 12.1907 137.269 11.5809C138.488 10.9711 140.077 10.6662 142.035 10.6662C143.768 10.6662 145.308 11.0192 146.656 11.7253C148.004 12.4314 149.063 13.6029 149.834 15.2397C150.604 16.8444 150.989 19.0269 150.989 21.787V38.3961H144.105V22.4129C144.105 21.3538 144.024 20.3909 143.864 19.5244C143.704 18.6257 143.334 17.9196 142.757 17.4061C142.211 16.8926 141.329 16.6358 140.109 16.6358C139.146 16.6358 138.151 16.9086 137.124 17.4542C136.097 17.9999 135.231 18.8985 134.524 20.1502C133.85 21.3698 133.513 23.0548 133.513 25.2051Z" fill="white"/>
<path d="M155.402 2.28945H162.286V38.3961H155.402V2.28945Z" fill="white"/>
<path d="M168.846 11.4365H175.73V38.3961H168.846V11.4365ZM166.92 1.80802L174.286 0.123047L175.971 7.48881L168.605 9.17378L166.92 1.80802Z" fill="white"/>
<path d="M186.567 29.8749C186.728 31.1587 187.289 32.0574 188.252 32.5709C189.215 33.0523 190.322 33.293 191.574 33.293C192.794 33.293 193.805 33.0844 194.607 32.6672C195.409 32.2179 195.811 31.4957 195.811 30.5008C195.811 29.8589 195.522 29.3775 194.944 29.0565C194.366 28.7035 193.612 28.4307 192.681 28.2381C191.751 28.0134 190.724 27.8048 189.6 27.6123C188.477 27.4197 187.338 27.1629 186.182 26.842C185.059 26.521 184.032 26.0717 183.101 25.494C182.17 24.9163 181.416 24.13 180.838 23.135C180.261 22.1401 179.972 20.8723 179.972 19.3318C179.972 17.8875 180.437 16.5075 181.368 15.1916C182.331 13.8436 183.663 12.7524 185.364 11.9179C187.065 11.0834 189.007 10.6662 191.189 10.6662C193.147 10.6662 194.96 11.0674 196.629 11.8698C198.298 12.64 199.646 13.7152 200.673 15.0953C201.7 16.4754 202.214 18.0801 202.214 19.9095H195.329C195.201 18.6257 194.719 17.7431 193.885 17.2617C193.083 16.7803 192.12 16.5395 190.996 16.5395C189.616 16.5395 188.573 16.8124 187.867 17.358C187.161 17.8715 186.808 18.5294 186.808 19.3318C186.808 20.0379 187.097 20.5835 187.675 20.9686C188.252 21.3538 189.007 21.6587 189.937 21.8833C190.868 22.108 191.895 22.3166 193.018 22.5092C194.174 22.6697 195.313 22.9104 196.436 23.2313C197.56 23.5202 198.587 23.9535 199.518 24.5312C200.448 25.0768 201.203 25.831 201.78 26.7938C202.358 27.7567 202.647 28.9923 202.647 30.5008C202.647 32.2018 202.165 33.7103 201.203 35.0262C200.272 36.31 198.956 37.3209 197.255 38.0591C195.586 38.7973 193.612 39.1664 191.333 39.1664C189.215 39.1664 187.273 38.7652 185.508 37.9628C183.775 37.1284 182.379 36.0211 181.32 34.641C180.261 33.2289 179.699 31.6402 179.635 29.8749H186.567Z" fill="white"/>
<path d="M208.146 38.3961V4.69656H215.03V32.5228H221V38.3961H208.146ZM205.065 17.3098V11.4365H220.23V17.3098H205.065Z" fill="white"/>
<path d="M35.2719 45.9677C34.9052 45.9677 34.8004 45.7844 34.9576 45.4177L37.59 38.5421L30.4001 19.9192C30.2691 19.5525 30.387 19.3691 30.7537 19.3691H34.8004C35.0624 19.3691 35.2326 19.5001 35.3112 19.762L38.14 27.8163C38.4281 28.6282 38.7031 29.4926 38.9651 30.4093C39.227 31.2999 39.4758 32.2035 39.7116 33.1203H39.7901C40.0521 32.2035 40.314 31.2999 40.5759 30.4093C40.8378 29.5188 41.1129 28.6544 41.401 27.8163L44.2298 19.762C44.3084 19.5001 44.4786 19.3691 44.7405 19.3691H48.6694C49.0623 19.3691 49.1933 19.5525 49.0623 19.9192L39.4365 45.6141C39.3318 45.8499 39.1615 45.9677 38.9258 45.9677H35.2719Z" fill="white"/>
<path d="M1.59526 38.6996C1.30715 38.6996 1.16309 38.5424 1.16309 38.2281L1.67384 13.4368C1.67384 13.1225 1.831 12.9653 2.14531 12.9653H7.21358C7.44931 12.9653 7.61956 13.0832 7.72433 13.3189L14.2856 27.6201L20.729 13.3189C20.8599 13.0832 21.0433 12.9653 21.279 12.9653H26.3473C26.6354 12.9653 26.7794 13.1225 26.7794 13.4368L27.3295 38.2281C27.3295 38.5424 27.1723 38.6996 26.858 38.6996H23.1649C22.8506 38.6996 22.6934 38.5424 22.6934 38.2281L22.3791 25.5378C22.3529 24.4901 22.366 23.4424 22.4184 22.3947C22.4708 21.3208 22.51 20.2731 22.5362 19.2516H22.4184C21.9993 20.2731 21.554 21.3077 21.0826 22.3554C20.6373 23.3769 20.1658 24.3853 19.6682 25.3806L14.8356 35.5564C14.7309 35.766 14.5475 35.8708 14.2856 35.8708H14.1284C13.8927 35.8708 13.7224 35.766 13.6177 35.5564L8.74584 25.2628C8.24818 24.2936 7.77672 23.2983 7.33144 22.2768C6.88617 21.2291 6.46709 20.2207 6.0742 19.2516H5.95633C6.00872 20.2469 6.048 21.2815 6.0742 22.3554C6.10039 23.4031 6.10039 24.4377 6.0742 25.4592L5.75989 38.2281C5.75989 38.5424 5.61583 38.6996 5.32771 38.6996H1.59526Z" fill="white"/>
</svg>
