<svg width="170" height="70" viewBox="0 0 170 70" fill="none" xmlns="http://www.w3.org/2000/svg">
<g clip-path="url(#clip0_306_23670)">
<path d="M170.051 36.3925C169.737 34.4316 168.462 32.7956 166.638 32.014C165.488 31.5238 164.177 31.3865 162.741 31.6134L158.776 32.2353C157.45 32.4426 156.425 32.776 155.544 33.2886C154.428 33.9357 153.576 34.8882 153.069 36.0143C152.672 35.6501 152.273 35.3448 151.862 35.0871C150.831 34.4428 149.078 33.7564 146.594 34.1458L141.213 34.989C140.695 35.0703 140.216 35.1935 139.774 35.3504C139.381 34.9134 138.944 34.5156 138.463 34.1598C137.984 33.8041 137.486 33.5015 136.973 33.2522C139.834 31.7423 142.068 29.6609 143.612 27.0612C145.051 24.6409 146.002 21.6042 146.439 18.0381V18.0073C146.705 15.741 146.693 13.7744 146.41 12.0012C145.563 6.71225 142.522 4.08739 140.117 2.81558C137.047 1.1936 133.232 0.767797 128.457 1.51576L118.637 3.05369C118.493 3.07611 118.354 3.10132 118.215 3.12653C117.623 2.27492 116.833 1.56338 115.873 1.03953H115.87C114.324 0.19072 112.52 -0.0782094 110.514 0.238343L94.58 2.73434C93.9456 1.95557 93.0959 1.34207 92.0877 0.969494H92.0763C90.9633 0.554895 89.7114 0.456848 88.3519 0.66975L79.807 2.00879C78.4617 2.21889 77.4251 2.56066 76.5358 3.09291C76.2809 3.24419 76.043 3.41507 75.8192 3.59716C74.4626 2.48502 72.8114 1.69784 70.8939 1.25523C68.9425 0.804214 66.7872 0.756591 64.4846 1.11796L53.232 2.88001C52.6514 2.09003 51.898 1.42891 50.9945 0.933076H50.9889C49.4425 0.0842686 47.6412 -0.184661 45.6331 0.131891L29.4864 2.66151C28.2034 2.8632 27.1583 3.20497 26.2888 3.70921C24.6744 4.64766 23.6039 6.21641 23.3461 8.01488L23.3178 8.267C23.281 8.6844 23.2498 9.24187 23.3518 9.88057C23.4906 10.735 23.8304 11.5502 24.3714 12.3121L22.5673 26.994C22.2019 27.3414 21.8932 27.6859 21.6269 28.0445C20.9727 28.9381 20.5875 30.0082 20.5082 31.14C20.4516 31.9216 20.5479 32.6751 20.7716 33.3755C20.7206 33.3642 20.6668 33.3502 20.6158 33.339C18.8882 32.9721 17.0104 32.944 15.0306 33.255C11.4309 33.8181 8.21625 35.4597 5.47463 38.1293C2.69053 40.841 0.928869 44.6733 0.2378 49.514V49.542C-0.0709155 51.7663 -0.0680832 53.8589 0.2378 55.761C0.719282 58.7724 1.8975 61.3161 3.73846 63.3274C5.55676 65.3164 7.81973 66.7003 10.4622 67.4398C11.9548 67.8572 13.5211 68.0673 15.1411 68.0673C16.1579 68.0673 17.2001 67.9833 18.2566 67.818C20.3638 67.4874 22.284 66.8151 23.9919 65.8178C24.4762 67.4818 25.7026 68.8349 27.3764 69.5128C28.1638 69.8322 29.0191 69.9918 29.9311 69.9918C30.3616 69.9918 30.8034 69.9554 31.2566 69.8854L39.8015 68.5463C41.1298 68.339 42.1551 68.0029 43.0303 67.4958C43.1662 67.4174 43.2993 67.3334 43.4268 67.2465C44.4605 67.5715 45.5991 67.6387 46.8226 67.4454L54.9399 66.1736C55.5715 67.098 56.4749 67.8376 57.5767 68.2858C58.3641 68.6052 59.2194 68.7648 60.1314 68.7648C60.5619 68.7648 61.0037 68.7284 61.4569 68.6584L70.0018 67.3194C71.3301 67.1121 72.3554 66.7759 73.2305 66.2688C73.9329 65.8626 74.5305 65.3332 75.0035 64.7169C76.5244 65.9691 78.2833 66.8795 80.2573 67.4342C81.7499 67.8516 83.3162 68.0617 84.9362 68.0617C85.953 68.0617 86.9953 67.9777 88.0517 67.8124C90.1731 67.479 92.1047 66.8011 93.821 65.7926C94.328 67.4034 95.5345 68.7116 97.1687 69.3755C97.9561 69.6949 98.8114 69.8546 99.7234 69.8546C100.154 69.8546 100.596 69.8181 101.049 69.7481L109.594 68.4091C110.922 68.2018 111.947 67.8656 112.823 67.3586C113.298 67.0812 113.726 66.7507 114.1 66.3753C115.59 67.0224 117.323 67.1989 119.269 66.8935L124.033 66.1484C125.876 65.8598 127.227 65.3052 128.284 64.4032C129.887 63.0333 130.649 60.9939 130.32 58.9461C130.128 57.7472 129.587 56.6574 128.757 55.7974C128.411 55.4388 127.986 55.0831 127.423 54.6769C127.222 54.534 127.091 54.4192 127.009 54.3379C126.984 54.3015 126.922 54.2147 126.834 54.055L124.344 49.3599C124.605 49.3123 124.86 49.2563 125.109 49.189C125.491 51.0912 126.794 52.6375 128.632 53.3462C129.371 53.632 130.156 53.7748 131.006 53.7748C131.442 53.7748 131.892 53.7384 132.365 53.6628C133.606 53.4695 134.821 53.0465 135.99 52.4106L135.178 59.1618C134.874 59.4504 134.611 59.7305 134.379 60.019C133.716 60.8482 133.28 61.8651 133.121 62.9633C133.033 63.5431 133.045 64.1286 133.152 64.8065C133.563 67.3698 135.727 69.6865 139.171 69.6865C139.584 69.6865 140.015 69.6529 140.465 69.5828L144.428 68.9609C145.756 68.7536 146.781 68.4175 147.659 67.9104C149.132 67.056 150.149 65.6694 150.511 64.053C151.154 64.7253 151.825 65.2772 152.528 65.7226C154.284 66.8319 156.36 67.2409 158.527 66.902C161.483 66.4397 163.188 64.9578 164.095 63.7953C165.191 62.3974 165.865 60.5373 166.159 58.0945L168.04 42.026C168.346 41.7375 168.604 41.4573 168.825 41.1856C169.499 40.3508 169.938 39.3255 170.093 38.2134C170.176 37.6419 170.167 37.0452 170.062 36.3869L170.051 36.3925Z" fill="#3F1615"/>
<path d="M48.5847 5.21641C49.1426 5.52175 49.4768 6.01199 49.5845 6.68151C49.6383 7.01767 49.6411 7.34823 49.5958 7.67599L49.1851 11.1693C49.1143 11.8192 48.9076 12.3066 48.562 12.6316C48.2165 12.9565 47.7293 13.1666 47.0977 13.2675C46.4916 13.3627 45.9875 13.3123 45.5825 13.119C45.1775 12.9229 44.8461 12.5531 44.5827 12.0041L43.6735 10.0459C43.5178 9.70136 43.3592 9.48005 43.1949 9.38481C43.0306 9.28676 42.7162 9.27556 42.2574 9.34839L38.6208 9.91706L37.7258 17.3574L38.4169 17.2482C38.7568 17.195 39.0457 17.0997 39.2836 16.9652C39.5215 16.8308 39.7679 16.6067 40.0143 16.2985L40.9914 15.1864C41.3454 14.7634 41.674 14.4468 41.977 14.2395C42.2801 14.0322 42.6115 13.9006 42.9768 13.8445C43.4356 13.7717 43.8407 13.8445 44.1862 14.0603C44.5317 14.276 44.7413 14.6261 44.8206 15.1052C44.8518 15.2984 44.8518 15.531 44.8206 15.8055L44.0956 21.523C43.92 22.7556 43.3592 23.4448 42.4132 23.5932C41.6372 23.7137 40.9688 23.4139 40.4051 22.6912L39.5555 21.5707C39.3317 21.2625 39.1391 21.0692 38.9777 20.9964C38.8162 20.9235 38.5897 20.9095 38.3008 20.9544L37.2472 21.1196L36.5788 26.7195C36.5533 26.8708 36.5589 27.0669 36.5986 27.3078C36.6524 27.644 36.7742 27.9073 36.9668 28.0978C37.1594 28.2883 37.4313 28.4788 37.7853 28.6693C38.0855 28.843 38.2951 28.9886 38.4141 29.1063C38.533 29.2239 38.6067 29.378 38.6378 29.5685C38.7058 29.9999 38.5613 30.3305 38.1988 30.5602C37.8363 30.7899 37.2812 30.9608 36.5306 31.0784L27.4023 32.5071C26.7707 32.6052 26.2807 32.5659 25.9295 32.3867C25.5783 32.2074 25.4197 31.9076 25.4509 31.4846C25.465 31.2605 25.5273 31.0728 25.6406 30.9215C25.7539 30.7703 25.9295 30.5882 26.1674 30.3781C26.5413 30.0755 26.8273 29.7702 27.0284 29.4677C27.2295 29.1651 27.357 28.7281 27.4136 28.1538L29.4047 11.9508C29.4528 11.6231 29.4528 11.3289 29.4132 11.0656C29.3679 10.7771 29.2857 10.5446 29.1696 10.3653C29.0535 10.186 28.8949 10.0039 28.691 9.81341C28.4219 9.53608 28.2746 9.30077 28.2435 9.11028C28.2321 9.03744 28.235 8.90298 28.252 8.70408C28.3001 8.37632 28.4814 8.1214 28.8014 7.93651C29.1186 7.75162 29.6058 7.60876 30.26 7.50511L46.4067 4.97549C47.3045 4.83542 48.0324 4.91666 48.5903 5.22481L48.5847 5.21641Z" fill="#FAD6B3"/>
<path d="M72.7977 15.5954C71.8546 16.5422 70.5886 17.2398 68.994 17.6852C70.1722 17.5983 71.0984 17.7972 71.7724 18.2819C72.4465 18.7665 72.8572 19.4752 73.0073 20.4109C73.0639 20.7694 73.0753 21.2233 73.0385 21.7695L72.9195 23.596C72.9082 23.8425 72.911 24.0162 72.928 24.1115C72.979 24.4224 73.0866 24.6465 73.2594 24.7782C73.4293 24.9126 73.6474 24.9575 73.9136 24.9154C74.4234 24.837 74.803 24.851 75.0579 24.9575C75.3099 25.0667 75.4317 25.316 75.4204 25.711C75.4119 26.2769 75.208 26.8624 74.8058 27.4675C74.4064 28.0726 73.7918 28.616 72.962 29.1034C72.1321 29.5881 71.087 29.9326 69.8267 30.1287C68.2265 30.3781 66.8981 30.224 65.8389 29.6665C64.7796 29.1062 64.1452 28.1678 63.9328 26.8484C63.8506 26.3441 63.8393 25.7951 63.8903 25.1956L64.1027 22.8032C64.1509 22.4755 64.1452 22.1449 64.0914 21.8087C64.0036 21.2569 63.7515 20.8899 63.338 20.7106C62.9245 20.5313 62.3042 20.5033 61.4801 20.6322L60.0979 20.8479L59.3814 27.0809C59.3559 27.2321 59.3615 27.417 59.3955 27.6327C59.4493 27.9689 59.5796 28.2434 59.7892 28.4563C59.996 28.6692 60.2678 28.8849 60.6021 29.1034C60.8485 29.2379 61.041 29.3724 61.1883 29.5096C61.3356 29.6469 61.4206 29.7982 61.4489 29.9663C61.514 30.3753 61.3668 30.6918 61.0042 30.9215C60.6417 31.1512 60.0866 31.3221 59.336 31.4398L50.2077 32.8685C49.5761 32.9665 49.0861 32.9273 48.7349 32.748C48.3837 32.5687 48.2251 32.269 48.2563 31.846C48.2704 31.6219 48.3327 31.4342 48.446 31.2829C48.5593 31.1316 48.7349 30.9495 48.9728 30.7394C49.3467 30.4369 49.6327 30.1315 49.8338 29.829C50.0349 29.5265 50.1624 29.0894 50.219 28.5152L52.1733 12.3178C52.2214 11.99 52.2214 11.6847 52.1733 11.3961C52.1308 11.1328 52.0543 10.9171 51.9382 10.7518C51.8249 10.5866 51.6748 10.3933 51.4907 10.1776C51.2216 9.90023 51.0744 9.66491 51.0432 9.47442C51.0319 9.40159 51.0347 9.26712 51.0517 9.06823C51.0999 8.74047 51.2755 8.48555 51.5813 8.30346C51.8872 8.12137 52.38 7.9757 53.0598 7.86925L65.2413 5.96154C66.9151 5.69821 68.4162 5.72342 69.7446 6.03157C71.0729 6.33972 72.1406 6.88038 72.9478 7.65075C73.755 8.42112 74.2478 9.35957 74.4234 10.4605C74.5056 10.9647 74.5112 11.4802 74.4461 12.0068C74.2818 13.4579 73.7267 14.6569 72.7864 15.6038L72.7977 15.5954ZM65.0713 11.8079C64.8674 10.5361 64.0631 10.0123 62.6554 10.2308L61.1289 10.4689L60.5482 17.0857L62.0748 16.8476C63.0208 16.6991 63.7289 16.3545 64.2018 15.8139C64.6748 15.2732 64.9694 14.3656 65.0883 13.0938C65.1223 12.5223 65.1138 12.0937 65.0685 11.8051L65.0713 11.8079Z" fill="#FAD6B3"/>
<path d="M90.3437 5.55806C90.6468 5.67011 90.8224 5.869 90.8677 6.15754C90.8875 6.278 90.8762 6.44048 90.8337 6.64218C90.7884 6.82146 90.7091 6.98674 90.5958 7.14082C90.4825 7.29489 90.3777 7.40974 90.2786 7.48538C90.1794 7.56382 90.1086 7.62825 90.069 7.68428C89.7149 7.96161 89.4374 8.25015 89.2391 8.55269C89.038 8.85524 88.8964 9.29505 88.8171 9.87213L86.8997 26.0639C86.8515 26.3917 86.8515 26.697 86.8997 26.9855C86.945 27.2741 87.0271 27.5066 87.1433 27.6859C87.2594 27.8652 87.418 28.0473 87.6219 28.2377C87.891 28.5151 88.0383 28.7504 88.0694 28.9409C88.0779 28.9885 88.0694 29.1118 88.0552 29.3107C88.0128 29.6608 87.8315 29.9298 87.5115 30.1146C87.1942 30.2995 86.6958 30.4452 86.016 30.5517L77.4711 31.8907C76.9613 31.9691 76.5535 31.9495 76.2476 31.8235C75.9417 31.7002 75.7661 31.4929 75.7208 31.2044C75.6981 31.0615 75.7095 30.899 75.7548 30.7197C75.8086 30.4396 75.9332 30.2127 76.1286 30.0334C76.3241 29.8541 76.443 29.7505 76.4883 29.7197C76.8367 29.4199 77.1143 29.123 77.3154 28.8344C77.5164 28.5459 77.6581 28.0977 77.7345 27.4954L79.6888 11.298C79.7369 10.9703 79.7369 10.6649 79.6888 10.3764C79.6463 10.113 79.5698 9.89734 79.4537 9.73206C79.3404 9.56678 79.1903 9.37349 79.0062 9.15778C78.7371 8.88045 78.5899 8.64514 78.5587 8.45465C78.5474 8.38181 78.5502 8.24735 78.5672 8.04845C78.6154 7.72069 78.791 7.46577 79.0968 7.28368C79.4027 7.1016 79.8955 6.95593 80.5753 6.84948L89.1202 5.51043C89.63 5.43199 90.035 5.446 90.3409 5.55806H90.3437Z" fill="#FAD6B3"/>
<path d="M113.466 5.32565C114.024 5.631 114.358 6.12124 114.465 6.79076C114.519 7.12692 114.522 7.45748 114.477 7.78523L114.066 11.2785C114.001 11.9536 113.822 12.4411 113.536 12.7436C113.25 13.0462 112.803 13.2451 112.197 13.3403C111.616 13.4327 111.14 13.3767 110.772 13.175C110.404 12.9733 110.09 12.6007 109.829 12.0517L108.92 10.0935C108.73 9.68174 108.537 9.41562 108.345 9.29796C108.152 9.1803 107.812 9.16069 107.328 9.23633L103.51 9.83582L102.717 16.5226L104.317 16.2733C104.487 16.2481 104.697 16.0912 104.952 15.8055L106.014 14.5337C106.328 14.1667 106.606 13.8866 106.849 13.7017C107.093 13.5168 107.407 13.3935 107.795 13.3319C108.232 13.2647 108.608 13.3207 108.923 13.5056C109.237 13.6905 109.424 13.9622 109.481 14.3208C109.495 14.416 109.495 14.5645 109.478 14.7634L108.787 19.9963C108.724 20.5482 108.54 20.9768 108.229 21.2821C107.917 21.5903 107.555 21.7751 107.144 21.8396C106.464 21.946 105.901 21.6771 105.45 21.0356L104.632 19.873C104.405 19.5397 104.108 19.4024 103.745 19.4584L102.326 19.6797L101.403 27.6412L104.603 27.1397C105.062 27.0669 105.456 26.9128 105.779 26.6803C106.102 26.445 106.433 26.0668 106.77 25.5486L108.571 22.8341C108.894 22.3662 109.217 22.0133 109.54 21.778C109.863 21.5426 110.279 21.3858 110.789 21.3073C111.322 21.2233 111.778 21.2765 112.157 21.4614C112.534 21.6491 112.763 21.9824 112.84 22.4615C112.871 22.6548 112.871 22.8873 112.84 23.1618L112.367 26.9604C112.245 27.9129 111.959 28.6104 111.508 29.0502C111.058 29.4901 110.347 29.7842 109.376 29.9383L92.0283 32.6556C91.5185 32.734 91.1106 32.7144 90.8047 32.5883C90.4988 32.4651 90.3232 32.2578 90.2779 31.9692C90.2553 31.8264 90.2666 31.6639 90.3119 31.4846C90.3657 31.2045 90.4904 30.9776 90.6858 30.7983C90.8812 30.619 91.0002 30.5153 91.0455 30.4845C91.3938 30.1848 91.6714 29.8878 91.8725 29.5993C92.0736 29.3108 92.2152 28.8626 92.2917 28.2603L94.2827 12.0573C94.3309 11.7295 94.3309 11.4354 94.2912 11.1721C94.2459 10.8835 94.1638 10.651 94.0477 10.4717C93.9315 10.2924 93.7729 10.1104 93.569 9.91986C93.2999 9.64253 93.1527 9.40721 93.1215 9.21672C93.1102 9.14389 93.113 9.00942 93.13 8.81053C93.1782 8.48277 93.3594 8.22785 93.6766 8.04296C93.9938 7.85807 94.481 7.7152 95.1352 7.61155L111.282 5.08194C112.18 4.94187 112.908 5.02311 113.466 5.33126V5.32565Z" fill="#FAD6B3"/>
<path d="M137.775 7.13817C139.837 8.22789 141.083 10.1048 141.511 12.7661C141.723 14.0855 141.723 15.6459 141.514 17.4471C141.16 20.3549 140.435 22.7305 139.336 24.5737C138.24 26.417 136.642 27.8849 134.541 28.9747C132.442 30.0672 129.655 30.8712 126.186 31.3894L116.287 32.9021C115.777 32.9806 115.369 32.961 115.063 32.8349C114.757 32.7116 114.582 32.5043 114.536 32.2158C114.514 32.0729 114.525 31.9105 114.57 31.7312C114.607 31.5043 114.687 31.3334 114.806 31.2157C114.924 31.0981 115.103 30.9356 115.341 30.7255C115.695 30.4482 115.964 30.1624 116.154 29.8599C116.341 29.5601 116.474 29.1091 116.553 28.5068L118.513 12.3459C118.561 12.0181 118.561 11.7128 118.513 11.4242C118.47 11.1609 118.394 10.9452 118.278 10.7799C118.165 10.6146 118.014 10.4213 117.83 10.2056C117.561 9.92831 117.414 9.693 117.383 9.5025C117.372 9.42967 117.374 9.29521 117.391 9.09631C117.44 8.76855 117.615 8.51363 117.921 8.33154C118.227 8.14946 118.72 8.00379 119.399 7.89733L129.219 6.3594C132.855 5.79072 135.705 6.05125 137.769 7.14097L137.775 7.13817ZM132.17 12.6428C131.966 11.371 131.558 10.539 130.949 10.1412C130.34 9.74622 129.536 9.62576 128.542 9.77984L127.74 9.9059L125.63 28.1567L126.503 28.0194C127.619 27.8457 128.519 27.4647 129.208 26.8764C129.896 26.2882 130.468 25.3161 130.921 23.9546C131.374 22.5932 131.759 20.6463 132.074 18.1138C132.343 15.7607 132.374 13.937 132.167 12.6428H132.17Z" fill="#FAD6B3"/>
<path d="M11.8054 62.7284C10.0607 62.241 8.59646 61.3445 7.40408 60.0447C6.21453 58.7449 5.45549 57.0641 5.12412 54.9995C4.89471 53.5596 4.89754 51.9628 5.13828 50.2036C5.67641 46.433 6.94809 43.5728 8.94482 41.6259C10.9444 39.6789 13.2272 38.5024 15.7989 38.099C17.181 37.8833 18.4385 37.8945 19.5686 38.1354C20.7015 38.3763 21.7777 38.8105 22.7974 39.4352L23.6584 38.5248C24.2333 37.9197 24.729 37.4855 25.1453 37.2221C25.5616 36.9616 26.0516 36.7851 26.6096 36.6983C27.2157 36.6031 27.7226 36.6591 28.1277 36.8664C28.5327 37.0737 28.7762 37.4294 28.8584 37.9309C28.9009 38.1942 28.8952 38.4659 28.8385 38.7461L27.7 44.6765C27.5867 45.3573 27.3969 45.8559 27.1364 46.1668C26.8758 46.4778 26.4425 46.6823 25.8364 46.7747C25.2048 46.8728 24.6553 46.7327 24.1852 46.3517C23.715 45.9707 23.1372 45.2816 22.4547 44.2815C21.6928 43.245 21.1008 42.5755 20.6788 42.273C20.2568 41.9704 19.696 41.8752 18.9908 41.9844C17.9967 42.1413 17.1357 42.8949 16.4078 44.2507C15.6799 45.6066 15.1333 47.5535 14.7708 50.0943C14.4649 52.2318 14.4252 53.9826 14.6433 55.3496C14.8359 56.5486 15.2098 57.4058 15.7649 57.9213C16.32 58.4367 16.9856 58.6328 17.7616 58.5124C18.9002 58.3331 19.8008 57.9353 20.4579 57.3162C21.1178 56.6971 21.7636 55.8959 22.4037 54.9098C22.803 54.3075 23.1344 53.8537 23.3978 53.5568C23.6612 53.257 23.9614 53.0806 24.3013 53.0273C24.7375 52.9601 25.2331 53.103 25.7882 53.4587C26.3433 53.8145 26.6407 54.2095 26.686 54.6465C26.7937 55.1704 26.4963 56.0528 25.7882 57.2938C25.0802 58.5348 24.0152 59.7169 22.5906 60.8375C21.166 61.958 19.461 62.6724 17.4727 62.9861C15.4363 63.3055 13.5472 63.2214 11.8026 62.7312L11.8054 62.7284Z" fill="#FAD6B3"/>
<path d="M58.9876 36.2861C59.2935 36.4094 59.4663 36.6054 59.5088 36.8688C59.5286 36.9892 59.5173 37.1517 59.4748 37.3534C59.4295 37.5327 59.3502 37.698 59.2369 37.852C59.1236 38.0061 59.0188 38.121 58.9197 38.1966C58.8205 38.2751 58.7497 38.3395 58.7101 38.3955C58.356 38.6728 58.0785 38.9614 57.8802 39.2639C57.6791 39.5665 57.5375 40.0063 57.4582 40.5834L55.4672 56.7863C55.419 57.1141 55.419 57.4194 55.4672 57.708C55.5125 57.9965 55.5918 58.2178 55.7051 58.3719C55.8155 58.526 55.977 58.7221 56.1894 58.9602C56.2177 58.9798 56.2998 59.061 56.433 59.1983C56.5661 59.3384 56.6482 59.4896 56.6737 59.6577C56.6822 59.7053 56.6737 59.8286 56.6595 60.0275C56.5916 60.3833 56.399 60.6522 56.0818 60.8371C55.7645 61.022 55.2661 61.1676 54.5863 61.2741L46.0414 62.6131C45.5316 62.6944 45.1238 62.672 44.8179 62.5459C44.512 62.4226 44.3364 62.2153 44.2911 61.9268C44.2684 61.7839 44.2798 61.6215 44.3251 61.4422C44.3902 61.2349 44.4978 61.0528 44.648 60.8931C44.7952 60.7362 44.9482 60.5934 45.1011 60.4729C45.4552 60.1956 45.7299 59.9014 45.9281 59.5877C46.1264 59.2739 46.2652 58.8173 46.3416 58.215L47.1262 51.9344L40.6885 52.9429L39.9039 59.2235C39.8558 59.5513 39.8558 59.8566 39.9039 60.1451C39.9493 60.4337 40.0286 60.655 40.1418 60.8091C40.2523 60.9631 40.4137 61.1592 40.6262 61.3973C40.6545 61.417 40.7366 61.4982 40.8697 61.6355C41.0029 61.7755 41.085 61.9268 41.1105 62.0949C41.119 62.1425 41.1105 62.2658 41.0963 62.4647C41.0283 62.8204 40.8357 63.0894 40.5185 63.2742C40.2013 63.4591 39.7029 63.6048 39.0231 63.7113L30.4782 65.0503C29.9684 65.1315 29.5606 65.1091 29.2547 64.9831C28.9488 64.8598 28.7732 64.6525 28.7279 64.364C28.7052 64.2211 28.7166 64.0586 28.7619 63.8793C28.827 63.672 28.9346 63.49 29.0847 63.3303C29.2349 63.1734 29.385 63.0305 29.5379 62.9101C29.8919 62.6327 30.1667 62.3386 30.3649 62.0249C30.5632 61.7111 30.702 61.2545 30.7784 60.6522L32.7695 44.4492C32.8176 44.1215 32.8176 43.8161 32.7695 43.5276C32.727 43.2642 32.6505 43.0485 32.5344 42.8833C32.4211 42.718 32.271 42.5247 32.0869 42.309C31.9708 42.2053 31.866 42.0933 31.7726 41.97C31.6791 41.8496 31.6196 41.7179 31.5969 41.5722C31.5885 41.5246 31.5941 41.4014 31.6111 41.2025C31.6593 40.8747 31.8405 40.6198 32.1606 40.4349C32.4778 40.25 32.9763 40.1043 33.656 39.9979L42.2009 38.6588C42.7107 38.5804 43.1185 38.6028 43.4244 38.7261C43.7303 38.8493 43.9031 39.0454 43.9456 39.3087C43.9654 39.4292 43.9541 39.5917 43.9116 39.7934C43.8663 39.9727 43.787 40.1379 43.6737 40.292C43.5604 40.4461 43.4556 40.5609 43.3565 40.6366C43.2573 40.715 43.1865 40.7795 43.1469 40.8355C42.7928 41.1128 42.5153 41.4014 42.317 41.7039C42.1159 42.0064 41.9743 42.4463 41.895 43.0233L41.1303 49.1891L47.568 48.1806L48.3327 42.0148C48.3809 41.6871 48.3809 41.3817 48.3327 41.0932C48.2902 40.8299 48.2138 40.6142 48.0976 40.4489C47.9844 40.2836 47.8342 40.0903 47.6501 39.8746C47.534 39.771 47.4292 39.6589 47.3358 39.5357C47.2423 39.4152 47.1828 39.2835 47.1602 39.1379C47.1517 39.0902 47.1602 38.967 47.1743 38.7681C47.2225 38.4403 47.4037 38.1854 47.7238 38.0005C48.041 37.8156 48.5395 37.67 49.2192 37.5635L57.7641 36.2245C58.2739 36.146 58.6818 36.1684 58.9876 36.2917V36.2861Z" fill="#FAD6B3"/>
<path d="M73.5454 37.4908C73.8484 37.6029 74.024 37.8018 74.0693 38.0903C74.0892 38.2107 74.0778 38.3732 74.0353 38.5749C73.99 38.7542 73.9107 38.9195 73.7974 39.0736C73.6841 39.2276 73.5794 39.3425 73.4802 39.4181C73.3811 39.4966 73.3103 39.561 73.2706 39.617C72.9166 39.8944 72.6391 40.1829 72.4408 40.4854C72.2397 40.788 72.0981 41.2278 72.0188 41.8049L70.1014 57.9966C70.0532 58.3244 70.0532 58.6298 70.1014 58.9183C70.1467 59.2068 70.2288 59.4393 70.3449 59.6186C70.461 59.7979 70.6197 59.98 70.8236 60.1705C71.0926 60.4478 71.2399 60.6831 71.2711 60.8736C71.2796 60.9213 71.2711 61.0445 71.2569 61.2462C71.2144 61.5964 71.0332 61.8653 70.7131 62.0502C70.3959 62.2351 69.8974 62.3808 69.2177 62.4872L60.6728 63.8262C60.163 63.9075 59.7551 63.8851 59.4493 63.759C59.1434 63.6358 58.9678 63.4285 58.9225 63.1399C58.8998 62.997 58.9111 62.8346 58.9565 62.6553C59.0103 62.3751 59.1349 62.1482 59.3303 61.969C59.5257 61.7897 59.6447 61.686 59.69 61.6552C60.0384 61.3555 60.3159 61.0585 60.517 60.77C60.7181 60.4814 60.8597 60.0332 60.9362 59.4309L62.8904 43.2336C62.9386 42.9058 62.9386 42.6005 62.8904 42.3119C62.848 42.0486 62.7715 41.8329 62.6554 41.6676C62.5421 41.5023 62.392 41.309 62.2079 41.0933C61.9388 40.816 61.7915 40.5807 61.7604 40.3902C61.749 40.3174 61.7519 40.1829 61.7689 39.984C61.817 39.6562 61.9926 39.4013 62.2985 39.2192C62.6044 39.0371 63.0972 38.8915 63.7769 38.785L72.3218 37.446C72.8316 37.3675 73.2367 37.3815 73.5425 37.4936L73.5454 37.4908Z" fill="#FAD6B3"/>
<path d="M81.5979 62.7284C79.8532 62.241 78.3889 61.3445 77.1966 60.0447C76.007 58.7449 75.248 57.0641 74.9166 54.9995C74.6872 53.5596 74.69 51.9628 74.9308 50.2036C75.4689 46.433 76.7406 43.5728 78.7373 41.6259C80.7369 39.6789 83.0197 38.5024 85.5914 38.099C86.9735 37.8833 88.231 37.8945 89.3611 38.1354C90.494 38.3763 91.5702 38.8105 92.5898 39.4352L93.4508 38.5248C94.0258 37.9197 94.5214 37.4855 94.9378 37.2221C95.3541 36.9616 95.8441 36.7851 96.402 36.6983C97.0081 36.6031 97.5151 36.6591 97.9201 36.8664C98.3251 37.0737 98.5687 37.4294 98.6509 37.9309C98.6933 38.1942 98.6877 38.4659 98.631 38.7461L97.4925 44.6765C97.3792 45.3573 97.1894 45.8559 96.9288 46.1668C96.6683 46.4778 96.2349 46.6823 95.6288 46.7747C94.9973 46.8728 94.4478 46.7327 93.9776 46.3517C93.5075 45.9707 92.9297 45.2816 92.2471 44.2815C91.4853 43.245 90.8933 42.5755 90.4713 42.273C90.0493 41.9704 89.4885 41.8752 88.7833 41.9844C87.7892 42.1413 86.9282 42.8949 86.2003 44.2507C85.4724 45.6066 84.9258 47.5535 84.5632 50.0943C84.2574 52.2318 84.2177 53.9826 84.4358 55.3496C84.6284 56.5486 85.0022 57.4058 85.5574 57.9213C86.1125 58.4367 86.7781 58.6328 87.5541 58.5124C88.6927 58.3331 89.5933 57.9353 90.2504 57.3162C90.9103 56.6971 91.5561 55.8959 92.1961 54.9098C92.5955 54.3075 92.9269 53.8537 93.1903 53.5568C93.4537 53.257 93.7539 53.0806 94.0938 53.0273C94.5299 52.9601 95.0256 53.103 95.5807 53.4587C96.1358 53.8145 96.4332 54.2095 96.4785 54.6465C96.5861 55.1704 96.2888 56.0528 95.5807 57.2938C94.8726 58.5348 93.8077 59.7169 92.3831 60.8375C90.9585 61.958 89.2534 62.6724 87.2652 62.9861C85.2288 63.3055 83.3397 63.2214 81.595 62.7312L81.5979 62.7284Z" fill="#FAD6B3"/>
<path d="M125.072 37.3231C125.854 37.8638 126.336 38.6873 126.511 39.7883C126.712 41.0349 126.497 42.1022 125.868 42.9874C125.24 43.8726 124.404 44.3965 123.362 44.559C122.682 44.6654 122.082 44.6374 121.558 44.4721C121.034 44.3096 120.512 43.9959 119.991 43.5365L117.278 46.6152L122.458 56.3862C122.773 56.9521 123.084 57.3947 123.399 57.7141C123.71 58.0334 124.078 58.3444 124.497 58.6469C124.806 58.8682 125.027 59.0503 125.163 59.1876C125.296 59.3277 125.381 59.5041 125.415 59.7198C125.477 60.1036 125.347 60.4314 125.033 60.7003C124.716 60.972 124.121 61.1737 123.248 61.311L118.485 62.0562C117.295 62.2411 116.377 62.1234 115.723 61.6948C115.072 61.269 114.466 60.4846 113.911 59.3417L111.124 53.5849L110.206 54.613L109.69 59.0811C109.642 59.4089 109.642 59.7142 109.69 60.0028C109.736 60.2913 109.818 60.5238 109.934 60.7031C110.05 60.8824 110.209 61.0645 110.413 61.255C110.682 61.5323 110.829 61.7676 110.86 61.9581C110.869 62.0057 110.86 62.129 110.846 62.3307C110.804 62.6809 110.622 62.9498 110.302 63.1347C109.985 63.3196 109.487 63.4652 108.807 63.5717L100.262 64.9107C99.7521 64.992 99.3443 64.9696 99.0384 64.8435C98.7325 64.7202 98.5569 64.5129 98.5116 64.2244C98.4889 64.0815 98.5002 63.9191 98.5456 63.7398C98.5994 63.4596 98.724 63.2327 98.9194 63.0534C99.1148 62.8742 99.2338 62.7705 99.2791 62.7397C99.6275 62.44 99.905 62.143 100.106 61.8545C100.307 61.5659 100.449 61.1177 100.525 60.5154L102.48 44.3181C102.528 43.9903 102.528 43.6849 102.48 43.3964C102.437 43.1331 102.361 42.9174 102.244 42.7521C102.131 42.5868 101.981 42.3935 101.797 42.1778C101.528 41.9005 101.381 41.6652 101.349 41.4747C101.338 41.4019 101.341 41.2674 101.358 41.0685C101.406 40.7407 101.582 40.4858 101.888 40.3037C102.193 40.1216 102.686 39.976 103.366 39.8695L111.911 38.5305C112.421 38.452 112.826 38.466 113.132 38.5781C113.435 38.6902 113.61 38.889 113.656 39.1776C113.675 39.298 113.664 39.4605 113.622 39.6622C113.576 39.8415 113.497 40.0068 113.384 40.1609C113.27 40.3149 113.166 40.4298 113.066 40.5054C112.967 40.5839 112.897 40.6483 112.857 40.7043C112.503 40.9817 112.225 41.2702 112.027 41.5727C111.826 41.8753 111.684 42.3151 111.605 42.8922L110.937 48.4921L119.255 38.7462C119.802 38.1215 120.311 37.6537 120.782 37.3455C121.255 37.0374 121.781 36.8385 122.362 36.746C123.379 36.5863 124.279 36.7768 125.064 37.3175L125.072 37.3231Z" fill="#FAD6B3"/>
<path d="M135.486 38.0764C136.39 38.746 136.945 39.7292 137.152 41.0235C137.234 41.5277 137.245 42.0768 137.194 42.6763C137.101 43.7968 136.769 44.8025 136.203 45.6877C135.637 46.5757 134.937 47.2873 134.104 47.8223C133.272 48.3574 132.43 48.6935 131.581 48.8252C130.587 48.9821 130.043 48.772 129.952 48.1949C129.93 48.052 129.924 47.94 129.938 47.8643C129.969 47.5898 130.08 47.3433 130.267 47.1304C130.456 46.9175 130.757 46.6177 131.167 46.234C131.64 45.7661 131.977 45.3936 132.181 45.1162C132.385 44.8389 132.462 44.5307 132.408 44.1946C132.374 43.9789 132.272 43.7744 132.105 43.5783C131.938 43.3822 131.68 43.1301 131.329 42.8135C130.861 42.3709 130.502 41.9983 130.255 41.6902C130.006 41.3848 129.85 41.0151 129.779 40.5836C129.737 40.3203 129.734 40.0626 129.768 39.8105C129.859 39.1326 130.142 38.5779 130.621 38.1465C131.099 37.7151 131.737 37.4377 132.538 37.3117C133.606 37.1436 134.589 37.3957 135.492 38.0652L135.486 38.0764Z" fill="#FAD6B3"/>
<path d="M165.154 37.1577C165.18 37.3258 165.188 37.4463 165.177 37.5219C165.143 37.774 165.063 37.9757 164.939 38.1298C164.814 38.2839 164.633 38.466 164.392 38.6761C164.064 38.9478 163.797 39.2363 163.599 39.5389C163.398 39.8414 163.257 40.2812 163.177 40.8583L161.226 57.5347C161.045 59.039 160.691 60.126 160.164 60.7983C159.637 61.4706 158.83 61.8936 157.739 62.0645C156.771 62.2158 155.918 62.0617 155.185 61.5967C154.451 61.1344 153.712 60.3585 152.967 59.2715L145.643 48.6937L144.269 59.6749C144.246 59.9971 144.255 60.28 144.292 60.5181C144.343 60.8291 144.436 61.0784 144.578 61.2661C144.719 61.4538 144.904 61.6387 145.133 61.8236C145.45 62.0925 145.626 62.3362 145.66 62.5519C145.682 62.6948 145.688 62.8068 145.674 62.8825C145.631 63.2326 145.45 63.5016 145.133 63.6865C144.816 63.8714 144.314 64.017 143.638 64.1235L139.672 64.7454C138.678 64.9022 138.132 64.6669 138.033 64.045C138.007 63.877 137.999 63.7565 138.013 63.6809C138.047 63.4287 138.126 63.227 138.251 63.073C138.375 62.9189 138.556 62.7368 138.797 62.5267C139.126 62.255 139.392 61.9664 139.59 61.6639C139.791 61.3613 139.93 60.9215 140.012 60.3445L142.046 43.472L141.273 42.3766C140.953 41.934 140.766 41.5334 140.706 41.1749C140.587 40.4325 141.012 39.9843 141.983 39.833L147.365 38.9898C148.141 38.8693 148.755 38.9506 149.211 39.2363C149.667 39.5221 150.197 40.0711 150.8 40.8863L157.799 50.593L158.92 41.5306C158.94 41.1833 158.932 40.9031 158.898 40.6874C158.847 40.3765 158.753 40.1272 158.609 39.9395C158.467 39.7518 158.283 39.5669 158.054 39.382C157.736 39.1131 157.561 38.8694 157.527 38.6536C157.504 38.5108 157.499 38.3987 157.513 38.3231C157.555 37.9729 157.736 37.704 158.057 37.5191C158.374 37.3342 158.872 37.1885 159.552 37.0821L163.517 36.4602C164.511 36.3033 165.058 36.5386 165.157 37.1605L165.154 37.1577Z" fill="#FAD6B3"/>
</g>
<defs>
<clipPath id="clip0_306_23670">
<rect width="169.4" height="70" fill="white"/>
</clipPath>
</defs>
</svg>
