<svg width="182" height="52" viewBox="0 0 182 52" fill="none" xmlns="http://www.w3.org/2000/svg">
<g clip-path="url(#clip0_306_23653)">
<path d="M22.6503 28.8235L22.8628 30.268C22.9876 31.1173 23.2976 31.7496 23.792 32.1611C24.2865 32.5726 25.0947 32.6939 26.2172 32.5288L28.6709 32.168L29.9839 41.0969L6.4217 44.5618L5.1087 35.6328C6.51948 35.4253 7.50417 35.0869 8.05955 34.6217C8.61494 34.1566 8.81351 33.3992 8.66019 32.3565L6.86939 20.1782C6.71383 19.1204 6.30451 18.4447 5.63874 18.1591C4.97296 17.8735 3.9363 17.8323 2.52174 18.0403L1.20874 9.11133L27.1829 5.29184C29.557 4.94274 31.5893 4.93053 33.276 5.25578C34.9627 5.58103 36.3669 6.17247 37.4855 7.03445C38.6041 7.89643 39.4728 9.00821 40.0925 10.3774C40.7123 11.7465 41.1479 13.2861 41.4005 15.0036C41.6531 16.7212 41.6757 18.2982 41.4619 19.6893C41.248 21.0803 40.725 22.3193 39.8919 23.3985C39.0587 24.4778 37.8736 25.3764 36.3391 26.0862C34.8046 26.7961 32.8481 27.3239 30.4741 27.673L22.6503 28.8235ZM21.365 20.0829L24.1156 20.7131C25.4619 20.5151 26.3429 20.0253 26.7512 19.2448C27.1595 18.4643 27.5781 19.5191 27.4086 18.3665C27.248 17.2746 26.8546 16.3911 26.2317 15.7119C25.6088 15.0327 24.6207 14.7945 23.2744 14.9925L20.6728 15.3751L21.5145 21.0994L21.365 20.0829Z" fill="#E8290E"/>
<path d="M6.22042 51.0218L5.23379 42.8186C6.53125 42.6278 7.44702 42.3131 8.02114 41.8542C8.69784 41.3173 8.96724 40.4435 8.82492 39.2602L7.35505 27.039C7.2109 25.8405 6.74106 25.0478 5.95636 24.6867C5.2898 24.3771 4.32552 24.2885 3.01983 24.4108L2.0332 16.2075L27.7183 13.1183C30.0474 12.8382 32.0522 12.8788 33.6823 13.2386C35.2924 13.593 36.6398 14.203 37.6838 15.0501C38.7234 15.8939 39.5351 16.9928 40.0914 18.3116C40.6585 19.6561 41.0474 21.188 41.2496 22.8698C41.4519 24.5515 41.4337 26.1015 41.1897 27.4432C40.9539 28.7569 40.4197 29.9328 39.6024 30.9382C38.7851 31.9436 37.6154 32.779 36.1252 33.4214C34.6126 34.0704 32.662 34.5443 30.3252 34.8254L22.0934 35.8155L22.3135 37.6456C22.4274 38.593 22.7654 39.3166 23.3222 39.8054C23.8961 40.3077 24.7854 40.4786 26.0375 40.328L28.1192 40.0777L29.1054 48.2771L6.22134 51.0294L6.22042 51.0218ZM21.4995 30.8459L24.4908 30.4861C25.9675 30.3085 26.9608 29.7722 27.4533 28.8908C27.9198 28.0511 28.083 27.0009 27.9343 25.7643C27.7938 24.5962 27.3914 23.6256 26.7374 22.8744C26.0436 22.0817 24.9444 21.77 23.4639 21.948L20.4726 22.3078L21.4995 30.8459Z" fill="#FFFDEE"/>
<path d="M42.6814 43.9275L43.3728 34.9291C44.7945 35.0383 45.8297 34.9257 46.4741 34.5947C47.1184 34.2637 47.4794 33.5688 47.5601 32.518L48.5031 20.245C48.585 19.1789 48.335 18.4294 47.7487 18.0039C47.1625 17.5783 46.1605 17.3092 44.7349 17.1996L45.4263 8.20117L67.6737 9.91044L66.9824 18.9089C65.5606 18.7997 64.5293 18.9126 63.8925 19.2442C63.2558 19.5758 62.8981 20.2786 62.8162 21.3446L61.8732 33.6177C61.7925 34.6685 62.0396 35.4062 62.6179 35.835C63.1965 36.26 64.1946 36.5288 65.6202 36.6383L64.9289 45.6368L42.6814 43.9275Z" fill="#E8290E"/>
<path d="M42.6296 35.3015L43.4939 27.0845C44.8012 27.1873 45.7641 27.0844 46.426 26.7648C47.2052 26.3921 47.6624 25.6001 47.787 24.4148L49.0747 12.1731C49.2009 10.9726 48.9193 10.0952 48.2347 9.56851C47.6538 9.11821 46.7335 8.81718 45.4333 8.64574L46.2976 0.428711L67.7258 2.68259L66.8615 10.8996C65.5541 10.7968 64.5951 10.9001 63.937 11.2201C63.1688 11.5979 62.715 12.394 62.5888 13.5946L61.3012 25.8363C61.1765 27.0216 61.4555 27.8871 62.1283 28.4164C62.7015 28.8659 63.6177 29.1704 64.922 29.3384L64.0577 37.5554L42.6296 35.3015Z" fill="#FFFDEE"/>
<path d="M91.8778 33.039C92.5402 33.0088 93.2485 32.3307 93.2485 32.3307C93.2485 32.3307 94.0493 31.8783 94.2292 31.3637C94.4093 30.8529 94.5819 30.3261 94.5915 29.5277C94.6051 28.733 94.5847 27.7825 94.5343 26.68L103.043 26.2914L103.693 40.5326L69.4448 42.0967L69.0786 34.0764L85.0936 13.5461L80.2306 13.7682C79.5643 13.7986 79.0374 13.9416 78.6422 14.1937C78.247 14.4457 77.9651 14.8269 77.7923 15.3297C77.6196 15.8324 77.5266 16.485 77.5174 17.291C77.5043 18.0973 77.5244 19.0401 77.574 20.1273L69.0655 20.5159L68.4153 6.27852L102.055 4.74222L102.421 12.7624L86.406 33.2928L91.8741 33.043L91.8778 33.039Z" fill="#E8290E"/>
<path d="M68.9368 49.3662L68.705 41.8662L85.4531 21.0356L79.7559 21.2117C79.0279 21.2342 78.4268 21.3908 77.9715 21.6733C77.5012 21.9677 77.1544 22.4078 76.9461 22.9894C76.7555 23.5244 76.6429 24.2256 76.6189 25.0622C76.5988 25.776 76.5976 26.6042 76.6226 27.5389L68.8756 27.7783L68.459 14.299L101.351 13.2826L101.583 20.7825L84.835 41.6131L91.1414 41.4183C91.8694 41.3958 92.4669 41.2469 92.9109 40.9725C93.3739 40.6898 93.7207 40.2458 93.9364 39.6564C94.1381 39.1095 94.2507 38.4121 94.2749 37.5793C94.2952 36.8732 94.2962 36.0374 94.2708 35.0911L102.018 34.8517L102.435 48.3349L68.9331 49.3702L68.9368 49.3662Z" fill="#FFFDEE"/>
<path d="M127.292 37.0111C127.954 37.0369 128.491 36.9427 128.898 36.7323C129.306 36.5219 129.619 36.1697 129.841 35.6721C130.064 35.1784 130.215 34.5361 130.292 33.7414C130.373 32.9507 130.433 32.0019 130.476 30.899L138.987 31.2301L138.432 45.4754L104.174 44.1425L104.486 36.12L122.178 17.015L117.313 16.8258C116.647 16.7999 116.11 16.8978 115.694 17.1156C115.279 17.3334 114.966 17.6894 114.752 18.1758C114.537 18.6622 114.389 19.3046 114.312 20.107C114.231 20.9092 114.171 21.8503 114.129 22.9379L105.618 22.6068L106.172 8.36534L139.821 9.6745L139.509 17.697L130.664 27.2495L128.417 30.5582L126.241 32.0258L121.818 36.802L127.288 37.0148L127.292 37.0111Z" fill="#E8290E"/>
<path d="M104.264 36.1069L104.453 28.6057L122.343 8.74719L116.645 8.60345C115.917 8.58509 115.308 8.70773 114.838 8.96421C114.352 9.23179 113.981 9.65178 113.74 10.2207C113.52 10.7442 113.368 11.4381 113.297 12.272C113.237 12.9835 113.189 13.8103 113.162 14.745L105.414 14.5495L105.754 1.0681L138.651 1.89795L138.462 9.39913L120.572 29.2576L126.88 29.4167C127.608 29.4351 128.212 29.32 128.671 29.0709C129.149 28.8146 129.52 28.3908 129.769 27.8144C130.001 27.2797 130.153 26.5897 130.223 25.7596C130.283 25.0558 130.331 24.2213 130.359 23.2751L138.107 23.4706L137.767 36.9558L104.26 36.1106L104.264 36.1069Z" fill="#FFFDEE"/>
<path d="M161.01 30.1473L153.396 31.1218L153.197 32.253C153.032 33.0114 153.128 33.6107 153.478 34.056C153.828 34.5013 154.47 34.6622 155.4 34.5432L156.774 34.3674L157.975 43.7527L142.963 45.6739L141.762 36.2886L142.749 36.1623C143.906 36.0141 144.65 35.6759 144.983 35.1432C145.316 34.6105 145.606 33.8605 145.855 32.8848L149.155 19.4521C149.383 18.4305 149.352 17.7014 149.06 17.2648C148.77 16.8321 148.034 16.6873 146.865 16.8369L146.36 16.9016L145.159 7.52022L169.926 4.35054L171.127 13.7359L170.645 13.7976C169.457 13.9496 168.778 14.2835 168.606 14.8038C168.437 15.3237 168.596 16.0203 169.083 16.9018L175.659 29.0705C175.913 29.5199 176.136 29.9046 176.336 30.2314C176.532 30.5587 176.76 30.8293 177.015 31.0437C177.27 31.2582 177.597 31.4026 177.988 31.4741C178.379 31.5456 178.872 31.5392 179.468 31.4629L180.455 31.3366L181.656 40.7219L159.755 43.5249L158.554 34.1395L159.879 33.97C160.793 33.8529 161.378 33.5351 161.631 33.0126C161.884 32.49 161.834 31.8849 161.483 31.1926L161.006 30.1478L161.01 30.1473ZM153.94 25.6423L159.072 24.9855L155.844 18.9039L155.65 18.9287L153.937 25.6428L153.94 25.6423Z" fill="#E8290E"/>
<path d="M159.551 49.0031L158.693 40.7892L159.642 40.6901C160.691 40.5806 161.389 40.2149 161.718 39.6063C162.044 39.002 162.017 38.2997 161.627 37.5159L161.073 36.2714L152.873 37.1279L152.585 38.4756C152.371 39.2995 152.474 39.99 152.887 40.5171C153.31 41.0548 154.068 41.2722 155.14 41.1603L156.139 41.056L156.997 49.2699L142.681 50.7651L141.823 42.5512L142.433 42.4875C143.721 42.3529 144.555 41.9923 144.97 41.3903C145.338 40.8586 145.672 40.1032 145.96 39.1406L149.645 26.3757C149.935 25.2743 149.907 24.4912 149.56 23.9688C149.189 23.4141 148.356 23.216 147.014 23.3562L146.888 23.3693L146.03 15.1555L170.144 12.637L171.002 20.8508L170.899 20.8616C169.534 21.0041 168.753 21.3862 168.512 22.0317C168.283 22.6413 168.427 23.4007 168.952 24.3631L175.19 36.0839C175.437 36.5244 175.653 36.9025 175.845 37.2216C176.054 37.5696 176.301 37.8674 176.584 38.1038C176.884 38.3575 177.268 38.5255 177.72 38.6131C178.149 38.6955 178.67 38.7028 179.315 38.6355L179.925 38.5717L180.782 46.7856L159.547 49.0035L159.551 49.0031ZM153.542 34.0141L159.756 33.365L156.232 25.4528L155.488 25.5304L153.542 34.0141Z" fill="#FFFDEE"/>
</g>
<defs>
<clipPath id="clip0_306_23653">
<rect width="181" height="52" fill="white" transform="translate(1)"/>
</clipPath>
</defs>
</svg>
