<svg width="223" height="32" viewBox="0 0 223 32" fill="none" xmlns="http://www.w3.org/2000/svg">
<path d="M12.5484 31.6514C11.2324 31.6514 9.94763 31.6044 8.69425 31.5104C7.4722 31.4477 6.32849 31.2284 5.26311 30.8524C4.22907 30.445 3.32036 29.787 2.537 28.8783C1.75363 27.9383 1.14261 26.6535 0.703925 25.0241C0.265241 23.3634 0.0458984 21.2327 0.0458984 18.6319V13.3677C0.0458984 10.7669 0.280908 8.65181 0.750927 7.02242C1.25228 5.39301 1.92597 4.12396 2.77201 3.21526C3.61804 2.27522 4.60508 1.6172 5.73313 1.24118C6.89251 0.83383 8.13023 0.598821 9.44628 0.536152C10.7937 0.442148 12.1881 0.395146 13.6294 0.395146C15.5722 0.395146 17.3426 0.504817 18.9407 0.72416C20.5701 0.943502 21.9645 1.41352 23.1238 2.13422C24.3145 2.85491 25.2232 3.98296 25.8499 5.51835C26.508 7.05375 26.837 9.1375 26.837 11.7696V12.6626H16.7316V3.73228H10.1513V27.3742H16.7316V18.9609H13.4414V16.3758H26.837V30.9464H21.4318L20.0687 27.3742H19.5517C19.0503 28.6276 18.4393 29.5677 17.7186 30.1943C17.0293 30.7897 16.2459 31.1814 15.3685 31.3694C14.4911 31.5574 13.5511 31.6514 12.5484 31.6514Z" fill="#FFFEEE"/>
<path d="M41.1311 28.2673H48.1813V1.10017H58.2398V2.88625H56.1717V19.9479C56.1717 22.8621 55.8427 25.1338 55.1846 26.7632C54.5266 28.3613 53.6179 29.505 52.4585 30.1943C51.3305 30.8837 50.0301 31.2911 48.5574 31.4164C47.116 31.5731 45.5806 31.6514 43.9512 31.6514C42.5725 31.6514 41.2251 31.6044 39.909 31.5104C38.6243 31.4477 37.4336 31.2441 36.3369 30.8994C35.2402 30.5547 34.2688 29.975 33.4228 29.1603C32.6081 28.3143 31.9657 27.1549 31.4957 25.6822C31.0257 24.2094 30.7906 22.298 30.7906 19.9479V2.88625H28.7226V1.10017H41.1311V28.2673Z" fill="#FFFEEE"/>
<path d="M74.805 2.88625H72.7369V29.1603H74.805V30.9464H60.5634V29.1603H62.6315V2.88625H60.5634V1.10017H74.805V2.88625Z" fill="#FFFEEE"/>
<path d="M78.0415 2.88625V1.10017H96.1372L102.765 28.1263H104.692L100.884 1.10017H109.862V2.88625H107.794V30.9464H91.7661L85.7028 3.92029H83.7757L87.0189 30.9464H78.0415V29.1603H80.1096V2.88625H78.0415Z" fill="#FFFEEE"/>
<path d="M112.191 2.88625V1.10017H130.287L136.914 28.1263H138.841L135.034 1.10017H144.012V2.88625H141.944V30.9464H125.916L119.853 3.92029H117.926L121.169 30.9464H112.191V29.1603H114.259V2.88625H112.191Z" fill="#FFFEEE"/>
<path d="M146.341 30.9464V29.1603H148.409V2.88625H146.341V1.10017H170.124V11.1586H164.625L162.698 3.92029H158.515V13.9257H167.492V16.5108H158.515V28.1263H162.698L164.625 20.888H170.124V30.9464H146.341Z" fill="#FFFEEE"/>
<path d="M184.52 31.6514C183.33 31.6514 182.014 31.5731 180.572 31.4164C179.162 31.2911 177.752 31.1187 176.342 30.8994C174.963 30.6487 173.678 30.3667 172.488 30.0533L173.757 21.593H179.773L181.23 27.6092H186.447V24.0841L177.188 17.2218C175.872 16.2505 174.869 15.0911 174.18 13.7437C173.49 12.3963 173.146 10.6259 173.146 8.43247C173.146 6.61507 173.475 5.17367 174.133 4.1083C174.822 3.01159 175.731 2.19689 176.859 1.6642C178.018 1.13151 179.35 0.786828 180.854 0.630155C182.358 0.442148 183.925 0.348145 185.554 0.348145C187.184 0.348145 188.97 0.504817 190.913 0.818163C192.887 1.10017 194.688 1.47619 196.318 1.94621L195.049 10.4066H189.596L188.327 4.39031H183.627V7.91545L192.887 14.7777C194.203 15.7491 195.205 16.9085 195.895 18.2559C196.584 19.6033 196.929 21.3737 196.929 23.5671C196.929 25.3845 196.584 26.8415 195.895 27.9383C195.237 29.0036 194.328 29.8027 193.169 30.3354C192.009 30.868 190.678 31.2127 189.173 31.3694C187.701 31.5574 186.15 31.6514 184.52 31.6514Z" fill="#FFFEEE"/>
<path d="M210.592 31.6514C209.401 31.6514 208.085 31.5731 206.643 31.4164C205.233 31.2911 203.823 31.1187 202.413 30.8994C201.035 30.6487 199.75 30.3667 198.559 30.0533L199.828 21.593H205.844L207.301 27.6092H212.519V24.0841L203.259 17.2218C201.943 16.2505 200.941 15.0911 200.251 13.7437C199.562 12.3963 199.217 10.6259 199.217 8.43247C199.217 6.61507 199.546 5.17367 200.204 4.1083C200.894 3.01159 201.802 2.19689 202.93 1.6642C204.09 1.13151 205.421 0.786828 206.925 0.630155C208.43 0.442148 209.996 0.348145 211.626 0.348145C213.255 0.348145 215.041 0.504817 216.984 0.818163C218.958 1.10017 220.76 1.47619 222.389 1.94621L221.12 10.4066H215.668L214.399 4.39031H209.699V7.91545L218.958 14.7777C220.274 15.7491 221.277 16.9085 221.966 18.2559C222.655 19.6033 223 21.3737 223 23.5671C223 25.3845 222.655 26.8415 221.966 27.9383C221.308 29.0036 220.399 29.8027 219.24 30.3354C218.081 30.868 216.749 31.2127 215.245 31.3694C213.772 31.5574 212.221 31.6514 210.592 31.6514Z" fill="#FFFEEE"/>
<path fill-rule="evenodd" clip-rule="evenodd" d="M13.6294 0.396484C15.5719 0.396492 17.342 0.506287 18.9399 0.725586C20.5692 0.944913 21.9642 1.41415 23.1235 2.13477C24.3142 2.85546 25.2234 3.98414 25.8501 5.51953C26.508 7.05488 26.8364 9.13862 26.8364 11.7705V12.6641H16.731V3.7334H10.1509V15.2109H0.0454102V13.3682C0.0454393 10.7677 0.280517 8.65272 0.750488 7.02344C1.25184 5.39404 1.92594 4.12452 2.77197 3.21582C3.61794 2.27596 4.605 1.61816 5.73291 1.24219C6.89222 0.834864 8.12984 0.599794 9.4458 0.537109C10.7932 0.443105 12.188 0.396484 13.6294 0.396484ZM41.1304 15.2109H30.7905V2.8877H28.7222V1.10156H41.1304V15.2109ZM58.2397 2.8877H56.1714V15.2109H48.1812V1.10156H58.2397V2.8877ZM74.8052 2.8877H72.7368V15.2109H62.6313V2.8877H60.563V1.10156H74.8052V2.8877ZM99.5972 15.2109H88.2358L85.7026 3.9209H83.7759L85.1304 15.2109H80.1089V2.8877H78.0415V1.10156H96.1372L99.5972 15.2109ZM109.862 2.8877H107.793V15.2109H102.872L100.884 1.10156H109.862V2.8877ZM133.747 15.2109H122.385L119.852 3.9209H117.925L119.28 15.2109H114.259V2.8877H112.191V1.10156H130.287L133.747 15.2109ZM144.011 2.8877H141.943V15.2109H137.022L135.034 1.10156H144.011V2.8877ZM170.124 11.1592H164.625L162.698 3.9209H158.514V13.9268H167.492V15.2109H148.409V2.8877H146.341V1.10156H170.124V11.1592ZM185.554 0.348633C187.184 0.348642 188.97 0.505999 190.913 0.819336C192.887 1.10134 194.689 1.47727 196.318 1.94727L195.048 10.4072H189.596L188.328 4.3916H183.627V7.91602L192.886 14.7783C193.076 14.9183 193.258 15.0632 193.435 15.2109H175.111C174.755 14.7498 174.443 14.2615 174.179 13.7451C173.49 12.3978 173.146 10.6269 173.146 8.43359C173.146 6.6163 173.474 5.17473 174.132 4.10938C174.822 3.01267 175.731 2.19773 176.859 1.66504C178.018 1.1324 179.35 0.787524 180.854 0.630859C182.358 0.442866 183.925 0.348633 185.554 0.348633ZM211.625 0.348633C213.255 0.348637 215.041 0.505994 216.984 0.819336C218.958 1.10134 220.76 1.47727 222.389 1.94727L221.12 10.4072H215.667L214.399 4.3916H209.699V7.91602L218.958 14.7783C219.147 14.9184 219.331 15.063 219.507 15.2109H201.182C200.826 14.7498 200.515 14.2615 200.25 13.7451C199.561 12.3978 199.217 10.6269 199.217 8.43359C199.217 6.61632 199.546 5.17473 200.204 4.10938C200.893 3.01267 201.802 2.19773 202.93 1.66504C204.09 1.13238 205.421 0.787526 206.925 0.630859C208.429 0.44286 209.996 0.348633 211.625 0.348633Z" fill="#BEA05C"/>
</svg>
