<svg width="199" height="80" viewBox="0 0 199 80" fill="none" xmlns="http://www.w3.org/2000/svg">
<path d="M12.1692 39.2146C9.62588 39.2146 7.43672 38.6183 5.60168 37.4256C3.79884 36.2006 2.41452 34.5082 1.44871 32.3484C0.482904 30.1887 0 27.7226 0 24.9504C0 22.1459 0.482904 19.6637 1.44871 17.5039C2.41452 15.3442 3.79884 13.6518 5.60168 12.4268C7.43672 11.2019 9.62588 10.5894 12.1692 10.5894C13.972 10.5894 15.5012 10.9118 16.7568 11.5565C18.0445 12.2012 19.0908 13.136 19.8956 14.361V35.4914C19.123 36.6519 18.1089 37.5706 16.8533 38.2476C15.63 38.8923 14.0686 39.2146 12.1692 39.2146ZM13.3764 33.0254C14.8573 33.0254 16.0807 32.6708 17.0465 31.9616C18.0123 31.2202 18.7206 30.237 19.1713 29.0121C19.6542 27.7871 19.8956 26.4332 19.8956 24.9504C19.8956 23.4353 19.6542 22.0653 19.1713 20.8403C18.7206 19.5831 18.0123 18.6 17.0465 17.8908C16.0807 17.1493 14.8573 16.7786 13.3764 16.7786C11.9921 16.7786 10.817 17.1493 9.85123 17.8908C8.91762 18.6 8.20936 19.5831 7.72646 20.8403C7.27575 22.0653 7.05039 23.4353 7.05039 24.9504C7.05039 26.4332 7.27575 27.7871 7.72646 29.0121C8.20936 30.237 8.91762 31.2202 9.85123 31.9616C10.817 32.6708 11.9921 33.0254 13.3764 33.0254ZM19.8956 38.441V2.1759H26.8011V38.441H19.8956Z" fill="white"/>
<path d="M33.3652 11.3631H40.2708V38.441H33.3652V11.3631ZM31.4336 1.69237L38.822 0L40.5122 7.39807L33.1238 9.09044L31.4336 1.69237Z" fill="white"/>
<path d="M51.1414 29.8824C51.3023 31.1718 51.8657 32.0744 52.8315 32.5902C53.7973 33.0737 54.908 33.3155 56.1636 33.3155C57.3869 33.3155 58.401 33.106 59.2059 32.6869C60.0107 32.2356 60.4131 31.5103 60.4131 30.511C60.4131 29.8663 60.1234 29.3828 59.5439 29.0604C58.9644 28.7058 58.2079 28.4318 57.2742 28.2384C56.3406 28.0128 55.3104 27.8032 54.1837 27.6098C53.0569 27.4164 51.914 27.1585 50.755 26.8362C49.6283 26.5138 48.5981 26.0625 47.6645 25.4823C46.7308 24.902 45.9743 24.1122 45.3948 23.1129C44.8153 22.1136 44.5256 20.8403 44.5256 19.293C44.5256 17.8424 44.9924 16.4563 45.926 15.1346C46.8918 13.7807 48.2279 12.6847 49.9341 11.8466C51.6404 11.0085 53.5881 10.5894 55.7772 10.5894C57.7411 10.5894 59.56 10.9923 61.2341 11.7982C62.9081 12.5719 64.2603 13.6518 65.2905 15.0379C66.3206 16.424 66.8357 18.0358 66.8357 19.8733H59.9302C59.8014 18.5838 59.3185 17.6974 58.4815 17.2138C57.6767 16.7303 56.7109 16.4885 55.5841 16.4885C54.1998 16.4885 53.1535 16.7625 52.4452 17.3105C51.737 17.8263 51.3828 18.4871 51.3828 19.293C51.3828 20.0022 51.6726 20.5502 52.2521 20.937C52.8315 21.3239 53.5881 21.6301 54.5217 21.8557C55.4553 22.0814 56.4855 22.2909 57.6123 22.4843C58.7712 22.6455 59.9141 22.8873 61.0409 23.2096C62.1677 23.4998 63.1979 23.9349 64.1315 24.5152C65.0651 25.0632 65.8216 25.8207 66.4011 26.7878C66.9806 27.7549 67.2703 28.9959 67.2703 30.511C67.2703 32.2195 66.7874 33.7346 65.8216 35.0562C64.888 36.3457 63.5681 37.3611 61.8618 38.1025C60.1878 38.8439 58.2079 39.2146 55.9221 39.2146C53.7973 39.2146 51.8496 38.8117 50.079 38.0058C48.3405 37.1677 46.9401 36.0555 45.8777 34.6694C44.8153 33.251 44.2519 31.6554 44.1876 29.8824H51.1414Z" fill="white"/>
<path d="M71.1883 2.1759H78.0938V38.441H71.1883V2.1759ZM78.0938 25.1921L77.3212 19.6315C77.3212 18.7934 77.4338 17.8585 77.6592 16.827C77.9167 15.7955 78.3675 14.8123 79.0113 13.8774C79.6874 12.9104 80.6371 12.1206 81.8605 11.5081C83.0838 10.8956 84.6774 10.5894 86.6412 10.5894C88.3796 10.5894 89.9249 10.944 91.2771 11.6532C92.6292 12.3624 93.6916 13.539 94.4642 15.183C95.2369 16.7948 95.6232 18.9868 95.6232 21.759V38.441H88.7177V22.3876C88.7177 21.3239 88.6372 20.3568 88.4762 19.4864C88.3153 18.5838 87.945 17.8747 87.3655 17.3589C86.8183 16.8431 85.9329 16.5852 84.7096 16.5852C83.7438 16.5852 82.7458 16.8592 81.7156 17.4072C80.6854 17.9552 79.8162 18.8578 79.1079 20.115C78.4318 21.34 78.0938 23.0324 78.0938 25.1921Z" fill="white"/>
<path d="M100.049 2.1759H106.955V38.441H100.049V2.1759Z" fill="white"/>
<path d="M113.535 11.3631H120.44V38.441H113.535V11.3631ZM111.603 1.69237L118.992 0L120.682 7.39807L113.293 9.09044L111.603 1.69237Z" fill="white"/>
<path d="M131.311 29.8824C131.472 31.1718 132.035 32.0744 133.001 32.5902C133.967 33.0737 135.078 33.3155 136.333 33.3155C137.556 33.3155 138.571 33.106 139.375 32.6869C140.18 32.2356 140.583 31.5103 140.583 30.511C140.583 29.8663 140.293 29.3828 139.713 29.0604C139.134 28.7058 138.377 28.4318 137.444 28.2384C136.51 28.0128 135.48 27.8032 134.353 27.6098C133.226 27.4164 132.084 27.1585 130.925 26.8362C129.798 26.5138 128.768 26.0625 127.834 25.4823C126.9 24.902 126.144 24.1122 125.564 23.1129C124.985 22.1136 124.695 20.8403 124.695 19.293C124.695 17.8424 125.162 16.4563 126.096 15.1346C127.061 13.7807 128.397 12.6847 130.104 11.8466C131.81 11.0085 133.758 10.5894 135.947 10.5894C137.911 10.5894 139.73 10.9923 141.404 11.7982C143.078 12.5719 144.43 13.6518 145.46 15.0379C146.49 16.424 147.005 18.0358 147.005 19.8733H140.1C139.971 18.5838 139.488 17.6974 138.651 17.2138C137.846 16.7303 136.88 16.4885 135.754 16.4885C134.369 16.4885 133.323 16.7625 132.615 17.3105C131.906 17.8263 131.552 18.4871 131.552 19.293C131.552 20.0022 131.842 20.5502 132.422 20.937C133.001 21.3239 133.758 21.6301 134.691 21.8557C135.625 22.0814 136.655 22.2909 137.782 22.4843C138.941 22.6455 140.084 22.8873 141.21 23.2096C142.337 23.4998 143.367 23.9349 144.301 24.5152C145.235 25.0632 145.991 25.8207 146.571 26.7878C147.15 27.7549 147.44 28.9959 147.44 30.511C147.44 32.2195 146.957 33.7346 145.991 35.0562C145.058 36.3457 143.738 37.3611 142.031 38.1025C140.357 38.8439 138.377 39.2146 136.092 39.2146C133.967 39.2146 132.019 38.8117 130.249 38.0058C128.51 37.1677 127.11 36.0555 126.047 34.6694C124.985 33.251 124.421 31.6554 124.357 29.8824H131.311Z" fill="white"/>
<path d="M152.956 38.441V4.59357H159.861V32.5419H165.849V38.441H152.956ZM149.865 17.2622V11.3631H165.077V17.2622H149.865Z" fill="white"/>
<path d="M108.613 48.4449H115.615V79.101H108.613V48.4449ZM100.5 45.2536H108.613V51.3461H100.5V45.2536ZM100.5 73.0085H108.613V79.101H100.5V73.0085ZM115.615 73.0085H123.728V79.101H115.615V73.0085Z" fill="#8979FF"/>
<path d="M140.363 79.8746C137.079 79.8746 134.375 79.0849 132.25 77.5053C130.158 75.8935 128.596 73.7499 127.566 71.0743C126.568 68.3988 126.069 65.417 126.069 62.1289C126.069 59.7113 126.343 57.4386 126.89 55.3111C127.469 53.1513 128.339 51.2655 129.498 49.6537C130.689 48.042 132.186 46.7848 133.989 45.8822C135.791 44.9473 137.916 44.4799 140.363 44.4799C142.81 44.4799 144.918 44.9473 146.689 45.8822C148.492 46.7848 149.973 48.042 151.132 49.6537C152.323 51.2655 153.192 53.1513 153.739 55.3111C154.319 57.4386 154.609 59.7113 154.609 62.1289C154.609 65.417 154.093 68.3988 153.063 71.0743C152.065 73.7499 150.504 75.8935 148.379 77.5053C146.287 79.0849 143.614 79.8746 140.363 79.8746ZM140.363 73.492C142.069 73.492 143.421 72.944 144.419 71.848C145.45 70.752 146.19 69.3497 146.641 67.6412C147.091 65.9005 147.317 64.0631 147.317 62.1289C147.317 60.227 147.091 58.4218 146.641 56.7133C146.19 54.9726 145.45 53.5704 144.419 52.5066C143.421 51.4106 142.069 50.8626 140.363 50.8626C138.657 50.8626 137.288 51.4106 136.258 52.5066C135.228 53.5704 134.488 54.9726 134.037 56.7133C133.586 58.4218 133.361 60.227 133.361 62.1289C133.361 64.0631 133.586 65.9005 134.037 67.6412C134.488 69.3497 135.228 70.752 136.258 71.848C137.288 72.944 138.657 73.492 140.363 73.492Z" fill="#8979FF"/>
<path d="M171.629 79.8746C168.345 79.8746 165.641 79.0849 163.516 77.5053C161.424 75.8935 159.862 73.7499 158.832 71.0743C157.834 68.3988 157.335 65.417 157.335 62.1289C157.335 59.7113 157.609 57.4386 158.156 55.3111C158.736 53.1513 159.605 51.2655 160.764 49.6537C161.955 48.042 163.452 46.7848 165.255 45.8822C167.058 44.9473 169.182 44.4799 171.629 44.4799C174.076 44.4799 176.184 44.9473 177.955 45.8822C179.758 46.7848 181.239 48.042 182.398 49.6537C183.589 51.2655 184.458 53.1513 185.005 55.3111C185.585 57.4386 185.875 59.7113 185.875 62.1289C185.875 65.417 185.36 68.3988 184.329 71.0743C183.331 73.7499 181.77 75.8935 179.645 77.5053C177.553 79.0849 174.881 79.8746 171.629 79.8746ZM171.629 73.492C173.335 73.492 174.687 72.944 175.685 71.848C176.716 70.752 177.456 69.3497 177.907 67.6412C178.358 65.9005 178.583 64.0631 178.583 62.1289C178.583 60.227 178.358 58.4218 177.907 56.7133C177.456 54.9726 176.716 53.5704 175.685 52.5066C174.687 51.4106 173.335 50.8626 171.629 50.8626C169.923 50.8626 168.555 51.4106 167.524 52.5066C166.494 53.5704 165.754 54.9726 165.303 56.7133C164.852 58.4218 164.627 60.227 164.627 62.1289C164.627 64.0631 164.852 65.9005 165.303 67.6412C165.754 69.3497 166.494 70.752 167.524 71.848C168.555 72.944 169.923 73.492 171.629 73.492Z" fill="#8979FF"/>
</svg>
