<svg width="203" height="50" viewBox="0 0 203 50" fill="none" xmlns="http://www.w3.org/2000/svg">
<path d="M177.342 23.9544C184.017 18.1243 189.889 11.5759 194.959 4.30926L202.057 11.09C194.198 21.0605 185.96 28.6651 177.342 33.9038C175.018 37.4948 172.737 42.5012 170.497 48.9228L162.639 42.1421C164.414 37.7061 165.681 34.791 166.442 33.3968C167.244 31.9604 168.068 30.5662 168.913 29.2143C167.941 20.7647 168.723 11.0266 171.258 0L179.75 7.7947C178.313 13.4136 177.511 18.8002 177.342 23.9544Z" fill="white"/>
<path d="M142.537 32.8264C145.072 36.8822 148.114 40.7901 151.663 44.5502L143.234 50.0001C139.348 44.9726 135.609 38.9735 132.018 32.0026C129.103 37.0301 126.462 42.4167 124.096 48.1623L116.935 41.5717C119.766 35.319 122.301 30.3549 124.54 26.6794C128.173 20.638 131.954 15.2936 135.883 10.6464C132.968 10.1394 130.328 9.88594 127.962 9.88594L130.687 2.34473C138.629 2.59821 145.537 3.63328 151.409 5.44993C153.606 6.12589 155.824 6.94972 158.063 7.92142L163.006 18.8213C158.697 24.5248 151.874 29.1931 142.537 32.8264ZM134.553 27.7567C140.298 25.5598 145.41 22.7926 149.888 19.455C151.409 18.3566 152.719 17.237 153.818 16.0963C149.804 13.984 144.481 12.2941 137.848 11.0266L143.298 15.4626C139.918 19.7719 137.003 23.8699 134.553 27.7567Z" fill="white"/>
<path d="M101.84 32.8264C104.375 36.8822 107.417 40.7901 110.965 44.5502L102.537 50.0001C98.6502 44.9726 94.9113 38.9735 91.3202 32.0026C88.4051 37.0301 85.7646 42.4167 83.3988 48.1623L76.2378 41.5717C79.0684 35.319 81.6032 30.3549 83.8424 26.6794C87.4757 20.638 91.2568 15.2936 95.1859 10.6464C92.2708 10.1394 89.6303 9.88594 87.2644 9.88594L89.9894 2.34473C97.932 2.59821 104.839 3.63328 110.712 5.44993C112.909 6.12589 115.127 6.94972 117.366 7.92142L122.309 18.8213C118 24.5248 111.177 29.1931 101.84 32.8264ZM93.8551 27.7567C99.6008 25.5598 104.713 22.7926 109.191 19.455C110.712 18.3566 112.022 17.237 113.12 16.0963C109.106 13.984 103.783 12.2941 97.1504 11.0266L102.6 15.4626C99.2205 19.7719 96.3054 23.8699 93.8551 27.7567Z" fill="white"/>
<path d="M56.8994 42.7123C53.8153 44.3177 49.654 46.0499 44.4152 47.9088L36.4304 40.2408C41.6691 26.4258 48.7034 13.7726 57.5331 2.28125L64.3773 9.06201C59.8145 14.5965 55.3574 21.6096 51.0059 30.1014C49.7384 32.6362 48.5978 35.0866 47.5838 37.4525C52.6535 36.3118 56.9206 35.0443 60.3849 33.6502V33.7769C67.1023 19.9197 72.7846 10.1604 77.4318 4.49925L84.4027 11.28C77.812 19.2226 71.0313 31.9603 64.0604 49.493L56.8994 42.7123Z" fill="white"/>
<path d="M11.3435 38.4665C18.0186 38.0017 24.1023 36.4175 29.5945 33.7136L32.066 40.938C25.1374 45.205 17.1314 47.6765 8.04818 48.3524L0 40.8746C1.90115 32.594 5.28096 25.0951 10.1394 18.3777C15.6739 10.8154 22.3913 5.3654 30.2916 2.02783L42.3322 10.7097C41.2338 14.3008 39.2481 18.4622 36.3753 23.1939C35.5726 24.5036 34.8121 25.6654 34.0939 26.6794L26.7428 22.6236C29.6156 17.6806 31.5379 13.5192 32.5096 10.1394C27.2286 12.7587 22.5603 16.7723 18.5045 22.18C14.6177 27.4609 12.2307 32.8898 11.3435 38.4665Z" fill="white"/>
</svg>
