<svg width="183" height="48" viewBox="0 0 183 48" fill="none" xmlns="http://www.w3.org/2000/svg">
<rect x="6.06445" y="5.41943" width="176" height="42.5806" rx="3.09677" fill="#F4EBDC"/>
<rect width="176.903" height="42.8387" rx="3.09677" fill="#D82300"/>
<path d="M26.302 32.831H13.8158C13.404 32.831 13.1005 32.7443 12.9054 32.5709C12.732 32.3758 12.6453 32.0723 12.6453 31.6605V10.59C12.6453 10.1781 12.732 9.8855 12.9054 9.71208C13.1005 9.51698 13.404 9.41943 13.8158 9.41943H24.1885C26.3129 9.41943 27.8845 9.8313 28.9033 10.655C29.9222 11.4571 30.4316 12.7036 30.4316 14.3944V15.9552C30.4316 16.8656 30.269 17.6135 29.9438 18.1988C29.6404 18.7624 29.1635 19.1851 28.5131 19.4669C29.9005 19.597 30.9302 20.0739 31.6022 20.8976C32.2742 21.7214 32.6102 22.9245 32.6102 24.5069V27.4984C32.6102 29.3193 32.0899 30.6633 31.0494 31.5304C30.0306 32.3975 28.4481 32.831 26.302 32.831ZM19.9614 14.9472V18.4589H22.7253C23.1371 18.4589 23.4406 18.3505 23.6357 18.1338C23.8525 17.917 23.9609 17.5918 23.9609 17.1583V16.2478C23.9609 15.8143 23.8525 15.4891 23.6357 15.2723C23.4406 15.0556 23.1371 14.9472 22.7253 14.9472H19.9614ZM19.9614 23.4664V27.3033H24.1885C24.6004 27.3033 24.9038 27.1949 25.0989 26.9781C25.3157 26.7614 25.4241 26.4362 25.4241 26.0027V24.7345C25.4241 24.301 25.3157 23.9867 25.0989 23.7916C24.9038 23.5748 24.6004 23.4664 24.1885 23.4664H19.9614Z" fill="#F4EBDC"/>
<path d="M55.1069 26.6855C55.1069 27.6827 54.9551 28.5931 54.6517 29.4169C54.3699 30.2189 53.8496 30.9126 53.0909 31.4979C52.3539 32.0615 51.335 32.5059 50.0344 32.831C48.7337 33.1562 47.0754 33.3188 45.0594 33.3188C43.0434 33.3188 41.3851 33.1562 40.0844 32.831C38.7838 32.5059 37.7541 32.0615 36.9954 31.4979C36.2584 30.9126 35.7381 30.2189 35.4346 29.4169C35.1528 28.5931 35.0119 27.6827 35.0119 26.6855V10.59C35.0119 10.1781 35.0986 9.8855 35.272 9.71208C35.4671 9.51698 35.7706 9.41943 36.1825 9.41943H41.2875C41.6994 9.41943 41.992 9.51698 42.1655 9.71208C42.3606 9.8855 42.4581 10.1781 42.4581 10.59V22.9787C42.4581 23.4122 42.6207 23.7807 42.9459 24.0842C43.271 24.366 43.9972 24.5069 45.1244 24.5069C46.2733 24.5069 47.0104 24.366 47.3355 24.0842C47.6607 23.7807 47.8233 23.4122 47.8233 22.9787V10.59C47.8233 10.1781 47.91 9.8855 48.0834 9.71208C48.2785 9.51698 48.582 9.41943 48.9939 9.41943H53.9363C54.3482 9.41943 54.6408 9.51698 54.8142 9.71208C55.0093 9.8855 55.1069 10.1781 55.1069 10.59V26.6855Z" fill="#F4EBDC"/>
<path d="M65.751 15.2723V19.4344H68.1897C68.7533 19.4344 69.1326 19.2935 69.3277 19.0117C69.5228 18.7082 69.6204 18.3397 69.6204 17.9061V16.8006C69.6204 16.367 69.5228 16.0094 69.3277 15.7276C69.1326 15.4241 68.7533 15.2723 68.1897 15.2723H65.751ZM64.5804 32.831H59.5729C59.161 32.831 58.8575 32.7443 58.6624 32.5709C58.489 32.3758 58.4023 32.0723 58.4023 31.6605V10.59C58.4023 10.1781 58.489 9.8855 58.6624 9.71208C58.8575 9.51698 59.161 9.41943 59.5729 9.41943H70.4008C72.8286 9.41943 74.4978 9.92885 75.4083 10.9477C76.3404 11.9449 76.8064 13.2455 76.8064 14.8496V16.3454C76.8064 17.2558 76.6656 18.0362 76.3837 18.6865C76.1236 19.3152 75.6575 19.7704 74.9855 20.0522C76.1561 20.1823 77.0991 20.6592 77.8144 21.4829C78.5515 22.3067 78.92 23.4014 78.92 24.767V31.6605C78.92 32.0723 78.8224 32.3758 78.6273 32.5709C78.4539 32.7443 78.1613 32.831 77.7494 32.831H72.7094C72.2975 32.831 71.9941 32.7443 71.799 32.5709C71.6255 32.3758 71.5388 32.0723 71.5388 31.6605V26.6855C71.5388 26.2086 71.4413 25.8618 71.2462 25.645C71.0728 25.4065 70.7584 25.2873 70.3032 25.2873H65.751V31.6605C65.751 32.0723 65.6534 32.3758 65.4583 32.5709C65.2849 32.7443 64.9923 32.831 64.5804 32.831Z" fill="#F4EBDC"/>
<path d="M99.26 32.831H89.0174C86.3077 32.831 84.2917 32.2891 82.9694 31.2052C81.6688 30.1214 81.0184 28.4522 81.0184 26.1978V16.0527C81.0184 13.7983 81.6688 12.1291 82.9694 11.0452C84.2917 9.96137 86.3077 9.41943 89.0174 9.41943H97.1464C97.5583 9.41943 97.8509 9.51698 98.0244 9.71208C98.2195 9.8855 98.317 10.1781 98.317 10.59V14.5245C98.317 14.9363 98.2195 15.2398 98.0244 15.4349C97.8509 15.6083 97.5583 15.695 97.1464 15.695H90.3831C89.7111 15.695 89.2125 15.8359 88.8873 16.1178C88.5622 16.3779 88.3996 16.7789 88.3996 17.3209V25.0922C88.3996 25.6341 88.5188 26.0352 88.7573 26.2953C89.0174 26.5554 89.3968 26.6855 89.8953 26.6855H93.0494V21.613C93.0494 21.2011 93.1361 20.9085 93.3095 20.735C93.5046 20.54 93.8081 20.4424 94.22 20.4424H99.26C99.6718 20.4424 99.9645 20.54 100.138 20.735C100.333 20.9085 100.431 21.2011 100.431 21.613V31.6605C100.431 32.0723 100.333 32.3758 100.138 32.5709C99.9645 32.7443 99.6718 32.831 99.26 32.831Z" fill="#F4EBDC"/>
<path d="M119.624 32.831H104.536C104.124 32.831 103.821 32.7443 103.626 32.5709C103.452 32.3758 103.366 32.0723 103.366 31.6605V10.59C103.366 10.1781 103.452 9.8855 103.626 9.71208C103.821 9.51698 104.124 9.41943 104.536 9.41943H119.624C120.035 9.41943 120.328 9.51698 120.502 9.71208C120.697 9.8855 120.794 10.1781 120.794 10.59V14.3944C120.794 14.8063 120.697 15.1098 120.502 15.3049C120.328 15.4783 120.035 15.565 119.624 15.565H110.649V18.0687H116.99C117.402 18.0687 117.694 18.1663 117.868 18.3614C118.063 18.5348 118.16 18.8274 118.16 19.2393V22.7185C118.16 23.1304 118.063 23.4339 117.868 23.629C117.694 23.8024 117.402 23.8891 116.99 23.8891H110.649V26.6855H119.624C120.035 26.6855 120.328 26.783 120.502 26.9781C120.697 27.1516 120.794 27.4442 120.794 27.8561V31.6605C120.794 32.0723 120.697 32.3758 120.502 32.5709C120.328 32.7443 120.035 32.831 119.624 32.831Z" fill="#F4EBDC"/>
<path d="M130.957 15.2723V19.4344H133.396C133.959 19.4344 134.339 19.2935 134.534 19.0117C134.729 18.7082 134.827 18.3397 134.827 17.9061V16.8006C134.827 16.367 134.729 16.0094 134.534 15.7276C134.339 15.4241 133.959 15.2723 133.396 15.2723H130.957ZM129.787 32.831H124.779C124.367 32.831 124.064 32.7443 123.869 32.5709C123.695 32.3758 123.608 32.0723 123.608 31.6605V10.59C123.608 10.1781 123.695 9.8855 123.869 9.71208C124.064 9.51698 124.367 9.41943 124.779 9.41943H135.607C138.035 9.41943 139.704 9.92885 140.614 10.9477C141.547 11.9449 142.013 13.2455 142.013 14.8496V16.3454C142.013 17.2558 141.872 18.0362 141.59 18.6865C141.33 19.3152 140.864 19.7704 140.192 20.0522C141.362 20.1823 142.305 20.6592 143.021 21.4829C143.758 22.3067 144.126 23.4014 144.126 24.767V31.6605C144.126 32.0723 144.029 32.3758 143.833 32.5709C143.66 32.7443 143.367 32.831 142.956 32.831H137.916C137.504 32.831 137.2 32.7443 137.005 32.5709C136.832 32.3758 136.745 32.0723 136.745 31.6605V26.6855C136.745 26.2086 136.647 25.8618 136.452 25.645C136.279 25.4065 135.965 25.2873 135.509 25.2873H130.957V31.6605C130.957 32.0723 130.86 32.3758 130.664 32.5709C130.491 32.7443 130.198 32.831 129.787 32.831Z" fill="#F4EBDC"/>
<path d="M157.601 32.831H147.326C146.914 32.831 146.611 32.7443 146.416 32.5709C146.242 32.3758 146.156 32.0723 146.156 31.6605V27.8561C146.156 27.4442 146.242 27.1516 146.416 26.9781C146.611 26.783 146.914 26.6855 147.326 26.6855H156.073C156.355 26.6855 156.561 26.5988 156.691 26.4254C156.843 26.2303 156.919 26.0027 156.919 25.7425C156.919 25.374 156.843 25.103 156.691 24.9296C156.561 24.7562 156.355 24.6587 156.073 24.637L151.196 23.9541C149.678 23.7374 148.454 23.2388 147.521 22.4584C146.611 21.678 146.156 20.3774 146.156 18.5565V15.1423C146.156 13.2997 146.752 11.8907 147.944 10.9152C149.136 9.91801 150.784 9.41943 152.887 9.41943H161.991C162.403 9.41943 162.696 9.51698 162.869 9.71208C163.064 9.8855 163.162 10.1781 163.162 10.59V14.4594C163.162 14.8713 163.064 15.1748 162.869 15.3699C162.696 15.5433 162.403 15.63 161.991 15.63H154.415C154.133 15.63 153.916 15.7276 153.765 15.9227C153.613 16.0961 153.537 16.3237 153.537 16.6055C153.537 16.8873 153.613 17.1258 153.765 17.3209C153.916 17.5159 154.133 17.6243 154.415 17.646L159.26 18.2963C160.777 18.5131 162.002 19.0117 162.934 19.7921C163.866 20.5725 164.332 21.8731 164.332 23.694V27.1082C164.332 28.9508 163.725 30.3707 162.511 31.3678C161.319 32.3433 159.682 32.831 157.601 32.831Z" fill="#F4EBDC"/>
</svg>
