<svg width="367" height="144" viewBox="0 0 367 144" fill="none" xmlns="http://www.w3.org/2000/svg">
<g clip-path="url(#clip0_536_26702)" filter="url(#filter0_d_536_26702)">
<g clip-path="url(#clip1_536_26702)">
<path d="M12 8H355V128H12V8Z" fill="#E59C00"/>
<path d="M-17.2004 129.371H-81.9315C-84.0667 129.371 -85.64 128.921 -86.6514 128.022C-87.5505 127.011 -88 125.437 -88 123.302V14.0685C-88 11.9333 -87.5505 10.4162 -86.6514 9.51714C-85.64 8.50571 -84.0667 8 -81.9315 8H-28.1574C-17.1442 8 -8.9966 10.1352 -3.71472 14.4057C1.56716 18.5638 4.2081 25.0256 4.2081 33.7913V41.8827C4.2081 46.6027 3.36524 50.4798 1.67953 53.514C0.106209 56.4359 -2.36616 58.6274 -5.73756 60.0883C1.45478 60.7626 6.79285 63.235 10.2766 67.5054C13.7604 71.7759 15.5023 78.013 15.5023 86.2167V101.725C15.5023 111.165 12.8052 118.133 7.41093 122.628C2.12905 127.123 -6.07471 129.371 -17.2004 129.371ZM-50.0716 36.657V54.8626H-35.7431C-33.6079 54.8626 -32.0346 54.3007 -31.0232 53.1769C-29.8993 52.0531 -29.3374 50.3674 -29.3374 48.1198V43.3998C-29.3374 41.1522 -29.8993 39.4665 -31.0232 38.3427C-32.0346 37.2189 -33.6079 36.657 -35.7431 36.657H-50.0716ZM-50.0716 80.8225V100.714H-28.1574C-26.0222 100.714 -24.4489 100.152 -23.4375 99.0281C-22.3137 97.9043 -21.7518 96.2186 -21.7518 93.971V87.3967C-21.7518 85.1491 -22.3137 83.5196 -23.4375 82.5082C-24.4489 81.3844 -26.0222 80.8225 -28.1574 80.8225H-50.0716Z" fill="#F4EBDC" fill-opacity="0.1"/>
<path d="M132.13 97.511C132.13 102.68 131.343 107.4 129.77 111.671C128.309 115.829 125.612 119.425 121.679 122.459C117.858 125.381 112.576 127.685 105.833 129.371C99.0903 131.057 90.4932 131.899 80.0418 131.899C69.5904 131.899 60.9933 131.057 54.2505 129.371C47.5077 127.685 42.1696 125.381 38.2363 122.459C34.4154 119.425 31.7183 115.829 30.1449 111.671C28.684 107.4 27.9535 102.68 27.9535 97.511V14.0685C27.9535 11.9333 28.403 10.4162 29.3021 9.51714C30.3135 8.50571 31.8868 8 34.022 8H60.4876C62.6228 8 64.14 8.50571 65.039 9.51714C66.0505 10.4162 66.5562 11.9333 66.5562 14.0685V78.2939C66.5562 80.5415 67.399 82.452 69.0847 84.0253C70.7704 85.4863 74.5352 86.2167 80.379 86.2167C86.3351 86.2167 90.1561 85.4863 91.8418 84.0253C93.5275 82.452 94.3703 80.5415 94.3703 78.2939V14.0685C94.3703 11.9333 94.8198 10.4162 95.7189 9.51714C96.7303 8.50571 98.3036 8 100.439 8H126.062C128.197 8 129.714 8.50571 130.613 9.51714C131.624 10.4162 132.13 11.9333 132.13 14.0685V97.511Z" fill="#F4EBDC" fill-opacity="0.1"/>
<path d="M187.311 38.3427V59.9197H199.954C202.876 59.9197 204.843 59.1893 205.854 57.7283C206.865 56.155 207.371 54.2445 207.371 51.9969V46.2655C207.371 44.0179 206.865 42.1636 205.854 40.7027C204.843 39.1294 202.876 38.3427 199.954 38.3427H187.311ZM181.243 129.371H155.283C153.148 129.371 151.574 128.921 150.563 128.022C149.664 127.011 149.214 125.437 149.214 123.302V14.0685C149.214 11.9333 149.664 10.4162 150.563 9.51714C151.574 8.50571 153.148 8 155.283 8H211.417C224.003 8 232.657 10.6409 237.377 15.9228C242.209 21.0923 244.625 27.8351 244.625 36.1513V43.9055C244.625 48.6255 243.895 52.6712 242.434 56.0426C241.085 59.3016 238.669 61.6616 235.185 63.1226C241.254 63.7969 246.142 66.2692 249.851 70.5397C253.672 74.8101 255.582 80.4853 255.582 87.5653V123.302C255.582 125.437 255.077 127.011 254.065 128.022C253.166 128.921 251.649 129.371 249.514 129.371H223.385C221.25 129.371 219.677 128.921 218.665 128.022C217.766 127.011 217.317 125.437 217.317 123.302V97.511C217.317 95.0386 216.811 93.2405 215.8 92.1167C214.901 90.8805 213.271 90.2624 210.911 90.2624H187.311V123.302C187.311 125.437 186.806 127.011 185.794 128.022C184.895 128.921 183.378 129.371 181.243 129.371Z" fill="#F4EBDC" fill-opacity="0.1"/>
<path d="M361.029 129.371H307.929C293.882 129.371 283.431 126.561 276.575 120.942C269.833 115.323 266.461 106.67 266.461 94.9824V42.3884C266.461 30.7008 269.833 22.0475 276.575 16.4285C283.431 10.8095 293.882 8 307.929 8H350.072C352.207 8 353.724 8.50571 354.624 9.51714C355.635 10.4162 356.141 11.9333 356.141 14.0685V34.4656C356.141 36.6008 355.635 38.1741 354.624 39.1856C353.724 40.0846 352.207 40.5341 350.072 40.5341H315.009C311.526 40.5341 308.941 41.2646 307.255 42.7255C305.569 44.0741 304.727 46.1531 304.727 48.9626V89.251C304.727 92.0605 305.345 94.1396 306.581 95.4881C307.929 96.8367 309.896 97.511 312.481 97.511H328.832V71.214C328.832 69.0787 329.282 67.5616 330.181 66.6626C331.192 65.6511 332.766 65.1454 334.901 65.1454H361.029C363.164 65.1454 364.682 65.6511 365.581 66.6626C366.592 67.5616 367.098 69.0787 367.098 71.214V123.302C367.098 125.437 366.592 127.011 365.581 128.022C364.682 128.921 363.164 129.371 361.029 129.371Z" fill="#F4EBDC" fill-opacity="0.1"/>
<path d="M466.599 129.371H388.382C386.247 129.371 384.673 128.921 383.662 128.022C382.763 127.011 382.313 125.437 382.313 123.302V14.0685C382.313 11.9333 382.763 10.4162 383.662 9.51714C384.673 8.50571 386.247 8 388.382 8H466.599C468.734 8 470.251 8.50571 471.15 9.51714C472.161 10.4162 472.667 11.9333 472.667 14.0685V33.7913C472.667 35.9265 472.161 37.4998 471.15 38.5113C470.251 39.4103 468.734 39.8598 466.599 39.8598H420.073V52.8398H452.944C455.08 52.8398 456.597 53.3455 457.496 54.3569C458.507 55.256 459.013 56.7731 459.013 58.9083V76.9454C459.013 79.0806 458.507 80.6539 457.496 81.6653C456.597 82.5644 455.08 83.0139 452.944 83.0139H420.073V97.511H466.599C468.734 97.511 470.251 98.0167 471.15 99.0281C472.161 99.9271 472.667 101.444 472.667 103.58V123.302C472.667 125.437 472.161 127.011 471.15 128.022C470.251 128.921 468.734 129.371 466.599 129.371Z" fill="#F4EBDC" fill-opacity="0.1"/>
<path d="M525.354 38.3427V59.9197H537.997C540.919 59.9197 542.885 59.1893 543.897 57.7283C544.908 56.155 545.414 54.2445 545.414 51.9969V46.2655C545.414 44.0179 544.908 42.1636 543.897 40.7027C542.885 39.1294 540.919 38.3427 537.997 38.3427H525.354ZM519.285 129.371H493.326C491.19 129.371 489.617 128.921 488.606 128.022C487.706 127.011 487.257 125.437 487.257 123.302V14.0685C487.257 11.9333 487.706 10.4162 488.606 9.51714C489.617 8.50571 491.19 8 493.326 8H549.459C562.046 8 570.699 10.6409 575.419 15.9228C580.252 21.0923 582.668 27.8351 582.668 36.1513V43.9055C582.668 48.6255 581.937 52.6712 580.477 56.0426C579.128 59.3016 576.712 61.6616 573.228 63.1226C579.296 63.7969 584.185 66.2692 587.894 70.5397C591.715 74.8101 593.625 80.4853 593.625 87.5653V123.302C593.625 125.437 593.119 127.011 592.108 128.022C591.209 128.921 589.692 129.371 587.556 129.371H561.428C559.293 129.371 557.719 128.921 556.708 128.022C555.809 127.011 555.359 125.437 555.359 123.302V97.511C555.359 95.0386 554.854 93.2405 553.842 92.1167C552.943 90.8805 551.314 90.2624 548.954 90.2624H525.354V123.302C525.354 125.437 524.848 127.011 523.837 128.022C522.938 128.921 521.421 129.371 519.285 129.371Z" fill="#F4EBDC" fill-opacity="0.1"/>
<path d="M663.484 129.371H610.215C608.08 129.371 606.507 128.921 605.495 128.022C604.596 127.011 604.147 125.437 604.147 123.302V103.58C604.147 101.444 604.596 99.9271 605.495 99.0281C606.507 98.0167 608.08 97.511 610.215 97.511H655.561C657.022 97.511 658.089 97.0614 658.764 96.1624C659.55 95.151 659.944 93.971 659.944 92.6224C659.944 90.712 659.55 89.3072 658.764 88.4082C658.089 87.5091 657.022 87.0034 655.561 86.891L630.275 83.351C622.409 82.2272 616.059 79.6425 611.227 75.5968C606.507 71.5511 604.147 64.8083 604.147 55.3683V37.6684C604.147 28.1161 607.237 20.8114 613.418 15.7542C619.599 10.5847 628.14 8 639.041 8H686.241C688.376 8 689.893 8.50571 690.792 9.51714C691.803 10.4162 692.309 11.9333 692.309 14.0685V34.1284C692.309 36.2637 691.803 37.837 690.792 38.8484C689.893 39.7475 688.376 40.197 686.241 40.197H646.964C645.503 40.197 644.379 40.7027 643.592 41.7141C642.806 42.6132 642.412 43.7931 642.412 45.2541C642.412 46.715 642.806 47.9512 643.592 48.9626C644.379 49.9741 645.503 50.536 646.964 50.6484L672.081 54.0198C679.947 55.1436 686.297 57.7283 691.129 61.774C695.962 65.8197 698.378 72.5625 698.378 82.0025V99.7024C698.378 109.255 695.231 116.616 688.938 121.785C682.757 126.842 674.272 129.371 663.484 129.371Z" fill="#F4EBDC" fill-opacity="0.1"/>
<rect x="119.774" y="54.0645" width="132" height="31.9355" rx="2.32258" fill="#F4EBDC"/>
<rect x="115.226" y="50" width="132.677" height="32.129" rx="2.32258" fill="#D82300"/>
<path d="M134.952 74.6232H125.588C125.279 74.6232 125.051 74.5581 124.905 74.4281C124.775 74.2817 124.71 74.0541 124.71 73.7452V57.9424C124.71 57.6335 124.775 57.414 124.905 57.2839C125.051 57.1376 125.279 57.0645 125.588 57.0645H133.367C134.96 57.0645 136.139 57.3734 136.903 57.9912C137.667 58.5927 138.049 59.5275 138.049 60.7957V61.9663C138.049 62.6491 137.928 63.21 137.684 63.649C137.456 64.0717 137.098 64.3887 136.611 64.6001C137.651 64.6976 138.423 65.0553 138.927 65.6731C139.431 66.2909 139.683 67.1932 139.683 68.3801V70.6237C139.683 71.9894 139.293 72.9974 138.513 73.6477C137.749 74.298 136.562 74.6232 134.952 74.6232ZM130.197 61.2103V63.8441H132.27C132.579 63.8441 132.806 63.7628 132.953 63.6002C133.115 63.4376 133.196 63.1937 133.196 62.8686V62.1857C133.196 61.8606 133.115 61.6167 132.953 61.4541C132.806 61.2916 132.579 61.2103 132.27 61.2103H130.197ZM130.197 67.5997V70.4774H133.367C133.676 70.4774 133.904 70.3961 134.05 70.2335C134.213 70.0709 134.294 69.827 134.294 69.5019V68.5508C134.294 68.2256 134.213 67.9899 134.05 67.8436C133.904 67.681 133.676 67.5997 133.367 67.5997H130.197Z" fill="#F4EBDC"/>
<path d="M156.556 70.014C156.556 70.7619 156.442 71.4447 156.215 72.0625C156.003 72.6641 155.613 73.1843 155.044 73.6233C154.491 74.046 153.727 74.3793 152.752 74.6232C151.776 74.867 150.532 74.989 149.02 74.989C147.508 74.989 146.265 74.867 145.289 74.6232C144.314 74.3793 143.541 74.046 142.972 73.6233C142.42 73.1843 142.029 72.6641 141.802 72.0625C141.59 71.4447 141.485 70.7619 141.485 70.014V57.9424C141.485 57.6335 141.55 57.414 141.68 57.2839C141.826 57.1376 142.054 57.0645 142.363 57.0645H146.191C146.5 57.0645 146.72 57.1376 146.85 57.2839C146.996 57.414 147.069 57.6335 147.069 57.9424V67.2339C147.069 67.559 147.191 67.8354 147.435 68.063C147.679 68.2744 148.224 68.3801 149.069 68.3801C149.931 68.3801 150.484 68.2744 150.727 68.063C150.971 67.8354 151.093 67.559 151.093 67.2339V57.9424C151.093 57.6335 151.158 57.414 151.288 57.2839C151.435 57.1376 151.662 57.0645 151.971 57.0645H155.678C155.987 57.0645 156.206 57.1376 156.336 57.2839C156.483 57.414 156.556 57.6335 156.556 57.9424V70.014Z" fill="#F4EBDC"/>
<path d="M164.539 61.4541V64.5757H166.368C166.791 64.5757 167.075 64.47 167.222 64.2586C167.368 64.031 167.441 63.7546 167.441 63.4295V62.6003C167.441 62.2752 167.368 62.0069 167.222 61.7956C167.075 61.5679 166.791 61.4541 166.368 61.4541H164.539ZM163.661 74.6232H159.905C159.597 74.6232 159.369 74.5581 159.223 74.4281C159.093 74.2817 159.028 74.0541 159.028 73.7452V57.9424C159.028 57.6335 159.093 57.414 159.223 57.2839C159.369 57.1376 159.597 57.0645 159.905 57.0645H168.026C169.847 57.0645 171.099 57.4465 171.782 58.2106C172.481 58.9585 172.831 59.934 172.831 61.1371V62.2589C172.831 62.9417 172.725 63.527 172.514 64.0148C172.318 64.4863 171.969 64.8277 171.465 65.039C172.343 65.1366 173.05 65.4943 173.587 66.1121C174.139 66.7299 174.416 67.5509 174.416 68.5752V73.7452C174.416 74.0541 174.343 74.2817 174.196 74.4281C174.066 74.5581 173.847 74.6232 173.538 74.6232H169.758C169.449 74.6232 169.221 74.5581 169.075 74.4281C168.945 74.2817 168.88 74.0541 168.88 73.7452V70.014C168.88 69.6563 168.807 69.3962 168.66 69.2336C168.53 69.0548 168.295 68.9654 167.953 68.9654H164.539V73.7452C164.539 74.0541 164.466 74.2817 164.32 74.4281C164.189 74.5581 163.97 74.6232 163.661 74.6232Z" fill="#F4EBDC"/>
<path d="M189.671 74.6232H181.989C179.957 74.6232 178.445 74.2167 177.453 73.4038C176.477 72.5909 175.99 71.339 175.99 69.6482V62.0394C175.99 60.3486 176.477 59.0967 177.453 58.2838C178.445 57.4709 179.957 57.0645 181.989 57.0645H188.086C188.394 57.0645 188.614 57.1376 188.744 57.2839C188.89 57.414 188.964 57.6335 188.964 57.9424V60.8932C188.964 61.2021 188.89 61.4297 188.744 61.5761C188.614 61.7061 188.394 61.7712 188.086 61.7712H183.013C182.509 61.7712 182.135 61.8768 181.891 62.0882C181.647 62.2833 181.525 62.5841 181.525 62.9905V68.819C181.525 69.2255 181.615 69.5263 181.794 69.7214C181.989 69.9165 182.273 70.014 182.647 70.014H185.013V66.2096C185.013 65.9007 185.078 65.6812 185.208 65.5512C185.354 65.4048 185.582 65.3317 185.891 65.3317H189.671C189.98 65.3317 190.199 65.4048 190.329 65.5512C190.476 65.6812 190.549 65.9007 190.549 66.2096V73.7452C190.549 74.0541 190.476 74.2817 190.329 74.4281C190.199 74.5581 189.98 74.6232 189.671 74.6232Z" fill="#F4EBDC"/>
<path d="M204.943 74.6232H193.628C193.319 74.6232 193.091 74.5581 192.945 74.4281C192.815 74.2817 192.75 74.0541 192.75 73.7452V57.9424C192.75 57.6335 192.815 57.414 192.945 57.2839C193.091 57.1376 193.319 57.0645 193.628 57.0645H204.943C205.252 57.0645 205.472 57.1376 205.602 57.2839C205.748 57.414 205.821 57.6335 205.821 57.9424V60.7957C205.821 61.1046 205.748 61.3322 205.602 61.4785C205.472 61.6086 205.252 61.6736 204.943 61.6736H198.213V63.5514H202.968C203.277 63.5514 203.496 63.6246 203.627 63.7709C203.773 63.901 203.846 64.1205 203.846 64.4294V67.0388C203.846 67.3477 203.773 67.5753 203.627 67.7216C203.496 67.8517 203.277 67.9167 202.968 67.9167H198.213V70.014H204.943C205.252 70.014 205.472 70.0872 205.602 70.2335C205.748 70.3636 205.821 70.583 205.821 70.8919V73.7452C205.821 74.0541 205.748 74.2817 205.602 74.4281C205.472 74.5581 205.252 74.6232 204.943 74.6232Z" fill="#F4EBDC"/>
<path d="M213.444 61.4541V64.5757H215.273C215.695 64.5757 215.98 64.47 216.126 64.2586C216.273 64.031 216.346 63.7546 216.346 63.4295V62.6003C216.346 62.2752 216.273 62.0069 216.126 61.7956C215.98 61.5679 215.695 61.4541 215.273 61.4541H213.444ZM212.566 74.6232H208.81C208.501 74.6232 208.274 74.5581 208.127 74.4281C207.997 74.2817 207.932 74.0541 207.932 73.7452V57.9424C207.932 57.6335 207.997 57.414 208.127 57.2839C208.274 57.1376 208.501 57.0645 208.81 57.0645H216.931C218.752 57.0645 220.004 57.4465 220.687 58.2106C221.386 58.9585 221.735 59.934 221.735 61.1371V62.2589C221.735 62.9417 221.63 63.527 221.418 64.0148C221.223 64.4863 220.874 64.8277 220.37 65.039C221.247 65.1366 221.955 65.4943 222.491 66.1121C223.044 66.7299 223.32 67.5509 223.32 68.5752V73.7452C223.32 74.0541 223.247 74.2817 223.101 74.4281C222.971 74.5581 222.751 74.6232 222.442 74.6232H218.662C218.354 74.6232 218.126 74.5581 217.98 74.4281C217.85 74.2817 217.785 74.0541 217.785 73.7452V70.014C217.785 69.6563 217.711 69.3962 217.565 69.2336C217.435 69.0548 217.199 68.9654 216.858 68.9654H213.444V73.7452C213.444 74.0541 213.37 74.2817 213.224 74.4281C213.094 74.5581 212.875 74.6232 212.566 74.6232Z" fill="#F4EBDC"/>
<path d="M233.427 74.6232H225.721C225.412 74.6232 225.184 74.5581 225.038 74.4281C224.908 74.2817 224.843 74.0541 224.843 73.7452V70.8919C224.843 70.583 224.908 70.3636 225.038 70.2335C225.184 70.0872 225.412 70.014 225.721 70.014H232.281C232.492 70.014 232.646 69.949 232.744 69.8189C232.858 69.6726 232.915 69.5019 232.915 69.3068C232.915 69.0304 232.858 68.8272 232.744 68.6971C232.646 68.567 232.492 68.4939 232.281 68.4776L228.623 67.9655C227.485 67.8029 226.566 67.429 225.867 66.8437C225.184 66.2584 224.843 65.2829 224.843 63.9172V61.3566C224.843 59.9746 225.29 58.9179 226.184 58.1863C227.078 57.4384 228.314 57.0645 229.891 57.0645H236.719C237.028 57.0645 237.247 57.1376 237.378 57.2839C237.524 57.414 237.597 57.6335 237.597 57.9424V60.8445C237.597 61.1534 237.524 61.381 237.378 61.5273C237.247 61.6574 237.028 61.7224 236.719 61.7224H231.037C230.826 61.7224 230.663 61.7955 230.549 61.9419C230.435 62.0719 230.378 62.2426 230.378 62.454C230.378 62.6654 230.435 62.8442 230.549 62.9905C230.663 63.1368 230.826 63.2181 231.037 63.2344L234.671 63.7221C235.809 63.8847 236.727 64.2586 237.426 64.8439C238.125 65.4292 238.475 66.4047 238.475 67.7704V70.331C238.475 71.713 238.02 72.7779 237.109 73.5257C236.215 74.2574 234.988 74.6232 233.427 74.6232Z" fill="#F4EBDC"/>
</g>
</g>
<defs>
<filter id="filter0_d_536_26702" x="0" y="0" width="367" height="144" filterUnits="userSpaceOnUse" color-interpolation-filters="sRGB">
<feFlood flood-opacity="0" result="BackgroundImageFix"/>
<feColorMatrix in="SourceAlpha" type="matrix" values="0 0 0 0 0 0 0 0 0 0 0 0 0 0 0 0 0 0 127 0" result="hardAlpha"/>
<feOffset dy="4"/>
<feGaussianBlur stdDeviation="6"/>
<feComposite in2="hardAlpha" operator="out"/>
<feColorMatrix type="matrix" values="0 0 0 0 0.747233 0 0 0 0 0.747233 0 0 0 0 0.747233 0 0 0 0.15 0"/>
<feBlend mode="normal" in2="BackgroundImageFix" result="effect1_dropShadow_536_26702"/>
<feBlend mode="normal" in="SourceGraphic" in2="effect1_dropShadow_536_26702" result="shape"/>
</filter>
<clipPath id="clip0_536_26702">
<rect width="343" height="120" fill="white" transform="translate(12 8)"/>
</clipPath>
<clipPath id="clip1_536_26702">
<path d="M12 8H355V128H12V8Z" fill="white"/>
</clipPath>
</defs>
</svg>
