<svg width="367" height="144" viewBox="0 0 367 144" fill="none" xmlns="http://www.w3.org/2000/svg">
<g clip-path="url(#clip0_536_26775)" filter="url(#filter0_d_536_26775)">
<g clip-path="url(#clip1_536_26775)">
<path d="M12 8H355V128H12V8Z" fill="#3C193D"/>
<path d="M23.8961 51.7555C35.4827 50.9488 46.0427 48.1988 55.5761 43.5055L59.8661 56.0455C47.8394 63.4522 33.9427 67.7422 18.1761 68.9155L4.20606 55.9355C7.50606 41.5622 13.3727 28.5455 21.8061 16.8855C31.4127 3.75884 43.0727 -5.70116 56.7861 -11.4945L77.6861 3.5755C75.7794 9.80884 72.3327 17.0322 67.3461 25.2455C65.9527 27.5188 64.6327 29.5355 63.3861 31.2955L50.6261 24.2555C55.6127 15.6755 58.9494 8.45217 60.6361 2.5855C51.4694 7.13217 43.3661 14.0988 36.3261 23.4855C29.5794 32.6522 25.4361 42.0755 23.8961 51.7555ZM104.393 59.1255C99.0395 61.9122 91.8162 64.9188 82.7229 68.1455L68.8629 54.8355C77.9562 30.8555 90.1662 8.89217 105.493 -11.0545L117.373 0.715508C109.453 10.3222 101.716 22.4955 94.1629 37.2355C91.9629 41.6355 89.9829 45.8888 88.2229 49.9955C97.0229 48.0155 104.43 45.8155 110.443 43.3955V43.6155C122.103 19.5622 131.966 2.62217 140.033 -7.2045L152.133 4.5655C140.693 18.3522 128.923 40.4622 116.823 70.8955L104.393 59.1255ZM183.821 41.9655C188.221 49.0055 193.501 55.7888 199.661 62.3155L185.031 71.7755C178.285 63.0488 171.795 52.6355 165.561 40.5355C160.501 49.2622 155.918 58.6122 151.811 68.5855L139.381 57.1455C144.295 46.2922 148.695 37.6755 152.581 31.2955C158.888 20.8088 165.451 11.5322 172.271 3.46551C167.211 2.5855 162.628 2.1455 158.521 2.1455L163.251 -10.9445C177.038 -10.5045 189.028 -8.70783 199.221 -5.5545C203.035 -4.38116 206.885 -2.95116 210.771 -1.26449L219.351 17.6555C211.871 27.5555 200.028 35.6588 183.821 41.9655ZM169.961 33.1655C179.935 29.3522 188.808 24.5488 196.581 18.7555C199.221 16.8488 201.495 14.9055 203.401 12.9255C196.435 9.25884 187.195 6.32551 175.681 4.1255L185.141 11.8255C179.275 19.3055 174.215 26.4188 169.961 33.1655ZM255.885 41.9655C260.285 49.0055 265.565 55.7888 271.725 62.3155L257.095 71.7755C250.349 63.0488 243.859 52.6355 237.625 40.5355C232.565 49.2622 227.982 58.6122 223.875 68.5855L211.445 57.1455C216.359 46.2922 220.759 37.6755 224.645 31.2955C230.952 20.8088 237.515 11.5322 244.335 3.46551C239.275 2.5855 234.692 2.1455 230.585 2.1455L235.315 -10.9445C249.102 -10.5045 261.092 -8.70783 271.285 -5.5545C275.099 -4.38116 278.949 -2.95116 282.835 -1.26449L291.415 17.6555C283.935 27.5555 272.092 35.6588 255.885 41.9655ZM242.025 33.1655C251.999 29.3522 260.872 24.5488 268.645 18.7555C271.285 16.8488 273.559 14.9055 275.465 12.9255C268.499 9.25884 259.259 6.32551 247.745 4.1255L257.205 11.8255C251.339 19.3055 246.279 26.4188 242.025 33.1655ZM317.719 26.5655C329.306 16.4455 339.499 5.07884 348.299 -7.5345L360.619 4.2355C346.979 21.5422 332.679 34.7422 317.719 43.8355C313.686 50.0688 309.726 58.7588 305.839 69.9055L292.199 58.1355C295.279 50.4355 297.479 45.3755 298.799 42.9555C300.192 40.4622 301.622 38.0422 303.089 35.6955C301.402 21.0288 302.759 4.12551 307.159 -15.0145L321.899 -1.4845C319.406 8.26884 318.012 17.6188 317.719 26.5655Z" fill="#FF005E" fill-opacity="0.4"/>
<path d="M25.8961 142.058C37.4827 141.251 48.0427 138.501 57.5761 133.808L61.8661 146.348C49.8394 153.754 35.9427 158.044 20.1761 159.218L6.20606 146.238C9.50606 131.864 15.3727 118.848 23.8061 107.188C33.4127 94.0611 45.0727 84.6011 58.7861 78.8077L79.6861 93.8777C77.7794 100.111 74.3327 107.334 69.3461 115.548C67.9527 117.821 66.6327 119.838 65.3861 121.598L52.6261 114.558C57.6127 105.978 60.9494 98.7544 62.6361 92.8877C53.4694 97.4344 45.3661 104.401 38.3261 113.788C31.5794 122.954 27.4361 132.378 25.8961 142.058ZM106.393 149.428C101.04 152.214 93.8162 155.221 84.7229 158.448L70.8629 145.138C79.9562 121.158 92.1662 99.1944 107.493 79.2477L119.373 91.0178C111.453 100.624 103.716 112.798 96.1629 127.538C93.9629 131.938 91.9829 136.191 90.2229 140.298C99.0229 138.318 106.43 136.118 112.443 133.698V133.918C124.103 109.864 133.966 92.9244 142.033 83.0978L154.133 94.8678C142.693 108.654 130.923 130.764 118.823 161.198L106.393 149.428ZM185.821 132.268C190.221 139.308 195.501 146.091 201.661 152.618L187.031 162.078C180.285 153.351 173.795 142.938 167.561 130.838C162.501 139.564 157.918 148.914 153.811 158.888L141.381 147.448C146.295 136.594 150.695 127.978 154.581 121.598C160.888 111.111 167.451 101.834 174.271 93.7678C169.211 92.8877 164.628 92.4477 160.521 92.4477L165.251 79.3578C179.038 79.7978 191.028 81.5944 201.221 84.7477C205.035 85.9211 208.885 87.3511 212.771 89.0378L221.351 107.958C213.871 117.858 202.028 125.961 185.821 132.268ZM171.961 123.468C181.935 119.654 190.808 114.851 198.581 109.058C201.221 107.151 203.495 105.208 205.401 103.228C198.435 99.5611 189.195 96.6278 177.681 94.4277L187.141 102.128C181.275 109.608 176.215 116.721 171.961 123.468ZM257.885 132.268C262.285 139.308 267.565 146.091 273.725 152.618L259.095 162.078C252.349 153.351 245.859 142.938 239.625 130.838C234.565 139.564 229.982 148.914 225.875 158.888L213.445 147.448C218.359 136.594 222.759 127.978 226.645 121.598C232.952 111.111 239.515 101.834 246.335 93.7678C241.275 92.8877 236.692 92.4477 232.585 92.4477L237.315 79.3578C251.102 79.7978 263.092 81.5944 273.285 84.7477C277.099 85.9211 280.949 87.3511 284.835 89.0378L293.415 107.958C285.935 117.858 274.092 125.961 257.885 132.268ZM244.025 123.468C253.999 119.654 262.872 114.851 270.645 109.058C273.285 107.151 275.559 105.208 277.465 103.228C270.499 99.5611 261.259 96.6278 249.745 94.4277L259.205 102.128C253.339 109.608 248.279 116.721 244.025 123.468ZM319.719 116.868C331.306 106.748 341.499 95.3811 350.299 82.7677L362.619 94.5377C348.979 111.844 334.679 125.044 319.719 134.138C315.686 140.371 311.726 149.061 307.839 160.208L294.199 148.438C297.279 140.738 299.479 135.678 300.799 133.258C302.192 130.764 303.622 128.344 305.089 125.998C303.402 111.331 304.759 94.4278 309.159 75.2878L323.899 88.8177C321.406 98.5711 320.012 107.921 319.719 116.868Z" fill="#FF005E" fill-opacity="0.4"/>
<path d="M240.263 65.2158C245.27 60.8432 249.674 55.9319 253.476 50.4819L258.799 55.5675C252.906 63.0454 246.727 68.7488 240.263 72.6778C238.52 75.3711 236.809 79.1259 235.13 83.9421L229.237 78.8566C230.567 75.5295 231.518 73.3432 232.088 72.2976C232.69 71.2203 233.308 70.1747 233.942 69.1607C233.213 62.8236 233.799 55.52 235.7 47.25L242.069 53.096C240.992 57.3102 240.39 61.3502 240.263 65.2158Z" fill="white"/>
<path d="M214.16 71.8696C216.061 74.9114 218.343 77.8424 221.004 80.6624L214.683 84.7498C211.768 80.9792 208.964 76.4799 206.271 71.2517C204.084 75.0223 202.104 79.0623 200.329 83.3715L194.959 78.4285C197.082 73.739 198.983 70.016 200.662 67.2593C203.387 62.7282 206.223 58.72 209.17 55.2346C206.983 54.8543 205.003 54.6642 203.229 54.6642L205.272 49.0083C211.229 49.1984 216.41 49.9747 220.814 51.3372C222.462 51.8442 224.125 52.462 225.805 53.1908L229.512 61.3658C226.28 65.6433 221.163 69.1446 214.16 71.8696ZM208.172 68.0673C212.481 66.4196 216.315 64.3442 219.674 61.841C220.814 61.0172 221.797 60.1775 222.62 59.322C219.61 57.7377 215.618 56.4703 210.643 55.5197L214.731 58.8467C212.196 62.0787 210.009 65.1522 208.172 68.0673Z" fill="white"/>
<path d="M183.637 71.8696C185.538 74.9114 187.82 77.8424 190.481 80.6624L184.16 84.7498C181.245 80.9792 178.441 76.4799 175.747 71.2517C173.561 75.0223 171.581 79.0623 169.806 83.3715L164.436 78.4285C166.558 73.739 168.46 70.016 170.139 67.2593C172.864 62.7282 175.7 58.72 178.647 55.2346C176.46 54.8543 174.48 54.6642 172.706 54.6642L174.749 49.0083C180.706 49.1984 185.887 49.9747 190.291 51.3372C191.939 51.8442 193.602 52.462 195.282 53.1908L198.989 61.3658C195.757 65.6433 190.64 69.1446 183.637 71.8696ZM177.649 68.0673C181.958 66.4196 185.792 64.3442 189.15 61.841C190.291 61.0172 191.273 60.1775 192.097 59.322C189.087 57.7377 185.095 56.4703 180.12 55.5197L184.207 58.8467C181.673 62.0787 179.486 65.1522 177.649 68.0673Z" fill="white"/>
<path d="M149.932 79.2842C147.619 80.4883 144.497 81.7874 140.568 83.1816L134.58 77.4306C138.509 67.0694 143.785 57.5795 150.407 48.9609L155.54 54.0465C152.118 58.1973 148.775 63.4572 145.511 69.826C144.561 71.7272 143.705 73.5649 142.945 75.3393C146.747 74.4838 149.947 73.5333 152.546 72.4876V72.5827C157.584 62.1897 161.845 54.8703 165.331 50.6244L170.559 55.71C165.616 61.6669 160.53 71.2202 155.302 84.3698L149.932 79.2842Z" fill="white"/>
<path d="M115.765 76.1C120.771 75.7514 125.334 74.5632 129.453 72.5353L131.307 77.9536C126.11 81.1539 120.106 83.0075 113.293 83.5144L107.257 77.9061C108.683 71.6957 111.218 66.0714 114.862 61.0334C119.012 55.3616 124.051 51.2742 129.976 48.771L139.006 55.2824C138.182 57.9757 136.693 61.0968 134.539 64.6456C133.936 65.6278 133.366 66.4992 132.827 67.2596L127.314 64.2178C129.469 60.5106 130.911 57.3895 131.639 54.8547C127.679 56.8192 124.177 59.8293 121.135 63.8851C118.22 67.8458 116.43 71.9175 115.765 76.1Z" fill="white"/>
</g>
</g>
<defs>
<filter id="filter0_d_536_26775" x="0" y="0" width="367" height="144" filterUnits="userSpaceOnUse" color-interpolation-filters="sRGB">
<feFlood flood-opacity="0" result="BackgroundImageFix"/>
<feColorMatrix in="SourceAlpha" type="matrix" values="0 0 0 0 0 0 0 0 0 0 0 0 0 0 0 0 0 0 127 0" result="hardAlpha"/>
<feOffset dy="4"/>
<feGaussianBlur stdDeviation="6"/>
<feComposite in2="hardAlpha" operator="out"/>
<feColorMatrix type="matrix" values="0 0 0 0 0.747233 0 0 0 0 0.747233 0 0 0 0 0.747233 0 0 0 0.15 0"/>
<feBlend mode="normal" in2="BackgroundImageFix" result="effect1_dropShadow_536_26775"/>
<feBlend mode="normal" in="SourceGraphic" in2="effect1_dropShadow_536_26775" result="shape"/>
</filter>
<clipPath id="clip0_536_26775">
<rect width="343" height="120" fill="white" transform="translate(12 8)"/>
</clipPath>
<clipPath id="clip1_536_26775">
<path d="M12 8H355V128H12V8Z" fill="white"/>
</clipPath>
</defs>
</svg>
