<svg width="367" height="144" viewBox="0 0 367 144" fill="none" xmlns="http://www.w3.org/2000/svg">
<g clip-path="url(#clip0_536_26758)" filter="url(#filter0_d_536_26758)">
<g clip-path="url(#clip1_536_26758)">
<path d="M12 8H355V128H12V8Z" fill="#F36A25"/>
<g opacity="0.1">
<path d="M61.7395 -35.4134C63.6206 -34.384 64.7474 -32.7312 65.1102 -30.4739C65.2917 -29.3406 65.3012 -28.2261 65.1484 -27.1211L63.7639 -15.3438C63.5252 -13.1527 62.8281 -11.5093 61.6632 -10.4138C60.4982 -9.3182 58.8558 -8.60986 56.7265 -8.26985C54.683 -7.94874 52.9834 -8.11874 51.6179 -8.77041C50.2524 -9.43153 49.1352 -10.6782 48.2472 -12.5293L45.1821 -19.1311C44.6569 -20.2927 44.1221 -21.0389 43.5683 -21.36C43.0145 -21.6905 41.9546 -21.7283 40.4077 -21.4827L28.1471 -19.5655L25.1297 5.51915L27.4596 5.15082C28.6055 4.97137 29.5794 4.65026 30.3815 4.19692C31.1836 3.74359 32.0144 2.98802 32.8451 1.94912L36.1394 -1.80035C37.333 -3.22648 38.4407 -4.2937 39.4624 -4.9926C40.4841 -5.6915 41.6013 -6.13539 42.8331 -6.32428C44.38 -6.56984 45.7454 -6.32428 46.9104 -5.59705C48.0753 -4.86983 48.7819 -3.68926 49.0493 -2.07425C49.1543 -1.42257 49.1543 -0.63868 49.0493 0.286884L46.6048 19.5632C46.0128 23.7188 44.1222 26.0421 40.9329 26.5427C38.3165 26.9488 36.063 25.9382 34.1628 23.5015L31.2982 19.7237C30.5439 18.6848 29.8946 18.0332 29.3503 17.7876C28.806 17.542 28.0421 17.4948 27.0681 17.6459L23.516 18.2032L21.2625 37.0828C21.1766 37.5928 21.1957 38.2539 21.3294 39.0661C21.5108 40.1995 21.9214 41.0872 22.5707 41.7295C23.22 42.3717 24.1367 43.0139 25.3303 43.6562C26.3424 44.2417 27.049 44.7328 27.4501 45.1295C27.8511 45.5262 28.0994 46.0456 28.2044 46.6879C28.4336 48.1423 27.9466 49.2568 26.7244 50.0312C25.5021 50.8057 23.6306 51.3818 21.1002 51.7785L-9.67534 56.5952C-11.8047 56.9257 -13.4566 56.7935 -14.6407 56.189C-15.8247 55.5846 -16.3594 54.574 -16.2544 53.1479C-16.2067 52.3923 -15.9966 51.7596 -15.6146 51.2496C-15.2327 50.7396 -14.6407 50.1257 -13.8386 49.4173C-12.5781 48.3973 -11.6137 47.3679 -10.9358 46.3479C-10.2578 45.3278 -9.82812 43.8545 -9.63714 41.9184L-2.92439 -12.7088C-2.76206 -13.8138 -2.76207 -14.8055 -2.89575 -15.6933C-3.04853 -16.666 -3.32544 -17.4499 -3.71694 -18.0544C-4.10844 -18.6588 -4.64316 -19.2727 -5.33067 -19.915C-6.2378 -20.85 -6.73433 -21.6433 -6.83937 -22.2855C-6.87756 -22.5311 -6.86801 -22.9844 -6.81072 -23.655C-6.64839 -24.76 -6.03727 -25.6195 -4.95827 -26.2428C-3.88881 -26.8661 -2.24644 -27.3478 -0.0406837 -27.6972L54.3966 -36.2257C57.4235 -36.6979 59.8775 -36.424 61.7586 -35.3851L61.7395 -35.4134Z" fill="#FAD6B3"/>
<path d="M143.373 -0.422035C140.193 2.77021 135.925 5.1219 130.549 6.62358C134.521 6.3308 137.643 7.00137 139.916 8.63527C142.189 10.2692 143.573 12.6586 144.079 15.8131C144.27 17.022 144.308 18.552 144.184 20.3937L143.783 26.5515C143.745 27.3827 143.755 27.9682 143.812 28.2893C143.984 29.3377 144.347 30.0932 144.929 30.5371C145.502 30.9905 146.237 31.1416 147.135 30.9999C148.854 30.7355 150.133 30.7827 150.993 31.1416C151.842 31.5099 152.253 32.3505 152.215 33.6822C152.186 35.59 151.499 37.5639 150.143 39.6039C148.796 41.6439 146.724 43.4761 143.927 45.1195C141.129 46.7534 137.605 47.9151 133.356 48.5762C127.961 49.4167 123.483 48.8973 119.912 47.0178C116.34 45.1289 114.201 41.965 113.485 37.5166C113.208 35.8166 113.17 33.9655 113.342 31.9444L114.058 23.8787C114.22 22.7737 114.201 21.6593 114.02 20.5259C113.724 18.6654 112.874 17.4281 111.48 16.8237C110.086 16.2192 107.995 16.1248 105.216 16.5592L100.556 17.2865L98.1404 38.3005C98.0545 38.8105 98.0736 39.4339 98.1882 40.1611C98.3696 41.2944 98.8088 42.22 99.5154 42.9378C100.212 43.6556 101.129 44.3828 102.256 45.1195C103.087 45.5728 103.736 46.0261 104.232 46.4889C104.729 46.9517 105.016 47.4617 105.111 48.0284C105.331 49.4073 104.834 50.4745 103.612 51.249C102.39 52.0234 100.518 52.5995 97.9876 52.9962L67.2121 57.8129C65.0827 58.1435 63.4308 58.0113 62.2468 57.4068C61.0627 56.8024 60.528 55.7918 60.633 54.3657C60.6808 53.6101 60.8909 52.9773 61.2728 52.4673C61.6548 51.9573 62.2468 51.3434 63.0489 50.6351C64.3093 49.6151 65.2737 48.5856 65.9517 47.5656C66.6296 46.5456 67.0593 45.0723 67.2503 43.1361L73.8389 -11.4721C74.0013 -12.5771 74.0013 -13.6066 73.8389 -14.5794C73.6957 -15.4672 73.4379 -16.1944 73.0464 -16.7516C72.6644 -17.3088 72.1583 -17.9605 71.5377 -18.6877C70.6306 -19.6228 70.134 -20.4161 70.029 -21.0583C69.9908 -21.3039 70.0003 -21.7572 70.0576 -22.4278C70.22 -23.5328 70.812 -24.3922 71.8432 -25.0061C72.8745 -25.62 74.536 -26.1111 76.8277 -26.47L117.897 -32.9018C123.54 -33.7896 128.601 -33.7045 133.079 -32.6657C137.558 -31.6268 141.157 -29.804 143.879 -27.2067C146.6 -24.6095 148.262 -21.4456 148.854 -17.7339C149.131 -16.0338 149.15 -14.296 148.93 -12.5205C148.376 -7.62821 146.505 -3.58595 143.335 -0.3937L143.373 -0.422035ZM117.324 -13.191C116.636 -17.4788 113.924 -19.245 109.179 -18.5083L104.032 -17.7055L102.074 4.60246L107.221 3.79967C110.411 3.29911 112.798 2.13743 114.392 0.31464C115.987 -1.50816 116.98 -4.56818 117.381 -8.856C117.496 -10.7827 117.467 -12.2277 117.314 -13.2005L117.324 -13.191Z" fill="#FAD6B3"/>
<path d="M202.527 -34.2614C203.549 -33.8837 204.141 -33.2131 204.294 -32.2403C204.361 -31.8342 204.322 -31.2864 204.179 -30.6064C204.026 -30.002 203.759 -29.4447 203.377 -28.9253C202.995 -28.4058 202.642 -28.0186 202.308 -27.7636C201.973 -27.4992 201.735 -27.2819 201.601 -27.093C200.407 -26.158 199.472 -25.1853 198.803 -24.1652C198.125 -23.1452 197.648 -21.6624 197.38 -19.7169L190.916 34.8725C190.754 35.9775 190.754 37.007 190.916 37.9797C191.069 38.9525 191.346 39.7364 191.737 40.3409C192.129 40.9453 192.663 41.5592 193.351 42.2014C194.258 43.1365 194.755 43.9298 194.86 44.572C194.888 44.7326 194.86 45.1481 194.812 45.8187C194.669 46.9993 194.057 47.9059 192.978 48.5293C191.909 49.1526 190.228 49.6437 187.937 50.0026L159.128 54.5171C157.409 54.7815 156.034 54.7154 155.003 54.2904C153.972 53.8749 153.38 53.176 153.227 52.2032C153.151 51.7215 153.189 51.1738 153.342 50.5693C153.523 49.6248 153.943 48.8598 154.602 48.2554C155.261 47.6509 155.662 47.3015 155.815 47.1976C156.989 46.187 157.925 45.1859 158.603 44.2131C159.281 43.2403 159.758 41.7292 160.016 39.6986L166.605 -14.9096C166.767 -16.0146 166.767 -17.0441 166.605 -18.0169C166.462 -18.9046 166.204 -19.6319 165.812 -20.1891C165.43 -20.7463 164.924 -21.398 164.304 -22.1252C163.397 -23.0602 162.9 -23.8536 162.795 -24.4958C162.757 -24.7414 162.766 -25.1947 162.824 -25.8653C162.986 -26.9703 163.578 -27.8297 164.609 -28.4436C165.64 -29.0575 167.302 -29.5486 169.594 -29.9075L198.402 -34.422C200.121 -34.6864 201.486 -34.6392 202.518 -34.2614H202.527Z" fill="#FAD6B3"/>
<path d="M280.481 -35.0456C282.362 -34.0161 283.489 -32.3633 283.852 -30.1061C284.033 -28.9728 284.043 -27.8583 283.89 -26.7533L282.505 -14.976C282.286 -12.6998 281.684 -11.0565 280.72 -10.0365C279.755 -9.01646 278.247 -8.34591 276.203 -8.02479C274.246 -7.71312 272.642 -7.90201 271.4 -8.58202C270.159 -9.26203 269.099 -10.5181 268.221 -12.3693L265.155 -18.971C264.516 -20.3593 263.866 -21.2566 263.217 -21.6532C262.568 -22.0499 261.422 -22.116 259.789 -21.861L246.917 -19.8399L244.244 2.70419L249.639 1.86363C250.212 1.77863 250.918 1.24973 251.778 0.286388L255.358 -4.00142C256.418 -5.23866 257.354 -6.18311 258.175 -6.80645C258.997 -7.42979 260.056 -7.84534 261.365 -8.05313C262.835 -8.27979 264.105 -8.0909 265.165 -7.46757C266.225 -6.84423 266.855 -5.92811 267.046 -4.71921C267.094 -4.3981 267.094 -3.89753 267.037 -3.22697L264.707 14.4154C264.497 16.276 263.876 17.721 262.826 18.7504C261.775 19.7893 260.553 20.4127 259.168 20.6299C256.877 20.9888 254.977 20.0821 253.458 17.9193L250.699 13.9998C249.935 12.8759 248.932 12.4132 247.71 12.6021L242.926 13.3482L239.813 40.1895L250.603 38.4989C252.15 38.2534 253.477 37.7339 254.566 36.95C255.654 36.1567 256.772 34.8817 257.908 33.1345L263.981 23.9827C265.07 22.4055 266.158 21.2155 267.247 20.4221C268.335 19.6288 269.739 19.0999 271.458 18.8354C273.253 18.5521 274.79 18.7316 276.07 19.3549C277.34 19.9877 278.113 21.1116 278.371 22.7266C278.476 23.3783 278.476 24.1622 278.371 25.0877L276.776 37.8945C276.366 41.1056 275.401 43.4573 273.883 44.9401C272.365 46.4229 269.968 47.4146 266.693 47.934L208.207 57.0952C206.488 57.3597 205.113 57.2936 204.082 56.8686C203.051 56.453 202.459 55.7541 202.306 54.7813C202.229 54.2996 202.268 53.7519 202.42 53.1474C202.602 52.203 203.022 51.438 203.681 50.8335C204.34 50.229 204.741 49.8796 204.893 49.7757C206.068 48.7651 207.004 47.764 207.682 46.7912C208.36 45.8185 208.837 44.3073 209.095 42.2768L215.808 -12.3504C215.97 -13.4554 215.97 -14.4471 215.836 -15.3349C215.684 -16.3076 215.407 -17.0915 215.015 -17.696C214.624 -18.3004 214.089 -18.9143 213.401 -19.5566C212.494 -20.4916 211.998 -21.2849 211.893 -21.9271C211.855 -22.1727 211.864 -22.626 211.921 -23.2966C212.084 -24.4016 212.695 -25.2611 213.764 -25.8844C214.834 -26.5077 216.476 -26.9894 218.682 -27.3388L273.119 -35.8673C276.146 -36.3395 278.6 -36.0656 280.481 -35.0267V-35.0456Z" fill="#FAD6B3"/>
<path d="M362.439 -28.9342C369.39 -25.2603 373.592 -18.9324 375.033 -9.96012C375.75 -5.51175 375.75 -0.251148 375.043 5.82168C373.849 15.6251 371.405 23.6341 367.7 29.8486C364.005 36.0631 358.619 41.012 351.534 44.6859C344.458 48.3693 335.062 51.0799 323.365 52.8271L289.993 57.9271C288.274 58.1916 286.899 58.1255 285.867 57.7005C284.836 57.2849 284.244 56.586 284.091 55.6132C284.015 55.1316 284.053 54.5838 284.206 53.9793C284.33 53.2143 284.598 52.6382 284.999 52.2415C285.4 51.8449 286.001 51.2971 286.803 50.5887C287.997 49.6537 288.904 48.6904 289.544 47.6704C290.174 46.6598 290.623 45.1393 290.89 43.1087L297.498 -11.3768C297.66 -12.4818 297.66 -13.5113 297.498 -14.484C297.355 -15.3718 297.097 -16.0991 296.705 -16.6563C296.323 -17.2135 295.817 -17.8652 295.197 -18.5924C294.289 -19.5274 293.793 -20.3208 293.688 -20.963C293.65 -21.2086 293.659 -21.6619 293.717 -22.3324C293.879 -23.4375 294.471 -24.2969 295.502 -24.9108C296.533 -25.5247 298.195 -26.0158 300.487 -26.3747L333.592 -31.5598C345.853 -33.477 355.459 -32.5986 362.42 -28.9247L362.439 -28.9342ZM343.542 -10.3757C342.854 -14.6635 341.479 -17.4685 339.426 -18.8096C337.373 -20.1413 334.661 -20.5474 331.31 -20.028L328.608 -19.603L321.494 41.9281L324.435 41.4653C328.197 40.8798 331.233 39.5953 333.554 37.612C335.874 35.6286 337.803 32.3514 339.331 27.7613C340.859 23.1713 342.157 16.6073 343.217 8.06948C344.124 0.136082 344.229 -6.01231 343.532 -10.3757H343.542Z" fill="#FAD6B3"/>
<path d="M96.8126 69.3357C97.8439 69.7512 98.4263 70.4124 98.5696 71.3001C98.6364 71.7063 98.5982 72.254 98.455 72.934C98.3022 73.5385 98.0348 74.0957 97.6529 74.6152C97.2709 75.1346 96.9176 75.5218 96.5834 75.7768C96.2492 76.0413 96.0105 76.2585 95.8768 76.4474C94.6832 77.3824 93.7475 78.3552 93.079 79.3752C92.4011 80.3952 91.9236 81.878 91.6563 83.8236L84.9435 138.451C84.7812 139.556 84.7812 140.585 84.9435 141.558C85.0963 142.531 85.3637 143.277 85.7456 143.796C86.118 144.316 86.6623 144.977 87.3785 145.78C87.4739 145.846 87.7509 146.12 88.1996 146.582C88.6484 147.055 88.9254 147.565 89.0113 148.131C89.0399 148.292 89.0113 148.707 88.9635 149.378C88.7344 150.577 88.0851 151.484 87.0156 152.108C85.9461 152.731 84.2656 153.222 81.9739 153.581L53.1654 158.095C51.4466 158.369 50.0716 158.294 49.0403 157.869C48.0091 157.453 47.4171 156.754 47.2643 155.781C47.1879 155.3 47.2261 154.752 47.3789 154.148C47.5985 153.449 47.9613 152.835 48.4674 152.296C48.964 151.768 49.4796 151.286 49.9952 150.88C51.1888 149.945 52.115 148.953 52.7834 147.895C53.4519 146.837 53.9197 145.298 54.1775 143.267L56.8225 122.093L35.1183 125.493L32.4733 146.667C32.311 147.772 32.311 148.802 32.4733 149.775C32.6261 150.747 32.8934 151.494 33.2754 152.013C33.6478 152.533 34.1921 153.194 34.9082 153.996C35.0037 154.063 35.2806 154.336 35.7294 154.799C36.1782 155.271 36.4551 155.781 36.5411 156.348C36.5697 156.509 36.5411 156.924 36.4933 157.595C36.2642 158.794 35.6148 159.701 34.5454 160.324C33.4759 160.948 31.7953 161.439 29.5037 161.798L0.695164 166.312C-1.02361 166.586 -2.39862 166.51 -3.42988 166.085C-4.46115 165.67 -5.05317 164.971 -5.20595 163.998C-5.28234 163.516 -5.24414 162.969 -5.09136 162.364C-4.87174 161.665 -4.50889 161.051 -4.00281 160.513C-3.49672 159.984 -2.99064 159.503 -2.47501 159.096C-1.28142 158.161 -0.355197 157.17 0.313213 156.112C0.981624 155.054 1.44951 153.515 1.70733 151.484L8.42008 96.857C8.5824 95.752 8.5824 94.7226 8.42008 93.7498C8.27684 92.862 8.01903 92.1348 7.62754 91.5775C7.24559 91.0203 6.7395 90.3686 6.11884 89.6414C5.72734 89.292 5.37404 88.9142 5.05893 88.4986C4.74382 88.0925 4.54329 87.6486 4.46691 87.1575C4.43826 86.9969 4.45736 86.5814 4.51465 85.9108C4.67698 84.8058 5.2881 83.9464 6.36711 83.323C7.43656 82.6997 9.11714 82.2086 11.4088 81.8497L40.2173 77.3352C41.9361 77.0707 43.3111 77.1463 44.3424 77.5619C45.3736 77.9774 45.9561 78.6385 46.0993 79.5263C46.1662 79.9324 46.128 80.4802 45.9847 81.1602C45.832 81.7647 45.5646 82.3219 45.1827 82.8413C44.8007 83.3608 44.4474 83.748 44.1132 84.003C43.779 84.2675 43.5403 84.4847 43.4066 84.6736C42.213 85.6086 41.2772 86.5814 40.6088 87.6014C39.9309 88.6214 39.4534 90.1042 39.1861 92.0498L36.6079 112.837L58.3121 109.437L60.8903 88.6497C61.0526 87.5447 61.0526 86.5153 60.8903 85.5425C60.7471 84.6547 60.4893 83.9275 60.0978 83.3702C59.7158 82.813 59.2097 82.1613 58.5891 81.4341C58.1976 81.0847 57.8443 80.7069 57.5292 80.2913C57.2141 79.8852 57.0135 79.4413 56.9371 78.9502C56.9085 78.7897 56.9371 78.3741 56.9849 77.7035C57.1472 76.5985 57.7583 75.7391 58.8373 75.1157C59.9068 74.4924 61.5874 74.0013 63.8791 73.6424L92.6875 69.1279C94.4063 68.8634 95.7813 68.939 96.8126 69.3546V69.3357Z" fill="#FAD6B3"/>
<path d="M145.893 73.3966C146.915 73.7744 147.507 74.4449 147.659 75.4177C147.726 75.8238 147.688 76.3716 147.545 77.0516C147.392 77.6561 147.125 78.2133 146.743 78.7328C146.361 79.2522 146.008 79.6394 145.673 79.8944C145.339 80.1589 145.1 80.3761 144.967 80.565C143.773 81.5 142.837 82.4728 142.169 83.4928C141.491 84.5128 141.014 85.9956 140.746 87.9412L134.282 142.531C134.119 143.636 134.119 144.665 134.282 145.638C134.434 146.611 134.711 147.394 135.103 147.999C135.494 148.603 136.029 149.217 136.717 149.859C137.624 150.794 138.12 151.588 138.225 152.23C138.254 152.391 138.225 152.806 138.178 153.486C138.034 154.667 137.423 155.573 136.344 156.197C135.275 156.82 133.594 157.311 131.302 157.67L102.494 162.185C100.775 162.458 99.4002 162.383 98.3689 161.958C97.3377 161.542 96.7457 160.843 96.5929 159.871C96.5165 159.389 96.5547 158.841 96.7075 158.237C96.8889 157.292 97.309 156.527 97.9679 155.923C98.6268 155.318 99.0278 154.969 99.1806 154.865C100.355 153.855 101.291 152.853 101.969 151.881C102.647 150.908 103.124 149.397 103.382 147.366L109.971 92.7579C110.133 91.6529 110.133 90.6234 109.971 89.6506C109.827 88.7628 109.57 88.0356 109.178 87.4784C108.796 86.9212 108.29 86.2695 107.669 85.5423C106.762 84.6073 106.266 83.8139 106.161 83.1717C106.123 82.9261 106.132 82.4728 106.189 81.8022C106.352 80.6972 106.944 79.8378 107.975 79.2239C109.006 78.61 110.668 78.1189 112.959 77.76L141.768 73.2455C143.487 72.981 144.852 73.0283 145.883 73.406L145.893 73.3966Z" fill="#FAD6B3"/>
<path d="M173.041 158.483C167.159 156.84 162.223 153.817 158.203 149.435C154.192 145.053 151.633 139.386 150.516 132.425C149.743 127.571 149.752 122.188 150.564 116.256C152.378 103.544 156.665 93.9013 163.397 87.3373C170.139 80.7734 177.835 76.8067 186.505 75.4467C191.165 74.7194 195.405 74.7572 199.215 75.5694C203.034 76.3817 206.663 77.8456 210.1 79.9517L213.003 76.8822C214.941 74.8422 216.612 73.3783 218.016 72.4905C219.42 71.6122 221.072 71.0172 222.953 70.7244C224.996 70.4033 226.705 70.5922 228.071 71.2911C229.436 71.99 230.257 73.1894 230.534 74.88C230.678 75.7678 230.658 76.6839 230.467 77.6283L226.629 97.6224C226.247 99.9174 225.607 101.599 224.729 102.647C223.85 103.695 222.389 104.385 220.346 104.696C218.216 105.027 216.364 104.555 214.779 103.27C213.194 101.986 211.246 99.6624 208.945 96.2907C206.376 92.7963 204.38 90.539 202.958 89.519C201.535 88.499 199.644 88.1779 197.267 88.5462C193.915 89.0751 191.012 91.6157 188.558 96.1868C186.104 100.758 184.261 107.322 183.039 115.888C182.008 123.094 181.874 128.997 182.609 133.606C183.259 137.648 184.519 140.538 186.391 142.276C188.262 144.014 190.506 144.675 193.122 144.269C196.961 143.664 199.998 142.323 202.213 140.236C204.438 138.149 206.615 135.448 208.773 132.123C210.119 130.093 211.236 128.563 212.124 127.562C213.012 126.551 214.025 125.956 215.17 125.777C216.641 125.55 218.312 126.032 220.184 127.231C222.055 128.43 223.058 129.762 223.21 131.235C223.573 133.002 222.571 135.977 220.184 140.161C217.796 144.344 214.206 148.33 209.403 152.108C204.6 155.886 198.852 158.294 192.148 159.352C185.283 160.428 178.914 160.145 173.032 158.492L173.041 158.483Z" fill="#FAD6B3"/>
<path d="M319.612 72.8309C322.248 74.6536 323.871 77.4303 324.463 81.142C325.141 85.3449 324.415 88.9432 322.296 91.9277C320.176 94.9122 317.359 96.6783 313.845 97.2261C311.553 97.585 309.529 97.4905 307.762 96.9333C305.996 96.3855 304.239 95.3277 302.482 93.7788L293.334 104.158L310.799 137.101C311.859 139.009 312.909 140.501 313.969 141.578C315.02 142.654 316.261 143.703 317.674 144.723C318.715 145.469 319.46 146.083 319.918 146.545C320.367 147.018 320.653 147.613 320.768 148.34C320.978 149.634 320.539 150.739 319.479 151.645C318.409 152.562 316.404 153.242 313.463 153.704L297.402 156.217C293.392 156.84 290.298 156.443 288.092 154.998C285.896 153.563 283.853 150.918 281.981 147.065L272.585 127.656L269.491 131.122L267.753 146.187C267.591 147.292 267.591 148.321 267.753 149.294C267.906 150.267 268.183 151.05 268.575 151.655C268.966 152.259 269.501 152.873 270.188 153.515C271.095 154.45 271.592 155.244 271.697 155.886C271.726 156.047 271.697 156.462 271.649 157.142C271.506 158.323 270.895 159.229 269.816 159.853C268.746 160.476 267.066 160.967 264.774 161.326L235.966 165.841C234.247 166.114 232.872 166.039 231.841 165.614C230.809 165.198 230.217 164.499 230.065 163.527C229.988 163.045 230.026 162.497 230.179 161.893C230.361 160.948 230.781 160.183 231.44 159.579C232.098 158.974 232.499 158.625 232.652 158.521C233.827 157.511 234.763 156.509 235.44 155.537C236.118 154.564 236.596 153.053 236.854 151.022L243.442 96.4138C243.605 95.3088 243.605 94.2794 243.442 93.3066C243.299 92.4188 243.041 91.6916 242.65 91.1344C242.268 90.5771 241.762 89.9255 241.141 89.1982C240.234 88.2632 239.737 87.4699 239.632 86.8277C239.594 86.5821 239.604 86.1288 239.661 85.4582C239.823 84.3532 240.415 83.4937 241.447 82.8798C242.478 82.2659 244.139 81.7748 246.431 81.4159L275.24 76.9014C276.958 76.637 278.324 76.6842 279.355 77.062C280.377 77.4398 280.969 78.1104 281.122 79.0831C281.188 79.4893 281.15 80.037 281.007 80.717C280.854 81.3215 280.587 81.8787 280.205 82.3982C279.823 82.9176 279.47 83.3048 279.135 83.5598C278.801 83.8243 278.563 84.0415 278.429 84.2304C277.235 85.1654 276.299 86.1382 275.631 87.1582C274.953 88.1782 274.476 89.661 274.208 91.6066L271.955 110.486L299.999 77.6287C301.842 75.5225 303.561 73.9453 305.146 72.9064C306.741 71.8675 308.517 71.197 310.474 70.8853C313.902 70.3469 316.939 70.9892 319.584 72.812L319.612 72.8309Z" fill="#FAD6B3"/>
<path d="M354.723 75.371C357.769 77.6282 359.641 80.9433 360.338 85.3066C360.615 87.0066 360.653 88.8578 360.481 90.8789C360.166 94.6567 359.049 98.0473 357.139 101.032C355.229 104.026 352.871 106.425 350.063 108.229C347.256 110.032 344.42 111.166 341.555 111.61C338.204 112.139 336.37 111.43 336.065 109.485C335.988 109.003 335.969 108.625 336.017 108.37C336.122 107.445 336.495 106.613 337.125 105.896C337.764 105.178 338.777 104.167 340.161 102.873C341.756 101.296 342.892 100.04 343.58 99.1051C344.267 98.1701 344.525 97.1312 344.344 95.9978C344.229 95.2706 343.885 94.5812 343.322 93.92C342.758 93.2589 341.89 92.4089 340.705 91.3417C339.13 89.8495 337.917 88.5933 337.087 87.5544C336.246 86.525 335.721 85.2783 335.482 83.8238C335.339 82.936 335.33 82.0672 335.444 81.2172C335.75 78.9316 336.705 77.0616 338.318 75.6071C339.932 74.1526 342.08 73.2176 344.783 72.7926C348.383 72.226 351.696 73.076 354.742 75.3332L354.723 75.371Z" fill="#FAD6B3"/>
</g>
<g clip-path="url(#clip2_536_26758)">
<path d="M247.513 69.0443C247.277 67.5735 246.322 66.3466 244.954 65.7604C244.091 65.3927 243.108 65.2898 242.031 65.4599L239.057 65.9264C238.063 66.0818 237.294 66.3319 236.633 66.7163C235.796 67.2017 235.157 67.916 234.777 68.7606C234.479 68.4875 234.18 68.2585 233.872 68.0652C233.098 67.582 231.784 67.0672 229.921 67.3592L225.885 67.9916C225.496 68.0526 225.137 68.145 224.806 68.2627C224.51 67.9349 224.183 67.6366 223.822 67.3698C223.463 67.1029 223.089 66.876 222.705 66.689C224.85 65.5566 226.526 63.9955 227.684 62.0458C228.763 60.2305 229.477 57.953 229.804 55.2784V55.2553C230.004 53.5556 229.995 52.0807 229.783 50.7508C229.148 46.7841 226.866 44.8154 225.063 43.8616C222.76 42.6451 219.899 42.3257 216.317 42.8867L208.953 44.0401C208.845 44.057 208.74 44.0759 208.636 44.0948C208.192 43.4561 207.6 42.9224 206.88 42.5295H206.878C205.718 41.8929 204.365 41.6912 202.861 41.9286L190.91 43.8006C190.434 43.2166 189.797 42.7564 189.041 42.477H189.032C188.197 42.166 187.259 42.0925 186.239 42.2522L179.83 43.2565C178.821 43.414 178.044 43.6704 177.377 44.0696C177.186 44.183 177.007 44.3112 176.839 44.4477C175.822 43.6136 174.583 43.0233 173.145 42.6913C171.682 42.353 170.065 42.3173 168.338 42.5884L159.899 43.9099C159.464 43.3174 158.899 42.8216 158.221 42.4497H158.217C157.057 41.8131 155.706 41.6114 154.2 41.8488L142.09 43.746C141.128 43.8973 140.344 44.1536 139.692 44.5318C138.481 45.2356 137.678 46.4122 137.485 47.761L137.463 47.9501C137.436 48.2632 137.412 48.6813 137.489 49.1603C137.593 49.8011 137.848 50.4125 138.254 50.984L136.9 61.9954C136.626 62.2559 136.395 62.5143 136.195 62.7832C135.705 63.4535 135.416 64.2561 135.356 65.1049C135.314 65.691 135.386 66.2562 135.554 66.7815C135.515 66.7731 135.475 66.7626 135.437 66.7542C134.141 66.4789 132.733 66.4579 131.248 66.6911C128.548 67.1134 126.137 68.3446 124.081 70.3469C121.993 72.3807 120.672 75.2548 120.153 78.8854V78.9064C119.922 80.5746 119.924 82.144 120.153 83.5706C120.514 85.8292 121.398 87.7369 122.779 89.2455C124.143 90.7372 125.84 91.7751 127.822 92.3297C128.941 92.6428 130.116 92.8004 131.331 92.8004C132.093 92.8004 132.875 92.7373 133.667 92.6134C135.248 92.3655 136.688 91.8612 137.969 91.1133C138.332 92.3612 139.252 93.376 140.507 93.8845C141.098 94.124 141.739 94.2438 142.423 94.2438C142.746 94.2438 143.078 94.2164 143.417 94.1639L149.826 93.1596C150.822 93.0042 151.591 92.752 152.248 92.3718C152.35 92.3129 152.449 92.2499 152.545 92.1848C153.32 92.4285 154.174 92.4789 155.092 92.3339L161.18 91.3801C161.654 92.0734 162.331 92.6281 163.157 92.9642C163.748 93.2038 164.39 93.3235 165.074 93.3235C165.396 93.3235 165.728 93.2962 166.068 93.2437L172.476 92.2394C173.473 92.0839 174.242 91.8318 174.898 91.4515C175.425 91.1469 175.873 90.7498 176.228 90.2876C177.368 91.2267 178.687 91.9095 180.168 92.3255C181.287 92.6386 182.462 92.7962 183.677 92.7962C184.44 92.7962 185.221 92.7331 186.014 92.6092C187.605 92.3591 189.053 91.8507 190.341 91.0943C190.721 92.3024 191.626 93.2836 192.852 93.7815C193.442 94.021 194.084 94.1408 194.768 94.1408C195.09 94.1408 195.422 94.1135 195.762 94.061L202.17 93.0567C203.167 92.9012 203.936 92.6491 204.592 92.2688C204.949 92.0608 205.27 91.8129 205.55 91.5314C206.667 92.0167 207.967 92.149 209.427 91.92L212.999 91.3612C214.382 91.1448 215.396 90.7288 216.188 90.0522C217.39 89.0248 217.962 87.4953 217.715 85.9595C217.571 85.0602 217.165 84.243 216.543 83.5979C216.283 83.329 215.965 83.0622 215.542 82.7575C215.391 82.6504 215.294 82.5642 215.232 82.5033C215.213 82.476 215.166 82.4109 215.1 82.2911L213.233 78.7698C213.429 78.7341 213.62 78.6921 213.807 78.6417C214.093 80.0682 215.071 81.228 216.449 81.7596C217.004 81.9739 217.592 82.081 218.229 82.081C218.556 82.081 218.894 82.0537 219.249 81.997C220.179 81.852 221.09 81.5348 221.968 81.0578L221.358 86.1213C221.131 86.3377 220.933 86.5478 220.759 86.7642C220.262 87.3861 219.935 88.1487 219.816 88.9723C219.75 89.4072 219.759 89.8463 219.839 90.3548C220.147 92.2772 221.77 94.0147 224.353 94.0147C224.663 94.0147 224.986 93.9895 225.324 93.937L228.296 93.4706C229.292 93.3151 230.061 93.063 230.719 92.6827C231.824 92.0419 232.587 91.0019 232.858 89.7896C233.341 90.2939 233.844 90.7078 234.371 91.0418C235.688 91.8738 237.245 92.1806 238.87 91.9263C241.088 91.5797 242.366 90.4682 243.046 89.5963C243.868 88.5479 244.374 87.1529 244.595 85.3208L246.005 73.2694C246.234 73.053 246.428 72.8429 246.593 72.6391C247.099 72.013 247.428 71.244 247.545 70.4099C247.607 69.9813 247.6 69.5338 247.522 69.0401L247.513 69.0443Z" fill="#3F1615"/>
<path d="M156.413 45.6621C156.832 45.8911 157.082 46.2587 157.163 46.7609C157.203 47.013 157.206 47.2609 157.172 47.5067L156.864 50.1267C156.811 50.6141 156.655 50.9797 156.396 51.2234C156.137 51.4671 155.772 51.6247 155.298 51.7004C154.844 51.7718 154.465 51.734 154.162 51.589C153.858 51.4419 153.609 51.1646 153.412 50.7528L152.73 49.2842C152.613 49.0258 152.494 48.8598 152.371 48.7884C152.248 48.7148 152.012 48.7064 151.668 48.761L148.94 49.1876L148.269 54.7678L148.787 54.6859C149.042 54.646 149.259 54.5745 149.437 54.4737C149.616 54.3728 149.801 54.2048 149.986 53.9737L150.718 53.1396C150.984 52.8223 151.23 52.5849 151.458 52.4294C151.685 52.2739 151.933 52.1752 152.207 52.1332C152.552 52.0785 152.855 52.1332 153.114 52.2949C153.374 52.4567 153.531 52.7193 153.59 53.0786C153.614 53.2236 153.614 53.398 153.59 53.6039L153.046 57.892C152.915 58.8165 152.494 59.3333 151.785 59.4447C151.203 59.535 150.701 59.3102 150.279 58.7682L149.641 57.9277C149.474 57.6966 149.329 57.5517 149.208 57.497C149.087 57.4424 148.917 57.4319 148.7 57.4655L147.91 57.5895L147.409 61.7894C147.39 61.9029 147.394 62.0499 147.424 62.2306C147.464 62.4827 147.555 62.6802 147.7 62.8231C147.844 62.966 148.048 63.1088 148.314 63.2517C148.539 63.382 148.696 63.4912 148.785 63.5795C148.875 63.6677 148.93 63.7833 148.953 63.9261C149.004 64.2497 148.896 64.4976 148.624 64.6699C148.352 64.8422 147.936 64.9703 147.373 65.0586L140.526 66.1301C140.053 66.2036 139.685 66.1742 139.422 66.0397C139.159 65.9053 139.04 65.6805 139.063 65.3632C139.074 65.1951 139.12 65.0544 139.205 64.9409C139.29 64.8275 139.422 64.6909 139.6 64.5333C139.881 64.3064 140.095 64.0774 140.246 63.8505C140.397 63.6236 140.493 63.2958 140.535 62.8651L142.028 50.7129C142.064 50.4671 142.064 50.2465 142.035 50.049C142.001 49.8326 141.939 49.6582 141.852 49.5237C141.765 49.3893 141.646 49.2527 141.493 49.1098C141.291 48.9018 141.181 48.7253 141.157 48.5825C141.149 48.5278 141.151 48.427 141.164 48.2778C141.2 48.032 141.336 47.8408 141.576 47.7021C141.814 47.5635 142.179 47.4563 142.67 47.3786L154.78 45.4814C155.453 45.3763 155.999 45.4373 156.418 45.6684L156.413 45.6621Z" fill="#FAD6B3"/>
<path d="M174.573 53.4464C173.866 54.1565 172.916 54.6797 171.72 55.0138C172.604 54.9486 173.299 55.0978 173.804 55.4613C174.31 55.8247 174.618 56.3563 174.73 57.058C174.773 57.327 174.781 57.6673 174.754 58.077L174.664 59.4469C174.656 59.6318 174.658 59.762 174.671 59.8335C174.709 60.0667 174.79 60.2348 174.919 60.3335C175.047 60.4344 175.21 60.468 175.41 60.4365C175.792 60.3776 176.077 60.3881 176.268 60.468C176.457 60.5499 176.549 60.7369 176.54 61.0331C176.534 61.4575 176.381 61.8967 176.079 62.3505C175.78 62.8043 175.319 63.2119 174.696 63.5775C174.074 63.9409 173.29 64.1994 172.345 64.3464C171.145 64.5334 170.148 64.4179 169.354 63.9998C168.559 63.5796 168.084 62.8757 167.924 61.8862C167.863 61.508 167.854 61.0962 167.892 60.6466L168.052 58.8523C168.088 58.6065 168.084 58.3586 168.043 58.1064C167.977 57.6925 167.788 57.4173 167.478 57.2828C167.168 57.1484 166.703 57.1274 166.085 57.224L165.048 57.3858L164.511 62.0605C164.492 62.174 164.496 62.3127 164.521 62.4744C164.562 62.7266 164.659 62.9325 164.817 63.0921C164.972 63.2518 165.176 63.4136 165.426 63.5775C165.611 63.6783 165.756 63.7792 165.866 63.8821C165.976 63.9851 166.04 64.0985 166.061 64.2246C166.11 64.5313 166 64.7687 165.728 64.941C165.456 65.1133 165.04 65.2415 164.477 65.3297L157.631 66.4012C157.157 66.4748 156.789 66.4453 156.526 66.3109C156.263 66.1764 156.144 65.9516 156.167 65.6344C156.178 65.4663 156.224 65.3255 156.309 65.212C156.394 65.0986 156.526 64.962 156.704 64.8045C156.985 64.5775 157.199 64.3485 157.35 64.1216C157.501 63.8947 157.597 63.567 157.639 63.1363L159.105 50.9882C159.141 50.7424 159.141 50.5134 159.105 50.297C159.073 50.0995 159.015 49.9377 158.928 49.8138C158.843 49.6898 158.731 49.5448 158.593 49.383C158.391 49.175 158.281 48.9986 158.257 48.8557C158.249 48.8011 158.251 48.7002 158.264 48.551C158.3 48.3052 158.431 48.114 158.661 47.9775C158.89 47.8409 159.26 47.7317 159.77 47.6518L168.906 46.221C170.161 46.0235 171.287 46.0424 172.283 46.2736C173.279 46.5047 174.08 46.9102 174.686 47.4879C175.291 48.0657 175.661 48.7696 175.792 49.5952C175.854 49.9734 175.858 50.36 175.809 50.755C175.686 51.8433 175.27 52.7426 174.565 53.4527L174.573 53.4464ZM168.778 50.6058C168.625 49.652 168.022 49.2591 166.966 49.423L165.821 49.6016L165.386 54.5641L166.531 54.3855C167.24 54.2742 167.771 54.0158 168.126 53.6103C168.481 53.2048 168.702 52.5241 168.791 51.5702C168.816 51.1416 168.81 50.8201 168.776 50.6037L168.778 50.6058Z" fill="#FAD6B3"/>
<path d="M187.733 45.9185C187.96 46.0026 188.091 46.1518 188.125 46.3682C188.14 46.4585 188.132 46.5804 188.1 46.7316C188.066 46.8661 188.007 46.9901 187.922 47.1056C187.837 47.2212 187.758 47.3073 187.684 47.364C187.609 47.4229 187.556 47.4712 187.526 47.5132C187.261 47.7212 187.053 47.9376 186.904 48.1645C186.753 48.3914 186.647 48.7213 186.588 49.1541L185.149 61.2979C185.113 61.5437 185.113 61.7728 185.149 61.9892C185.183 62.2056 185.245 62.3799 185.332 62.5144C185.419 62.6489 185.538 62.7854 185.691 62.9283C185.893 63.1363 186.003 63.3128 186.027 63.4557C186.033 63.4914 186.027 63.5838 186.016 63.733C185.984 63.9956 185.848 64.1973 185.608 64.336C185.37 64.4746 184.997 64.5839 184.487 64.6637L178.078 65.668C177.696 65.7268 177.39 65.7121 177.16 65.6176C176.931 65.5252 176.799 65.3697 176.765 65.1533C176.748 65.0461 176.757 64.9243 176.791 64.7898C176.831 64.5797 176.925 64.4095 177.071 64.2751C177.218 64.1406 177.307 64.0628 177.341 64.0397C177.602 63.8149 177.81 63.5922 177.961 63.3758C178.112 63.1594 178.218 62.8233 178.276 62.3715L179.741 50.2235C179.777 49.9777 179.777 49.7487 179.741 49.5323C179.709 49.3348 179.652 49.173 179.565 49.049C179.48 48.9251 179.367 48.7801 179.229 48.6183C179.028 48.4103 178.917 48.2339 178.894 48.091C178.885 48.0364 178.887 47.9355 178.9 47.7863C178.936 47.5405 179.068 47.3493 179.297 47.2128C179.527 47.0762 179.896 46.9669 180.406 46.8871L186.815 45.8828C187.197 45.824 187.501 45.8345 187.73 45.9185H187.733Z" fill="#FAD6B3"/>
<path d="M205.074 45.7442C205.492 45.9732 205.743 46.3409 205.824 46.8431C205.864 47.0952 205.866 47.3431 205.832 47.5889L205.524 50.2089C205.475 50.7152 205.342 51.0808 205.127 51.3077C204.913 51.5346 204.577 51.6838 204.122 51.7552C203.687 51.8246 203.33 51.7825 203.054 51.6313C202.778 51.48 202.542 51.2006 202.347 50.7888L201.665 49.3202C201.522 49.0113 201.378 48.8117 201.233 48.7235C201.089 48.6352 200.834 48.6205 200.471 48.6772L197.608 49.1269L197.013 54.142L198.213 53.955C198.34 53.9361 198.498 53.8184 198.689 53.6041L199.485 52.6503C199.721 52.375 199.929 52.1649 200.112 52.0263C200.295 51.8876 200.53 51.7951 200.821 51.7489C201.149 51.6985 201.431 51.7405 201.667 51.8792C201.903 52.0179 202.043 52.2216 202.085 52.4906C202.096 52.562 202.096 52.6734 202.083 52.8225L201.565 56.7472C201.518 57.1611 201.38 57.4826 201.146 57.7116C200.913 57.9427 200.641 58.0814 200.333 58.1297C199.823 58.2095 199.4 58.0078 199.063 57.5267L198.449 56.6548C198.279 56.4048 198.056 56.3018 197.784 56.3438L196.72 56.5098L196.027 62.4809L198.427 62.1048C198.772 62.0502 199.067 61.9346 199.309 61.7602C199.551 61.5837 199.8 61.3001 200.052 60.9114L201.403 58.8755C201.646 58.5247 201.888 58.2599 202.13 58.0835C202.372 57.907 202.684 57.7893 203.067 57.7305C203.466 57.6675 203.808 57.7074 204.093 57.846C204.375 57.9868 204.547 58.2368 204.605 58.5961C204.628 58.7411 204.628 58.9155 204.605 59.1214L204.25 61.9703C204.158 62.6847 203.944 63.2078 203.606 63.5377C203.268 63.8675 202.735 64.0881 202.007 64.2037L188.996 66.2417C188.614 66.3005 188.308 66.2858 188.078 66.1913C187.849 66.0988 187.717 65.9433 187.683 65.7269C187.666 65.6198 187.675 65.4979 187.709 65.3635C187.749 65.1534 187.843 64.9832 187.989 64.8487C188.136 64.7142 188.225 64.6365 188.259 64.6134C188.52 64.3886 188.728 64.1659 188.879 63.9495C189.03 63.7331 189.136 63.3969 189.194 62.9452L190.687 50.793C190.723 50.5471 190.723 50.3265 190.693 50.129C190.659 49.9126 190.598 49.7383 190.511 49.6038C190.424 49.4693 190.305 49.3328 190.152 49.1899C189.95 48.9819 189.839 48.8054 189.816 48.6625C189.807 48.6079 189.81 48.5071 189.822 48.3579C189.858 48.1121 189.994 47.9209 190.232 47.7822C190.47 47.6436 190.836 47.5364 191.326 47.4587L203.436 45.5615C204.11 45.4564 204.656 45.5173 205.074 45.7484V45.7442Z" fill="#FAD6B3"/>
<path d="M223.306 47.1037C224.853 47.921 225.787 49.3287 226.108 51.3247C226.267 52.3143 226.267 53.4845 226.11 54.8355C225.845 57.0163 225.301 58.798 224.477 60.1804C223.654 61.5629 222.456 62.6638 220.88 63.4811C219.306 64.3005 217.216 64.9035 214.614 65.2922L207.19 66.4267C206.808 66.4856 206.502 66.4708 206.272 66.3763C206.043 66.2839 205.911 66.1284 205.877 65.912C205.86 65.8048 205.869 65.683 205.903 65.5485C205.93 65.3783 205.99 65.2502 206.079 65.1619C206.168 65.0737 206.302 64.9518 206.48 64.7942C206.746 64.5862 206.948 64.3719 207.09 64.145C207.23 63.9202 207.33 63.582 207.39 63.1302L208.86 51.0095C208.896 50.7637 208.896 50.5347 208.86 50.3183C208.828 50.1208 208.77 49.959 208.683 49.8351C208.598 49.7111 208.486 49.5661 208.348 49.4044C208.146 49.1964 208.035 49.0199 208.012 48.877C208.003 48.8224 208.006 48.7215 208.018 48.5724C208.054 48.3265 208.186 48.1353 208.416 47.9988C208.645 47.8622 209.015 47.753 209.524 47.6731L216.889 46.5197C219.616 46.0932 221.753 46.2886 223.302 47.1059L223.306 47.1037ZM219.102 51.2322C218.949 50.2784 218.644 49.6544 218.187 49.356C217.73 49.0598 217.127 48.9694 216.381 49.085L215.78 49.1795L214.198 62.8676L214.852 62.7647C215.689 62.6344 216.364 62.3487 216.88 61.9075C217.397 61.4662 217.826 60.7372 218.166 59.7161C218.505 58.695 218.794 57.2348 219.03 55.3355C219.232 53.5707 219.255 52.2029 219.1 51.2322H219.102Z" fill="#FAD6B3"/>
<path d="M128.829 88.796C127.52 88.4305 126.422 87.7582 125.528 86.7833C124.636 85.8084 124.066 84.5478 123.818 82.9994C123.646 81.9194 123.648 80.7219 123.829 79.4024C124.232 76.5745 125.186 74.4294 126.683 72.9692C128.183 71.509 129.895 70.6265 131.824 70.324C132.861 70.1622 133.804 70.1706 134.651 70.3513C135.501 70.532 136.308 70.8576 137.073 71.3262L137.719 70.6433C138.15 70.1895 138.522 69.8639 138.834 69.6664C139.146 69.471 139.514 69.3386 139.932 69.2735C140.387 69.202 140.767 69.2441 141.071 69.3995C141.374 69.555 141.557 69.8218 141.619 70.1979C141.65 70.3954 141.646 70.5992 141.604 70.8093L140.75 75.2572C140.665 75.7677 140.522 76.1417 140.327 76.3749C140.132 76.6081 139.807 76.7615 139.352 76.8308C138.878 76.9043 138.466 76.7993 138.114 76.5136C137.761 76.2278 137.328 75.711 136.816 74.9609C136.244 74.1835 135.8 73.6814 135.484 73.4545C135.167 73.2276 134.747 73.1561 134.218 73.2381C133.472 73.3557 132.827 73.9209 132.281 74.9378C131.735 75.9547 131.325 77.4149 131.053 79.3205C130.823 80.9236 130.794 82.2367 130.957 83.262C131.102 84.1612 131.382 84.8041 131.798 85.1907C132.215 85.5773 132.714 85.7244 133.296 85.634C134.15 85.4996 134.825 85.2012 135.318 84.7369C135.813 84.2726 136.297 83.6717 136.778 82.9321C137.077 82.4804 137.326 82.1401 137.523 81.9173C137.721 81.6925 137.946 81.5602 138.201 81.5203C138.528 81.4698 138.9 81.577 139.316 81.8438C139.732 82.1106 139.955 82.4069 139.989 82.7346C140.07 83.1275 139.847 83.7893 139.316 84.7201C138.785 85.6508 137.986 86.5375 136.918 87.3779C135.849 88.2183 134.571 88.754 133.079 88.9893C131.552 89.2289 130.135 89.1658 128.827 88.7981L128.829 88.796Z" fill="#FAD6B3"/>
<path d="M164.216 68.9643C164.445 69.0568 164.575 69.2038 164.606 69.4013C164.621 69.4917 164.613 69.6135 164.581 69.7648C164.547 69.8993 164.487 70.0232 164.402 70.1388C164.317 70.2543 164.239 70.3405 164.165 70.3972C164.09 70.456 164.037 70.5044 164.007 70.5464C163.742 70.7544 163.534 70.9708 163.385 71.1977C163.234 71.4246 163.128 71.7545 163.068 72.1873L161.575 84.3395C161.539 84.5853 161.539 84.8143 161.575 85.0307C161.609 85.2471 161.669 85.4131 161.754 85.5287C161.836 85.6442 161.958 85.7913 162.117 85.9699C162.138 85.9846 162.2 86.0455 162.3 86.1485C162.399 86.2535 162.461 86.367 162.48 86.493C162.486 86.5288 162.48 86.6212 162.469 86.7704C162.418 87.0372 162.274 87.2389 162.036 87.3776C161.798 87.5162 161.424 87.6255 160.915 87.7053L154.506 88.7096C154.124 88.7705 153.818 88.7537 153.588 88.6592C153.359 88.5667 153.227 88.4113 153.193 88.1949C153.176 88.0877 153.185 87.9658 153.219 87.8314C153.267 87.6759 153.348 87.5393 153.461 87.4196C153.571 87.3019 153.686 87.1948 153.801 87.1044C154.066 86.8964 154.272 86.6758 154.421 86.4405C154.57 86.2052 154.674 85.8627 154.731 85.411L155.319 80.7006L150.491 81.4569L149.903 86.1674C149.867 86.4132 149.867 86.6422 149.903 86.8586C149.937 87.075 149.996 87.241 150.081 87.3566C150.164 87.4721 150.285 87.6192 150.444 87.7978C150.466 87.8125 150.527 87.8734 150.627 87.9764C150.727 88.0814 150.789 88.1949 150.808 88.3209C150.814 88.3566 150.808 88.4491 150.797 88.5983C150.746 88.8651 150.602 89.0668 150.364 89.2054C150.126 89.3441 149.752 89.4534 149.242 89.5332L142.833 90.5375C142.451 90.5984 142.145 90.5816 141.916 90.4871C141.686 90.3946 141.555 90.2391 141.521 90.0227C141.504 89.9156 141.512 89.7937 141.546 89.6593C141.595 89.5038 141.676 89.3672 141.788 89.2475C141.901 89.1298 142.014 89.0227 142.128 88.9323C142.394 88.7243 142.6 88.5037 142.748 88.2684C142.897 88.0331 143.001 87.6906 143.059 87.2389L144.552 75.0867C144.588 74.8408 144.588 74.6118 144.552 74.3954C144.52 74.1979 144.463 74.0362 144.376 73.9122C144.291 73.7882 144.178 73.6433 144.04 73.4815C143.953 73.4038 143.874 73.3197 143.804 73.2273C143.734 73.1369 143.689 73.0382 143.673 72.9289C143.666 72.8932 143.67 72.8008 143.683 72.6516C143.719 72.4058 143.855 72.2146 144.095 72.0759C144.333 71.9373 144.707 71.828 145.217 71.7482L151.625 70.7439C152.008 70.6851 152.314 70.7019 152.543 70.7943C152.773 70.8868 152.902 71.0338 152.934 71.2313C152.949 71.3217 152.94 71.4435 152.908 71.5948C152.874 71.7293 152.815 71.8532 152.73 71.9688C152.645 72.0843 152.566 72.1705 152.492 72.2272C152.418 72.286 152.365 72.3343 152.335 72.3764C152.069 72.5844 151.861 72.8008 151.713 73.0277C151.562 73.2546 151.456 73.5844 151.396 74.0173L150.823 78.6416L155.651 77.8852L156.224 73.2609C156.26 73.0151 156.26 72.7861 156.224 72.5697C156.192 72.3722 156.135 72.2104 156.048 72.0864C155.963 71.9625 155.85 71.8175 155.712 71.6557C155.625 71.578 155.547 71.4939 155.477 71.4015C155.407 71.3112 155.362 71.2124 155.345 71.1032C155.339 71.0674 155.345 70.975 155.356 70.8258C155.392 70.58 155.528 70.3888 155.768 70.2501C156.006 70.1115 156.379 70.0022 156.889 69.9224L163.298 68.9181C163.68 68.8593 163.986 68.8761 164.216 68.9685V68.9643Z" fill="#FAD6B3"/>
<path d="M175.134 69.8676C175.361 69.9517 175.493 70.1008 175.527 70.3172C175.542 70.4076 175.533 70.5294 175.501 70.6807C175.467 70.8152 175.408 70.9391 175.323 71.0547C175.238 71.1702 175.159 71.2564 175.085 71.3131C175.011 71.3719 174.958 71.4203 174.928 71.4623C174.662 71.6703 174.454 71.8867 174.305 72.1136C174.155 72.3405 174.048 72.6704 173.989 73.1032L172.551 85.247C172.515 85.4928 172.515 85.7218 172.551 85.9382C172.585 86.1546 172.646 86.329 172.734 86.4635C172.821 86.5979 172.94 86.7345 173.093 86.8774C173.294 87.0854 173.405 87.2619 173.428 87.4047C173.435 87.4405 173.428 87.5329 173.418 87.6842C173.386 87.9468 173.25 88.1485 173.01 88.2872C172.772 88.4258 172.398 88.5351 171.888 88.6149L165.479 89.6192C165.097 89.6801 164.791 89.6633 164.562 89.5688C164.332 89.4763 164.201 89.3209 164.167 89.1045C164.15 88.9973 164.158 88.8754 164.192 88.741C164.233 88.5309 164.326 88.3607 164.473 88.2262C164.619 88.0918 164.708 88.014 164.742 87.9909C165.004 87.7661 165.212 87.5434 165.363 87.327C165.513 87.1106 165.62 86.7744 165.677 86.3227L167.143 74.1747C167.179 73.9289 167.179 73.6999 167.143 73.4834C167.111 73.286 167.053 73.1242 166.966 73.0002C166.881 72.8763 166.769 72.7313 166.631 72.5695C166.429 72.3615 166.319 72.185 166.295 72.0422C166.287 71.9875 166.289 71.8867 166.302 71.7375C166.338 71.4917 166.469 71.3005 166.699 71.1639C166.928 71.0274 167.298 70.9181 167.808 70.8383L174.216 69.834C174.599 69.7752 174.902 69.7857 175.132 69.8697L175.134 69.8676Z" fill="#FAD6B3"/>
<path d="M181.173 88.796C179.865 88.4305 178.766 87.7582 177.872 86.7833C176.98 85.8084 176.411 84.5478 176.162 82.9994C175.99 81.9194 175.992 80.7219 176.173 79.4024C176.576 76.5745 177.53 74.4294 179.028 72.9692C180.527 71.509 182.239 70.6265 184.168 70.324C185.205 70.1622 186.148 70.1706 186.995 70.3513C187.845 70.532 188.652 70.8576 189.417 71.3262L190.063 70.6433C190.494 70.1895 190.866 69.8639 191.178 69.6664C191.49 69.471 191.858 69.3386 192.276 69.2735C192.731 69.202 193.111 69.2441 193.415 69.3995C193.719 69.555 193.901 69.8218 193.963 70.1979C193.995 70.3954 193.99 70.5992 193.948 70.8093L193.094 75.2572C193.009 75.7677 192.867 76.1417 192.671 76.3749C192.476 76.6081 192.151 76.7615 191.696 76.8308C191.223 76.9043 190.811 76.7993 190.458 76.5136C190.105 76.2278 189.672 75.711 189.16 74.9609C188.589 74.1835 188.145 73.6814 187.828 73.4545C187.512 73.2276 187.091 73.1561 186.562 73.2381C185.817 73.3557 185.171 73.9209 184.625 74.9378C184.079 75.9547 183.669 77.4149 183.397 79.3205C183.168 80.9236 183.138 82.2367 183.302 83.262C183.446 84.1612 183.726 84.8041 184.143 85.1907C184.559 85.5773 185.058 85.7244 185.64 85.634C186.494 85.4996 187.17 85.2012 187.662 84.7369C188.157 84.2726 188.642 83.6717 189.122 82.9321C189.421 82.4804 189.67 82.1401 189.867 81.9173C190.065 81.6925 190.29 81.5602 190.545 81.5203C190.872 81.4698 191.244 81.577 191.66 81.8438C192.077 82.1106 192.3 82.4069 192.334 82.7346C192.414 83.1275 192.191 83.7893 191.66 84.7201C191.129 85.6508 190.33 86.5375 189.262 87.3779C188.194 88.2183 186.915 88.754 185.424 88.9893C183.896 89.2289 182.479 89.1658 181.171 88.7981L181.173 88.796Z" fill="#FAD6B3"/>
<path d="M213.779 69.7418C214.365 70.1473 214.727 70.765 214.858 71.5907C215.009 72.5257 214.848 73.3262 214.376 73.9901C213.905 74.654 213.278 75.0469 212.496 75.1687C211.986 75.2486 211.536 75.2276 211.143 75.1036C210.75 74.9817 210.359 74.7464 209.968 74.4019L207.933 76.7109L211.819 84.0392C212.054 84.4636 212.288 84.7956 212.524 85.0351C212.757 85.2746 213.034 85.5078 213.348 85.7347C213.58 85.9007 213.745 86.0373 213.847 86.1402C213.947 86.2453 214.011 86.3776 214.036 86.5394C214.083 86.8272 213.985 87.0731 213.749 87.2747C213.512 87.4785 213.065 87.6298 212.411 87.7328L208.838 88.2916C207.946 88.4303 207.258 88.3421 206.767 88.0206C206.279 87.7013 205.824 87.113 205.408 86.2558L203.318 81.9382L202.629 82.7093L202.243 86.0604C202.207 86.3062 202.207 86.5352 202.243 86.7516C202.277 86.968 202.338 87.1424 202.425 87.2769C202.513 87.4113 202.631 87.5479 202.784 87.6908C202.986 87.8988 203.097 88.0752 203.12 88.2181C203.126 88.2538 203.12 88.3463 203.109 88.4975C203.078 88.7602 202.942 88.9619 202.702 89.1005C202.464 89.2392 202.09 89.3484 201.58 89.4283L195.171 90.4326C194.789 90.4935 194.483 90.4767 194.254 90.3821C194.024 90.2897 193.893 90.1342 193.859 89.9178C193.842 89.8107 193.85 89.6888 193.884 89.5543C193.924 89.3442 194.018 89.1741 194.164 89.0396C194.311 88.9051 194.4 88.8274 194.434 88.8043C194.696 88.5795 194.904 88.3568 195.055 88.1404C195.205 87.924 195.312 87.5878 195.369 87.1361L196.835 74.988C196.871 74.7422 196.871 74.5132 196.835 74.2968C196.803 74.0993 196.745 73.9375 196.658 73.8136C196.573 73.6896 196.461 73.5447 196.323 73.3829C196.121 73.1749 196.01 72.9984 195.987 72.8555C195.979 72.8009 195.981 72.7001 195.993 72.5509C196.03 72.3051 196.161 72.1139 196.391 71.9773C196.62 71.8407 196.99 71.7315 197.499 71.6516L203.908 70.6474C204.29 70.5885 204.594 70.599 204.824 70.6831C205.051 70.7671 205.183 70.9163 205.217 71.1327C205.231 71.223 205.223 71.3449 205.191 71.4962C205.157 71.6306 205.098 71.7546 205.013 71.8702C204.928 71.9857 204.849 72.0718 204.775 72.1286C204.7 72.1874 204.647 72.2357 204.618 72.2777C204.352 72.4857 204.144 72.7022 203.995 72.9291C203.844 73.156 203.738 73.4858 203.679 73.9186L203.177 78.1186L209.416 70.8091C209.826 70.3406 210.208 69.9898 210.561 69.7586C210.916 69.5275 211.311 69.3784 211.746 69.309C212.509 69.1893 213.184 69.3321 213.773 69.7376L213.779 69.7418Z" fill="#FAD6B3"/>
<path d="M221.59 70.3072C222.267 70.8094 222.684 71.5468 222.839 72.5175C222.9 72.8957 222.909 73.3075 222.871 73.7571C222.801 74.5975 222.552 75.3517 222.127 76.0157C221.702 76.6817 221.178 77.2153 220.553 77.6166C219.929 78.0179 219.298 78.27 218.661 78.3688C217.915 78.4864 217.507 78.3289 217.439 77.8961C217.422 77.7889 217.418 77.7049 217.429 77.6481C217.452 77.4422 217.535 77.2573 217.675 77.0977C217.817 76.938 218.042 76.7132 218.35 76.4253C218.705 76.0745 218.958 75.795 219.111 75.587C219.264 75.379 219.321 75.1479 219.281 74.8958C219.255 74.734 219.179 74.5807 219.054 74.4336C218.928 74.2865 218.735 74.0974 218.472 73.86C218.121 73.5281 217.851 73.2486 217.666 73.0175C217.48 72.7885 217.363 72.5112 217.31 72.1876C217.278 71.9901 217.276 71.7968 217.301 71.6077C217.369 71.0993 217.582 70.6833 217.941 70.3597C218.3 70.0362 218.777 69.8282 219.379 69.7336C220.179 69.6076 220.917 69.7967 221.594 70.2988L221.59 70.3072Z" fill="#FAD6B3"/>
<path d="M243.841 69.6181C243.86 69.7441 243.866 69.8345 243.858 69.8912C243.832 70.0803 243.773 70.2315 243.679 70.3471C243.586 70.4627 243.45 70.5992 243.269 70.7568C243.023 70.9606 242.823 71.177 242.675 71.4039C242.524 71.6308 242.417 71.9607 242.358 72.3935L240.894 84.9008C240.758 86.029 240.493 86.8442 240.098 87.3485C239.703 87.8527 239.097 88.17 238.28 88.2981C237.553 88.4116 236.914 88.296 236.364 87.9473C235.813 87.6006 235.259 87.0186 234.7 86.2034L229.207 78.27L228.177 86.506C228.16 86.7476 228.166 86.9598 228.194 87.1384C228.232 87.3716 228.302 87.5586 228.408 87.6993C228.515 87.8401 228.653 87.9788 228.825 88.1174C229.063 88.3191 229.194 88.5019 229.22 88.6637C229.237 88.7708 229.241 88.8549 229.231 88.9116C229.199 89.1742 229.063 89.3759 228.825 89.5146C228.587 89.6533 228.211 89.7625 227.703 89.8424L224.729 90.3088C223.984 90.4264 223.574 90.25 223.499 89.7835C223.48 89.6575 223.474 89.5671 223.485 89.5104C223.51 89.3213 223.57 89.17 223.663 89.0545C223.757 88.9389 223.892 88.8024 224.073 88.6448C224.319 88.441 224.519 88.2246 224.668 87.9977C224.819 87.7708 224.923 87.4409 224.984 87.0081L226.509 74.3537L225.93 73.5322C225.69 73.2003 225.549 72.8998 225.505 72.6309C225.415 72.0741 225.734 71.738 226.463 71.6245L230.499 70.9921C231.081 70.9018 231.542 70.9627 231.884 71.177C232.226 71.3913 232.623 71.8031 233.075 72.4145L238.324 79.6945L239.165 72.8977C239.18 72.6372 239.174 72.4271 239.148 72.2653C239.11 72.0321 239.04 71.8451 238.932 71.7044C238.825 71.5636 238.687 71.4249 238.515 71.2863C238.277 71.0846 238.146 70.9018 238.12 70.74C238.103 70.6328 238.099 70.5488 238.11 70.4921C238.142 70.2294 238.277 70.0277 238.517 69.8891C238.755 69.7504 239.129 69.6412 239.639 69.5613L242.613 69.0949C243.359 68.9772 243.768 69.1537 243.843 69.6202L243.841 69.6181Z" fill="#FAD6B3"/>
</g>
</g>
</g>
<defs>
<filter id="filter0_d_536_26758" x="0" y="0" width="367" height="144" filterUnits="userSpaceOnUse" color-interpolation-filters="sRGB">
<feFlood flood-opacity="0" result="BackgroundImageFix"/>
<feColorMatrix in="SourceAlpha" type="matrix" values="0 0 0 0 0 0 0 0 0 0 0 0 0 0 0 0 0 0 127 0" result="hardAlpha"/>
<feOffset dy="4"/>
<feGaussianBlur stdDeviation="6"/>
<feComposite in2="hardAlpha" operator="out"/>
<feColorMatrix type="matrix" values="0 0 0 0 0.747233 0 0 0 0 0.747233 0 0 0 0 0.747233 0 0 0 0.15 0"/>
<feBlend mode="normal" in2="BackgroundImageFix" result="effect1_dropShadow_536_26758"/>
<feBlend mode="normal" in="SourceGraphic" in2="effect1_dropShadow_536_26758" result="shape"/>
</filter>
<clipPath id="clip0_536_26758">
<rect width="343" height="120" fill="white" transform="translate(12 8)"/>
</clipPath>
<clipPath id="clip1_536_26758">
<path d="M12 8H355V128H12V8Z" fill="white"/>
</clipPath>
<clipPath id="clip2_536_26758">
<rect width="127.05" height="52.5" fill="white" transform="translate(119.975 41.75)"/>
</clipPath>
</defs>
</svg>
