<svg width="367" height="144" viewBox="0 0 367 144" fill="none" xmlns="http://www.w3.org/2000/svg">
<g clip-path="url(#clip0_536_26768)" filter="url(#filter0_d_536_26768)">
<path d="M12 8H355V128H12V8Z" fill="url(#paint0_linear_536_26768)"/>
<path d="M109.286 79.7387C108.299 79.7387 107.335 79.7034 106.395 79.6329C105.479 79.5859 104.621 79.4214 103.822 79.1394C103.047 78.8339 102.365 78.3404 101.778 77.6588C101.19 76.9538 100.732 75.9903 100.403 74.7682C100.074 73.5227 99.9092 71.9246 99.9092 69.974V66.0259C99.9092 64.0753 100.085 62.489 100.438 61.2669C100.814 60.0449 101.319 59.0931 101.954 58.4116C102.588 57.7065 103.329 57.213 104.175 56.931C105.044 56.6255 105.972 56.4492 106.959 56.4022C107.97 56.3317 109.016 56.2965 110.097 56.2965C111.554 56.2965 112.882 56.3787 114.08 56.5432C115.302 56.7077 116.348 57.0603 117.218 57.6008C118.111 58.1413 118.792 58.9873 119.262 60.1389C119.756 61.2904 120.002 62.8532 120.002 64.8273V65.4971H112.423V58.7993H107.488V76.5308H112.423V70.2208H109.956V68.282H120.002V79.2099H115.949L114.926 76.5308H114.539C114.163 77.4708 113.704 78.1759 113.164 78.6459C112.647 79.0924 112.059 79.3862 111.401 79.5272C110.743 79.6682 110.038 79.7387 109.286 79.7387Z" fill="#FFFEEE"/>
<path d="M130.723 77.2006H136.011V56.8253H143.555V58.1648H142.004V70.9611C142.004 73.1467 141.757 74.8505 141.263 76.0725C140.77 77.2711 140.088 78.1289 139.219 78.6459C138.373 79.1629 137.397 79.4684 136.293 79.5624C135.212 79.6799 134.06 79.7387 132.838 79.7387C131.804 79.7387 130.794 79.7034 129.807 79.6329C128.843 79.5859 127.95 79.4332 127.127 79.1747C126.305 78.9161 125.576 78.4814 124.942 77.8704C124.331 77.2358 123.849 76.3663 123.497 75.2617C123.144 74.1572 122.968 72.7236 122.968 70.9611V58.1648H121.417V56.8253H130.723V77.2006Z" fill="#FFFEEE"/>
<path d="M155.978 58.1648H154.427V77.8704H155.978V79.2099H145.297V77.8704H146.848V58.1648H145.297V56.8253H155.978V58.1648Z" fill="#FFFEEE"/>
<path d="M158.406 58.1648V56.8253H171.978L176.948 77.0948H178.393L175.538 56.8253H182.271V58.1648H180.72V79.2099H168.699L164.152 58.9403H162.707L165.139 79.2099H158.406V77.8704H159.957V58.1648H158.406Z" fill="#FFFEEE"/>
<path d="M184.018 58.1648V56.8253H197.59L202.56 77.0948H204.006L201.15 56.8253H207.883V58.1648H206.332V79.2099H194.312L189.764 58.9403H188.319L190.751 79.2099H184.018V77.8704H185.569V58.1648H184.018Z" fill="#FFFEEE"/>
<path d="M209.631 79.2099V77.8704H211.182V58.1648H209.631V56.8253H227.468V64.3691H223.343L221.898 58.9403H218.761V66.4444H225.494V68.3832H218.761V77.0948H221.898L223.343 71.6661H227.468V79.2099H209.631Z" fill="#FFFEEE"/>
<path d="M238.265 79.7387C237.372 79.7387 236.385 79.6799 235.304 79.5624C234.246 79.4684 233.189 79.3392 232.131 79.1747C231.097 78.9866 230.134 78.7751 229.241 78.5401L230.192 72.1949H234.705L235.797 76.7071H239.71V74.0632L232.766 68.9165C231.779 68.188 231.027 67.3184 230.51 66.3079C229.993 65.2973 229.734 63.9695 229.734 62.3245C229.734 60.9614 229.981 59.8804 230.474 59.0813C230.991 58.2588 231.673 57.6478 232.519 57.2483C233.389 56.8488 234.387 56.5902 235.515 56.4727C236.643 56.3317 237.818 56.2612 239.04 56.2612C240.263 56.2612 241.602 56.3787 243.059 56.6137C244.54 56.8253 245.891 57.1073 247.113 57.4598L246.161 63.805H242.072L241.12 59.2929H237.595V61.9367L244.54 67.0834C245.527 67.8119 246.279 68.6815 246.796 69.692C247.313 70.7026 247.571 72.0304 247.571 73.6754C247.571 75.0385 247.313 76.1313 246.796 76.9538C246.302 77.7528 245.621 78.3521 244.751 78.7516C243.882 79.1512 242.883 79.4097 241.755 79.5272C240.65 79.6682 239.487 79.7387 238.265 79.7387Z" fill="#FFFEEE"/>
<path d="M257.818 79.7387C256.925 79.7387 255.938 79.6799 254.857 79.5624C253.8 79.4684 252.742 79.3392 251.685 79.1747C250.651 78.9866 249.687 78.7751 248.794 78.5401L249.746 72.1949H254.258L255.351 76.7071H259.264V74.0632L252.319 68.9165C251.332 68.188 250.58 67.3184 250.063 66.3079C249.546 65.2973 249.288 63.9695 249.288 62.3245C249.288 60.9614 249.534 59.8804 250.028 59.0813C250.545 58.2588 251.226 57.6478 252.072 57.2483C252.942 56.8488 253.941 56.5902 255.069 56.4727C256.197 56.3317 257.372 56.2612 258.594 56.2612C259.816 56.2612 261.156 56.3787 262.613 56.6137C264.093 56.8253 265.445 57.1073 266.667 57.4598L265.715 63.805H261.626L260.674 59.2929H257.149V61.9367L264.093 67.0834C265.08 67.8119 265.832 68.6815 266.349 69.692C266.866 70.7026 267.125 72.0304 267.125 73.6754C267.125 75.0385 266.866 76.1313 266.349 76.9538C265.856 77.7528 265.174 78.3521 264.305 78.7516C263.435 79.1512 262.436 79.4097 261.308 79.5272C260.204 79.6682 259.041 79.7387 257.818 79.7387Z" fill="#FFFEEE"/>
<path d="M110.097 56.2969C111.554 56.2969 112.882 56.3795 114.08 56.5439C115.302 56.7084 116.348 57.0611 117.218 57.6016C118.111 58.1421 118.793 58.9881 119.263 60.1396C119.756 61.2912 120.003 62.8541 120.003 64.8281V65.498H112.424V58.7998H107.488V67.4082H99.9092V66.0264C99.9092 64.076 100.086 62.4896 100.438 61.2676C100.814 60.0457 101.32 59.0936 101.954 58.4121C102.589 57.7072 103.329 57.2136 104.175 56.9316C105.044 56.6261 105.973 56.4503 106.96 56.4033C107.97 56.3328 109.016 56.2969 110.097 56.2969ZM130.724 67.4082H122.968V58.166H121.417V56.8262H130.724V67.4082ZM143.555 58.166H142.004V67.4082H136.011V56.8262H143.555V58.166ZM155.979 58.166H154.428V67.4082H146.849V58.166H145.298V56.8262H155.979V58.166ZM174.572 67.4082H166.052L164.152 58.9414H162.707L163.723 67.4082H159.957V58.166H158.406V56.8262H171.978L174.572 67.4082ZM182.271 58.166H180.721V67.4082H177.029L175.538 56.8262H182.271V58.166ZM200.185 67.4082H191.664L189.765 58.9414H188.319L189.335 67.4082H185.569V58.166H184.019V56.8262H197.59L200.185 67.4082ZM207.884 58.166H206.333V67.4082H202.642L201.15 56.8262H207.884V58.166ZM227.468 64.3701H223.344L221.898 58.9414H218.761V66.4453H225.494V67.4082H211.182V58.166H209.631V56.8262H227.468V64.3701ZM239.041 56.2617C240.263 56.2617 241.603 56.3793 243.06 56.6143C244.54 56.8258 245.891 57.1084 247.113 57.4609L246.161 63.8057H242.072L241.12 59.2939H237.596V61.9375L244.54 67.084C244.682 67.1887 244.818 67.2976 244.95 67.4082H231.209C230.942 67.0622 230.708 66.696 230.51 66.3086C229.993 65.2981 229.734 63.9702 229.734 62.3252C229.734 60.9622 229.981 59.881 230.475 59.082C230.992 58.2596 231.674 57.6485 232.52 57.249C233.389 56.8496 234.388 56.5911 235.516 56.4736C236.644 56.3326 237.819 56.2617 239.041 56.2617ZM258.594 56.2617C259.816 56.2617 261.156 56.3792 262.613 56.6143C264.094 56.8258 265.445 57.1085 266.667 57.4609L265.715 63.8057H261.626L260.674 59.2939H257.148V61.9375L264.094 67.084C264.235 67.1886 264.371 67.2978 264.503 67.4082H250.763C250.495 67.0622 250.262 66.6961 250.063 66.3086C249.546 65.2981 249.288 63.9702 249.288 62.3252C249.288 60.9622 249.535 59.881 250.028 59.082C250.545 58.2597 251.226 57.6485 252.072 57.249C252.942 56.8495 253.941 56.5911 255.069 56.4736C256.197 56.3327 257.372 56.2617 258.594 56.2617Z" fill="#BEA05C"/>
</g>
<defs>
<filter id="filter0_d_536_26768" x="0" y="0" width="367" height="144" filterUnits="userSpaceOnUse" color-interpolation-filters="sRGB">
<feFlood flood-opacity="0" result="BackgroundImageFix"/>
<feColorMatrix in="SourceAlpha" type="matrix" values="0 0 0 0 0 0 0 0 0 0 0 0 0 0 0 0 0 0 127 0" result="hardAlpha"/>
<feOffset dy="4"/>
<feGaussianBlur stdDeviation="6"/>
<feComposite in2="hardAlpha" operator="out"/>
<feColorMatrix type="matrix" values="0 0 0 0 0.747233 0 0 0 0 0.747233 0 0 0 0 0.747233 0 0 0 0.15 0"/>
<feBlend mode="normal" in2="BackgroundImageFix" result="effect1_dropShadow_536_26768"/>
<feBlend mode="normal" in="SourceGraphic" in2="effect1_dropShadow_536_26768" result="shape"/>
</filter>
<linearGradient id="paint0_linear_536_26768" x1="183.5" y1="8" x2="183.5" y2="128" gradientUnits="userSpaceOnUse">
<stop/>
<stop offset="1"/>
</linearGradient>
<clipPath id="clip0_536_26768">
<rect width="343" height="120" fill="white" transform="translate(12 8)"/>
</clipPath>
</defs>
</svg>
