<svg width="367" height="144" viewBox="0 0 367 144" fill="none" xmlns="http://www.w3.org/2000/svg">
<g clip-path="url(#clip0_536_26771)" filter="url(#filter0_d_536_26771)">
<g clip-path="url(#clip1_536_26771)">
<path d="M12 8H355V128H12V8Z" fill="#3E539A"/>
<g clip-path="url(#clip2_536_26771)">
<path d="M159.663 85.0547C159.464 85.1417 159.24 85.2286 159.001 85.3155C158.799 85.3744 158.561 85.4249 158.291 85.4641C158.012 85.5062 157.696 85.5286 157.347 85.5286C156.71 85.5286 156.074 85.2987 155.403 84.8276C154.655 84.3004 153.902 83.5854 153.166 82.7021C152.407 81.7907 151.64 80.7168 150.886 79.5138C150.11 78.2772 149.34 76.9957 148.59 75.7086C147.828 74.3991 147.069 73.0868 146.319 71.7773C145.56 70.4537 144.807 69.2255 144.073 68.1207C143.329 66.9991 142.584 66.0148 141.862 65.1876C141.385 64.6408 140.896 64.1949 140.407 63.8528C140.785 63.3565 141.16 62.8209 141.527 62.2573C142.089 61.3936 142.652 60.544 143.201 59.7364C143.749 58.926 144.324 58.1212 144.909 57.3501C145.46 56.6266 146.037 56.0097 146.626 55.519C147.18 55.0563 147.748 54.7311 148.317 54.546C148.814 54.3862 149.343 54.4058 149.929 54.6133L150.434 54.7899L154.507 50.7717L153.294 50.3034C151.901 49.765 150.596 49.5827 149.417 49.7622C148.263 49.9388 147.177 50.3566 146.194 51.0044C145.242 51.6297 144.352 52.4345 143.553 53.3935C142.78 54.3189 142.055 55.3171 141.399 56.3659C140.754 57.395 140.137 58.4381 139.566 59.4672C139.003 60.4795 138.463 61.3992 137.962 62.2012C137.482 62.9695 137.005 63.5949 136.544 64.0603C136.507 64.0968 136.473 64.1304 136.436 64.1641V54.0749C136.436 53.3262 136.362 52.7317 136.212 52.255C136.044 51.7307 135.788 51.3016 135.447 50.9848C135.092 50.6539 134.654 50.438 134.142 50.3482C133.747 50.2781 133.287 50.2445 132.775 50.2445H131.24L126.764 54.661H129.856C130.59 54.661 130.999 54.7255 131.215 54.7815C131.417 54.832 131.559 54.9133 131.65 55.0227C131.761 55.1573 131.837 55.3592 131.877 55.6172C131.931 55.9901 131.96 56.4752 131.96 57.0613V75.2572C131.96 75.3834 131.954 75.4731 131.945 75.5376C131.903 75.5432 131.849 75.546 131.778 75.546H127.196C126.34 75.546 125.641 75.4002 125.121 75.1085C124.737 74.8954 124.575 74.601 124.575 74.1271V72.0969L123.12 73.5326C122.554 74.0907 122.199 74.7328 122.071 75.4338C121.949 76.1012 121.989 76.763 122.188 77.3939C122.392 78.0445 122.768 78.6109 123.302 79.082C123.836 79.5559 124.496 79.8447 125.26 79.9484C125.411 79.9821 125.635 79.9989 126.124 79.9989H129.117C129.956 79.9989 130.826 79.7466 131.704 79.2502C132.52 78.7875 133.287 78.1931 133.98 77.4808C134.674 76.7714 135.254 75.9834 135.709 75.1422C136.192 74.2449 136.436 73.3756 136.436 72.5596V67.2486C136.638 67.1897 136.837 67.114 137.03 67.0215C137.388 67.1841 137.769 67.4954 138.17 67.9525C138.764 68.6311 139.389 69.4947 140.029 70.521C140.677 71.5641 141.345 72.7391 142.01 74.0206C142.689 75.3245 143.4 76.662 144.122 77.9884C144.849 79.3259 145.608 80.6551 146.373 81.9366C147.154 83.2405 147.973 84.4182 148.811 85.4305C149.67 86.4708 150.574 87.3205 151.497 87.957C152.501 88.6496 153.572 89.0029 154.684 89.0029C155.548 89.0029 156.372 88.8936 157.137 88.6777C157.873 88.4701 158.518 88.229 159.03 87.9766C159.695 87.6766 160.289 87.298 160.792 86.8578L161.298 86.4147L160.377 84.7463L159.661 85.0603L159.663 85.0547Z" fill="white"/>
<path d="M159.922 56.3771C160.726 55.7153 161.548 55.2611 162.363 55.0283C163.219 54.7844 163.946 54.661 164.529 54.661C165.166 54.661 165.743 54.7479 166.24 54.9218C166.766 55.1068 167.215 55.3143 167.585 55.5499C168.005 55.8135 168.397 56.1107 168.75 56.436L169.378 57.0164L173.101 53.029L172.522 52.4569C172.098 52.0391 171.572 51.6578 170.947 51.3241C170.432 51.0577 169.807 50.8109 169.082 50.5894C168.324 50.3595 167.44 50.2417 166.448 50.2417C165.37 50.2417 164.242 50.4997 163.088 51.0072C161.982 51.4951 160.871 52.1681 159.788 53.0094C158.714 53.8422 157.682 54.832 156.724 55.9537C155.769 57.0725 154.911 58.3091 154.172 59.6243C153.43 60.9478 152.836 62.3527 152.401 63.8024C151.96 65.2689 151.739 66.7663 151.739 68.2525C151.739 70.4594 152.037 72.3521 152.626 73.8748C153.22 75.4114 154.01 76.6817 154.976 77.6463C155.951 78.6221 157.054 79.3288 158.256 79.7438C159.427 80.1504 160.604 80.3579 161.755 80.3579C162.906 80.3579 163.972 80.1812 164.904 79.8279C165.811 79.4858 166.669 79.0203 167.457 78.4399C168.218 77.879 168.955 77.2369 169.648 76.5275C170.319 75.8404 171.012 75.145 171.706 74.4608L172.345 73.8299L170.722 72.4082L170.154 72.9915C169.608 73.5523 169 74.0486 168.332 74.4833C167.769 74.859 167.098 75.2067 166.331 75.5096C165.612 75.7956 164.793 75.9414 163.898 75.9414C162.656 75.9414 161.548 75.7058 160.598 75.246C159.649 74.7833 158.847 74.1412 158.216 73.3336C157.571 72.5092 157.071 71.5221 156.733 70.4005C156.46 69.4947 156.295 68.5329 156.235 67.5262H166.797L171.274 63.1098H156.483C156.736 61.5339 157.145 60.2243 157.699 59.2093C158.358 57.9979 159.103 57.0445 159.916 56.3771H159.922Z" fill="#FFCB19"/>
<path d="M192.927 66.567C191.912 65.6837 190.758 64.9715 189.493 64.4527C188.902 64.2087 188.308 64.0153 187.711 63.8666C188.316 63.4012 188.885 62.9525 189.411 62.5263C190.397 61.7271 191.247 60.9532 191.932 60.2269C192.645 59.4698 193.2 58.7211 193.58 58.0004C193.987 57.2265 194.194 56.4217 194.194 55.6085C194.194 53.6849 193.239 52.2268 191.432 51.3855C189.786 50.62 187.339 50.2471 183.956 50.2471H178.616L174.139 54.6635H180.31L179.261 55.6983V78.1003C179.261 78.8378 179.372 79.5725 179.594 80.2791C179.821 81.0054 180.159 81.6587 180.603 82.2252C181.054 82.8 181.623 83.2739 182.294 83.6328C182.984 84.003 183.78 84.1909 184.658 84.1909C185.756 84.1909 186.995 83.9609 188.336 83.5067C189.669 83.0552 190.937 82.3962 192.111 81.5494C193.299 80.6913 194.308 79.6286 195.115 78.3919C195.954 77.1049 196.377 75.6215 196.377 73.9811C196.377 72.4472 196.056 71.034 195.419 69.7777C194.794 68.5439 193.956 67.4671 192.93 66.5698L192.927 66.567ZM188.658 80.2286C187.89 80.3015 187.154 80.195 186.415 79.9034C185.682 79.6145 185.059 79.1463 184.505 78.4761C183.988 77.848 183.735 77.0572 183.735 76.0533V67.4924C184.843 67.5821 185.838 67.8064 186.708 68.1682C187.799 68.6224 188.726 69.2113 189.456 69.9095C190.187 70.6105 190.758 71.4097 191.156 72.2902C191.557 73.1763 191.787 74.0792 191.841 74.9709C191.895 75.857 191.784 76.7207 191.511 77.5367C191.241 78.3415 190.832 79.0089 190.258 79.5753C189.883 79.9454 189.357 80.1585 188.655 80.2258L188.658 80.2286ZM184.403 63.275C184.167 63.46 183.945 63.6311 183.738 63.7937V54.6579H183.956C184.874 54.6579 185.721 54.7112 186.48 54.815C187.202 54.9131 187.825 55.0701 188.334 55.2833C188.777 55.4683 189.118 55.7095 189.345 55.9955C189.547 56.2479 189.644 56.5703 189.644 56.9882C189.644 57.4873 189.394 58.0902 188.896 58.78C188.325 59.5735 187.634 60.3643 186.85 61.1298C186.046 61.9094 185.224 62.6328 184.403 63.2778V63.275Z" fill="white"/>
<path d="M218.857 75.2991C218.507 75.1309 218.257 74.9149 218.098 74.6345C217.91 74.3121 217.791 73.9251 217.743 73.4848C217.686 72.9605 217.655 72.3912 217.655 71.7912V47L216.427 47.5945C213.962 48.789 211.726 50.2163 209.784 51.8371C208.946 52.5409 208.119 53.3317 207.323 54.1954C206.513 55.073 205.782 56.0405 205.154 57.0668C204.52 58.1043 204 59.2456 203.611 60.4653C203.273 61.5225 203.079 62.6441 203.028 63.805H196.576L200.709 67.8205H203.014V79.6651C203.014 80.5176 202.886 81.1877 202.633 81.6588C202.355 82.1776 201.931 82.716 201.38 83.2628L200.746 83.8909L202.301 85.2705L202.86 84.8639C204.239 83.8629 205.356 82.7468 206.183 81.5411C207.053 80.2736 207.493 78.8463 207.493 77.2956V67.8205H213.178V74.1971C213.178 74.9177 213.26 75.616 213.425 76.2749C213.599 76.9788 213.897 77.6125 214.306 78.1593C214.736 78.7341 215.31 79.1912 216.017 79.5165C216.705 79.8362 217.555 79.996 218.541 79.996H221.423C222.566 79.996 223.552 79.595 224.354 78.8014L227.62 75.5795H220.611C219.641 75.5795 219.124 75.4281 218.86 75.2991H218.857ZM213.181 53.1915V63.805H207.496V63.2246C207.496 61.4047 207.707 59.8625 208.119 58.6427C208.528 57.4313 209.057 56.4218 209.693 55.6395C210.321 54.8655 211.032 54.2627 211.805 53.8448C212.26 53.5981 212.72 53.3794 213.184 53.1915H213.181Z" fill="#FFCB19"/>
<path d="M244.039 69.772C243.414 68.5382 242.575 67.4614 241.549 66.5641C240.535 65.6808 239.381 64.9685 238.116 64.4498C237.525 64.2058 236.931 64.0123 236.334 63.8637C236.939 63.3982 237.508 62.9496 238.033 62.5234C239.02 61.7242 239.869 60.9502 240.554 60.224C241.268 59.4669 241.822 58.7182 242.203 57.9975C242.609 57.2236 242.817 56.4188 242.817 55.6056C242.817 53.682 241.862 52.2238 240.054 51.3826C238.409 50.6171 235.961 50.2441 232.579 50.2441H227.238L222.762 54.6606H228.932L227.884 55.6953V78.0974C227.884 78.8349 227.994 79.5696 228.216 80.2762C228.443 81.0025 228.782 81.6558 229.225 82.2222C229.677 82.7971 230.245 83.271 230.916 83.6299C231.607 84 232.403 84.1879 233.281 84.1879C234.378 84.1879 235.617 83.958 236.959 83.5037C238.292 83.0523 239.56 82.3933 240.733 81.5464C241.922 80.6884 242.931 79.6256 243.738 78.389C244.576 77.1019 245 75.6186 245 73.9782C245 72.4443 244.679 71.031 244.042 69.7748L244.039 69.772ZM237.283 80.2285C236.516 80.3014 235.779 80.1949 235.04 79.9032C234.307 79.6144 233.685 79.1461 233.13 78.4759C232.613 77.8478 232.36 77.0571 232.36 76.0532V67.4922C233.469 67.582 234.463 67.8063 235.333 68.168C236.425 68.6223 237.351 69.2112 238.082 69.9094C238.812 70.6104 239.383 71.4096 239.781 72.2901C240.182 73.1762 240.412 74.0791 240.466 74.9708C240.52 75.8569 240.409 76.7206 240.137 77.5366C239.867 78.3414 239.457 79.0087 238.883 79.5752C238.508 79.9453 237.982 80.1584 237.28 80.2257L237.283 80.2285ZM233.028 63.2749C232.792 63.4599 232.57 63.631 232.363 63.7936V54.6578H232.582C233.5 54.6578 234.347 54.7111 235.106 54.8148C235.828 54.913 236.45 55.07 236.959 55.2831C237.402 55.4682 237.743 55.7094 237.971 55.9954C238.173 56.2477 238.269 56.5702 238.269 56.988C238.269 57.4872 238.019 58.09 237.522 58.7799C236.95 59.5734 236.26 60.3642 235.475 61.1297C234.671 61.9092 233.849 62.6327 233.028 63.2777V63.2749Z" fill="white"/>
</g>
<g clip-path="url(#clip3_536_26771)">
<path d="M-21.4196 -53.0168C-14.4288 -58.7682 -7.28982 -62.7163 -0.200203 -64.7391C7.23524 -66.8593 13.5591 -67.9316 18.6231 -67.9316C24.1565 -67.9316 29.1711 -67.1761 33.494 -65.6651C38.0639 -64.0567 41.967 -62.2532 45.1783 -60.2061C48.8343 -57.9153 52.2432 -55.332 55.3063 -52.505L60.7655 -47.4602L93.1258 -82.1154L88.0865 -87.087C84.4058 -90.7182 79.8359 -94.0326 74.4013 -96.9328C69.9302 -99.248 64.4956 -101.393 58.1965 -103.318C51.6009 -105.316 43.9185 -106.34 35.2973 -106.34C25.9351 -106.34 16.1281 -104.098 6.09894 -99.6866C-3.51033 -95.4461 -13.169 -89.5972 -22.5807 -82.286C-31.9182 -75.0479 -40.8852 -66.445 -49.2099 -56.6967C-57.51 -46.9728 -64.9701 -36.2253 -71.3927 -24.7955C-77.8401 -13.2925 -83.0029 -1.08279 -86.7824 11.5169C-90.6113 24.2627 -92.5381 37.2767 -92.5381 50.1932C-92.5381 69.3729 -89.9443 85.8231 -84.8309 99.0564C-79.6681 112.412 -72.8008 123.452 -64.402 131.835C-55.929 140.316 -46.3444 146.457 -35.8953 150.064C-25.7179 153.598 -15.491 155.401 -5.48653 155.401C4.51797 155.401 13.7814 153.866 21.8838 150.795C29.7639 147.822 37.2241 143.777 44.0666 138.732C50.6869 133.858 57.0849 128.277 63.1123 122.111C68.9421 116.14 74.9695 110.096 80.9969 104.15L86.5549 98.6665L72.4498 86.3106L67.5093 91.3797C62.7664 96.2538 57.4801 100.567 51.675 104.345C46.7839 107.611 40.9541 110.633 34.2845 113.265C28.0348 115.75 20.9204 117.018 13.1392 117.018C2.34418 117.018 -7.28979 114.971 -15.5404 110.974C-23.7911 106.953 -30.7572 101.372 -36.2411 94.3529C-41.8486 87.1879 -46.1962 78.6094 -49.1358 68.8611C-51.5073 60.9894 -52.94 52.6302 -53.4588 43.8811H38.3357L77.2421 5.49731H-51.3096C-49.1111 -8.19903 -45.554 -19.5801 -40.737 -28.4023C-35.006 -38.9305 -28.534 -47.2165 -21.469 -53.0168H-21.4196Z" fill="white" fill-opacity="0.05"/>
<path d="M265.426 35.5465C256.607 27.8697 246.578 21.6796 235.585 17.171C230.447 15.0507 225.284 13.3691 220.097 12.0775C225.359 8.03195 230.299 4.13264 234.869 0.428299C243.441 -6.51735 250.827 -13.2437 256.78 -19.5557C262.98 -26.1358 267.797 -32.6428 271.108 -38.906C274.64 -45.6323 276.443 -52.6267 276.443 -59.6942C276.443 -76.4125 268.143 -89.0853 252.432 -96.3965C238.13 -103.05 216.861 -106.291 187.465 -106.291H141.049L102.143 -67.9072H155.772L146.656 -58.9144V135.783C146.656 142.193 147.62 148.578 149.547 154.719C151.523 161.031 154.462 166.71 158.316 171.632C162.244 176.628 167.184 180.747 173.014 183.867C179.017 187.083 185.933 188.716 193.566 188.716C203.102 188.716 213.872 186.718 225.531 182.77C237.117 178.846 248.134 173.119 258.336 165.759C268.662 158.302 277.431 149.065 284.447 138.318C291.734 127.132 295.415 114.239 295.415 99.9826C295.415 86.6518 292.623 74.369 287.09 63.4509C281.656 52.7278 274.368 43.3695 265.451 35.5708L265.426 35.5465ZM228.323 154.281C221.653 154.914 215.255 153.988 208.833 151.454C202.459 148.943 197.05 144.873 192.233 139.049C187.737 133.59 185.538 126.717 185.538 117.993V43.5888C195.172 44.3687 203.818 46.3183 211.377 49.4621C220.863 53.4102 228.916 58.528 235.264 64.5963C241.613 70.689 246.578 77.6347 250.036 85.2871C253.519 92.9882 255.52 100.836 255.99 108.585C256.459 116.287 255.496 123.793 253.124 130.885C250.777 137.879 247.22 143.679 242.23 148.602C238.97 151.819 234.4 153.671 228.298 154.256L228.323 154.281ZM191.343 6.93527C189.293 8.54374 187.366 10.0303 185.563 11.4438V-67.9559H187.465C195.444 -67.9559 202.805 -67.4929 209.401 -66.5911C215.675 -65.7382 221.085 -64.3734 225.507 -62.5212C229.36 -60.9128 232.325 -58.8169 234.301 -56.3311C236.055 -54.1377 236.895 -51.3351 236.895 -47.7038C236.895 -43.3659 234.721 -38.1262 230.398 -32.131C225.433 -25.2341 219.43 -18.3615 212.612 -11.7083C205.621 -4.93327 198.482 1.35439 191.343 6.95965V6.93527Z" fill="white" fill-opacity="0.05"/>
<path d="M490.786 111.437C487.748 109.975 485.574 108.098 484.191 105.661C482.56 102.858 481.523 99.4953 481.103 95.6691C480.609 91.1118 480.337 86.1645 480.337 80.9492V-134.512L469.666 -129.346C448.249 -118.964 428.808 -106.559 411.936 -92.4727C404.649 -86.3557 397.46 -79.4832 390.544 -71.977C383.503 -64.349 377.155 -55.9411 371.696 -47.0214C366.187 -38.0042 361.666 -28.0853 358.282 -17.4841C355.343 -8.29633 353.663 1.45195 353.218 11.5414H297.144L333.061 46.4403H353.095V149.382C353.095 156.791 351.983 162.615 349.785 166.71C347.364 171.218 343.683 175.897 338.891 180.65L333.382 186.109L346.894 198.099L351.761 194.565C363.741 185.865 373.45 176.166 380.638 165.686C388.197 154.671 392.026 142.266 392.026 128.789V46.4403H441.431V101.859C441.431 108.123 442.147 114.191 443.58 119.918C445.087 126.035 447.681 131.543 451.238 136.295C454.968 141.291 459.958 145.263 466.109 148.09C472.087 150.869 479.473 152.258 488.044 152.258H513.093C523.023 152.258 531.595 148.773 538.561 141.876L566.944 113.874H506.028C497.604 113.874 493.108 112.558 490.811 111.437H490.786ZM441.455 -80.7017V11.5414H392.05V6.49669C392.05 -9.3199 393.878 -22.7238 397.46 -33.325C401.017 -43.8532 405.612 -52.6266 411.146 -59.4261C416.605 -66.1524 422.78 -71.3921 429.499 -75.0233C433.452 -77.1679 437.454 -79.0689 441.48 -80.7017H441.455Z" fill="white" fill-opacity="0.05"/>
</g>
</g>
</g>
<defs>
<filter id="filter0_d_536_26771" x="0" y="0" width="367" height="144" filterUnits="userSpaceOnUse" color-interpolation-filters="sRGB">
<feFlood flood-opacity="0" result="BackgroundImageFix"/>
<feColorMatrix in="SourceAlpha" type="matrix" values="0 0 0 0 0 0 0 0 0 0 0 0 0 0 0 0 0 0 127 0" result="hardAlpha"/>
<feOffset dy="4"/>
<feGaussianBlur stdDeviation="6"/>
<feComposite in2="hardAlpha" operator="out"/>
<feColorMatrix type="matrix" values="0 0 0 0 0.747233 0 0 0 0 0.747233 0 0 0 0 0.747233 0 0 0 0.15 0"/>
<feBlend mode="normal" in2="BackgroundImageFix" result="effect1_dropShadow_536_26771"/>
<feBlend mode="normal" in="SourceGraphic" in2="effect1_dropShadow_536_26771" result="shape"/>
</filter>
<clipPath id="clip0_536_26771">
<rect width="343" height="120" fill="white" transform="translate(12 8)"/>
</clipPath>
<clipPath id="clip1_536_26771">
<path d="M12 8H355V128H12V8Z" fill="white"/>
</clipPath>
<clipPath id="clip2_536_26771">
<rect width="123" height="42" fill="white" transform="translate(122 47)"/>
</clipPath>
<clipPath id="clip3_536_26771">
<rect width="1069" height="365.024" fill="white" transform="translate(-351 -134.512)"/>
</clipPath>
</defs>
</svg>
