<svg width="367" height="144" viewBox="0 0 367 144" fill="none" xmlns="http://www.w3.org/2000/svg">
<g clip-path="url(#clip0_536_26706)" filter="url(#filter0_d_536_26706)">
<g clip-path="url(#clip1_536_26706)">
<path d="M12 8H355V128H12V8Z" fill="#77C290"/>
<path d="M-7.44923 14.5025L-13.76 2.08714C-11.8164 1.03401 -10.5489 0.0056445 -9.90565 -1.0532C-9.14514 -2.29483 -9.22453 -3.83419 -10.1348 -5.62509L-19.5366 -24.1215C-20.4586 -25.9354 -21.6613 -26.9183 -23.1126 -27.0357C-24.3471 -27.14 -25.9249 -26.7221 -27.9212 -25.7726L-34.2319 -38.188L4.64177 -57.9476C8.16685 -59.7394 11.3642 -60.8356 14.153 -61.2097C16.9072 -61.5807 19.3933 -61.3951 21.5364 -60.6584C23.6707 -59.9244 25.5919 -58.6546 27.236 -56.8888C28.9121 -55.0886 30.4145 -52.8885 31.7083 -50.3433C33.0021 -47.798 33.8705 -45.3337 34.2609 -43.0684C34.6481 -40.8521 34.4832 -38.6813 33.7714 -36.6166C33.0596 -34.5519 31.6914 -32.5521 29.7041 -30.6724C27.6852 -28.7694 24.8716 -26.8899 21.335 -25.0923L8.87625 -18.7595L10.2842 -15.9896C11.013 -14.5558 11.967 -13.6059 13.1315 -13.1543C14.3308 -12.6915 15.8375 -12.9356 17.7325 -13.8988L20.8832 -15.5003L27.191 -3.09071L-7.44337 14.514L-7.44923 14.5025ZM5.05925 -26.283L9.58655 -28.5843C11.8214 -29.7203 13.0835 -31.1444 13.3528 -32.8248C13.6053 -34.4241 13.2558 -36.1812 12.3045 -38.0528C11.4059 -39.8206 10.2069 -41.1242 8.73664 -41.9348C7.1794 -42.7882 5.25881 -42.6453 3.0182 -41.5064L-1.5091 -39.2052L5.05925 -26.283Z" fill="#FFFDEE" fill-opacity="0.12"/>
<path d="M21.8539 73.5693L18.4653 60.0606C20.5945 59.4666 22.0592 58.7462 22.922 57.8571C23.9398 56.8159 24.2051 55.2975 23.7163 53.3489L18.6681 33.2237C18.173 31.25 17.2193 30.0241 15.8305 29.5866C14.6503 29.21 13.019 29.2662 10.8615 29.7475L7.4729 16.2388L42.7006 7.40216L46.0891 20.9109C43.9599 21.5049 42.5015 22.2237 41.6449 23.1112C40.6475 24.154 40.39 25.677 40.8851 27.6507L45.9334 47.7759C46.4222 49.7246 47.3649 50.9333 48.7364 51.3818C49.9042 51.7615 51.5308 51.7131 53.693 51.224L57.0815 64.7327L21.8539 73.5693Z" fill="#FFFDEE" fill-opacity="0.12"/>
<path d="M40.5732 142.711L35.8645 130.972L50.3196 88.2999L41.4022 91.8767C40.2628 92.3337 39.4019 92.9296 38.8446 93.6404C38.2705 94.3787 37.9762 95.2763 37.9831 96.3175C37.9911 97.2748 38.2189 98.4502 38.6652 99.7884C39.0465 100.93 39.524 102.242 40.1048 103.707L27.9791 108.571L19.5165 87.473L70.9997 66.8226L75.7084 78.5616L61.2533 121.234L71.1242 117.275C72.2636 116.818 73.1233 116.236 73.6674 115.545C74.2367 114.829 74.5287 113.925 74.5289 112.867C74.5317 111.885 74.3063 110.716 73.8624 109.383C73.4859 108.254 73.0036 106.93 72.4156 105.447L84.5413 100.583L93.0063 121.687L40.5696 142.72L40.5732 142.711Z" fill="#FFFDEE" fill-opacity="0.12"/>
<path d="M97.4846 65.8707L91.1738 53.4553C93.1174 52.4022 94.385 51.3738 95.0282 50.315C95.7887 49.0733 95.7093 47.534 94.799 45.7431L85.3972 27.2467C84.4752 25.4328 83.2725 24.4499 81.8212 24.3325C80.5867 24.2281 79.0089 24.6461 77.0127 25.5956L70.7019 13.1802L109.576 -6.57942C113.101 -8.37122 116.298 -9.46744 119.087 -9.84153C121.841 -10.2125 124.327 -10.027 126.47 -9.29019C128.605 -8.55625 130.526 -7.2864 132.17 -5.52065C133.846 -3.72045 135.348 -1.52038 136.642 1.02489C137.936 3.57015 138.804 6.0345 139.195 8.29981C139.582 10.516 139.417 12.6869 138.705 14.7516C137.993 16.8163 136.625 18.816 134.638 20.6957C132.619 22.5988 129.805 24.4782 126.269 26.2759L113.81 32.6087L115.218 35.3785C115.947 36.8124 116.901 37.7623 118.065 38.2138C119.265 38.6767 120.771 38.4326 122.666 37.4693L125.817 35.8678L132.125 48.2775L97.4905 65.8822L97.4846 65.8707ZM109.993 25.0851L114.52 22.7839C116.755 21.6479 118.017 20.2238 118.287 18.5434C118.539 16.944 118.19 15.1869 117.238 13.3154C116.34 11.5475 115.141 10.2439 113.67 9.43332C112.113 8.57994 110.193 8.72285 107.952 9.86176L103.425 12.163L109.993 25.0851Z" fill="#FFFDEE" fill-opacity="0.12"/>
<path d="M126.787 124.937L123.399 111.428C125.528 110.834 126.993 110.114 127.856 109.225C128.873 108.184 129.139 106.665 128.65 104.717L123.602 84.5914C123.107 82.6177 122.153 81.3918 120.764 80.9543C119.584 80.5777 117.953 80.6339 115.795 81.1152L112.406 67.6064L147.634 58.7698L151.023 72.2785C148.893 72.8726 147.435 73.5914 146.579 74.4789C145.581 75.5216 145.324 77.0447 145.819 79.0184L150.867 99.1436C151.356 101.092 152.298 102.301 153.67 102.749C154.838 103.129 156.464 103.081 158.627 102.592L162.015 116.1L126.787 124.937Z" fill="#FFFDEE" fill-opacity="0.12"/>
<path d="M145.507 194.079L140.798 182.34L155.253 139.668L146.336 143.244C145.196 143.701 144.335 144.297 143.778 145.008C143.204 145.746 142.91 146.644 142.917 147.685C142.925 148.642 143.153 149.818 143.599 151.156C143.98 152.298 144.458 153.61 145.038 155.075L132.913 159.939L124.45 138.841L175.933 118.19L180.642 129.929L166.187 172.602L176.058 168.642C177.197 168.185 178.057 167.604 178.601 166.912C179.17 166.197 179.462 165.293 179.463 164.235C179.465 163.253 179.24 162.083 178.796 160.751C178.419 159.621 177.937 158.297 177.349 156.814L189.475 151.95L197.94 173.054L145.503 194.087L145.507 194.079Z" fill="#FFFDEE" fill-opacity="0.12"/>
<path d="M175.414 17.416L172.026 3.90729C174.155 3.31325 175.62 2.59287 176.483 1.70379C177.5 0.662614 177.766 -0.855782 177.277 -2.8044L172.229 -22.9296C171.734 -24.9033 170.78 -26.1292 169.391 -26.5667C168.211 -26.9433 166.58 -26.8871 164.422 -26.4058L161.033 -39.9146L196.261 -48.7512L199.65 -35.2424C197.52 -34.6484 196.062 -33.9296 195.205 -33.0421C194.208 -31.9994 193.951 -30.4763 194.446 -28.5026L199.494 -8.37738C199.983 -6.42877 200.925 -5.22005 202.297 -4.77156C203.465 -4.39184 205.091 -4.44022 207.254 -4.92931L210.642 8.57939L175.414 17.416Z" fill="#FFFDEE" fill-opacity="0.12"/>
<path d="M194.134 86.5579L189.425 74.8189L203.88 32.1465L194.963 35.7234C193.823 36.1804 192.962 36.7763 192.405 37.487C191.831 38.2254 191.537 39.123 191.544 40.1642C191.552 41.1215 191.779 42.2968 192.226 43.6351C192.607 44.7767 193.085 46.0886 193.665 47.5539L181.54 52.4176L173.077 31.3197L224.56 10.6692L229.269 22.4083L214.814 65.0806L224.685 61.1213C225.824 60.6643 226.684 60.0828 227.228 59.3912C227.797 58.6757 228.089 57.7721 228.089 56.7141C228.092 55.7316 227.867 54.5622 227.423 53.23C227.046 52.1003 226.564 50.7765 225.976 49.2932L238.102 44.4295L246.567 65.5334L194.13 86.5663L194.134 86.5579Z" fill="#FFFDEE" fill-opacity="0.12"/>
<path d="M215.183 148.961L211.14 136.977L227.966 95.1823L218.862 98.2534C217.698 98.6458 216.805 99.1924 216.209 99.8708C215.595 100.576 215.25 101.455 215.199 102.495C215.153 103.452 215.315 104.638 215.685 105.999C216.002 107.16 216.405 108.497 216.903 109.992L204.523 114.168L197.257 92.6291L249.818 74.8986L253.861 86.8832L237.035 128.678L247.112 125.278C248.276 124.886 249.167 124.353 249.749 123.694C250.357 123.011 250.699 122.125 250.759 121.069C250.817 120.088 250.657 118.908 250.289 117.553C249.976 116.404 249.569 115.055 249.065 113.541L261.445 109.365L268.713 130.911L215.179 148.97L215.183 148.961Z" fill="#FFFDEE" fill-opacity="0.12"/>
<path d="M346.111 30.9837L341.403 19.2446L355.858 -23.4277L346.94 -19.8508C345.801 -19.3938 344.94 -18.7979 344.383 -18.0872C343.809 -17.3488 343.514 -16.4512 343.521 -15.41C343.529 -14.4527 343.757 -13.2774 344.203 -11.9391C344.585 -10.7975 345.062 -9.48565 345.643 -8.02036L333.517 -3.15662L325.055 -24.2545L376.538 -44.905L381.246 -33.1659L366.791 9.50638L376.662 5.54707C377.802 5.09004 378.661 4.50855 379.206 3.81702C379.775 3.10148 380.067 2.19788 380.067 1.13985C380.07 0.157382 379.844 -1.01197 379.4 -2.34425C379.024 -3.47387 378.542 -4.79772 377.954 -6.28099L390.079 -11.1447L398.544 9.95917L346.108 30.9921L346.111 30.9837Z" fill="#FFFDEE" fill-opacity="0.12"/>
<path d="M367.16 93.3871L363.118 81.4025L379.943 39.608L370.839 42.6791C369.676 43.0715 368.783 43.6182 368.187 44.2966C367.572 45.0016 367.228 45.8812 367.176 46.9212C367.131 47.8774 367.292 49.0637 367.663 50.4249C367.98 51.5861 368.383 52.9227 368.88 54.4182L356.501 58.5942L349.235 37.0549L401.795 19.3244L405.838 31.309L389.013 73.1035L399.09 69.704C400.253 69.3116 401.144 68.7792 401.726 68.1193C402.335 67.4368 402.677 66.551 402.737 65.4947C402.794 64.5139 402.635 63.3337 402.266 61.9787C401.954 60.8297 401.547 59.4809 401.043 57.967L413.422 53.7909L420.69 75.3364L367.156 93.3953L367.16 93.3871Z" fill="#FFFDEE" fill-opacity="0.12"/>
<path d="M251.045 9.71736L244.734 -2.69802C246.678 -3.75115 247.946 -4.77951 248.589 -5.83835C249.349 -7.07999 249.27 -8.61934 248.36 -10.4102L238.958 -28.9066C238.036 -30.7206 236.833 -31.7034 235.382 -31.8208C234.147 -31.9252 232.569 -31.5072 230.573 -30.5578L224.262 -42.9731L263.136 -62.7327C266.661 -64.5245 269.859 -65.6208 272.647 -65.9949C275.402 -66.3658 277.888 -66.1803 280.031 -65.4435C282.165 -64.7096 284.086 -63.4397 285.73 -61.674C287.406 -59.8738 288.909 -57.6737 290.203 -55.1284C291.496 -52.5832 292.365 -50.1188 292.755 -47.8535C293.143 -45.6373 292.978 -43.4665 292.266 -41.4018C291.554 -39.3371 290.186 -37.3373 288.199 -35.4576C286.18 -33.5546 283.366 -31.6751 279.829 -29.8774L267.371 -23.5446L268.779 -20.7748C269.507 -19.3409 270.461 -18.391 271.626 -17.9395C272.825 -17.4766 274.332 -17.7208 276.227 -18.684L279.378 -20.2855L285.685 -7.87587L251.051 9.72888L251.045 9.71736ZM263.554 -31.0682L268.081 -33.3694C270.316 -34.5054 271.578 -35.9295 271.847 -37.6099C272.1 -39.2093 271.75 -40.9664 270.799 -42.8379C269.9 -44.6058 268.701 -45.9094 267.231 -46.72C265.674 -47.5734 263.753 -47.4305 261.513 -46.2916L256.985 -43.9903L263.554 -31.0682Z" fill="#FFFDEE" fill-opacity="0.12"/>
<path d="M280.348 68.7837L276.959 55.275C279.089 54.6809 280.553 53.9605 281.416 53.0715C282.434 52.0303 282.699 50.5119 282.21 48.5633L277.162 28.4381C276.667 26.4644 275.713 25.2384 274.325 24.8009C273.144 24.4244 271.513 24.4806 269.356 24.9618L265.967 11.4531L301.195 2.61652L304.583 16.1252C302.454 16.7193 300.996 17.4381 300.139 18.3256C299.142 19.3683 298.884 20.8914 299.379 22.8651L304.428 42.9903C304.916 44.9389 305.859 46.1476 307.231 46.5961C308.398 46.9758 310.025 46.9275 312.187 46.4384L315.576 59.9471L280.348 68.7837Z" fill="#FFFDEE" fill-opacity="0.12"/>
<path d="M299.067 137.926L294.359 126.187L308.814 83.5142L299.896 87.0911C298.757 87.5481 297.896 88.144 297.339 88.8547C296.765 89.5931 296.47 90.4907 296.477 91.5319C296.485 92.4892 296.713 93.6645 297.159 95.0028C297.541 96.1444 298.018 97.4562 298.599 98.9215L286.473 103.785L278.011 82.6874L329.494 62.0369L334.203 73.776L319.747 116.448L329.618 112.489C330.758 112.032 331.617 111.45 332.162 110.759C332.731 110.043 333.023 109.14 333.023 108.082C333.026 107.099 332.8 105.93 332.357 104.598C331.98 103.468 331.498 102.144 330.91 100.661L343.035 95.7972L351.5 116.901L299.064 137.934L299.067 137.926Z" fill="#FFFDEE" fill-opacity="0.12"/>
<path d="M320.117 200.33L316.074 188.345L332.899 146.55L323.795 149.622C322.632 150.014 321.739 150.561 321.143 151.239C320.528 151.944 320.184 152.824 320.132 153.864C320.087 154.82 320.248 156.006 320.619 157.367C320.936 158.528 321.339 159.865 321.836 161.361L309.457 165.537L302.191 143.997L354.751 126.267L358.794 138.251L341.969 180.046L352.046 176.646C353.209 176.254 354.1 175.722 354.682 175.062C355.291 174.379 355.633 173.493 355.693 172.437C355.75 171.456 355.591 170.276 355.223 168.921C354.91 167.772 354.503 166.423 353.999 164.909L366.378 160.733L373.646 182.279L320.112 200.338L320.117 200.33Z" fill="#FFFDEE" fill-opacity="0.12"/>
<g clip-path="url(#clip2_536_26706)">
<path d="M132.238 70.1176L132.397 71.201C132.491 71.838 132.723 72.3122 133.094 72.6208C133.465 72.9294 134.071 73.0204 134.913 72.8966L136.753 72.626L137.738 79.3227L120.066 81.9213L119.081 75.2246C120.14 75.069 120.878 74.8152 121.295 74.4663C121.711 74.1174 121.86 73.5494 121.745 72.7674L120.402 63.6337C120.285 62.8403 119.978 62.3335 119.479 62.1193C118.98 61.9051 118.202 61.8742 117.141 62.0302L116.156 55.3335L135.637 52.4689C137.418 52.2071 138.942 52.1979 140.207 52.4418C141.472 52.6858 142.525 53.1293 143.364 53.7758C144.203 54.4223 144.855 55.2562 145.319 56.283C145.784 57.3099 146.111 58.4646 146.3 59.7527C146.49 61.0409 146.507 62.2237 146.346 63.267C146.186 64.3102 145.794 65.2394 145.169 66.0489C144.544 66.8583 143.655 67.5323 142.504 68.0647C141.353 68.597 139.886 68.9929 138.105 69.2548L132.238 70.1176ZM131.274 63.5622L133.337 64.0348C134.346 63.8863 135.007 63.519 135.313 62.9336C135.62 62.3482 135.933 63.1393 135.806 62.2749C135.686 61.4559 135.391 60.7934 134.924 60.2839C134.457 59.7745 133.715 59.5959 132.706 59.7444L130.755 60.0313L131.386 64.3246L131.274 63.5622Z" fill="#E8290E"/>
<path d="M119.915 86.7665L119.175 80.6141C120.148 80.471 120.835 80.2349 121.266 79.8908C121.773 79.4881 121.975 78.8327 121.869 77.9452L120.766 68.7794C120.658 67.8805 120.306 67.286 119.717 67.0152C119.217 66.7829 118.494 66.7165 117.515 66.8082L116.775 60.6558L136.039 58.3388C137.786 58.1287 139.289 58.1592 140.512 58.4291C141.719 58.6949 142.73 59.1523 143.513 59.7877C144.293 60.4205 144.901 61.2447 145.319 62.2338C145.744 63.2422 146.036 64.3911 146.187 65.6525C146.339 66.9138 146.325 68.0763 146.142 69.0825C145.965 70.0678 145.565 70.9497 144.952 71.7038C144.339 72.4578 143.462 73.0844 142.344 73.5662C141.209 74.0529 139.746 74.4084 137.994 74.6192L131.82 75.3617L131.985 76.7343C132.071 77.4449 132.324 77.9876 132.742 78.3542C133.172 78.7309 133.839 78.8591 134.778 78.7462L136.339 78.5584L137.079 84.7079L119.916 86.7722L119.915 86.7665ZM131.375 71.6345L133.618 71.3647C134.726 71.2315 135.471 70.8292 135.84 70.1682C136.19 69.5384 136.312 68.7508 136.201 67.8234C136.095 66.9473 135.794 66.2193 135.303 65.6559C134.783 65.0614 133.958 64.8276 132.848 64.9611L130.604 65.231L131.375 71.6345Z" fill="#FFFDEE"/>
<path d="M147.261 81.4452L147.78 74.6963C148.846 74.7782 149.622 74.6938 150.106 74.4455C150.589 74.1973 150.86 73.6761 150.92 72.888L151.627 63.6832C151.689 62.8837 151.501 62.3216 151.062 62.0024C150.622 61.6832 149.87 61.4814 148.801 61.3992L149.32 54.6504L166.005 55.9323L165.487 62.6812C164.421 62.5993 163.647 62.684 163.17 62.9327C162.692 63.1814 162.424 63.7084 162.362 64.508L161.655 73.7128C161.595 74.5009 161.78 75.0542 162.214 75.3758C162.647 75.6945 163.396 75.8961 164.465 75.9783L163.947 82.7271L147.261 81.4452Z" fill="#E8290E"/>
<path d="M147.222 74.9759L147.871 68.8131C148.851 68.8903 149.573 68.813 150.07 68.5734C150.654 68.2938 150.997 67.6998 151.09 66.8109L152.056 57.6296C152.151 56.7292 151.94 56.0712 151.426 55.6761C150.991 55.3384 150.3 55.1126 149.325 54.9841L149.973 48.8213L166.045 50.5117L165.396 56.6745C164.416 56.5973 163.696 56.6749 163.203 56.9148C162.627 57.1982 162.286 57.7953 162.192 58.6957L161.226 67.877C161.133 68.7659 161.342 69.4151 161.846 69.8121C162.276 70.1492 162.963 70.3775 163.942 70.5035L163.293 76.6663L147.222 74.9759Z" fill="#FFFDEE"/>
<path d="M184.158 73.2792C184.655 73.2565 185.186 72.7479 185.186 72.7479C185.186 72.7479 185.787 72.4086 185.922 72.0226C186.057 71.6396 186.186 71.2444 186.194 70.6457C186.204 70.0496 186.188 69.3368 186.151 68.5099L192.532 68.2184L193.02 78.8993L167.334 80.0724L167.059 74.0572L179.07 58.6595L175.423 58.826C174.923 58.8489 174.528 58.9561 174.232 59.1451C173.935 59.3342 173.724 59.6201 173.594 59.9971C173.465 60.3742 173.395 60.8636 173.388 61.4682C173.378 62.0728 173.393 62.7799 173.43 63.5953L167.049 63.8868L166.561 53.2088L191.791 52.0565L192.066 58.0717L180.054 73.4695L184.156 73.2822L184.158 73.2792Z" fill="#E8290E"/>
<path d="M166.953 85.5245L166.779 79.8996L179.34 64.2766L175.067 64.4087C174.521 64.4255 174.07 64.543 173.729 64.7548C173.376 64.9756 173.116 65.3057 172.96 65.7419C172.817 66.1432 172.732 66.6691 172.714 67.2965C172.699 67.8319 172.698 68.453 172.717 69.1541L166.907 69.3336L166.594 59.2242L191.264 58.4618L191.437 64.0868L178.876 79.7097L183.606 79.5636C184.152 79.5467 184.6 79.4351 184.933 79.2292C185.28 79.0172 185.541 78.6843 185.702 78.2422C185.854 77.832 185.938 77.3089 185.956 76.6844C185.971 76.1548 185.972 75.5279 185.953 74.8182L191.763 74.6387L192.076 84.751L166.95 85.5275L166.953 85.5245Z" fill="#FFFDEE"/>
<path d="M210.719 76.2583C211.216 76.2777 211.619 76.2071 211.924 76.0492C212.229 75.8914 212.464 75.6273 212.631 75.2541C212.798 74.8838 212.912 74.4021 212.969 73.8061C213.03 73.213 213.075 72.5014 213.107 71.6743L219.49 71.9226L219.075 82.6065L193.381 81.6069L193.615 75.59L206.883 61.2613L203.235 61.1193C202.735 61.0999 202.332 61.1734 202.021 61.3367C201.71 61.5001 201.475 61.7671 201.314 62.1319C201.153 62.4967 201.042 62.9785 200.984 63.5802C200.924 64.1819 200.879 64.8878 200.847 65.7034L194.464 65.4551L194.879 54.774L220.116 55.7559L219.882 61.7728L213.248 68.9371L211.563 71.4186L209.931 72.5193L206.614 76.1015L210.716 76.2611L210.719 76.2583Z" fill="#E8290E"/>
<path d="M193.448 75.5802L193.59 69.9543L207.008 55.0604L202.734 54.9526C202.188 54.9388 201.731 55.0308 201.379 55.2232C201.014 55.4238 200.736 55.7388 200.555 56.1656C200.39 56.5582 200.276 57.0786 200.223 57.704C200.178 58.2376 200.142 58.8577 200.122 59.5587L194.311 59.4122L194.566 49.3011L219.239 49.9235L219.097 55.5493L205.679 70.4432L210.41 70.5626C210.956 70.5763 211.41 70.49 211.754 70.3032C212.112 70.111 212.391 69.7931 212.577 69.3608C212.751 68.9598 212.865 68.4423 212.918 67.8197C212.963 67.2918 212.999 66.666 213.019 65.9563L218.831 66.1029L218.575 76.2169L193.445 75.583L193.448 75.5802Z" fill="#FFFDEE"/>
<path d="M236.007 71.1104L230.297 71.8412L230.148 72.6897C230.024 73.2584 230.096 73.7079 230.358 74.0419C230.621 74.3759 231.102 74.4966 231.8 74.4073L232.83 74.2754L233.731 81.3144L222.472 82.7553L221.571 75.7163L222.311 75.6216C223.18 75.5105 223.738 75.2568 223.987 74.8573C224.237 74.4577 224.454 73.8952 224.641 73.1635L227.116 63.0889C227.287 62.3228 227.264 61.7759 227.045 61.4485C226.827 61.124 226.275 61.0154 225.398 61.1276L225.02 61.176L224.119 54.14L242.694 51.7628L243.595 58.8018L243.234 58.848C242.343 58.9621 241.834 59.2125 241.704 59.6028C241.578 59.9926 241.697 60.5151 242.062 61.1762L246.994 70.3027C247.185 70.6398 247.352 70.9283 247.502 71.1734C247.649 71.4189 247.82 71.6218 248.011 71.7827C248.202 71.9435 248.448 72.0519 248.741 72.1055C249.034 72.1591 249.404 72.1543 249.851 72.0971L250.591 72.0023L251.492 79.0413L235.066 81.1435L234.165 74.1045L235.159 73.9774C235.845 73.8896 236.283 73.6512 236.473 73.2593C236.663 72.8674 236.625 72.4135 236.362 71.8943L236.004 71.1108L236.007 71.1104ZM230.705 67.7316L234.554 67.239L232.133 62.6778L231.988 62.6964L230.702 67.732L230.705 67.7316Z" fill="#E8290E"/>
<path d="M234.913 85.2526L234.27 79.0922L234.982 79.0178C235.768 78.9357 236.291 78.6614 236.539 78.205C236.783 77.7517 236.763 77.225 236.47 76.6372L236.055 75.7038L229.904 76.3462L229.689 77.357C229.528 77.9749 229.605 78.4928 229.915 78.8881C230.232 79.2913 230.801 79.4544 231.605 79.3705L232.354 79.2923L232.997 85.4527L222.26 86.574L221.617 80.4136L222.075 80.3659C223.041 80.2649 223.666 79.9945 223.977 79.5429C224.254 79.1442 224.504 78.5777 224.72 77.8557L227.484 68.282C227.701 67.456 227.68 66.8686 227.42 66.4768C227.142 66.0608 226.517 65.9123 225.51 66.0174L225.416 66.0272L224.772 59.8668L242.858 57.978L243.501 64.1383L243.424 64.1464C242.4 64.2533 241.814 64.5399 241.634 65.024C241.462 65.4813 241.571 66.0508 241.964 66.7726L246.643 75.5632C246.827 75.8936 246.99 76.1771 247.133 76.4164C247.291 76.6774 247.476 76.9008 247.688 77.0781C247.913 77.2684 248.201 77.3944 248.54 77.4601C248.862 77.5219 249.253 77.5273 249.736 77.4768L250.193 77.4291L250.837 83.5894L234.91 85.2529L234.913 85.2526ZM230.406 74.0108L235.067 73.524L232.424 67.5898L231.866 67.6481L230.406 74.0108Z" fill="#FFFDEE"/>
</g>
</g>
</g>
<defs>
<filter id="filter0_d_536_26706" x="0" y="0" width="367" height="144" filterUnits="userSpaceOnUse" color-interpolation-filters="sRGB">
<feFlood flood-opacity="0" result="BackgroundImageFix"/>
<feColorMatrix in="SourceAlpha" type="matrix" values="0 0 0 0 0 0 0 0 0 0 0 0 0 0 0 0 0 0 127 0" result="hardAlpha"/>
<feOffset dy="4"/>
<feGaussianBlur stdDeviation="6"/>
<feComposite in2="hardAlpha" operator="out"/>
<feColorMatrix type="matrix" values="0 0 0 0 0.747233 0 0 0 0 0.747233 0 0 0 0 0.747233 0 0 0 0.15 0"/>
<feBlend mode="normal" in2="BackgroundImageFix" result="effect1_dropShadow_536_26706"/>
<feBlend mode="normal" in="SourceGraphic" in2="effect1_dropShadow_536_26706" result="shape"/>
</filter>
<clipPath id="clip0_536_26706">
<rect width="343" height="120" fill="white" transform="translate(12 8)"/>
</clipPath>
<clipPath id="clip1_536_26706">
<path d="M12 8H355V128H12V8Z" fill="white"/>
</clipPath>
<clipPath id="clip2_536_26706">
<rect width="135.75" height="39" fill="white" transform="translate(116 48.5)"/>
</clipPath>
</defs>
</svg>
