<svg width="20" height="20" viewBox="0 0 20 20" fill="none" xmlns="http://www.w3.org/2000/svg">
<g clip-path="url(#clip0_650_27579)">
<path d="M6.66699 0.667969C6.73937 0.667969 6.80992 0.675824 6.87793 0.69043C6.88186 0.69128 6.88572 0.692461 6.88965 0.693359C6.92387 0.701145 6.95745 0.710482 6.99023 0.72168C6.99646 0.723812 7.00259 0.726256 7.00879 0.728516C7.04091 0.740203 7.07206 0.753766 7.10254 0.768555C7.10607 0.770269 7.10976 0.771679 7.11328 0.773438L13.3008 3.86719L18.6699 0.799805C18.9793 0.623021 19.3597 0.624028 19.668 0.802734C19.9763 0.981654 20.166 1.3115 20.166 1.66797V15.001C20.166 15.3598 19.9737 15.6911 19.6621 15.8691L13.8291 19.2031C13.7744 19.2344 13.7167 19.2582 13.6582 19.2783C13.6479 19.2819 13.6374 19.2849 13.627 19.2881C13.407 19.3559 13.1697 19.3472 12.9541 19.2588C12.9465 19.2557 12.9391 19.2523 12.9316 19.249C12.9165 19.2424 12.9007 19.237 12.8857 19.2295L6.69727 16.1348L1.3291 19.2031C1.01962 19.3799 0.639323 19.3781 0.331055 19.1992C0.0229332 19.0203 -0.166876 18.6912 -0.166992 18.335V5.00098C-0.16687 4.64225 0.0254379 4.3108 0.336914 4.13281L6.16992 0.799805C6.17448 0.797198 6.179 0.794522 6.18359 0.791992C6.24818 0.756275 6.31732 0.727867 6.38965 0.707031C6.39739 0.704804 6.4053 0.703209 6.41309 0.701172C6.44349 0.69321 6.4744 0.68674 6.50586 0.681641C6.51268 0.680532 6.51953 0.679677 6.52637 0.678711C6.55405 0.674811 6.58199 0.671506 6.61035 0.669922C6.6198 0.669393 6.62922 0.66823 6.63867 0.667969H6.66699ZM7.66699 14.3828L12.333 16.7158V5.61816L7.66699 3.28516V14.3828ZM1.83301 5.58105V16.6113L5.66699 14.4199V3.38965L1.83301 5.58105ZM14.333 5.58105V16.6094L18.166 14.4199V3.39062L14.333 5.58105Z" fill="#290600"/>
</g>
<defs>
<clipPath id="clip0_650_27579">
<rect width="20" height="20" fill="white"/>
</clipPath>
</defs>
</svg>
