<svg width="20" height="20" viewBox="0 0 20 20" fill="none" xmlns="http://www.w3.org/2000/svg">
<g clip-path="url(#clip0_650_27274)">
<path d="M19.1663 4C19.2248 4 19.2824 4.00598 19.3381 4.01562C19.3782 4.02258 19.4181 4.0311 19.4573 4.04297C19.5095 4.05881 19.5594 4.07975 19.6077 4.10352C19.6171 4.10814 19.6267 4.11225 19.636 4.11719C19.8677 4.24064 20.0444 4.4526 20.1223 4.70801C20.1255 4.71838 20.1283 4.72881 20.1311 4.73926C20.1535 4.82248 20.1663 4.90968 20.1663 5V10C20.1663 10.5523 19.7185 11 19.1663 11C18.6142 10.9998 18.1663 10.5521 18.1663 10V7.41406L11.9573 13.624C11.5669 14.0143 10.9337 14.0142 10.5432 13.624L7.08325 10.1641L1.54028 15.707C1.14975 16.0974 0.516698 16.0975 0.126221 15.707C-0.264256 15.3166 -0.264159 14.6835 0.126221 14.293L6.37622 8.04297L6.45239 7.97461C6.84517 7.65426 7.42417 7.67685 7.79028 8.04297L11.2493 11.502L16.7522 6H14.1663C13.6142 5.99976 13.1663 5.55213 13.1663 5C13.1663 4.44787 13.6142 4.00024 14.1663 4H19.1663Z" fill="black"/>
</g>
<defs>
<clipPath id="clip0_650_27274">
<rect width="20" height="20" fill="white"/>
</clipPath>
</defs>
</svg>
