<svg width="375" height="812" viewBox="0 0 375 812" fill="none" xmlns="http://www.w3.org/2000/svg">
<g clip-path="url(#clip0_558_20253)">
<rect width="375" height="812" fill="#3E539A"/>
<g clip-path="url(#clip1_558_20253)">
<path d="M4.33276 259.222C2.60359 259.978 0.652088 260.733 -1.42292 261.489C-3.1768 262.001 -5.25181 262.439 -7.59854 262.781C-10.0194 263.146 -12.7614 263.341 -15.7998 263.341C-21.3331 263.341 -26.8665 261.343 -32.6963 257.248C-39.193 252.667 -45.7392 246.452 -52.1371 238.775C-58.7327 230.855 -65.4024 221.521 -71.9485 211.066C-78.6923 200.318 -85.3867 189.181 -91.9081 177.995C-98.5284 166.614 -105.124 155.208 -111.645 143.827C-118.241 132.324 -124.787 121.65 -131.16 112.048C-137.632 102.299 -144.104 93.7453 -150.379 86.556C-154.529 81.8037 -158.778 77.9287 -163.027 74.9555C-159.741 70.6419 -156.48 65.9871 -153.294 61.0886C-148.403 53.5824 -143.512 46.1981 -138.744 39.1793C-133.976 32.1362 -128.987 25.1418 -123.898 18.4399C-119.106 12.1522 -114.091 6.79065 -108.978 2.52578C-104.161 -1.49539 -99.2201 -4.32239 -94.2796 -5.93085C-89.9566 -7.31998 -85.362 -7.14939 -80.2732 -5.34596L-75.8762 -3.8106L-40.4775 -38.7338L-51.0255 -42.8037C-63.1297 -47.4829 -74.4682 -49.067 -84.7197 -47.5073C-94.7489 -45.9719 -104.185 -42.3407 -112.732 -36.711C-121.008 -31.2764 -128.74 -24.282 -135.681 -15.9472C-142.4 -7.90488 -148.699 0.771096 -154.405 9.88574C-160.013 18.8298 -165.373 27.8957 -170.339 36.8397C-175.23 45.6376 -179.923 53.6312 -184.271 60.6012C-188.445 67.2787 -192.595 72.7134 -196.597 76.759C-196.918 77.0758 -197.215 77.3682 -197.536 77.6607V-10.0251C-197.536 -16.5321 -198.178 -21.6987 -199.487 -25.8417C-200.945 -30.399 -203.168 -34.1278 -206.132 -36.8816C-209.22 -39.7574 -213.024 -41.6339 -217.471 -42.4138C-220.904 -43.0231 -224.906 -43.3155 -229.353 -43.3155H-242.692L-281.598 -4.93165H-254.722C-248.349 -4.93165 -244.792 -4.37113 -242.914 -3.88371C-241.161 -3.44504 -239.925 -2.73829 -239.135 -1.78783C-238.172 -0.618037 -237.505 1.13665 -237.159 3.37876C-236.689 6.62006 -236.442 10.8362 -236.442 15.9297V174.071C-236.442 175.168 -236.492 175.948 -236.566 176.508C-236.936 176.557 -237.406 176.581 -238.023 176.581H-277.844C-285.279 176.581 -291.356 175.314 -295.877 172.78C-299.211 170.927 -300.619 168.368 -300.619 164.25V146.605L-313.267 159.083C-318.183 163.933 -321.271 169.514 -322.382 175.607C-323.445 181.407 -323.099 187.158 -321.369 192.642C-319.591 198.296 -316.33 203.219 -311.686 207.313C-307.042 211.431 -301.311 213.942 -294.666 214.843C-293.357 215.136 -291.405 215.282 -287.157 215.282H-261.145C-253.858 215.282 -246.299 213.089 -238.666 208.775C-231.576 204.754 -224.906 199.587 -218.879 193.397C-212.851 187.231 -207.812 180.383 -203.86 173.072C-199.66 165.273 -197.536 157.718 -197.536 150.627V104.468C-195.782 103.957 -194.053 103.299 -192.373 102.494C-189.261 103.908 -185.95 106.613 -182.467 110.585C-177.305 116.483 -171.87 123.989 -166.312 132.909C-160.68 141.975 -154.875 152.186 -149.094 163.324C-143.19 174.656 -137.015 186.281 -130.74 197.808C-124.417 209.433 -117.821 220.985 -111.176 232.122C-104.383 243.455 -97.2686 253.69 -89.9813 262.488C-82.5212 271.53 -74.6658 278.914 -66.6375 284.446C-57.9175 290.466 -48.6047 293.536 -38.946 293.536C-31.4364 293.536 -24.2727 292.586 -17.6277 290.709C-11.2298 288.906 -5.62233 286.81 -1.17588 284.617C4.6045 282.009 9.76731 278.719 14.1397 274.893L18.5367 271.042L10.5331 256.542L4.30807 259.271L4.33276 259.222Z" fill="white" fill-opacity="0.05"/>
<path d="M6.58061 9.98324C13.5714 4.23176 20.7104 0.283711 27.8 -1.73906C35.2355 -3.85931 41.5593 -4.93162 46.6234 -4.93162C52.1567 -4.93162 57.1713 -4.17613 61.4942 -2.66515C66.0642 -1.05668 69.9672 0.746756 73.1785 2.79389C76.8345 5.08474 80.2434 7.66803 83.3065 10.495L88.7658 15.5398L121.126 -19.1154L116.087 -24.087C112.406 -27.7182 107.836 -31.0326 102.402 -33.9328C97.9304 -36.248 92.4958 -38.3926 86.1967 -40.3179C79.6011 -42.3163 71.9187 -43.3398 63.2975 -43.3398C53.9353 -43.3398 44.1284 -41.0977 34.0992 -36.6866C24.4899 -32.4461 14.8312 -26.5972 5.41959 -19.286C-3.91795 -12.0479 -12.8849 -3.44501 -21.2097 6.30327C-29.5097 16.0272 -36.9699 26.7747 -43.3925 38.2045C-49.8399 49.7075 -55.0027 61.9172 -58.7822 74.5169C-62.611 87.2627 -64.5378 100.277 -64.5378 113.193C-64.5378 132.373 -61.9441 148.823 -56.8307 162.056C-51.6678 175.412 -44.8006 186.452 -36.4017 194.835C-27.9288 203.316 -18.3442 209.457 -7.89504 213.064C2.28238 216.598 12.5092 218.401 22.5137 218.401C32.5182 218.401 41.7817 216.866 49.8841 213.795C57.7642 210.822 65.2243 206.777 72.0669 201.732C78.6872 196.858 85.0851 191.277 91.1125 185.111C96.9423 179.14 102.97 173.096 108.997 167.15L114.555 161.667L100.45 149.311L95.5096 154.38C90.7667 159.254 85.4803 163.567 79.6753 167.345C74.7842 170.611 68.9544 173.633 62.2847 176.265C56.035 178.75 48.9207 180.018 41.1394 180.018C30.3444 180.018 20.7104 177.971 12.4598 173.974C4.20919 169.953 -2.75693 164.372 -8.24088 157.353C-13.8483 150.188 -18.196 141.609 -21.1356 131.861C-23.507 123.989 -24.9398 115.63 -25.4585 106.881H66.3359L105.242 68.4973H-23.3094C-21.1109 54.801 -17.5537 43.4199 -12.7367 34.5977C-7.00575 24.0695 -0.533712 15.7835 6.5312 9.98324H6.58061Z" fill="white" fill-opacity="0.05"/>
<path d="M293.426 98.5465C284.607 90.8697 274.578 84.6796 263.585 80.171C258.447 78.0507 253.284 76.3691 248.097 75.0775C253.358 71.032 258.299 67.1326 262.869 63.4283C271.441 56.4826 278.827 49.7563 284.78 43.4443C290.98 36.8642 295.797 30.3572 299.107 24.094C302.64 17.3677 304.443 10.3733 304.443 3.30577C304.443 -13.4125 296.143 -26.0853 280.432 -33.3965C266.13 -40.0497 244.861 -43.291 215.465 -43.291H169.049L130.142 -4.90716H183.771L174.656 4.08563V198.783C174.656 205.193 175.62 211.578 177.546 217.719C179.523 224.031 182.462 229.71 186.316 234.632C190.243 239.628 195.184 243.747 201.014 246.867C207.016 250.084 213.933 251.716 221.566 251.716C231.101 251.716 241.872 249.718 253.531 245.77C265.117 241.846 276.134 236.119 286.336 228.759C296.662 221.302 305.431 212.065 312.447 201.318C319.734 190.132 323.415 177.239 323.415 162.983C323.415 149.652 320.623 137.369 315.09 126.451C309.655 115.728 302.368 106.369 293.45 98.5708L293.426 98.5465ZM256.323 217.281C249.653 217.914 243.255 216.988 236.832 214.454C230.459 211.943 225.049 207.873 220.232 202.049C215.736 196.59 213.538 189.717 213.538 180.993V106.589C223.172 107.369 231.818 109.318 239.377 112.462C248.862 116.41 256.915 121.528 263.264 127.596C269.613 133.689 274.578 140.635 278.036 148.287C281.519 155.988 283.52 163.836 283.989 171.585C284.459 179.287 283.495 186.793 281.124 193.885C278.777 200.879 275.22 206.679 270.23 211.602C266.969 214.819 262.399 216.671 256.298 217.256L256.323 217.281ZM219.343 69.9353C217.293 71.5437 215.366 73.0303 213.563 74.4438V-4.9559H215.465C223.444 -4.9559 230.805 -4.49285 237.401 -3.59114C243.675 -2.73816 249.085 -1.3734 253.507 0.478771C257.36 2.08724 260.324 4.18312 262.301 6.66893C264.055 8.86229 264.894 11.6649 264.894 15.2962C264.894 19.6341 262.721 24.8738 258.398 30.869C253.432 37.7659 247.43 44.6385 240.612 51.2917C233.621 58.0667 226.482 64.3544 219.343 69.9596V69.9353Z" fill="white" fill-opacity="0.05"/>
<path d="M518.787 174.437C515.748 172.975 513.574 171.098 512.191 168.661C510.561 165.858 509.523 162.495 509.103 158.669C508.609 154.112 508.337 149.165 508.337 143.949V-71.5122L497.666 -66.3456C476.249 -55.9637 456.808 -43.559 439.936 -29.4727C432.649 -23.3557 425.461 -16.4832 418.544 -8.97698C411.504 -1.34895 405.155 7.05895 399.696 15.9786C394.187 24.9958 389.667 34.9147 386.282 45.5159C383.343 54.7037 381.663 64.4519 381.218 74.5414H325.144L361.061 109.44H381.095V212.382C381.095 219.791 379.983 225.615 377.785 229.71C375.364 234.218 371.683 238.897 366.891 243.65L361.382 249.109L374.895 261.099L379.761 257.565C391.742 248.865 401.45 239.166 408.638 228.686C416.197 217.671 420.026 205.266 420.026 191.789V109.44H469.431V164.859C469.431 171.123 470.147 177.191 471.58 182.918C473.087 189.035 475.681 194.543 479.238 199.295C482.968 204.291 487.958 208.263 494.109 211.09C500.087 213.869 507.473 215.258 516.045 215.258H541.093C551.023 215.258 559.595 211.773 566.561 204.876L594.944 176.874H534.028C525.604 176.874 521.109 175.558 518.811 174.437H518.787ZM469.456 -17.7017V74.5414H420.051V69.4967C420.051 53.6801 421.879 40.2762 425.461 29.675C429.018 19.1468 433.612 10.3734 439.146 3.57393C444.605 -3.15238 450.781 -8.39208 457.5 -12.0233C461.452 -14.1679 465.454 -16.0689 469.48 -17.7017H469.456Z" fill="white" fill-opacity="0.05"/>
</g>
<g clip-path="url(#clip2_558_20253)">
<path d="M103.426 452.059C94.6069 444.382 84.5778 438.192 73.5852 433.683C68.447 431.563 63.2842 429.881 58.0967 428.59C63.3583 424.544 68.2988 420.645 72.8688 416.941C81.4405 409.995 88.8266 403.269 94.7799 396.957C100.98 390.376 105.797 383.869 109.107 377.606C112.64 370.88 114.443 363.885 114.443 356.818C114.443 340.1 106.143 327.427 90.4322 320.116C76.1295 313.462 54.8607 310.221 25.4647 310.221H-20.9513L-59.8577 348.605H-6.22859L-15.3438 357.598V552.295C-15.3438 558.705 -14.3804 565.09 -12.4536 571.231C-10.4774 577.543 -7.53783 583.222 -3.68424 588.145C0.243455 593.141 5.18398 597.259 11.0138 600.379C17.0165 603.596 23.9331 605.229 31.5662 605.229C41.1014 605.229 51.8717 603.23 63.5312 599.282C75.1167 595.358 86.134 589.631 96.3361 582.271C106.662 574.814 115.431 565.577 122.447 554.83C129.734 543.644 133.415 530.752 133.415 516.495C133.415 503.164 130.623 490.881 125.09 479.963C119.655 469.24 112.368 459.882 103.45 452.083L103.426 452.059ZM66.3226 570.793C59.653 571.426 53.255 570.5 46.8324 567.966C40.4591 565.456 35.0493 561.386 30.2323 555.561C25.7364 550.102 23.5379 543.229 23.5379 534.505V460.101C33.1719 460.881 41.8178 462.831 49.3767 465.974C58.8625 469.922 66.9155 475.04 73.264 481.109C79.6126 487.201 84.5777 494.147 88.0361 501.799C91.5191 509.5 93.5201 517.348 93.9894 525.098C94.4588 532.799 93.4953 540.305 91.1239 547.397C88.7772 554.391 85.22 560.191 80.2301 565.114C76.9694 568.331 72.3994 570.183 66.2979 570.768L66.3226 570.793ZM29.343 423.447C27.2927 425.056 25.3659 426.543 23.5626 427.956V348.556H25.4647C33.4436 348.556 40.805 349.019 47.4005 349.921C53.6749 350.774 59.0848 352.139 63.5065 353.991C67.3601 355.599 70.3244 357.695 72.3006 360.181C74.0545 362.375 74.8944 365.177 74.8944 368.808C74.8944 373.146 72.7206 378.386 68.3976 384.381C63.4324 391.278 57.4297 398.151 50.6118 404.804C43.621 411.579 36.482 417.867 29.343 423.472V423.447Z" fill="white" fill-opacity="0.05"/>
<path d="M328.787 527.949C325.748 526.487 323.574 524.61 322.191 522.173C320.561 519.371 319.523 516.007 319.103 512.181C318.609 507.624 318.337 502.677 318.337 497.461V282L307.666 287.167C286.249 297.549 266.808 309.953 249.936 324.039C242.649 330.157 235.461 337.029 228.544 344.535C221.504 352.163 215.155 360.571 209.696 369.491C204.187 378.508 199.667 388.427 196.282 399.028C193.343 408.216 191.663 417.964 191.218 428.054H135.144L171.061 462.952H191.095V565.894C191.095 573.303 189.983 579.128 187.785 583.222C185.364 587.73 181.683 592.41 176.891 597.162L171.382 602.621L184.895 614.611L189.761 611.078C201.742 602.377 211.45 592.678 218.638 582.198C226.197 571.183 230.026 558.778 230.026 545.301V462.952H279.431V518.371C279.431 524.635 280.147 530.703 281.58 536.43C283.087 542.547 285.681 548.055 289.238 552.807C292.968 557.803 297.958 561.776 304.109 564.603C310.087 567.381 317.473 568.77 326.045 568.77H351.093C361.023 568.77 369.595 565.285 376.561 558.388L404.944 530.386H344.028C335.604 530.386 331.109 529.07 328.811 527.949H328.787ZM279.456 335.811V428.054H230.051V423.009C230.051 407.192 231.879 393.788 235.461 383.187C239.018 372.659 243.612 363.886 249.146 357.086C254.605 350.36 260.781 345.12 267.5 341.489C271.452 339.344 275.454 337.443 279.48 335.811H279.456Z" fill="white" fill-opacity="0.05"/>
<path d="M547.651 479.914C542.216 469.191 534.929 459.833 526.011 452.034C517.192 444.357 507.163 438.167 496.171 433.659C491.032 431.539 485.87 429.857 480.682 428.565C485.944 424.52 490.884 420.62 495.454 416.916C504.026 409.97 511.412 403.244 517.365 396.932C523.566 390.352 528.383 383.845 531.693 377.582C535.225 370.855 537.029 363.861 537.029 356.794C537.029 340.075 528.728 327.402 513.018 320.091C498.715 313.438 477.446 310.197 448.05 310.197H401.634L362.728 348.581H416.357L407.242 357.573V552.271C407.242 558.68 408.205 565.066 410.132 571.207C412.108 577.519 415.048 583.197 418.901 588.12C422.829 593.116 427.769 597.235 433.599 600.354C439.602 603.571 446.519 605.204 454.152 605.204C463.687 605.204 474.457 603.206 486.117 599.258C497.702 595.334 508.719 589.607 518.922 582.247C529.247 574.79 538.017 565.553 545.032 554.806C552.319 543.619 556 530.727 556 516.47C556 503.14 553.209 490.857 547.675 479.939L547.651 479.914ZM488.933 570.793C482.263 571.426 475.865 570.5 469.442 567.966C463.069 565.456 457.659 561.386 452.842 555.561C448.347 550.102 446.148 543.229 446.148 534.505V460.101C455.782 460.881 464.428 462.83 471.987 465.974C481.473 469.922 489.526 475.04 495.874 481.109C502.223 487.201 507.188 494.147 510.646 501.799C514.129 509.5 516.13 517.348 516.6 525.098C517.069 532.799 516.106 540.305 513.734 547.397C511.387 554.391 507.83 560.191 502.84 565.114C499.58 568.331 495.01 570.183 488.908 570.768L488.933 570.793ZM451.953 423.447C449.903 425.056 447.976 426.543 446.173 427.956V348.556H448.075C456.054 348.556 463.415 349.019 470.011 349.921C476.285 350.774 481.695 352.139 486.117 353.991C489.97 355.599 492.935 357.695 494.911 360.181C496.665 362.374 497.505 365.177 497.505 368.808C497.505 373.146 495.331 378.386 491.008 384.381C486.043 391.278 480.04 398.151 473.222 404.804C466.231 411.579 459.092 417.867 451.953 423.472V423.447Z" fill="white" fill-opacity="0.05"/>
</g>
<g clip-path="url(#clip3_558_20253)">
<path d="M327.333 970.735C325.604 971.49 323.652 972.246 321.577 973.001C319.823 973.513 317.748 973.952 315.401 974.293C312.981 974.658 310.239 974.853 307.2 974.853C301.667 974.853 296.134 972.855 290.304 968.761C283.807 964.179 277.261 957.964 270.863 950.288C264.267 942.367 257.598 933.033 251.051 922.578C244.308 911.831 237.613 900.693 231.092 889.507C224.472 878.126 217.876 866.72 211.355 855.339C204.759 843.836 198.213 833.162 191.84 823.56C185.368 813.812 178.896 805.258 172.621 798.068C168.471 793.316 164.222 789.441 159.973 786.468C163.259 782.154 166.52 777.499 169.706 772.601C174.597 765.095 179.488 757.71 184.256 750.692C189.024 743.648 194.013 736.654 199.102 729.952C203.894 723.664 208.909 718.303 214.022 714.038C218.839 710.017 223.78 707.19 228.72 705.581C233.043 704.192 237.638 704.363 242.727 706.166L247.124 707.702L282.522 672.778L271.974 668.708C259.87 664.029 248.532 662.445 238.28 664.005C228.251 665.54 218.815 669.172 210.268 674.801C201.992 680.236 194.26 687.23 187.319 695.565C180.6 703.607 174.301 712.283 168.595 721.398C162.987 730.342 157.627 739.408 152.661 748.352C147.77 757.15 143.077 765.143 138.729 772.113C134.555 778.791 130.405 784.226 126.403 788.271C126.082 788.588 125.785 788.88 125.464 789.173V701.487C125.464 694.98 124.822 689.814 123.513 685.67C122.055 681.113 119.832 677.384 116.868 674.631C113.78 671.755 109.976 669.878 105.529 669.098C102.096 668.489 98.0937 668.197 93.6473 668.197H80.3079L41.4015 706.581H68.2778C74.651 706.581 78.2082 707.141 80.0856 707.628C81.8395 708.067 83.0746 708.774 83.8651 709.724C84.8285 710.894 85.4954 712.649 85.8413 714.891C86.3106 718.132 86.5576 722.348 86.5576 727.442V885.583C86.5576 886.68 86.5082 887.46 86.4341 888.02C86.0636 888.069 85.5942 888.094 84.9767 888.094H45.1563C37.7208 888.094 31.644 886.826 27.1235 884.292C23.7886 882.44 22.3806 879.881 22.3806 875.762V858.118L9.73292 870.595C4.81712 875.445 1.72931 881.026 0.617699 887.119C-0.444508 892.919 -0.0986734 898.67 1.6305 904.154C3.40908 909.808 6.66981 914.731 11.3139 918.825C15.9579 922.944 21.6889 925.454 28.3339 926.356C29.6431 926.648 31.5946 926.794 35.8434 926.794H61.8552C69.1424 926.794 76.7013 924.601 84.3344 920.287C91.424 916.266 98.0937 911.099 104.121 904.909C110.149 898.744 115.188 891.895 119.14 884.584C123.34 876.786 125.464 869.231 125.464 862.139V815.981C127.218 815.469 128.947 814.811 130.627 814.007C133.739 815.42 137.05 818.125 140.533 822.098C145.695 827.995 151.13 835.502 156.688 844.421C162.32 853.487 168.125 863.698 173.906 874.836C179.81 886.168 185.985 897.793 192.26 909.32C198.583 920.945 205.179 932.497 211.824 943.634C218.617 954.967 225.731 965.202 233.019 974C240.479 983.042 248.334 990.426 256.363 995.958C265.082 1001.98 274.395 1005.05 284.054 1005.05C291.564 1005.05 298.727 1004.1 305.372 1002.22C311.77 1000.42 317.378 998.322 321.824 996.129C327.605 993.521 332.767 990.231 337.14 986.405L341.537 982.554L333.533 968.054L327.308 970.783L327.333 970.735Z" fill="white" fill-opacity="0.05"/>
<path d="M329.581 721.496C336.571 715.744 343.71 711.796 350.8 709.774C358.235 707.653 364.559 706.581 369.623 706.581C375.157 706.581 380.171 707.337 384.494 708.848C389.064 710.456 392.967 712.259 396.179 714.307C399.834 716.597 403.243 719.181 406.307 722.008L411.766 727.052L444.126 692.397L439.087 687.426C435.406 683.794 430.836 680.48 425.402 677.58C420.93 675.265 415.496 673.12 409.197 671.195C402.601 669.196 394.919 668.173 386.298 668.173C376.935 668.173 367.128 670.415 357.099 674.826C347.49 679.067 337.831 684.916 328.42 692.227C319.082 699.465 310.115 708.068 301.79 717.816C293.49 727.54 286.03 738.287 279.607 749.717C273.16 761.22 267.997 773.43 264.218 786.03C260.389 798.775 258.462 811.789 258.462 824.706C258.462 843.886 261.056 860.336 266.169 873.569C271.332 886.924 278.199 897.964 286.598 906.348C295.071 914.829 304.656 920.97 315.105 924.577C325.282 928.111 335.509 929.914 345.514 929.914C355.518 929.914 364.782 928.379 372.884 925.308C380.764 922.335 388.224 918.289 395.067 913.245C401.687 908.37 408.085 902.79 414.113 896.624C419.942 890.653 425.97 884.609 431.997 878.663L437.555 873.179L423.45 860.823L418.51 865.892C413.767 870.767 408.48 875.08 402.675 878.858C397.784 882.123 391.954 885.145 385.285 887.777C379.035 890.263 371.921 891.53 364.139 891.53C353.344 891.53 343.71 889.483 335.46 885.486C327.209 881.465 320.243 875.884 314.759 868.866C309.152 861.701 304.804 853.122 301.864 843.374C299.493 835.502 298.06 827.143 297.541 818.394H389.336L428.242 780.01H299.691C301.889 766.314 305.446 754.933 310.263 746.11C315.994 735.582 322.466 727.296 329.531 721.496H329.581Z" fill="white" fill-opacity="0.05"/>
</g>
</g>
<defs>
<clipPath id="clip0_558_20253">
<rect width="375" height="812" fill="white"/>
</clipPath>
<clipPath id="clip1_558_20253">
<rect width="1069" height="365.024" fill="white" transform="translate(-323 -71.5122)"/>
</clipPath>
<clipPath id="clip2_558_20253">
<rect width="1069" height="365.024" fill="white" transform="translate(-513 282)"/>
</clipPath>
<clipPath id="clip3_558_20253">
<rect width="1069" height="365.024" fill="white" transform="translate(0 640)"/>
</clipPath>
</defs>
</svg>
