<svg width="375" height="812" viewBox="0 0 375 812" fill="none" xmlns="http://www.w3.org/2000/svg">
<g clip-path="url(#clip0_558_20271)">
<rect width="375" height="812" fill="black"/>
<g opacity="0.1">
<path d="M423.752 1720.31C423.752 1740.13 423.043 1759.49 421.627 1778.37C420.683 1796.78 417.379 1814.01 411.714 1830.06C405.577 1845.64 395.663 1859.33 381.973 1871.13C367.811 1882.94 348.456 1892.14 323.908 1898.75C298.888 1905.36 266.786 1908.66 227.604 1908.66L148.295 1908.66C109.113 1908.66 77.248 1905.12 52.7001 1898.04C28.1521 1890.49 9.03305 1880.34 -4.65714 1867.59C-18.8194 1854.85 -28.733 1839.98 -34.3979 1822.98C-40.5349 1805.52 -44.0755 1786.87 -45.0196 1767.04C-46.4358 1746.74 -47.144 1725.73 -47.144 1704.02C-47.144 1674.75 -45.4917 1648.08 -42.1871 1624C-38.8826 1599.45 -31.8015 1578.45 -20.9438 1560.98C-10.086 1543.04 6.90871 1529.35 30.0404 1519.91C53.1721 1510 84.5652 1505.04 124.22 1505.04L137.674 1505.04L137.674 1657.28L3.13209 1657.28L3.13209 1756.42L359.313 1756.42L359.313 1657.28L232.561 1657.28L232.561 1706.85L193.615 1706.85L193.615 1505.04L413.13 1505.04L413.13 1586.47L359.313 1607.01L359.313 1614.8C378.196 1622.35 392.359 1631.56 401.8 1642.41C410.769 1652.8 416.67 1664.6 419.503 1677.82C422.335 1691.04 423.752 1705.2 423.752 1720.31Z" fill="#FFFEEE"/>
<path d="M372.767 1289.69L372.767 1183.47L-36.5223 1183.47L-36.5223 1031.94L-9.61394 1031.94L-9.61394 1063.09L247.431 1063.09C291.334 1063.09 325.56 1068.05 350.108 1077.96C374.184 1087.88 391.414 1101.57 401.8 1119.03C412.186 1136.03 418.323 1155.62 420.211 1177.81C422.571 1199.52 423.752 1222.66 423.752 1247.2C423.752 1267.97 423.043 1288.27 421.627 1308.1C420.683 1327.46 417.615 1345.39 412.422 1361.92C407.229 1378.44 398.496 1393.07 386.222 1405.82C373.475 1418.09 356.009 1427.77 333.821 1434.85C311.634 1441.93 282.837 1445.47 247.431 1445.47L-9.61393 1445.47L-9.61393 1476.63L-36.5223 1476.63L-36.5223 1289.69L372.767 1289.69Z" fill="#FFFEEE"/>
<path d="M-9.61396 782.371L-9.61395 813.528L386.222 813.528L386.222 782.371L413.13 782.371L413.13 996.929L386.222 996.929L386.222 965.772L-9.61395 965.772L-9.61395 996.929L-36.5223 996.929L-36.5223 782.371L-9.61396 782.371Z" fill="#FFFEEE"/>
<path d="M-9.61396 733.611L-36.5223 733.611L-36.5223 460.987L370.643 361.143L370.643 332.11L-36.5223 389.467L-36.5223 254.218L-9.61398 254.218L-9.61398 285.375L413.13 285.375L413.13 526.841L5.9645 618.188L5.9645 647.221L413.13 598.361L413.13 733.611L386.222 733.611L386.222 702.454L-9.61396 702.454L-9.61396 733.611Z" fill="#FFFEEE"/>
<path d="M-9.61398 219.122L-36.5223 219.122L-36.5223 -53.5019L370.643 -153.346L370.643 -182.379L-36.5223 -125.021L-36.5223 -260.271L-9.614 -260.271L-9.614 -229.114L413.13 -229.114L413.13 12.3527L5.96448 103.699L5.96448 132.732L413.13 83.8721L413.13 219.122L386.221 219.122L386.221 187.965L-9.61398 187.965L-9.61398 219.122Z" fill="#FFFEEE"/>
<path d="M413.13 -295.367L386.221 -295.367L386.221 -326.524L-9.614 -326.524L-9.614 -295.367L-36.5224 -295.367L-36.5224 -653.672L115.014 -653.672L115.014 -570.823L5.96445 -541.79L5.96445 -478.768L156.702 -478.768L156.702 -614.018L195.648 -614.018L195.648 -478.768L370.643 -478.768L370.643 -541.79L261.593 -570.823L261.593 -653.672L413.13 -653.673L413.13 -295.367Z" fill="#FFFEEE"/>
<path d="M423.751 -870.56C423.751 -852.621 422.571 -832.794 420.211 -811.078C418.323 -789.835 415.726 -768.592 412.422 -747.348C408.645 -726.577 404.396 -707.222 399.676 -689.283L272.215 -708.402L272.215 -799.04L362.854 -820.992L362.854 -899.593L309.745 -899.593L206.361 -760.094C191.726 -740.267 174.259 -725.16 153.96 -714.775C133.661 -704.389 106.989 -699.196 73.9434 -699.196C46.563 -699.196 24.8475 -704.153 8.79691 -714.067C-7.72573 -724.452 -19.9997 -738.143 -28.025 -755.137C-36.0503 -772.604 -41.2431 -792.667 -43.6035 -815.327C-46.4359 -837.986 -47.8522 -861.59 -47.8522 -886.138C-47.8522 -910.686 -45.4918 -937.595 -40.771 -966.863C-36.5224 -996.604 -30.8575 -1023.75 -23.7763 -1048.3L103.684 -1029.18L103.684 -947.036L13.0456 -927.917L13.0456 -857.106L66.1541 -857.106L169.539 -996.604C184.173 -1016.43 201.64 -1031.54 221.939 -1041.92C242.238 -1052.31 268.911 -1057.5 301.956 -1057.5C329.336 -1057.5 351.288 -1052.31 367.81 -1041.92C383.861 -1032.01 395.899 -1018.32 403.924 -1000.85C411.95 -983.386 417.142 -963.323 419.503 -940.663C422.335 -918.476 423.751 -895.108 423.751 -870.56Z" fill="#FFFEEE"/>
<path d="M423.751 -1263.34C423.751 -1245.4 422.571 -1225.58 420.211 -1203.86C418.323 -1182.62 415.726 -1161.37 412.422 -1140.13C408.645 -1119.36 404.396 -1100 399.676 -1082.06L272.215 -1101.18L272.215 -1191.82L362.854 -1213.77L362.854 -1292.37L309.745 -1292.37L206.361 -1152.88C191.726 -1133.05 174.259 -1117.94 153.96 -1107.56C133.661 -1097.17 106.989 -1091.98 73.9433 -1091.98C46.563 -1091.98 24.8475 -1096.93 8.79689 -1106.85C-7.72574 -1117.23 -19.9997 -1130.92 -28.025 -1147.92C-36.0503 -1165.39 -41.2431 -1185.45 -43.6035 -1208.11C-46.436 -1230.77 -47.8522 -1254.37 -47.8522 -1278.92C-47.8522 -1303.47 -45.4918 -1330.38 -40.7711 -1359.64C-36.5224 -1389.39 -30.8575 -1416.53 -23.7764 -1441.08L103.684 -1421.96L103.684 -1339.82L13.0456 -1320.7L13.0456 -1249.89L66.1541 -1249.89L169.539 -1389.39C184.173 -1409.21 201.64 -1424.32 221.939 -1434.7C242.238 -1445.09 268.911 -1450.28 301.956 -1450.28C329.336 -1450.28 351.288 -1445.09 367.81 -1434.7C383.861 -1424.79 395.899 -1411.1 403.924 -1393.63C411.95 -1376.17 417.142 -1356.1 419.503 -1333.44C422.335 -1311.26 423.751 -1287.89 423.751 -1263.34Z" fill="#FFFEEE"/>
<path d="M423.767 1720.31C423.767 1720.44 423.766 1720.58 423.766 1720.72L423.766 1720.02C423.766 1720.12 423.767 1720.21 423.767 1720.31ZM423.767 1247.2C423.767 1247.35 423.766 1247.49 423.766 1247.64L423.766 1246.9C423.766 1247 423.767 1247.1 423.767 1247.2ZM423.767 -870.56C423.767 -870.484 423.766 -870.409 423.766 -870.334L423.766 -871.02C423.766 -870.866 423.767 -870.713 423.767 -870.56ZM423.767 -1263.34C423.767 -1263.27 423.766 -1263.19 423.766 -1263.12L423.766 -1263.8C423.766 -1263.65 423.767 -1263.5 423.767 -1263.34ZM-47.1287 1704.02C-47.1287 1674.75 -45.4771 1648.08 -42.1726 1624C-38.8681 1599.45 -31.7862 1578.45 -20.9285 1560.98C-10.0708 1543.04 6.9235 1529.35 30.0549 1519.91C53.1866 1510 84.5802 1505.04 124.235 1505.04L137.689 1505.04L137.689 1657.28L3.14672 1657.28L3.14672 1756.42L176.066 1756.42L176.066 1908.66L148.311 1908.66C109.129 1908.66 77.263 1905.12 52.7151 1898.04C28.1671 1890.49 9.04785 1880.34 -4.64234 1867.59C-18.8046 1854.85 -28.7177 1839.98 -34.3826 1822.98C-40.5195 1805.52 -44.0605 1786.87 -45.0046 1767.04C-46.4209 1746.74 -47.1287 1725.73 -47.1287 1704.02ZM176.066 1289.69L176.066 1445.47L-9.59939 1445.47L-9.59938 1476.63L-36.5076 1476.63L-36.5076 1289.69L176.066 1289.69ZM-9.5994 1031.94L-9.5994 1063.09L176.066 1063.09L176.066 1183.47L-36.5076 1183.47L-36.5076 1031.94L-9.5994 1031.94ZM-9.59941 782.371L-9.59941 813.528L176.066 813.528L176.066 965.772L-9.59941 965.772L-9.59941 996.93L-36.5076 996.93L-36.5076 782.371L-9.59941 782.371ZM176.066 408.86L176.066 580.03L5.97968 618.188L5.97968 647.221L176.066 626.811L176.066 702.454L-9.59942 702.454L-9.59942 733.61L-36.5076 733.61L-36.5076 460.987L176.066 408.86ZM-9.59944 254.218L-9.59944 285.375L176.066 285.375L176.066 359.522L-36.5076 389.468L-36.5076 254.218L-9.59944 254.218ZM176.066 -105.628L176.066 65.541L5.97966 103.699L5.97966 132.732L176.066 112.322L176.066 187.965L-9.59944 187.965L-9.59944 219.122L-36.5076 219.122L-36.5077 -53.502L176.066 -105.628ZM-9.59946 -260.271L-9.59946 -229.114L176.066 -229.114L176.066 -154.967L-36.5077 -125.021L-36.5077 -260.271L-9.59946 -260.271ZM115.028 -653.672L115.028 -570.823L5.97963 -541.79L5.97963 -478.768L156.717 -478.768L156.717 -614.018L176.066 -614.018L176.066 -326.523L-9.59946 -326.523L-9.59946 -295.367L-36.5077 -295.367L-36.5077 -653.672L115.028 -653.672ZM-47.8368 -886.138C-47.8368 -910.686 -45.4765 -937.595 -40.7557 -966.863C-36.5071 -996.604 -30.8427 -1023.75 -23.7616 -1048.3L103.699 -1029.18L103.699 -947.036L13.0607 -927.917L13.0607 -857.105L66.1691 -857.105L169.554 -996.604C171.665 -999.464 173.836 -1002.23 176.066 -1004.89L176.066 -728.797C169.118 -723.43 161.755 -718.755 153.975 -714.774C133.676 -704.389 107.003 -699.196 73.9581 -699.196C46.5778 -699.196 24.8622 -704.153 8.81165 -714.066C-7.71079 -724.452 -19.9843 -738.142 -28.0096 -755.137C-36.0349 -772.603 -41.2283 -792.667 -43.5887 -815.326C-46.4212 -837.986 -47.8368 -861.59 -47.8368 -886.138ZM-47.8368 -1278.92C-47.8368 -1303.47 -45.4765 -1330.38 -40.7558 -1359.64C-36.5071 -1389.39 -30.8427 -1416.53 -23.7616 -1441.08L103.699 -1421.96L103.699 -1339.82L13.0606 -1320.7L13.0607 -1249.89L66.1691 -1249.89L169.554 -1389.39C171.665 -1392.25 173.836 -1395.01 176.066 -1397.67L176.066 -1121.58C169.118 -1116.21 161.754 -1111.54 153.975 -1107.56C133.675 -1097.17 107.003 -1091.98 73.9581 -1091.98C46.5778 -1091.98 24.8622 -1096.94 8.81164 -1106.85C-7.71082 -1117.23 -19.9844 -1130.92 -28.0097 -1147.92C-36.035 -1165.39 -41.2284 -1185.45 -43.5888 -1208.11C-46.4212 -1230.77 -47.8368 -1254.37 -47.8368 -1278.92Z" fill="#BEA05C"/>
</g>
</g>
<defs>
<clipPath id="clip0_558_20271">
<rect width="375" height="812" fill="white"/>
</clipPath>
</defs>
</svg>
