<svg width="375" height="812" viewBox="0 0 375 812" fill="none" xmlns="http://www.w3.org/2000/svg">
<g clip-path="url(#clip0_558_20286)">
<rect width="375" height="812" fill="#E59C00"/>
<path d="M-29.2004 413.17H-93.9315C-96.0667 413.17 -97.64 412.72 -98.6514 411.821C-99.5505 410.81 -100 409.236 -100 407.101V297.867C-100 295.732 -99.5505 294.215 -98.6514 293.316C-97.64 292.305 -96.0667 291.799 -93.9315 291.799H-40.1574C-29.1442 291.799 -20.9966 293.934 -15.7147 298.205C-10.4328 302.363 -7.7919 308.824 -7.7919 317.59V325.682C-7.7919 330.401 -8.63475 334.279 -10.3205 337.313C-11.8938 340.235 -14.3662 342.426 -17.7376 343.887C-10.5452 344.561 -5.20715 347.034 -1.72337 351.304C1.76043 355.575 3.50233 361.812 3.50233 370.016V385.524C3.50233 394.964 0.80519 401.932 -4.58907 406.427C-9.87095 410.922 -18.0747 413.17 -29.2004 413.17ZM-62.0716 320.456V338.661H-47.7431C-45.6079 338.661 -44.0346 338.1 -43.0232 336.976C-41.8993 335.852 -41.3374 334.166 -41.3374 331.919V327.199C-41.3374 324.951 -41.8993 323.265 -43.0232 322.142C-44.0346 321.018 -45.6079 320.456 -47.7431 320.456H-62.0716ZM-62.0716 364.621V384.513H-40.1574C-38.0222 384.513 -36.4489 383.951 -35.4375 382.827C-34.3137 381.703 -33.7518 380.017 -33.7518 377.77V371.196C-33.7518 368.948 -34.3137 367.318 -35.4375 366.307C-36.4489 365.183 -38.0222 364.621 -40.1574 364.621H-62.0716Z" fill="#F4EBDC" fill-opacity="0.05"/>
<path d="M120.13 381.31C120.13 386.479 119.343 391.199 117.77 395.47C116.309 399.628 113.612 403.224 109.679 406.258C105.858 409.18 100.576 411.484 93.8331 413.17C87.0903 414.855 78.4932 415.698 68.0418 415.698C57.5904 415.698 48.9933 414.855 42.2505 413.17C35.5077 411.484 30.1696 409.18 26.2363 406.258C22.4154 403.224 19.7183 399.628 18.1449 395.47C16.684 391.199 15.9535 386.479 15.9535 381.31V297.867C15.9535 295.732 16.403 294.215 17.3021 293.316C18.3135 292.305 19.8868 291.799 22.022 291.799H48.4876C50.6228 291.799 52.14 292.305 53.039 293.316C54.0505 294.215 54.5562 295.732 54.5562 297.867V362.093C54.5562 364.34 55.399 366.251 57.0847 367.824C58.7704 369.285 62.5352 370.016 68.379 370.016C74.3351 370.016 78.156 369.285 79.8418 367.824C81.5275 366.251 82.3703 364.34 82.3703 362.093V297.867C82.3703 295.732 82.8198 294.215 83.7189 293.316C84.7303 292.305 86.3036 291.799 88.4388 291.799H114.062C116.197 291.799 117.714 292.305 118.613 293.316C119.624 294.215 120.13 295.732 120.13 297.867V381.31Z" fill="#F4EBDC" fill-opacity="0.05"/>
<path d="M175.311 322.142V343.719H187.954C190.876 343.719 192.843 342.988 193.854 341.527C194.865 339.954 195.371 338.043 195.371 335.796V330.064C195.371 327.817 194.865 325.962 193.854 324.502C192.843 322.928 190.876 322.142 187.954 322.142H175.311ZM169.243 413.17H143.283C141.148 413.17 139.574 412.72 138.563 411.821C137.664 410.81 137.214 409.236 137.214 407.101V297.867C137.214 295.732 137.664 294.215 138.563 293.316C139.574 292.305 141.148 291.799 143.283 291.799H199.417C212.004 291.799 220.657 294.44 225.377 299.722C230.209 304.891 232.625 311.634 232.625 319.95V327.704C232.625 332.424 231.895 336.47 230.434 339.841C229.085 343.1 226.669 345.46 223.185 346.921C229.254 347.596 234.142 350.068 237.851 354.339C241.672 358.609 243.582 364.284 243.582 371.364V407.101C243.582 409.236 243.077 410.81 242.065 411.821C241.166 412.72 239.649 413.17 237.514 413.17H211.385C209.25 413.17 207.677 412.72 206.665 411.821C205.766 410.81 205.317 409.236 205.317 407.101V381.31C205.317 378.837 204.811 377.039 203.8 375.916C202.901 374.679 201.271 374.061 198.911 374.061H175.311V407.101C175.311 409.236 174.806 410.81 173.794 411.821C172.895 412.72 171.378 413.17 169.243 413.17Z" fill="#F4EBDC" fill-opacity="0.05"/>
<path d="M349.029 413.17H295.929C281.882 413.17 271.431 410.36 264.575 404.741C257.833 399.122 254.461 390.469 254.461 378.781V326.187C254.461 314.5 257.833 305.846 264.575 300.227C271.431 294.608 281.882 291.799 295.929 291.799H338.072C340.207 291.799 341.724 292.305 342.624 293.316C343.635 294.215 344.141 295.732 344.141 297.867V318.264C344.141 320.4 343.635 321.973 342.624 322.984C341.724 323.883 340.207 324.333 338.072 324.333H303.009C299.526 324.333 296.941 325.063 295.255 326.524C293.569 327.873 292.727 329.952 292.727 332.761V373.05C292.727 375.859 293.345 377.938 294.581 379.287C295.929 380.636 297.896 381.31 300.481 381.31H316.832V355.013C316.832 352.878 317.282 351.36 318.181 350.461C319.192 349.45 320.766 348.944 322.901 348.944H349.029C351.164 348.944 352.682 349.45 353.581 350.461C354.592 351.36 355.098 352.878 355.098 355.013V407.101C355.098 409.236 354.592 410.81 353.581 411.821C352.682 412.72 351.164 413.17 349.029 413.17Z" fill="#F4EBDC" fill-opacity="0.05"/>
<path d="M454.599 413.17H376.382C374.247 413.17 372.673 412.72 371.662 411.821C370.763 410.81 370.313 409.236 370.313 407.101V297.867C370.313 295.732 370.763 294.215 371.662 293.316C372.673 292.305 374.247 291.799 376.382 291.799H454.599C456.734 291.799 458.251 292.305 459.15 293.316C460.161 294.215 460.667 295.732 460.667 297.867V317.59C460.667 319.725 460.161 321.299 459.15 322.31C458.251 323.209 456.734 323.659 454.599 323.659H408.073V336.639H440.944C443.08 336.639 444.597 337.144 445.496 338.156C446.507 339.055 447.013 340.572 447.013 342.707V360.744C447.013 362.879 446.507 364.453 445.496 365.464C444.597 366.363 443.08 366.813 440.944 366.813H408.073V381.31H454.599C456.734 381.31 458.251 381.815 459.15 382.827C460.161 383.726 460.667 385.243 460.667 387.378V407.101C460.667 409.236 460.161 410.81 459.15 411.821C458.251 412.72 456.734 413.17 454.599 413.17Z" fill="#F4EBDC" fill-opacity="0.05"/>
<path d="M513.354 322.142V343.719H525.997C528.919 343.719 530.885 342.988 531.897 341.527C532.908 339.954 533.414 338.043 533.414 335.796V330.064C533.414 327.817 532.908 325.962 531.897 324.502C530.885 322.928 528.919 322.142 525.997 322.142H513.354ZM507.285 413.17H481.326C479.19 413.17 477.617 412.72 476.606 411.821C475.706 410.81 475.257 409.236 475.257 407.101V297.867C475.257 295.732 475.706 294.215 476.606 293.316C477.617 292.305 479.19 291.799 481.326 291.799H537.459C550.046 291.799 558.699 294.44 563.419 299.722C568.252 304.891 570.668 311.634 570.668 319.95V327.704C570.668 332.424 569.937 336.47 568.477 339.841C567.128 343.1 564.712 345.46 561.228 346.921C567.297 347.596 572.185 350.068 575.894 354.339C579.715 358.609 581.625 364.284 581.625 371.364V407.101C581.625 409.236 581.119 410.81 580.108 411.821C579.209 412.72 577.692 413.17 575.556 413.17H549.428C547.293 413.17 545.719 412.72 544.708 411.821C543.809 410.81 543.359 409.236 543.359 407.101V381.31C543.359 378.837 542.854 377.039 541.842 375.916C540.943 374.679 539.314 374.061 536.954 374.061H513.354V407.101C513.354 409.236 512.848 410.81 511.837 411.821C510.938 412.72 509.421 413.17 507.285 413.17Z" fill="#F4EBDC" fill-opacity="0.05"/>
<path d="M651.484 413.17H598.215C596.08 413.17 594.507 412.72 593.495 411.821C592.596 410.81 592.147 409.236 592.147 407.101V387.378C592.147 385.243 592.596 383.726 593.495 382.827C594.507 381.815 596.08 381.31 598.215 381.31H643.561C645.022 381.31 646.089 380.86 646.764 379.961C647.55 378.95 647.944 377.77 647.944 376.421C647.944 374.511 647.55 373.106 646.764 372.207C646.089 371.308 645.022 370.802 643.561 370.69L618.275 367.15C610.409 366.026 604.059 363.441 599.227 359.396C594.507 355.35 592.147 348.607 592.147 339.167V321.467C592.147 311.915 595.237 304.61 601.418 299.553C607.599 294.384 616.14 291.799 627.041 291.799H674.241C676.376 291.799 677.893 292.305 678.792 293.316C679.803 294.215 680.309 295.732 680.309 297.867V317.927C680.309 320.062 679.803 321.636 678.792 322.647C677.893 323.546 676.376 323.996 674.241 323.996H634.964C633.503 323.996 632.379 324.502 631.592 325.513C630.806 326.412 630.412 327.592 630.412 329.053C630.412 330.514 630.806 331.75 631.592 332.761C632.379 333.773 633.503 334.335 634.964 334.447L660.081 337.819C667.947 338.942 674.297 341.527 679.129 345.573C683.962 349.619 686.378 356.361 686.378 365.801V383.501C686.378 393.054 683.231 400.414 676.938 405.584C670.757 410.641 662.272 413.17 651.484 413.17Z" fill="#F4EBDC" fill-opacity="0.05"/>
<path d="M0 0H375V87C375 104.673 360.673 119 343 119H32C14.3269 119 0 104.673 0 87V0Z" fill="#E59C00"/>
<path d="M-29.2004 121.371H-93.9315C-96.0667 121.371 -97.64 120.921 -98.6514 120.022C-99.5505 119.011 -100 117.437 -100 115.302V6.06854C-100 3.93332 -99.5505 2.41618 -98.6514 1.51714C-97.64 0.505712 -96.0667 0 -93.9315 0H-40.1574C-29.1442 0 -20.9966 2.13523 -15.7147 6.40568C-10.4328 10.5638 -7.7919 17.0256 -7.7919 25.7913V33.8827C-7.7919 38.6027 -8.63475 42.4798 -10.3205 45.514C-11.8938 48.4359 -14.3662 50.6274 -17.7376 52.0883C-10.5452 52.7626 -5.20715 55.2349 -1.72337 59.5054C1.76043 63.7759 3.50233 70.013 3.50233 78.2167V93.7252C3.50233 103.165 0.80519 110.133 -4.58907 114.628C-9.87095 119.123 -18.0747 121.371 -29.2004 121.371ZM-62.0716 28.657V46.8626H-47.7431C-45.6079 46.8626 -44.0346 46.3007 -43.0232 45.1769C-41.8993 44.0531 -41.3374 42.3674 -41.3374 40.1198V35.3998C-41.3374 33.1522 -41.8993 31.4665 -43.0232 30.3427C-44.0346 29.2189 -45.6079 28.657 -47.7431 28.657H-62.0716ZM-62.0716 72.8225V92.7138H-40.1574C-38.0222 92.7138 -36.4489 92.1519 -35.4375 91.0281C-34.3137 89.9043 -33.7518 88.2186 -33.7518 85.971V79.3967C-33.7518 77.1491 -34.3137 75.5196 -35.4375 74.5082C-36.4489 73.3844 -38.0222 72.8225 -40.1574 72.8225H-62.0716Z" fill="#F4EBDC" fill-opacity="0.05"/>
<path d="M120.13 89.511C120.13 94.6805 119.343 99.4004 117.77 103.671C116.309 107.829 113.612 111.425 109.679 114.459C105.858 117.381 100.576 119.685 93.8331 121.371C87.0903 123.057 78.4932 123.899 68.0418 123.899C57.5904 123.899 48.9933 123.057 42.2505 121.371C35.5077 119.685 30.1696 117.381 26.2363 114.459C22.4154 111.425 19.7183 107.829 18.1449 103.671C16.684 99.4004 15.9535 94.6805 15.9535 89.511V6.06854C15.9535 3.93332 16.403 2.41618 17.3021 1.51714C18.3135 0.505712 19.8868 0 22.022 0H48.4876C50.6228 0 52.14 0.505712 53.039 1.51714C54.0505 2.41618 54.5562 3.93332 54.5562 6.06854V70.2939C54.5562 72.5415 55.399 74.452 57.0847 76.0253C58.7704 77.4863 62.5352 78.2167 68.379 78.2167C74.3351 78.2167 78.156 77.4863 79.8418 76.0253C81.5275 74.452 82.3703 72.5415 82.3703 70.2939V6.06854C82.3703 3.93332 82.8198 2.41618 83.7189 1.51714C84.7303 0.505712 86.3036 0 88.4388 0H114.062C116.197 0 117.714 0.505712 118.613 1.51714C119.624 2.41618 120.13 3.93332 120.13 6.06854V89.511Z" fill="#F4EBDC" fill-opacity="0.05"/>
<path d="M175.311 30.3427V51.9197H187.954C190.876 51.9197 192.843 51.1893 193.854 49.7283C194.865 48.155 195.371 46.2445 195.371 43.9969V38.2655C195.371 36.0179 194.865 34.1636 193.854 32.7027C192.843 31.1294 190.876 30.3427 187.954 30.3427H175.311ZM169.243 121.371H143.283C141.148 121.371 139.574 120.921 138.563 120.022C137.664 119.011 137.214 117.437 137.214 115.302V6.06854C137.214 3.93332 137.664 2.41618 138.563 1.51714C139.574 0.505712 141.148 0 143.283 0H199.417C212.004 0 220.657 2.64094 225.377 7.92281C230.209 13.0923 232.625 19.8351 232.625 28.1513V35.9055C232.625 40.6255 231.895 44.6712 230.434 48.0426C229.085 51.3016 226.669 53.6616 223.185 55.1226C229.254 55.7969 234.142 58.2692 237.851 62.5397C241.672 66.8101 243.582 72.4853 243.582 79.5653V115.302C243.582 117.437 243.077 119.011 242.065 120.022C241.166 120.921 239.649 121.371 237.514 121.371H211.385C209.25 121.371 207.677 120.921 206.665 120.022C205.766 119.011 205.317 117.437 205.317 115.302V89.511C205.317 87.0386 204.811 85.2405 203.8 84.1167C202.901 82.8805 201.271 82.2624 198.911 82.2624H175.311V115.302C175.311 117.437 174.806 119.011 173.794 120.022C172.895 120.921 171.378 121.371 169.243 121.371Z" fill="#F4EBDC" fill-opacity="0.05"/>
<path d="M349.029 121.371H295.929C281.882 121.371 271.431 118.561 264.575 112.942C257.833 107.323 254.461 98.67 254.461 86.9824V34.3884C254.461 22.7008 257.833 14.0475 264.575 8.42853C271.431 2.80951 281.882 0 295.929 0H338.072C340.207 0 341.724 0.505712 342.624 1.51714C343.635 2.41618 344.141 3.93332 344.141 6.06854V26.4656C344.141 28.6008 343.635 30.1741 342.624 31.1856C341.724 32.0846 340.207 32.5341 338.072 32.5341H303.009C299.526 32.5341 296.941 33.2646 295.255 34.7255C293.569 36.0741 292.727 38.1531 292.727 40.9626V81.251C292.727 84.0605 293.345 86.1396 294.581 87.4881C295.929 88.8367 297.896 89.511 300.481 89.511H316.832V63.214C316.832 61.0787 317.282 59.5616 318.181 58.6626C319.192 57.6511 320.766 57.1454 322.901 57.1454H349.029C351.164 57.1454 352.682 57.6511 353.581 58.6626C354.592 59.5616 355.098 61.0787 355.098 63.214V115.302C355.098 117.437 354.592 119.011 353.581 120.022C352.682 120.921 351.164 121.371 349.029 121.371Z" fill="#F4EBDC" fill-opacity="0.05"/>
<path d="M454.599 121.371H376.382C374.247 121.371 372.673 120.921 371.662 120.022C370.763 119.011 370.313 117.437 370.313 115.302V6.06854C370.313 3.93332 370.763 2.41618 371.662 1.51714C372.673 0.505712 374.247 0 376.382 0H454.599C456.734 0 458.251 0.505712 459.15 1.51714C460.161 2.41618 460.667 3.93332 460.667 6.06854V25.7913C460.667 27.9265 460.161 29.4998 459.15 30.5113C458.251 31.4103 456.734 31.8598 454.599 31.8598H408.073V44.8398H440.944C443.08 44.8398 444.597 45.3455 445.496 46.3569C446.507 47.2559 447.013 48.7731 447.013 50.9083V68.9454C447.013 71.0806 446.507 72.6539 445.496 73.6653C444.597 74.5644 443.08 75.0139 440.944 75.0139H408.073V89.511H454.599C456.734 89.511 458.251 90.0167 459.15 91.0281C460.161 91.9271 460.667 93.4443 460.667 95.5795V115.302C460.667 117.437 460.161 119.011 459.15 120.022C458.251 120.921 456.734 121.371 454.599 121.371Z" fill="#F4EBDC" fill-opacity="0.05"/>
<path d="M513.354 30.3427V51.9197H525.997C528.919 51.9197 530.885 51.1893 531.897 49.7283C532.908 48.155 533.414 46.2445 533.414 43.9969V38.2655C533.414 36.0179 532.908 34.1636 531.897 32.7027C530.885 31.1294 528.919 30.3427 525.997 30.3427H513.354ZM507.285 121.371H481.326C479.19 121.371 477.617 120.921 476.606 120.022C475.706 119.011 475.257 117.437 475.257 115.302V6.06854C475.257 3.93332 475.706 2.41618 476.606 1.51714C477.617 0.505712 479.19 0 481.326 0H537.459C550.046 0 558.699 2.64094 563.419 7.92281C568.252 13.0923 570.668 19.8351 570.668 28.1513V35.9055C570.668 40.6255 569.937 44.6712 568.477 48.0426C567.128 51.3016 564.712 53.6616 561.228 55.1226C567.297 55.7969 572.185 58.2692 575.894 62.5397C579.715 66.8101 581.625 72.4853 581.625 79.5653V115.302C581.625 117.437 581.119 119.011 580.108 120.022C579.209 120.921 577.692 121.371 575.556 121.371H549.428C547.293 121.371 545.719 120.921 544.708 120.022C543.809 119.011 543.359 117.437 543.359 115.302V89.511C543.359 87.0386 542.854 85.2405 541.842 84.1167C540.943 82.8805 539.314 82.2624 536.954 82.2624H513.354V115.302C513.354 117.437 512.848 119.011 511.837 120.022C510.938 120.921 509.421 121.371 507.285 121.371Z" fill="#F4EBDC" fill-opacity="0.05"/>
<path d="M651.484 121.371H598.215C596.08 121.371 594.507 120.921 593.495 120.022C592.596 119.011 592.147 117.437 592.147 115.302V95.5795C592.147 93.4443 592.596 91.9271 593.495 91.0281C594.507 90.0167 596.08 89.511 598.215 89.511H643.561C645.022 89.511 646.089 89.0614 646.764 88.1624C647.55 87.151 647.944 85.971 647.944 84.6224C647.944 82.7119 647.55 81.3072 646.764 80.4082C646.089 79.5091 645.022 79.0034 643.561 78.891L618.275 75.351C610.409 74.2272 604.059 71.6425 599.227 67.5968C594.507 63.5511 592.147 56.8083 592.147 47.3683V29.6684C592.147 20.1161 595.237 12.8114 601.418 7.75425C607.599 2.58475 616.14 0 627.041 0H674.241C676.376 0 677.893 0.505712 678.792 1.51714C679.803 2.41618 680.309 3.93332 680.309 6.06854V26.1284C680.309 28.2637 679.803 29.837 678.792 30.8484C677.893 31.7475 676.376 32.197 674.241 32.197H634.964C633.503 32.197 632.379 32.7027 631.592 33.7141C630.806 34.6132 630.412 35.7931 630.412 37.2541C630.412 38.715 630.806 39.9512 631.592 40.9626C632.379 41.9741 633.503 42.536 634.964 42.6484L660.081 46.0198C667.947 47.1436 674.297 49.7283 679.129 53.774C683.962 57.8197 686.378 64.5625 686.378 74.0025V91.7024C686.378 101.255 683.231 108.616 676.938 113.785C670.757 118.842 662.272 121.371 651.484 121.371Z" fill="#F4EBDC" fill-opacity="0.05"/>
<path d="M-29.2004 704.968H-93.9315C-96.0667 704.968 -97.64 704.519 -98.6514 703.62C-99.5505 702.608 -100 701.035 -100 698.9V589.666C-100 587.531 -99.5505 586.014 -98.6514 585.115C-97.64 584.103 -96.0667 583.598 -93.9315 583.598H-40.1574C-29.1442 583.598 -20.9966 585.733 -15.7147 590.003C-10.4328 594.161 -7.7919 600.623 -7.7919 609.389V617.48C-7.7919 622.2 -8.63475 626.077 -10.3205 629.112C-11.8938 632.034 -14.3662 634.225 -17.7376 635.686C-10.5452 636.36 -5.20715 638.833 -1.72337 643.103C1.76043 647.374 3.50233 653.611 3.50233 661.814V677.323C3.50233 686.763 0.80519 693.73 -4.58907 698.226C-9.87095 702.721 -18.0747 704.968 -29.2004 704.968ZM-62.0716 612.255V630.46H-47.7431C-45.6079 630.46 -44.0346 629.898 -43.0232 628.775C-41.8993 627.651 -41.3374 625.965 -41.3374 623.717V618.997C-41.3374 616.75 -41.8993 615.064 -43.0232 613.94C-44.0346 612.817 -45.6079 612.255 -47.7431 612.255H-62.0716ZM-62.0716 656.42V676.311H-40.1574C-38.0222 676.311 -36.4489 675.75 -35.4375 674.626C-34.3137 673.502 -33.7518 671.816 -33.7518 669.569V662.994C-33.7518 660.747 -34.3137 659.117 -35.4375 658.106C-36.4489 656.982 -38.0222 656.42 -40.1574 656.42H-62.0716Z" fill="#F4EBDC" fill-opacity="0.05"/>
<path d="M120.13 673.109C120.13 678.278 119.343 682.998 117.77 687.269C116.309 691.427 113.612 695.023 109.679 698.057C105.858 700.979 100.576 703.283 93.8331 704.968C87.0903 706.654 78.4932 707.497 68.0418 707.497C57.5904 707.497 48.9933 706.654 42.2505 704.968C35.5077 703.283 30.1696 700.979 26.2363 698.057C22.4154 695.023 19.7183 691.427 18.1449 687.269C16.684 682.998 15.9535 678.278 15.9535 673.109V589.666C15.9535 587.531 16.403 586.014 17.3021 585.115C18.3135 584.103 19.8868 583.598 22.022 583.598H48.4876C50.6228 583.598 52.14 584.103 53.039 585.115C54.0505 586.014 54.5562 587.531 54.5562 589.666V653.892C54.5562 656.139 55.399 658.05 57.0847 659.623C58.7704 661.084 62.5352 661.814 68.379 661.814C74.3351 661.814 78.156 661.084 79.8418 659.623C81.5275 658.05 82.3703 656.139 82.3703 653.892V589.666C82.3703 587.531 82.8198 586.014 83.7189 585.115C84.7303 584.103 86.3036 583.598 88.4388 583.598H114.062C116.197 583.598 117.714 584.103 118.613 585.115C119.624 586.014 120.13 587.531 120.13 589.666V673.109Z" fill="#F4EBDC" fill-opacity="0.05"/>
<path d="M175.311 613.94V635.517H187.954C190.876 635.517 192.843 634.787 193.854 633.326C194.865 631.753 195.371 629.842 195.371 627.595V621.863C195.371 619.616 194.865 617.761 193.854 616.3C192.843 614.727 190.876 613.94 187.954 613.94H175.311ZM169.243 704.968H143.283C141.148 704.968 139.574 704.519 138.563 703.62C137.664 702.608 137.214 701.035 137.214 698.9V589.666C137.214 587.531 137.664 586.014 138.563 585.115C139.574 584.103 141.148 583.598 143.283 583.598H199.417C212.004 583.598 220.657 586.239 225.377 591.52C230.209 596.69 232.625 603.433 232.625 611.749V619.503C232.625 624.223 231.895 628.269 230.434 631.64C229.085 634.899 226.669 637.259 223.185 638.72C229.254 639.395 234.142 641.867 237.851 646.137C241.672 650.408 243.582 656.083 243.582 663.163V698.9C243.582 701.035 243.077 702.608 242.065 703.62C241.166 704.519 239.649 704.968 237.514 704.968H211.385C209.25 704.968 207.677 704.519 206.665 703.62C205.766 702.608 205.317 701.035 205.317 698.9V673.109C205.317 670.636 204.811 668.838 203.8 667.714C202.901 666.478 201.271 665.86 198.911 665.86H175.311V698.9C175.311 701.035 174.806 702.608 173.794 703.62C172.895 704.519 171.378 704.968 169.243 704.968Z" fill="#F4EBDC" fill-opacity="0.05"/>
<path d="M349.029 704.968H295.929C281.882 704.968 271.431 702.159 264.575 696.54C257.833 690.921 254.461 682.268 254.461 670.58V617.986C254.461 606.298 257.833 597.645 264.575 592.026C271.431 586.407 281.882 583.598 295.929 583.598H338.072C340.207 583.598 341.724 584.103 342.624 585.115C343.635 586.014 344.141 587.531 344.141 589.666V610.063C344.141 612.198 343.635 613.772 342.624 614.783C341.724 615.682 340.207 616.132 338.072 616.132H303.009C299.526 616.132 296.941 616.862 295.255 618.323C293.569 619.672 292.727 621.751 292.727 624.56V664.849C292.727 667.658 293.345 669.737 294.581 671.086C295.929 672.434 297.896 673.109 300.481 673.109H316.832V646.812C316.832 644.676 317.282 643.159 318.181 642.26C319.192 641.249 320.766 640.743 322.901 640.743H349.029C351.164 640.743 352.682 641.249 353.581 642.26C354.592 643.159 355.098 644.676 355.098 646.812V698.9C355.098 701.035 354.592 702.608 353.581 703.62C352.682 704.519 351.164 704.968 349.029 704.968Z" fill="#F4EBDC" fill-opacity="0.05"/>
<path d="M454.599 704.968H376.382C374.247 704.968 372.673 704.519 371.662 703.62C370.763 702.608 370.313 701.035 370.313 698.9V589.666C370.313 587.531 370.763 586.014 371.662 585.115C372.673 584.103 374.247 583.598 376.382 583.598H454.599C456.734 583.598 458.251 584.103 459.15 585.115C460.161 586.014 460.667 587.531 460.667 589.666V609.389C460.667 611.524 460.161 613.098 459.15 614.109C458.251 615.008 456.734 615.457 454.599 615.457H408.073V628.437H440.944C443.08 628.437 444.597 628.943 445.496 629.955C446.507 630.854 447.013 632.371 447.013 634.506V652.543C447.013 654.678 446.507 656.252 445.496 657.263C444.597 658.162 443.08 658.612 440.944 658.612H408.073V673.109H454.599C456.734 673.109 458.251 673.614 459.15 674.626C460.161 675.525 460.667 677.042 460.667 679.177V698.9C460.667 701.035 460.161 702.608 459.15 703.62C458.251 704.519 456.734 704.968 454.599 704.968Z" fill="#F4EBDC" fill-opacity="0.05"/>
<path d="M513.354 613.94V635.517H525.997C528.919 635.517 530.885 634.787 531.897 633.326C532.908 631.753 533.414 629.842 533.414 627.595V621.863C533.414 619.616 532.908 617.761 531.897 616.3C530.885 614.727 528.919 613.94 525.997 613.94H513.354ZM507.285 704.968H481.326C479.19 704.968 477.617 704.519 476.606 703.62C475.706 702.608 475.257 701.035 475.257 698.9V589.666C475.257 587.531 475.706 586.014 476.606 585.115C477.617 584.103 479.19 583.598 481.326 583.598H537.459C550.046 583.598 558.699 586.239 563.419 591.52C568.252 596.69 570.668 603.433 570.668 611.749V619.503C570.668 624.223 569.937 628.269 568.477 631.64C567.128 634.899 564.712 637.259 561.228 638.72C567.297 639.395 572.185 641.867 575.894 646.137C579.715 650.408 581.625 656.083 581.625 663.163V698.9C581.625 701.035 581.119 702.608 580.108 703.62C579.209 704.519 577.692 704.968 575.556 704.968H549.428C547.293 704.968 545.719 704.519 544.708 703.62C543.809 702.608 543.359 701.035 543.359 698.9V673.109C543.359 670.636 542.854 668.838 541.842 667.714C540.943 666.478 539.314 665.86 536.954 665.86H513.354V698.9C513.354 701.035 512.848 702.608 511.837 703.62C510.938 704.519 509.421 704.968 507.285 704.968Z" fill="#F4EBDC" fill-opacity="0.05"/>
<path d="M651.484 704.968H598.215C596.08 704.968 594.507 704.519 593.495 703.62C592.596 702.608 592.147 701.035 592.147 698.9V679.177C592.147 677.042 592.596 675.525 593.495 674.626C594.507 673.614 596.08 673.109 598.215 673.109H643.561C645.022 673.109 646.089 672.659 646.764 671.76C647.55 670.749 647.944 669.569 647.944 668.22C647.944 666.31 647.55 664.905 646.764 664.006C646.089 663.107 645.022 662.601 643.561 662.489L618.275 658.949C610.409 657.825 604.059 655.24 599.227 651.194C594.507 647.149 592.147 640.406 592.147 630.966V613.266C592.147 603.714 595.237 596.409 601.418 591.352C607.599 586.182 616.14 583.598 627.041 583.598H674.241C676.376 583.598 677.893 584.103 678.792 585.115C679.803 586.014 680.309 587.531 680.309 589.666V609.726C680.309 611.861 679.803 613.435 678.792 614.446C677.893 615.345 676.376 615.795 674.241 615.795H634.964C633.503 615.795 632.379 616.3 631.592 617.312C630.806 618.211 630.412 619.391 630.412 620.852C630.412 622.313 630.806 623.549 631.592 624.56C632.379 625.572 633.503 626.134 634.964 626.246L660.081 629.617C667.947 630.741 674.297 633.326 679.129 637.372C683.962 641.417 686.378 648.16 686.378 657.6V675.3C686.378 684.852 683.231 692.213 676.938 697.383C670.757 702.44 662.272 704.968 651.484 704.968Z" fill="#F4EBDC" fill-opacity="0.05"/>
<path d="M-111.2 267.27H-175.931C-178.067 267.27 -179.64 266.821 -180.651 265.922C-181.55 264.91 -182 263.337 -182 261.202V151.968C-182 149.833 -181.55 148.316 -180.651 147.417C-179.64 146.405 -178.067 145.899 -175.931 145.899H-122.157C-111.144 145.899 -102.997 148.035 -97.7147 152.305C-92.4328 156.463 -89.7919 162.925 -89.7919 171.691V179.782C-89.7919 184.502 -90.6348 188.379 -92.3205 191.413C-93.8938 194.335 -96.3662 196.527 -99.7376 197.988C-92.5452 198.662 -87.2072 201.134 -83.7234 205.405C-80.2396 209.675 -78.4977 215.912 -78.4977 224.116V239.625C-78.4977 249.065 -81.1948 256.032 -86.5891 260.527C-91.8709 265.023 -100.075 267.27 -111.2 267.27ZM-144.072 174.556V192.762H-129.743C-127.608 192.762 -126.035 192.2 -125.023 191.076C-123.899 189.953 -123.337 188.267 -123.337 186.019V181.299C-123.337 179.052 -123.899 177.366 -125.023 176.242C-126.035 175.118 -127.608 174.556 -129.743 174.556H-144.072ZM-144.072 218.722V238.613H-122.157C-120.022 238.613 -118.449 238.051 -117.437 236.928C-116.314 235.804 -115.752 234.118 -115.752 231.87V225.296C-115.752 223.049 -116.314 221.419 -117.437 220.408C-118.449 219.284 -120.022 218.722 -122.157 218.722H-144.072Z" fill="#F4EBDC" fill-opacity="0.05"/>
<path d="M38.1301 235.41C38.1301 240.58 37.3434 245.3 35.7701 249.57C34.3092 253.728 31.612 257.325 27.6787 260.359C23.8578 263.281 18.5759 265.585 11.8331 267.27C5.09028 268.956 -3.50682 269.799 -13.9582 269.799C-24.4096 269.799 -33.0067 268.956 -39.7495 267.27C-46.4923 265.585 -51.8304 263.281 -55.7637 260.359C-59.5846 257.325 -62.2817 253.728 -63.8551 249.57C-65.316 245.3 -66.0465 240.58 -66.0465 235.41V151.968C-66.0465 149.833 -65.597 148.316 -64.6979 147.417C-63.6865 146.405 -62.1132 145.899 -59.978 145.899H-33.5124C-31.3772 145.899 -29.86 146.405 -28.961 147.417C-27.9495 148.316 -27.4438 149.833 -27.4438 151.968V216.193C-27.4438 218.441 -26.601 220.351 -24.9153 221.925C-23.2296 223.386 -19.4648 224.116 -13.6211 224.116C-7.66489 224.116 -3.84395 223.386 -2.15824 221.925C-0.472537 220.351 0.370313 218.441 0.370313 216.193V151.968C0.370313 149.833 0.81983 148.316 1.71887 147.417C2.7303 146.405 4.30362 145.899 6.43885 145.899H32.0616C34.1968 145.899 35.7139 146.405 36.613 147.417C37.6244 148.316 38.1301 149.833 38.1301 151.968V235.41Z" fill="#F4EBDC" fill-opacity="0.05"/>
<path d="M93.3113 176.242V197.819H105.954C108.876 197.819 110.843 197.089 111.854 195.628C112.865 194.054 113.371 192.144 113.371 189.896V184.165C113.371 181.917 112.865 180.063 111.854 178.602C110.843 177.029 108.876 176.242 105.954 176.242H93.3113ZM87.2428 267.27H61.2829C59.1477 267.27 57.5743 266.821 56.5629 265.922C55.6639 264.91 55.2143 263.337 55.2143 261.202V151.968C55.2143 149.833 55.6639 148.316 56.5629 147.417C57.5743 146.405 59.1477 145.899 61.2829 145.899H117.417C130.003 145.899 138.657 148.54 143.377 153.822C148.209 158.992 150.625 165.735 150.625 174.051V181.805C150.625 186.525 149.895 190.571 148.434 193.942C147.085 197.201 144.669 199.561 141.185 201.022C147.254 201.696 152.142 204.169 155.851 208.439C159.672 212.71 161.582 218.385 161.582 225.465V261.202C161.582 263.337 161.077 264.91 160.065 265.922C159.166 266.821 157.649 267.27 155.514 267.27H129.385C127.25 267.27 125.677 266.821 124.665 265.922C123.766 264.91 123.317 263.337 123.317 261.202V235.41C123.317 232.938 122.811 231.14 121.8 230.016C120.901 228.78 119.271 228.162 116.911 228.162H93.3113V261.202C93.3113 263.337 92.8056 264.91 91.7942 265.922C90.8951 266.821 89.378 267.27 87.2428 267.27Z" fill="#F4EBDC" fill-opacity="0.05"/>
<path d="M267.029 267.27H213.929C199.882 267.27 189.431 264.461 182.575 258.842C175.833 253.223 172.461 244.569 172.461 232.882V180.288C172.461 168.6 175.833 159.947 182.575 154.328C189.431 148.709 199.882 145.899 213.929 145.899H256.072C258.207 145.899 259.724 146.405 260.623 147.417C261.635 148.316 262.141 149.833 262.141 151.968V172.365C262.141 174.5 261.635 176.074 260.623 177.085C259.724 177.984 258.207 178.434 256.072 178.434H221.009C217.526 178.434 214.941 179.164 213.255 180.625C211.569 181.974 210.727 184.053 210.727 186.862V227.15C210.727 229.96 211.345 232.039 212.581 233.388C213.929 234.736 215.896 235.41 218.481 235.41H234.832V209.113C234.832 206.978 235.282 205.461 236.181 204.562C237.192 203.551 238.766 203.045 240.901 203.045H267.029C269.164 203.045 270.682 203.551 271.581 204.562C272.592 205.461 273.098 206.978 273.098 209.113V261.202C273.098 263.337 272.592 264.91 271.581 265.922C270.682 266.821 269.164 267.27 267.029 267.27Z" fill="#F4EBDC" fill-opacity="0.05"/>
<path d="M372.598 267.27H294.382C292.247 267.27 290.673 266.821 289.662 265.922C288.763 264.91 288.313 263.337 288.313 261.202V151.968C288.313 149.833 288.763 148.316 289.662 147.417C290.673 146.405 292.247 145.899 294.382 145.899H372.598C374.734 145.899 376.251 146.405 377.15 147.417C378.161 148.316 378.667 149.833 378.667 151.968V171.691C378.667 173.826 378.161 175.399 377.15 176.411C376.251 177.31 374.734 177.759 372.598 177.759H326.073V190.739H358.944C361.08 190.739 362.597 191.245 363.496 192.256C364.507 193.155 365.013 194.672 365.013 196.808V214.845C365.013 216.98 364.507 218.553 363.496 219.565C362.597 220.464 361.08 220.913 358.944 220.913H326.073V235.41H372.598C374.734 235.41 376.251 235.916 377.15 236.928C378.161 237.827 378.667 239.344 378.667 241.479V261.202C378.667 263.337 378.161 264.91 377.15 265.922C376.251 266.821 374.734 267.27 372.598 267.27Z" fill="#F4EBDC" fill-opacity="0.05"/>
<path d="M431.354 176.242V197.819H443.997C446.919 197.819 448.885 197.089 449.897 195.628C450.908 194.054 451.414 192.144 451.414 189.896V184.165C451.414 181.917 450.908 180.063 449.897 178.602C448.885 177.029 446.919 176.242 443.997 176.242H431.354ZM425.285 267.27H399.325C397.19 267.27 395.617 266.821 394.606 265.922C393.706 264.91 393.257 263.337 393.257 261.202V151.968C393.257 149.833 393.706 148.316 394.606 147.417C395.617 146.405 397.19 145.899 399.325 145.899H455.459C468.046 145.899 476.699 148.54 481.419 153.822C486.252 158.992 488.668 165.735 488.668 174.051V181.805C488.668 186.525 487.937 190.571 486.476 193.942C485.128 197.201 482.712 199.561 479.228 201.022C485.296 201.696 490.185 204.169 493.894 208.439C497.715 212.71 499.625 218.385 499.625 225.465V261.202C499.625 263.337 499.119 264.91 498.108 265.922C497.209 266.821 495.692 267.27 493.556 267.27H467.428C465.293 267.27 463.719 266.821 462.708 265.922C461.809 264.91 461.359 263.337 461.359 261.202V235.41C461.359 232.938 460.854 231.14 459.842 230.016C458.943 228.78 457.314 228.162 454.954 228.162H431.354V261.202C431.354 263.337 430.848 264.91 429.837 265.922C428.938 266.821 427.421 267.27 425.285 267.27Z" fill="#F4EBDC" fill-opacity="0.05"/>
<path d="M569.484 267.27H516.215C514.08 267.27 512.507 266.821 511.495 265.922C510.596 264.91 510.147 263.337 510.147 261.202V241.479C510.147 239.344 510.596 237.827 511.495 236.928C512.507 235.916 514.08 235.41 516.215 235.41H561.561C563.022 235.41 564.089 234.961 564.764 234.062C565.55 233.05 565.944 231.87 565.944 230.522C565.944 228.611 565.55 227.207 564.764 226.308C564.089 225.409 563.022 224.903 561.561 224.79L536.275 221.25C528.409 220.127 522.059 217.542 517.227 213.496C512.507 209.451 510.147 202.708 510.147 193.268V175.568C510.147 166.016 513.237 158.711 519.418 153.654C525.599 148.484 534.14 145.899 545.041 145.899H592.241C594.376 145.899 595.893 146.405 596.792 147.417C597.803 148.316 598.309 149.833 598.309 151.968V172.028C598.309 174.163 597.803 175.736 596.792 176.748C595.893 177.647 594.376 178.096 592.241 178.096H552.964C551.503 178.096 550.379 178.602 549.592 179.614C548.806 180.513 548.412 181.693 548.412 183.154C548.412 184.614 548.806 185.851 549.592 186.862C550.379 187.873 551.503 188.435 552.964 188.548L578.081 191.919C585.947 193.043 592.297 195.628 597.129 199.673C601.962 203.719 604.378 210.462 604.378 219.902V237.602C604.378 247.154 601.231 254.515 594.938 259.685C588.757 264.742 580.272 267.27 569.484 267.27Z" fill="#F4EBDC" fill-opacity="0.05"/>
<path d="M-111.2 850.868H-175.931C-178.067 850.868 -179.64 850.418 -180.651 849.519C-181.55 848.508 -182 846.935 -182 844.799V735.566C-182 733.43 -181.55 731.913 -180.651 731.014C-179.64 730.003 -178.067 729.497 -175.931 729.497H-122.157C-111.144 729.497 -102.997 731.632 -97.7147 735.903C-92.4328 740.061 -89.7919 746.523 -89.7919 755.288V763.38C-89.7919 768.1 -90.6348 771.977 -92.3205 775.011C-93.8938 777.933 -96.3662 780.124 -99.7376 781.585C-92.5452 782.26 -87.2072 784.732 -83.7234 789.002C-80.2396 793.273 -78.4977 799.51 -78.4977 807.714V823.222C-78.4977 832.662 -81.1948 839.63 -86.5891 844.125C-91.8709 848.62 -100.075 850.868 -111.2 850.868ZM-144.072 758.154V776.36H-129.743C-127.608 776.36 -126.035 775.798 -125.023 774.674C-123.899 773.55 -123.337 771.864 -123.337 769.617V764.897C-123.337 762.649 -123.899 760.964 -125.023 759.84C-126.035 758.716 -127.608 758.154 -129.743 758.154H-144.072ZM-144.072 802.32V822.211H-122.157C-120.022 822.211 -118.449 821.649 -117.437 820.525C-116.314 819.401 -115.752 817.716 -115.752 815.468V808.894C-115.752 806.646 -116.314 805.017 -117.437 804.005C-118.449 802.881 -120.022 802.32 -122.157 802.32H-144.072Z" fill="#F4EBDC" fill-opacity="0.05"/>
<path d="M38.1301 819.008C38.1301 824.178 37.3434 828.898 35.7701 833.168C34.3092 837.326 31.612 840.922 27.6787 843.956C23.8578 846.878 18.5759 849.182 11.8331 850.868C5.09028 852.554 -3.50682 853.396 -13.9582 853.396C-24.4096 853.396 -33.0067 852.554 -39.7495 850.868C-46.4923 849.182 -51.8304 846.878 -55.7637 843.956C-59.5846 840.922 -62.2817 837.326 -63.8551 833.168C-65.316 828.898 -66.0465 824.178 -66.0465 819.008V735.566C-66.0465 733.43 -65.597 731.913 -64.6979 731.014C-63.6865 730.003 -62.1132 729.497 -59.978 729.497H-33.5124C-31.3772 729.497 -29.86 730.003 -28.961 731.014C-27.9495 731.913 -27.4438 733.43 -27.4438 735.566V799.791C-27.4438 802.039 -26.601 803.949 -24.9153 805.522C-23.2296 806.983 -19.4648 807.714 -13.6211 807.714C-7.66489 807.714 -3.84395 806.983 -2.15824 805.522C-0.472537 803.949 0.370313 802.039 0.370313 799.791V735.566C0.370313 733.43 0.81983 731.913 1.71887 731.014C2.7303 730.003 4.30362 729.497 6.43885 729.497H32.0616C34.1968 729.497 35.7139 730.003 36.613 731.014C37.6244 731.913 38.1301 733.43 38.1301 735.566V819.008Z" fill="#F4EBDC" fill-opacity="0.05"/>
<path d="M93.3113 759.84V781.417H105.954C108.876 781.417 110.843 780.686 111.854 779.225C112.865 777.652 113.371 775.742 113.371 773.494V767.763C113.371 765.515 112.865 763.661 111.854 762.2C110.843 760.626 108.876 759.84 105.954 759.84H93.3113ZM87.2428 850.868H61.2829C59.1477 850.868 57.5743 850.418 56.5629 849.519C55.6639 848.508 55.2143 846.935 55.2143 844.799V735.566C55.2143 733.43 55.6639 731.913 56.5629 731.014C57.5743 730.003 59.1477 729.497 61.2829 729.497H117.417C130.003 729.497 138.657 732.138 143.377 737.42C148.209 742.589 150.625 749.332 150.625 757.648V765.403C150.625 770.123 149.895 774.168 148.434 777.54C147.085 780.799 144.669 783.159 141.185 784.62C147.254 785.294 152.142 787.766 155.851 792.037C159.672 796.307 161.582 801.982 161.582 809.062V844.799C161.582 846.935 161.077 848.508 160.065 849.519C159.166 850.418 157.649 850.868 155.514 850.868H129.385C127.25 850.868 125.677 850.418 124.665 849.519C123.766 848.508 123.317 846.935 123.317 844.799V819.008C123.317 816.536 122.811 814.738 121.8 813.614C120.901 812.378 119.271 811.76 116.911 811.76H93.3113V844.799C93.3113 846.935 92.8056 848.508 91.7942 849.519C90.8951 850.418 89.378 850.868 87.2428 850.868Z" fill="#F4EBDC" fill-opacity="0.05"/>
<path d="M267.029 850.868H213.929C199.882 850.868 189.431 848.058 182.575 842.439C175.833 836.82 172.461 828.167 172.461 816.479V763.885C172.461 752.198 175.833 743.545 182.575 737.926C189.431 732.307 199.882 729.497 213.929 729.497H256.072C258.207 729.497 259.724 730.003 260.623 731.014C261.635 731.913 262.141 733.43 262.141 735.566V755.963C262.141 758.098 261.635 759.671 260.623 760.683C259.724 761.582 258.207 762.031 256.072 762.031H221.009C217.526 762.031 214.941 762.762 213.255 764.223C211.569 765.571 210.727 767.65 210.727 770.46V810.748C210.727 813.558 211.345 815.637 212.581 816.985C213.929 818.334 215.896 819.008 218.481 819.008H234.832V792.711C234.832 790.576 235.282 789.059 236.181 788.16C237.192 787.148 238.766 786.642 240.901 786.642H267.029C269.164 786.642 270.682 787.148 271.581 788.16C272.592 789.059 273.098 790.576 273.098 792.711V844.799C273.098 846.935 272.592 848.508 271.581 849.519C270.682 850.418 269.164 850.868 267.029 850.868Z" fill="#F4EBDC" fill-opacity="0.05"/>
<path d="M372.598 850.868H294.382C292.247 850.868 290.673 850.418 289.662 849.519C288.763 848.508 288.313 846.935 288.313 844.799V735.566C288.313 733.43 288.763 731.913 289.662 731.014C290.673 730.003 292.247 729.497 294.382 729.497H372.598C374.734 729.497 376.251 730.003 377.15 731.014C378.161 731.913 378.667 733.43 378.667 735.566V755.288C378.667 757.424 378.161 758.997 377.15 760.008C376.251 760.907 374.734 761.357 372.598 761.357H326.073V774.337H358.944C361.08 774.337 362.597 774.843 363.496 775.854C364.507 776.753 365.013 778.27 365.013 780.405V798.442C365.013 800.578 364.507 802.151 363.496 803.162C362.597 804.061 361.08 804.511 358.944 804.511H326.073V819.008H372.598C374.734 819.008 376.251 819.514 377.15 820.525C378.161 821.424 378.667 822.941 378.667 825.077V844.799C378.667 846.935 378.161 848.508 377.15 849.519C376.251 850.418 374.734 850.868 372.598 850.868Z" fill="#F4EBDC" fill-opacity="0.05"/>
<path d="M431.354 759.84V781.417H443.997C446.919 781.417 448.885 780.686 449.897 779.225C450.908 777.652 451.414 775.742 451.414 773.494V767.763C451.414 765.515 450.908 763.661 449.897 762.2C448.885 760.626 446.919 759.84 443.997 759.84H431.354ZM425.285 850.868H399.325C397.19 850.868 395.617 850.418 394.606 849.519C393.706 848.508 393.257 846.935 393.257 844.799V735.566C393.257 733.43 393.706 731.913 394.606 731.014C395.617 730.003 397.19 729.497 399.325 729.497H455.459C468.046 729.497 476.699 732.138 481.419 737.42C486.252 742.589 488.668 749.332 488.668 757.648V765.403C488.668 770.123 487.937 774.168 486.476 777.54C485.128 780.799 482.712 783.159 479.228 784.62C485.296 785.294 490.185 787.766 493.894 792.037C497.715 796.307 499.625 801.982 499.625 809.062V844.799C499.625 846.935 499.119 848.508 498.108 849.519C497.209 850.418 495.692 850.868 493.556 850.868H467.428C465.293 850.868 463.719 850.418 462.708 849.519C461.809 848.508 461.359 846.935 461.359 844.799V819.008C461.359 816.536 460.854 814.738 459.842 813.614C458.943 812.378 457.314 811.76 454.954 811.76H431.354V844.799C431.354 846.935 430.848 848.508 429.837 849.519C428.938 850.418 427.421 850.868 425.285 850.868Z" fill="#F4EBDC" fill-opacity="0.05"/>
<path d="M569.484 850.868H516.215C514.08 850.868 512.507 850.418 511.495 849.519C510.596 848.508 510.147 846.935 510.147 844.799V825.077C510.147 822.941 510.596 821.424 511.495 820.525C512.507 819.514 514.08 819.008 516.215 819.008H561.561C563.022 819.008 564.089 818.559 564.764 817.659C565.55 816.648 565.944 815.468 565.944 814.119C565.944 812.209 565.55 810.804 564.764 809.905C564.089 809.006 563.022 808.5 561.561 808.388L536.275 804.848C528.409 803.724 522.059 801.14 517.227 797.094C512.507 793.048 510.147 786.305 510.147 776.865V759.165C510.147 749.613 513.237 742.308 519.418 737.251C525.599 732.082 534.14 729.497 545.041 729.497H592.241C594.376 729.497 595.893 730.003 596.792 731.014C597.803 731.913 598.309 733.43 598.309 735.566V755.626C598.309 757.761 597.803 759.334 596.792 760.345C595.893 761.245 594.376 761.694 592.241 761.694H552.964C551.503 761.694 550.379 762.2 549.592 763.211C548.806 764.11 548.412 765.29 548.412 766.751C548.412 768.212 548.806 769.448 549.592 770.46C550.379 771.471 551.503 772.033 552.964 772.145L578.081 775.517C585.947 776.641 592.297 779.225 597.129 783.271C601.962 787.317 604.378 794.06 604.378 803.5V821.199C604.378 830.752 601.231 838.113 594.938 843.282C588.757 848.339 580.272 850.868 569.484 850.868Z" fill="#F4EBDC" fill-opacity="0.05"/>
<path d="M-111.2 559.069H-175.931C-178.067 559.069 -179.64 558.62 -180.651 557.72C-181.55 556.709 -182 555.136 -182 553.001V443.767C-182 441.632 -181.55 440.114 -180.651 439.215C-179.64 438.204 -178.067 437.698 -175.931 437.698H-122.157C-111.144 437.698 -102.997 439.833 -97.7147 444.104C-92.4328 448.262 -89.7919 454.724 -89.7919 463.49V471.581C-89.7919 476.301 -90.6348 480.178 -92.3205 483.212C-93.8938 486.134 -96.3662 488.326 -99.7376 489.787C-92.5452 490.461 -87.2072 492.933 -83.7234 497.204C-80.2396 501.474 -78.4977 507.711 -78.4977 515.915V531.423C-78.4977 540.863 -81.1948 547.831 -86.5891 552.326C-91.8709 556.821 -100.075 559.069 -111.2 559.069ZM-144.072 466.355V484.561H-129.743C-127.608 484.561 -126.035 483.999 -125.023 482.875C-123.899 481.751 -123.337 480.066 -123.337 477.818V473.098C-123.337 470.85 -123.899 469.165 -125.023 468.041C-126.035 466.917 -127.608 466.355 -129.743 466.355H-144.072ZM-144.072 510.521V530.412H-122.157C-120.022 530.412 -118.449 529.85 -117.437 528.726C-116.314 527.603 -115.752 525.917 -115.752 523.669V517.095C-115.752 514.847 -116.314 513.218 -117.437 512.206C-118.449 511.083 -120.022 510.521 -122.157 510.521H-144.072Z" fill="#F4EBDC" fill-opacity="0.05"/>
<path d="M38.1301 527.209C38.1301 532.379 37.3434 537.099 35.7701 541.369C34.3092 545.527 31.612 549.123 27.6787 552.158C23.8578 555.08 18.5759 557.383 11.8331 559.069C5.09028 560.755 -3.50682 561.598 -13.9582 561.598C-24.4096 561.598 -33.0067 560.755 -39.7495 559.069C-46.4923 557.383 -51.8304 555.08 -55.7637 552.158C-59.5846 549.123 -62.2817 545.527 -63.8551 541.369C-65.316 537.099 -66.0465 532.379 -66.0465 527.209V443.767C-66.0465 441.632 -65.597 440.114 -64.6979 439.215C-63.6865 438.204 -62.1132 437.698 -59.978 437.698H-33.5124C-31.3772 437.698 -29.86 438.204 -28.961 439.215C-27.9495 440.114 -27.4438 441.632 -27.4438 443.767V507.992C-27.4438 510.24 -26.601 512.15 -24.9153 513.724C-23.2296 515.185 -19.4648 515.915 -13.6211 515.915C-7.66489 515.915 -3.84395 515.185 -2.15824 513.724C-0.472537 512.15 0.370313 510.24 0.370313 507.992V443.767C0.370313 441.632 0.81983 440.114 1.71887 439.215C2.7303 438.204 4.30362 437.698 6.43885 437.698H32.0616C34.1968 437.698 35.7139 438.204 36.613 439.215C37.6244 440.114 38.1301 441.632 38.1301 443.767V527.209Z" fill="#F4EBDC" fill-opacity="0.05"/>
<path d="M93.3113 468.041V489.618H105.954C108.876 489.618 110.843 488.888 111.854 487.427C112.865 485.853 113.371 483.943 113.371 481.695V475.964C113.371 473.716 112.865 471.862 111.854 470.401C110.843 468.828 108.876 468.041 105.954 468.041H93.3113ZM87.2428 559.069H61.2829C59.1477 559.069 57.5743 558.62 56.5629 557.72C55.6639 556.709 55.2143 555.136 55.2143 553.001V443.767C55.2143 441.632 55.6639 440.114 56.5629 439.215C57.5743 438.204 59.1477 437.698 61.2829 437.698H117.417C130.003 437.698 138.657 440.339 143.377 445.621C148.209 450.791 150.625 457.533 150.625 465.85V473.604C150.625 478.324 149.895 482.369 148.434 485.741C147.085 489 144.669 491.36 141.185 492.821C147.254 493.495 152.142 495.967 155.851 500.238C159.672 504.508 161.582 510.184 161.582 517.264V553.001C161.582 555.136 161.077 556.709 160.065 557.72C159.166 558.62 157.649 559.069 155.514 559.069H129.385C127.25 559.069 125.677 558.62 124.665 557.72C123.766 556.709 123.317 555.136 123.317 553.001V527.209C123.317 524.737 122.811 522.939 121.8 521.815C120.901 520.579 119.271 519.961 116.911 519.961H93.3113V553.001C93.3113 555.136 92.8056 556.709 91.7942 557.72C90.8951 558.62 89.378 559.069 87.2428 559.069Z" fill="#F4EBDC" fill-opacity="0.05"/>
<path d="M267.029 559.069H213.929C199.882 559.069 189.431 556.26 182.575 550.641C175.833 545.022 172.461 536.368 172.461 524.681V472.087C172.461 460.399 175.833 451.746 182.575 446.127C189.431 440.508 199.882 437.698 213.929 437.698H256.072C258.207 437.698 259.724 438.204 260.623 439.215C261.635 440.114 262.141 441.632 262.141 443.767V464.164C262.141 466.299 261.635 467.872 260.623 468.884C259.724 469.783 258.207 470.232 256.072 470.232H221.009C217.526 470.232 214.941 470.963 213.255 472.424C211.569 473.772 210.727 475.851 210.727 478.661V518.949C210.727 521.759 211.345 523.838 212.581 525.186C213.929 526.535 215.896 527.209 218.481 527.209H234.832V500.912C234.832 498.777 235.282 497.26 236.181 496.361C237.192 495.349 238.766 494.844 240.901 494.844H267.029C269.164 494.844 270.682 495.349 271.581 496.361C272.592 497.26 273.098 498.777 273.098 500.912V553.001C273.098 555.136 272.592 556.709 271.581 557.72C270.682 558.62 269.164 559.069 267.029 559.069Z" fill="#F4EBDC" fill-opacity="0.05"/>
<path d="M372.598 559.069H294.382C292.247 559.069 290.673 558.62 289.662 557.72C288.763 556.709 288.313 555.136 288.313 553.001V443.767C288.313 441.632 288.763 440.114 289.662 439.215C290.673 438.204 292.247 437.698 294.382 437.698H372.598C374.734 437.698 376.251 438.204 377.15 439.215C378.161 440.114 378.667 441.632 378.667 443.767V463.49C378.667 465.625 378.161 467.198 377.15 468.21C376.251 469.109 374.734 469.558 372.598 469.558H326.073V482.538H358.944C361.08 482.538 362.597 483.044 363.496 484.055C364.507 484.954 365.013 486.471 365.013 488.607V506.644C365.013 508.779 364.507 510.352 363.496 511.364C362.597 512.263 361.08 512.712 358.944 512.712H326.073V527.209H372.598C374.734 527.209 376.251 527.715 377.15 528.726C378.161 529.625 378.667 531.143 378.667 533.278V553.001C378.667 555.136 378.161 556.709 377.15 557.72C376.251 558.62 374.734 559.069 372.598 559.069Z" fill="#F4EBDC" fill-opacity="0.05"/>
<path d="M431.354 468.041V489.618H443.997C446.919 489.618 448.885 488.888 449.897 487.427C450.908 485.853 451.414 483.943 451.414 481.695V475.964C451.414 473.716 450.908 471.862 449.897 470.401C448.885 468.828 446.919 468.041 443.997 468.041H431.354ZM425.285 559.069H399.325C397.19 559.069 395.617 558.62 394.606 557.72C393.706 556.709 393.257 555.136 393.257 553.001V443.767C393.257 441.632 393.706 440.114 394.606 439.215C395.617 438.204 397.19 437.698 399.325 437.698H455.459C468.046 437.698 476.699 440.339 481.419 445.621C486.252 450.791 488.668 457.533 488.668 465.85V473.604C488.668 478.324 487.937 482.369 486.476 485.741C485.128 489 482.712 491.36 479.228 492.821C485.296 493.495 490.185 495.967 493.894 500.238C497.715 504.508 499.625 510.184 499.625 517.264V553.001C499.625 555.136 499.119 556.709 498.108 557.72C497.209 558.62 495.692 559.069 493.556 559.069H467.428C465.293 559.069 463.719 558.62 462.708 557.72C461.809 556.709 461.359 555.136 461.359 553.001V527.209C461.359 524.737 460.854 522.939 459.842 521.815C458.943 520.579 457.314 519.961 454.954 519.961H431.354V553.001C431.354 555.136 430.848 556.709 429.837 557.72C428.938 558.62 427.421 559.069 425.285 559.069Z" fill="#F4EBDC" fill-opacity="0.05"/>
<path d="M569.484 559.069H516.215C514.08 559.069 512.507 558.62 511.495 557.72C510.596 556.709 510.147 555.136 510.147 553.001V533.278C510.147 531.143 510.596 529.625 511.495 528.726C512.507 527.715 514.08 527.209 516.215 527.209H561.561C563.022 527.209 564.089 526.76 564.764 525.861C565.55 524.849 565.944 523.669 565.944 522.321C565.944 520.41 565.55 519.005 564.764 518.106C564.089 517.207 563.022 516.702 561.561 516.589L536.275 513.049C528.409 511.925 522.059 509.341 517.227 505.295C512.507 501.249 510.147 494.507 510.147 485.067V467.367C510.147 457.814 513.237 450.51 519.418 445.452C525.599 440.283 534.14 437.698 545.041 437.698H592.241C594.376 437.698 595.893 438.204 596.792 439.215C597.803 440.114 598.309 441.632 598.309 443.767V463.827C598.309 465.962 597.803 467.535 596.792 468.547C595.893 469.446 594.376 469.895 592.241 469.895H552.964C551.503 469.895 550.379 470.401 549.592 471.412C548.806 472.311 548.412 473.491 548.412 474.952C548.412 476.413 548.806 477.649 549.592 478.661C550.379 479.672 551.503 480.234 552.964 480.347L578.081 483.718C585.947 484.842 592.297 487.427 597.129 491.472C601.962 495.518 604.378 502.261 604.378 511.701V529.401C604.378 538.953 601.231 546.314 594.938 551.483C588.757 556.54 580.272 559.069 569.484 559.069Z" fill="#F4EBDC" fill-opacity="0.05"/>
</g>
<defs>
<clipPath id="clip0_558_20286">
<rect width="375" height="812" fill="white"/>
</clipPath>
</defs>
</svg>
