<svg width="375" height="812" viewBox="0 0 375 812" fill="none" xmlns="http://www.w3.org/2000/svg">
<g clip-path="url(#clip0_558_20178)">
<rect width="375" height="812" fill="#3C193D"/>
<g opacity="0.5">
<path d="M360.182 544.834C371.219 562.495 384.465 579.511 399.917 595.884L363.217 619.615C346.292 597.723 330.012 571.601 314.375 541.247C301.682 563.139 290.184 586.594 279.882 611.613L248.7 582.914C261.026 555.688 272.064 534.073 281.814 518.068C297.634 491.761 314.099 468.49 331.208 448.254C318.514 446.047 307.016 444.943 296.715 444.943L308.58 412.105C343.165 413.209 373.243 417.716 398.814 425.627C408.38 428.57 418.038 432.157 427.788 436.388L449.311 483.851C430.547 508.686 400.837 529.014 360.182 544.834ZM325.413 522.759C350.432 513.193 372.691 501.143 392.191 486.61C398.814 481.827 404.517 476.952 409.3 471.985C391.823 462.787 368.644 455.429 339.762 449.91L363.493 469.226C348.776 487.99 336.083 505.834 325.413 522.759Z" fill="#FF005E" fill-opacity="0.4"/>
<path d="M179.405 544.834C190.442 562.495 203.688 579.511 219.14 595.884L182.44 619.615C165.515 597.723 149.235 571.601 133.598 541.247C120.904 563.139 109.407 586.594 99.1049 611.613L67.9233 582.914C80.2488 555.688 91.2865 534.073 101.037 518.068C116.857 491.761 133.322 468.49 150.43 448.254C137.737 446.047 126.239 444.943 115.938 444.943L127.803 412.105C162.388 413.209 192.466 417.716 218.037 425.627C227.603 428.57 237.261 432.157 247.011 436.388L268.534 483.851C249.77 508.686 220.06 529.014 179.405 544.834ZM144.636 522.759C169.655 513.193 191.914 501.143 211.414 486.61C218.037 481.827 223.739 476.952 228.522 471.985C211.046 462.787 187.867 455.429 158.985 449.91L182.716 469.226C167.999 487.99 155.305 505.834 144.636 522.759Z" fill="#FF005E" fill-opacity="0.4"/>
<path d="M-19.849 587.881C-33.2783 594.872 -51.3986 602.414 -74.2099 610.508L-108.979 577.119C-86.1674 516.964 -55.5377 461.867 -17.0896 411.829L12.7123 441.355C-7.15561 465.454 -26.5636 495.992 -45.5118 532.968C-51.0306 544.006 -55.9976 554.676 -60.4127 564.978C-38.3372 560.011 -19.757 554.492 -4.67212 548.421V548.973C24.5779 488.633 49.3208 446.138 69.5567 421.487L99.9104 451.013C71.2123 485.598 41.6864 541.063 11.3326 617.407L-19.849 587.881Z" fill="#FF005E" fill-opacity="0.4"/>
<path d="M360.182 334.114C371.219 351.774 384.465 368.791 399.917 385.164L363.217 408.895C346.292 387.003 330.012 360.881 314.375 330.527C301.682 352.418 290.184 375.874 279.882 400.892L248.7 372.194C261.026 344.968 272.064 323.352 281.814 307.348C297.634 281.041 314.099 257.77 331.208 237.534C318.514 235.326 307.016 234.223 296.715 234.223L308.58 201.385C343.165 202.489 373.243 206.996 398.814 214.906C408.38 217.85 418.038 221.437 427.788 225.668L449.311 273.131C430.547 297.965 400.837 318.293 360.182 334.114ZM325.413 312.039C350.432 302.473 372.691 290.423 392.191 275.89C398.814 271.107 404.517 266.232 409.3 261.265C391.823 252.067 368.644 244.708 339.762 239.19L363.493 258.506C348.776 277.27 336.083 295.114 325.413 312.039Z" fill="#FF005E" fill-opacity="0.4"/>
<path d="M179.405 334.114C190.442 351.774 203.688 368.791 219.14 385.164L182.44 408.895C165.515 387.003 149.235 360.881 133.598 330.527C120.904 352.418 109.407 375.874 99.1049 400.892L67.9233 372.194C80.2488 344.968 91.2865 323.352 101.037 307.348C116.857 281.041 133.322 257.77 150.43 237.534C137.737 235.326 126.239 234.223 115.938 234.223L127.803 201.385C162.388 202.489 192.466 206.996 218.037 214.906C227.603 217.85 237.261 221.437 247.011 225.668L268.534 273.131C249.77 297.965 220.06 318.293 179.405 334.114ZM144.636 312.039C169.655 302.473 191.914 290.423 211.414 275.89C218.037 271.107 223.739 266.232 228.522 261.265C211.046 252.067 187.867 244.708 158.985 239.19L182.716 258.506C167.999 277.27 155.305 295.114 144.636 312.039Z" fill="#FF005E" fill-opacity="0.4"/>
<path d="M-19.849 377.161C-33.2783 384.151 -51.3986 391.694 -74.2099 399.788L-108.979 366.399C-86.1674 306.243 -55.5377 251.147 -17.0896 201.109L12.7123 230.635C-7.15561 254.734 -26.5636 285.272 -45.5118 322.248C-51.0306 333.286 -55.9976 343.956 -60.4127 354.258C-38.3372 349.291 -19.757 343.772 -4.67212 337.701V338.253C24.5779 277.913 49.3208 235.418 69.5567 210.767L99.9104 240.293C71.2123 274.878 41.6864 330.342 11.3326 406.687L-19.849 377.161Z" fill="#FF005E" fill-opacity="0.4"/>
<path d="M385.268 748.029C396.305 765.689 409.551 782.706 425.003 799.078L388.303 822.809C371.378 800.918 355.098 774.795 339.461 744.441C326.768 766.333 315.27 789.788 304.968 814.807L273.786 786.109C286.112 758.882 297.15 737.267 306.9 721.262C322.72 694.955 339.185 671.684 356.293 651.448C343.6 649.241 332.102 648.137 321.801 648.137L333.666 615.3C368.251 616.404 398.329 620.911 423.9 628.821C433.466 631.764 443.124 635.352 452.874 639.583L474.397 687.045C455.633 711.88 425.923 732.208 385.268 748.029ZM350.499 725.953C375.518 716.387 397.777 704.338 417.277 689.805C423.9 685.022 429.602 680.147 434.385 675.18C416.909 665.981 393.73 658.623 364.848 653.104L388.579 672.42C373.862 691.184 361.168 709.029 350.499 725.953Z" fill="#FF005E" fill-opacity="0.4"/>
<path d="M204.49 748.029C215.528 765.689 228.773 782.706 244.226 799.078L207.526 822.809C190.601 800.918 174.321 774.795 158.684 744.441C145.99 766.333 134.493 789.788 124.191 814.807L93.0093 786.109C105.335 758.882 116.372 737.267 126.122 721.262C141.943 694.955 158.408 671.684 175.516 651.448C162.823 649.241 151.325 648.137 141.023 648.137L152.889 615.3C187.474 616.404 217.552 620.911 243.123 628.821C252.689 631.764 262.347 635.352 272.097 639.583L293.62 687.045C274.856 711.88 245.146 732.208 204.49 748.029ZM169.722 725.953C194.74 716.387 217 704.338 236.5 689.805C243.123 685.022 248.825 680.147 253.608 675.18C236.132 665.981 212.953 658.623 184.071 653.104L207.802 672.42C193.085 691.184 180.391 709.029 169.722 725.953Z" fill="#FF005E" fill-opacity="0.4"/>
<path d="M5.23692 791.075C-8.19233 798.066 -26.3126 805.608 -49.1239 813.703L-83.8928 780.314C-61.0815 720.158 -30.4518 665.061 7.99637 615.023L37.7983 644.549C17.9303 668.648 -1.47769 699.186 -20.4258 736.163C-25.9447 747.2 -30.9117 757.87 -35.3268 768.172C-13.2513 763.205 5.32891 757.686 20.4138 751.615V752.167C49.6638 691.828 74.4068 649.332 94.6426 624.681L124.996 654.207C96.2983 688.792 66.7723 744.257 36.4185 820.601L5.23692 791.075Z" fill="#FF005E" fill-opacity="0.4"/>
<path d="M385.268 135.936C396.305 153.596 409.551 170.613 425.003 186.985L388.303 210.717C371.378 188.825 355.098 162.702 339.461 132.349C326.768 154.24 315.27 177.695 304.968 202.714L273.786 174.016C286.112 146.79 297.15 125.174 306.9 109.169C322.72 82.8627 339.185 59.5915 356.293 39.3556C343.6 37.1481 332.102 36.0443 321.801 36.0443L333.666 3.20703C368.251 4.3108 398.329 8.81787 423.9 16.7283C433.466 19.6717 443.124 23.2589 452.874 27.4901L474.397 74.9523C455.633 99.7873 425.923 120.115 385.268 135.936ZM350.499 113.86C375.518 104.294 397.777 92.2448 417.277 77.7118C423.9 72.9288 429.602 68.0538 434.385 63.0868C416.909 53.8887 393.73 46.5302 364.848 41.0113L388.579 60.3273C373.862 79.0915 361.168 96.9358 350.499 113.86Z" fill="#FF005E" fill-opacity="0.4"/>
<path d="M204.49 135.936C215.528 153.596 228.773 170.613 244.226 186.985L207.526 210.717C190.601 188.825 174.321 162.702 158.684 132.349C145.99 154.24 134.493 177.695 124.191 202.714L93.0093 174.016C105.335 146.79 116.372 125.174 126.122 109.169C141.943 82.8627 158.408 59.5915 175.516 39.3556C162.823 37.1481 151.325 36.0443 141.023 36.0443L152.889 3.20703C187.474 4.3108 217.552 8.81787 243.123 16.7283C252.689 19.6717 262.347 23.2589 272.097 27.4901L293.62 74.9523C274.856 99.7873 245.146 120.115 204.49 135.936ZM169.722 113.86C194.74 104.294 217 92.2448 236.5 77.7118C243.123 72.9288 248.825 68.0538 253.608 63.0868C236.132 53.8887 212.953 46.5302 184.071 41.0113L207.802 60.3273C193.085 79.0915 180.391 96.9358 169.722 113.86Z" fill="#FF005E" fill-opacity="0.4"/>
<path d="M5.23692 178.982C-8.19233 185.973 -26.3126 193.515 -49.1239 201.609L-83.8928 168.22C-61.0815 108.065 -30.4518 52.9679 7.99637 2.93018L37.7983 32.4561C17.9303 56.5552 -1.47769 87.0929 -20.4258 124.069C-25.9447 135.107 -30.9117 145.777 -35.3268 156.079C-13.2513 151.112 5.32891 145.593 20.4138 139.522V140.074C49.6638 79.7345 74.4068 37.2392 94.6426 12.5882L124.996 42.1142C96.2983 76.6991 66.7723 132.164 36.4185 208.508L5.23692 178.982Z" fill="#FF005E" fill-opacity="0.4"/>
</g>
<g opacity="0.2" filter="url(#filter0_d_558_20178)">
<ellipse cx="188" cy="461" rx="54" ry="6" fill="#3C0D09"/>
</g>
</g>
<defs>
<filter id="filter0_d_558_20178" x="111" y="432" width="154" height="58" filterUnits="userSpaceOnUse" color-interpolation-filters="sRGB">
<feFlood flood-opacity="0" result="BackgroundImageFix"/>
<feColorMatrix in="SourceAlpha" type="matrix" values="0 0 0 0 0 0 0 0 0 0 0 0 0 0 0 0 0 0 127 0" result="hardAlpha"/>
<feMorphology radius="11" operator="dilate" in="SourceAlpha" result="effect1_dropShadow_558_20178"/>
<feOffset/>
<feGaussianBlur stdDeviation="6"/>
<feComposite in2="hardAlpha" operator="out"/>
<feColorMatrix type="matrix" values="0 0 0 0 0.235294 0 0 0 0 0.0509804 0 0 0 0 0.0352941 0 0 0 1 0"/>
<feBlend mode="normal" in2="BackgroundImageFix" result="effect1_dropShadow_558_20178"/>
<feBlend mode="normal" in="SourceGraphic" in2="effect1_dropShadow_558_20178" result="shape"/>
</filter>
<clipPath id="clip0_558_20178">
<rect width="375" height="812" fill="white"/>
</clipPath>
</defs>
</svg>
