<svg width="375" height="812" viewBox="0 0 375 812" fill="none" xmlns="http://www.w3.org/2000/svg">
<g clip-path="url(#clip0_558_20309)">
<rect width="375" height="812" fill="#F36A25"/>
<g opacity="0.1">
<path d="M98.0268 333.8C93.7704 338.074 88.0568 341.222 80.8604 343.232C86.1778 342.84 90.3575 343.737 93.3997 345.925C96.4419 348.112 98.2952 351.31 98.9727 355.533C99.2283 357.151 99.2795 359.199 99.1133 361.665L98.5765 369.908C98.5253 371.02 98.5381 371.804 98.6148 372.234C98.8449 373.637 99.3306 374.649 100.11 375.243C100.877 375.85 101.861 376.052 103.063 375.863C105.364 375.509 107.077 375.572 108.227 376.052C109.365 376.545 109.914 377.67 109.863 379.453C109.825 382.007 108.904 384.649 107.089 387.38C105.287 390.111 102.513 392.564 98.7682 394.763C95.023 396.951 90.3064 398.506 84.6184 399.391C77.3964 400.516 71.4016 399.82 66.6211 397.305C61.8406 394.776 58.9774 390.541 58.0187 384.586C57.648 382.31 57.5969 379.832 57.827 377.127L58.7856 366.33C59.0029 364.851 58.9774 363.359 58.7345 361.842C58.3382 359.351 57.2006 357.695 55.3345 356.886C53.4683 356.077 50.669 355.95 46.9494 356.532L40.7117 357.505L37.4778 385.635C37.3627 386.318 37.3883 387.152 37.5417 388.126C37.7846 389.643 38.3725 390.882 39.3184 391.843C40.2515 392.804 41.4786 393.777 42.9869 394.763C44.0989 395.37 44.9681 395.977 45.6328 396.597C46.2975 397.216 46.6809 397.899 46.8088 398.657C47.1028 400.503 46.4381 401.932 44.802 402.968C43.1658 404.005 40.6605 404.776 37.2733 405.307L-3.9236 411.755C-6.77402 412.198 -8.98532 412.021 -10.5703 411.211C-12.1553 410.402 -12.8711 409.05 -12.7305 407.141C-12.6666 406.129 -12.3854 405.282 -11.8741 404.599C-11.3628 403.917 -10.5703 403.095 -9.49661 402.147C-7.80937 400.781 -6.51838 399.403 -5.61085 398.038C-4.70332 396.672 -4.12812 394.7 -3.87248 392.108L4.94722 319.008C5.16452 317.529 5.16452 316.151 4.94722 314.849C4.75549 313.661 4.41037 312.687 3.8863 311.941C3.37501 311.195 2.69756 310.323 1.86672 309.349C0.652413 308.098 -0.0122615 307.036 -0.152865 306.176C-0.203994 305.847 -0.191213 305.241 -0.11452 304.343C0.102776 302.864 0.895263 301.713 2.27574 300.891C3.65621 300.07 5.8803 299.412 8.94802 298.932L63.9241 290.322C71.4783 289.134 78.2528 289.248 84.2477 290.638C90.2425 292.029 95.0614 294.469 98.7043 297.946C102.347 301.422 104.571 305.658 105.364 310.626C105.734 312.902 105.76 315.228 105.466 317.605C104.725 324.154 102.219 329.565 97.9757 333.838L98.0268 333.8ZM63.1571 316.707C62.2368 310.968 58.6067 308.604 52.254 309.59L45.3644 310.664L42.744 340.526L49.6336 339.452C53.9028 338.782 57.0984 337.227 59.233 334.786C61.3676 332.346 62.697 328.25 63.2338 322.51C63.3872 319.931 63.3489 317.997 63.1443 316.695L63.1571 316.707Z" fill="#FAD6B3"/>
<path d="M177.212 288.502C178.58 289.008 179.373 289.906 179.577 291.208C179.667 291.751 179.615 292.485 179.424 293.395C179.219 294.204 178.861 294.95 178.35 295.645C177.839 296.341 177.366 296.859 176.918 297.2C176.471 297.554 176.151 297.845 175.972 298.098C174.375 299.35 173.122 300.652 172.227 302.017C171.32 303.383 170.681 305.368 170.323 307.972L161.669 381.047C161.452 382.526 161.452 383.904 161.669 385.206C161.874 386.508 162.244 387.558 162.769 388.367C163.293 389.176 164.008 389.998 164.929 390.857C166.143 392.109 166.808 393.171 166.948 394.031C166.987 394.246 166.948 394.802 166.884 395.699C166.693 397.28 165.875 398.494 164.43 399.328C162.999 400.162 160.749 400.82 157.681 401.3L119.117 407.343C116.817 407.697 114.976 407.609 113.596 407.04C112.215 406.484 111.423 405.548 111.218 404.246C111.116 403.601 111.167 402.868 111.372 402.059C111.614 400.794 112.177 399.77 113.059 398.961C113.941 398.152 114.478 397.684 114.682 397.545C116.254 396.193 117.507 394.852 118.414 393.55C119.322 392.248 119.961 390.225 120.306 387.507L129.126 314.407C129.343 312.928 129.343 311.55 129.126 310.248C128.934 309.059 128.589 308.086 128.065 307.34C127.554 306.594 126.876 305.722 126.045 304.748C124.831 303.496 124.166 302.434 124.026 301.575C123.975 301.246 123.987 300.639 124.064 299.742C124.281 298.262 125.074 297.112 126.454 296.29C127.835 295.468 130.059 294.811 133.127 294.331L171.69 288.287C173.991 287.933 175.819 287.997 177.2 288.502H177.212Z" fill="#FAD6B3"/>
<path d="M281.564 287.452C284.082 288.83 285.59 291.043 286.076 294.065C286.319 295.582 286.331 297.073 286.127 298.553L284.273 314.318C283.979 317.365 283.174 319.565 281.883 320.93C280.592 322.296 278.573 323.193 275.837 323.623C273.217 324.04 271.069 323.787 269.408 322.877C267.746 321.967 266.327 320.285 265.151 317.807L261.048 308.97C260.192 307.112 259.323 305.911 258.453 305.38C257.584 304.849 256.05 304.76 253.865 305.102L236.634 307.807L233.055 337.985L240.277 336.86C241.044 336.746 241.99 336.038 243.14 334.749L247.934 329.009C249.353 327.353 250.605 326.088 251.704 325.254C252.804 324.42 254.223 323.863 255.974 323.585C257.942 323.282 259.642 323.535 261.061 324.369C262.48 325.203 263.323 326.43 263.579 328.048C263.643 328.478 263.643 329.148 263.566 330.046L260.447 353.662C260.166 356.153 259.335 358.087 257.929 359.465C256.523 360.856 254.887 361.69 253.034 361.981C249.966 362.461 247.422 361.248 245.39 358.353L241.696 353.106C240.673 351.601 239.331 350.982 237.695 351.235L231.291 352.233L227.124 388.164L241.568 385.901C243.639 385.572 245.416 384.877 246.873 383.827C248.33 382.766 249.826 381.059 251.347 378.72L259.476 366.469C260.933 364.358 262.39 362.765 263.848 361.703C265.305 360.641 267.184 359.933 269.484 359.579C271.888 359.2 273.945 359.44 275.658 360.274C277.358 361.121 278.394 362.626 278.739 364.788C278.879 365.66 278.879 366.709 278.739 367.948L276.604 385.092C276.054 389.39 274.763 392.538 272.731 394.523C270.699 396.508 267.49 397.836 263.106 398.531L184.815 410.794C182.515 411.148 180.674 411.06 179.294 410.491C177.913 409.935 177.121 408.999 176.916 407.697C176.814 407.052 176.865 406.319 177.07 405.51C177.312 404.245 177.875 403.221 178.757 402.412C179.639 401.603 180.176 401.135 180.38 400.996C181.952 399.643 183.205 398.303 184.112 397.001C185.02 395.699 185.659 393.676 186.004 390.958L194.99 317.833C195.207 316.354 195.207 315.026 195.028 313.838C194.824 312.535 194.453 311.486 193.929 310.677C193.405 309.868 192.689 309.046 191.769 308.186C190.555 306.935 189.89 305.873 189.749 305.013C189.698 304.684 189.711 304.078 189.788 303.18C190.005 301.701 190.823 300.55 192.255 299.716C193.686 298.881 195.885 298.237 198.838 297.769L271.709 286.352C275.76 285.72 279.045 286.087 281.564 287.478V287.452Z" fill="#FAD6B3"/>
<path d="M391.274 295.633C400.58 300.551 406.204 309.022 408.134 321.032C409.092 326.987 409.092 334.029 408.147 342.158C406.549 355.281 403.277 366.002 398.317 374.321C393.37 382.64 386.161 389.265 376.677 394.183C367.205 399.113 354.628 402.742 338.97 405.081L294.296 411.908C291.995 412.262 290.155 412.173 288.774 411.604C287.394 411.048 286.601 410.112 286.397 408.81C286.294 408.166 286.345 407.432 286.55 406.623C286.716 405.599 287.074 404.828 287.611 404.297C288.148 403.766 288.953 403.033 290.027 402.084C291.624 400.833 292.839 399.543 293.695 398.178C294.539 396.825 295.14 394.79 295.497 392.071L304.343 319.136C304.56 317.657 304.56 316.279 304.343 314.976C304.151 313.788 303.806 312.814 303.282 312.069C302.771 311.323 302.093 310.45 301.262 309.477C300.048 308.225 299.383 307.163 299.243 306.303C299.192 305.975 299.204 305.368 299.281 304.47C299.498 302.991 300.291 301.841 301.671 301.019C303.052 300.197 305.276 299.54 308.344 299.059L352.659 292.118C369.072 289.552 381.93 290.728 391.249 295.646L391.274 295.633ZM365.978 320.476C365.058 314.736 363.217 310.981 360.469 309.186C357.721 307.403 354.091 306.86 349.604 307.555L345.987 308.124L336.464 390.491L340.401 389.872C345.437 389.088 349.502 387.368 352.608 384.713C355.714 382.058 358.296 377.671 360.341 371.527C362.386 365.383 364.125 356.596 365.544 345.167C366.758 334.547 366.899 326.317 365.965 320.476H365.978Z" fill="#FAD6B3"/>
<path d="M35.7006 427.179C37.0811 427.736 37.8608 428.621 38.0525 429.809C38.142 430.353 38.0909 431.086 37.8991 431.996C37.6946 432.805 37.3367 433.551 36.8254 434.247C36.3141 434.942 35.8412 435.46 35.3938 435.802C34.9465 436.156 34.6269 436.447 34.4479 436.699C32.8502 437.951 31.5975 439.253 30.7028 440.619C29.7952 441.984 29.1561 443.969 28.7982 446.573L19.8124 519.699C19.5951 521.178 19.5951 522.556 19.8124 523.858C20.0169 525.16 20.3748 526.159 20.8861 526.854C21.3846 527.55 22.1132 528.435 23.0718 529.509C23.1997 529.598 23.5703 529.964 24.1711 530.584C24.7719 531.216 25.1425 531.899 25.2576 532.657C25.2959 532.872 25.2576 533.428 25.1937 534.326C24.8869 535.932 24.0177 537.145 22.5861 537.98C21.1545 538.814 18.9048 539.472 15.8371 539.952L-22.7266 545.995C-25.0274 546.362 -26.868 546.261 -28.2485 545.692C-29.629 545.136 -30.4215 544.2 -30.626 542.898C-30.7282 542.253 -30.6771 541.52 -30.4726 540.711C-30.1786 539.775 -29.6929 538.953 -29.0154 538.233C-28.3508 537.525 -27.6605 536.88 -26.9703 536.336C-25.3725 535.085 -24.1326 533.757 -23.2379 532.341C-22.3431 530.925 -21.7168 528.864 -21.3717 526.146L-17.8311 497.801L-46.8849 502.353L-50.4255 530.698C-50.6428 532.177 -50.6428 533.555 -50.4255 534.857C-50.221 536.159 -49.8631 537.158 -49.3518 537.853C-48.8533 538.549 -48.1247 539.434 -47.1661 540.508C-47.0383 540.597 -46.6676 540.964 -46.0668 541.583C-45.4661 542.215 -45.0954 542.898 -44.9804 543.656C-44.942 543.871 -44.9803 544.428 -45.0442 545.325C-45.351 546.931 -46.2202 548.145 -47.6518 548.979C-49.0834 549.813 -51.3331 550.471 -54.4008 550.951L-92.9645 556.994C-95.2653 557.361 -97.106 557.26 -98.4864 556.691C-99.8669 556.135 -100.659 555.199 -100.864 553.897C-100.966 553.252 -100.915 552.519 -100.711 551.71C-100.417 550.774 -99.9308 549.952 -99.2534 549.232C-98.5759 548.524 -97.8985 547.879 -97.2082 547.335C-95.6104 546.084 -94.3706 544.756 -93.4758 543.34C-92.5811 541.924 -91.9548 539.864 -91.6096 537.145L-82.6238 464.02C-82.4065 462.541 -82.4065 461.163 -82.6238 459.861C-82.8155 458.672 -83.1606 457.699 -83.6847 456.953C-84.196 456.207 -84.8734 455.335 -85.7043 454.361C-86.2283 453.893 -86.7013 453.388 -87.1231 452.831C-87.5449 452.288 -87.8133 451.694 -87.9156 451.036C-87.9539 450.821 -87.9284 450.265 -87.8517 449.367C-87.6344 447.888 -86.8163 446.738 -85.3719 445.903C-83.9403 445.069 -81.6907 444.411 -78.623 443.931L-40.0592 437.888C-37.7584 437.534 -35.9178 437.635 -34.5373 438.191C-33.1568 438.748 -32.3771 439.633 -32.1854 440.821C-32.0959 441.365 -32.1471 442.098 -32.3388 443.008C-32.5433 443.817 -32.9012 444.563 -33.4125 445.258C-33.9238 445.954 -34.3967 446.472 -34.8441 446.814C-35.2915 447.168 -35.611 447.458 -35.79 447.711C-37.3877 448.963 -38.6404 450.265 -39.5351 451.63C-40.4427 452.996 -41.0818 454.981 -41.4397 457.585L-44.8909 485.412L-15.837 480.86L-12.3859 453.034C-12.1686 451.555 -12.1686 450.176 -12.3859 448.874C-12.5776 447.686 -12.9227 446.712 -13.4468 445.966C-13.9581 445.221 -14.6355 444.348 -15.4663 443.375C-15.9904 442.907 -16.4634 442.401 -16.8852 441.845C-17.307 441.301 -17.5754 440.707 -17.6777 440.05C-17.716 439.835 -17.6777 439.278 -17.6138 438.381C-17.3965 436.902 -16.5784 435.751 -15.134 434.917C-13.7024 434.082 -11.4528 433.425 -8.38504 432.945L30.1787 426.901C32.4795 426.547 34.3201 426.648 35.7006 427.205V427.179Z" fill="#FAD6B3"/>
<path d="M101.401 432.616C102.769 433.121 103.561 434.019 103.766 435.321C103.855 435.865 103.804 436.598 103.612 437.508C103.408 438.317 103.05 439.063 102.538 439.759C102.027 440.454 101.554 440.972 101.107 441.314C100.659 441.668 100.34 441.959 100.161 442.211C98.5632 443.463 97.3106 444.765 96.4158 446.131C95.5083 447.496 94.8692 449.481 94.5113 452.085L85.8577 525.16C85.6404 526.639 85.6404 528.017 85.8577 529.319C86.0623 530.622 86.4329 531.671 86.957 532.48C87.4811 533.289 88.1969 534.111 89.1172 534.971C90.3315 536.222 90.9962 537.284 91.1368 538.144C91.1751 538.359 91.1368 538.915 91.0729 539.825C90.8811 541.406 90.0631 542.62 88.6187 543.454C87.1871 544.288 84.9374 544.946 81.8697 545.426L43.306 551.469C41.0052 551.836 39.1645 551.735 37.7841 551.166C36.4036 550.61 35.6111 549.674 35.4066 548.372C35.3043 547.727 35.3555 546.994 35.56 546.185C35.8029 544.92 36.3653 543.896 37.2472 543.087C38.1292 542.278 38.6661 541.81 38.8706 541.671C40.4428 540.319 41.6954 538.978 42.603 537.676C43.5105 536.374 44.1496 534.351 44.4947 531.633L53.3144 458.533C53.5317 457.054 53.5317 455.676 53.3144 454.374C53.1227 453.185 52.7775 452.212 52.2535 451.466C51.7422 450.72 51.0647 449.848 50.2339 448.874C49.0196 447.622 48.3549 446.56 48.2143 445.701C48.1632 445.372 48.176 444.765 48.2527 443.868C48.47 442.388 49.2625 441.238 50.6429 440.416C52.0234 439.594 54.2475 438.937 57.3152 438.457L95.879 432.413C98.1798 432.059 100.008 432.123 101.388 432.628L101.401 432.616Z" fill="#FAD6B3"/>
<path d="M137.743 546.514C129.869 544.314 123.26 540.269 117.879 534.402C112.511 528.536 109.085 520.951 107.589 511.633C106.554 505.135 106.567 497.928 107.653 489.989C110.082 472.972 115.821 460.064 124.833 451.277C133.857 442.49 144.159 437.18 155.765 435.36C162.003 434.386 167.678 434.437 172.778 435.524C177.891 436.611 182.748 438.571 187.35 441.39L191.236 437.281C193.831 434.551 196.067 432.591 197.946 431.403C199.825 430.227 202.037 429.43 204.555 429.038C207.29 428.609 209.578 428.861 211.406 429.797C213.234 430.733 214.333 432.338 214.704 434.601C214.896 435.79 214.87 437.016 214.614 438.28L209.476 465.045C208.965 468.117 208.108 470.367 206.932 471.771C205.756 473.174 203.801 474.097 201.065 474.514C198.215 474.957 195.735 474.324 193.613 472.605C191.491 470.886 188.884 467.776 185.803 463.262C182.365 458.584 179.694 455.563 177.789 454.197C175.884 452.832 173.354 452.402 170.171 452.895C165.684 453.603 161.799 457.004 158.514 463.123C155.229 469.242 152.762 478.029 151.125 489.496C149.745 499.142 149.566 507.044 150.55 513.213C151.419 518.624 153.107 522.493 155.612 524.819C158.117 527.146 161.121 528.031 164.623 527.487C169.762 526.678 173.827 524.883 176.792 522.089C179.77 519.294 182.685 515.679 185.573 511.228C187.376 508.51 188.871 506.462 190.06 505.122C191.249 503.769 192.604 502.973 194.137 502.733C196.106 502.429 198.343 503.074 200.848 504.68C203.353 506.285 204.695 508.068 204.9 510.04C205.386 512.404 204.044 516.387 200.848 521.987C197.652 527.588 192.846 532.923 186.417 537.98C179.988 543.037 172.293 546.261 163.32 547.677C154.129 549.119 145.604 548.739 137.73 546.527L137.743 546.514Z" fill="#FAD6B3"/>
<path d="M333.945 431.859C337.473 434.299 339.646 438.016 340.439 442.984C341.346 448.61 340.375 453.427 337.537 457.422C334.699 461.417 330.929 463.781 326.225 464.515C323.157 464.995 320.447 464.869 318.083 464.123C315.718 463.389 313.366 461.974 311.014 459.9L298.769 473.794L322.147 517.892C323.566 520.446 324.972 522.443 326.391 523.885C327.797 525.326 329.459 526.729 331.351 528.095C332.744 529.093 333.741 529.915 334.354 530.535C334.955 531.167 335.339 531.963 335.492 532.937C335.773 534.669 335.185 536.148 333.766 537.362C332.335 538.588 329.651 539.498 325.714 540.118L304.214 543.481C298.846 544.315 294.704 543.784 291.751 541.85C288.812 539.928 286.076 536.388 283.571 531.23L270.993 505.249L266.852 509.889L264.525 530.054C264.308 531.534 264.308 532.912 264.525 534.214C264.73 535.516 265.101 536.565 265.625 537.374C266.149 538.184 266.865 539.005 267.785 539.865C268.999 541.117 269.664 542.179 269.805 543.038C269.843 543.253 269.804 543.81 269.741 544.72C269.549 546.3 268.731 547.514 267.286 548.348C265.855 549.183 263.605 549.84 260.537 550.321L221.974 556.364C219.673 556.73 217.832 556.629 216.452 556.06C215.071 555.504 214.279 554.568 214.074 553.266C213.972 552.621 214.023 551.888 214.228 551.079C214.471 549.815 215.033 548.791 215.915 547.982C216.797 547.173 217.334 546.705 217.538 546.566C219.11 545.213 220.363 543.873 221.271 542.571C222.178 541.268 222.817 539.246 223.162 536.527L231.982 463.427C232.199 461.948 232.199 460.57 231.982 459.268C231.79 458.08 231.445 457.106 230.921 456.36C230.41 455.614 229.732 454.742 228.902 453.768C227.687 452.517 227.023 451.455 226.882 450.595C226.831 450.266 226.844 449.66 226.92 448.762C227.138 447.283 227.93 446.132 229.311 445.31C230.691 444.489 232.915 443.831 235.983 443.351L274.547 437.308C276.847 436.954 278.675 437.017 280.056 437.523C281.423 438.028 282.216 438.926 282.42 440.228C282.51 440.772 282.459 441.505 282.267 442.415C282.063 443.224 281.705 443.97 281.193 444.666C280.682 445.361 280.209 445.879 279.762 446.221C279.314 446.575 278.995 446.866 278.816 447.118C277.218 448.37 275.965 449.672 275.071 451.038C274.163 452.403 273.524 454.388 273.166 456.992L270.15 482.265L307.691 438.281C310.158 435.462 312.459 433.35 314.58 431.96C316.715 430.569 319.092 429.671 321.713 429.254C326.302 428.534 330.366 429.393 333.907 431.833L333.945 431.859Z" fill="#FAD6B3"/>
<path d="M380.946 435.259C385.023 438.28 387.528 442.718 388.461 448.559C388.832 450.834 388.883 453.312 388.653 456.018C388.231 461.075 386.736 465.614 384.179 469.609C381.623 473.617 378.466 476.828 374.708 479.243C370.95 481.657 367.154 483.174 363.319 483.769C358.832 484.477 356.378 483.528 355.969 480.924C355.867 480.279 355.841 479.774 355.905 479.432C356.046 478.193 356.544 477.081 357.388 476.12C358.244 475.159 359.599 473.806 361.453 472.074C363.587 469.963 365.109 468.281 366.029 467.03C366.949 465.778 367.294 464.387 367.051 462.87C366.898 461.897 366.438 460.974 365.684 460.089C364.93 459.204 363.766 458.066 362.181 456.637C360.072 454.64 358.449 452.958 357.337 451.568C356.212 450.19 355.509 448.521 355.19 446.574C354.998 445.385 354.985 444.222 355.138 443.085C355.547 440.025 356.826 437.522 358.986 435.575C361.146 433.628 364.022 432.376 367.639 431.807C372.458 431.049 376.894 432.187 380.971 435.208L380.946 435.259Z" fill="#FAD6B3"/>
</g>
<g opacity="0.1">
<path d="M85.2058 3.54181C87.7239 4.91986 89.2322 7.13233 89.7179 10.1539C89.9608 11.6711 89.9736 13.1629 89.7691 14.6421L87.9157 30.4075C87.5961 33.3406 86.663 35.5404 85.1036 37.007C83.5442 38.4735 81.3456 39.4217 78.4952 39.8769C75.7598 40.3067 73.4846 40.0791 71.6568 39.2068C69.8289 38.3218 68.3334 36.653 67.1447 34.175L63.0416 25.3378C62.3386 23.7827 61.6228 22.784 60.8814 22.3541C60.14 21.9116 58.7212 21.861 56.6505 22.1898L40.2382 24.7562L36.1991 58.3352L39.3179 57.8421C40.8518 57.6019 42.1556 57.172 43.2293 56.5652C44.303 55.9583 45.415 54.9469 46.527 53.5562L50.9369 48.5371C52.5347 46.628 54.0174 45.1994 55.3851 44.2639C56.7528 43.3283 58.2483 42.7341 59.8972 42.4812C61.9679 42.1525 63.7957 42.4812 65.3552 43.4547C66.9146 44.4282 67.8605 46.0086 68.2184 48.1704C68.359 49.0428 68.359 50.0921 68.2184 51.3311L64.9461 77.1348C64.1536 82.6976 61.6228 85.8077 57.3535 86.4778C53.8512 87.0214 50.8346 85.6686 48.291 82.4068L44.4563 77.3497C43.4466 75.959 42.5774 75.0867 41.8488 74.758C41.1202 74.4293 40.0976 74.3661 38.7938 74.5684L34.0389 75.3143L31.0223 100.587C30.9073 101.27 30.9328 102.155 31.1118 103.242C31.3546 104.759 31.9043 105.947 32.7735 106.807C33.6427 107.667 34.8697 108.527 36.4675 109.386C37.8224 110.17 38.7683 110.828 39.3051 111.359C39.842 111.89 40.1743 112.585 40.3149 113.445C40.6217 115.392 39.9698 116.883 38.3337 117.92C36.6976 118.957 34.1923 119.728 30.805 120.259L-10.3919 126.707C-13.2423 127.149 -15.4536 126.972 -17.0386 126.163C-18.6236 125.354 -19.3394 124.001 -19.1988 122.092C-19.1348 121.081 -18.8536 120.234 -18.3424 119.551C-17.8311 118.868 -17.0386 118.047 -15.9649 117.098C-14.2776 115.733 -12.9866 114.355 -12.0791 112.989C-11.1716 111.624 -10.5964 109.652 -10.3407 107.06L-1.35488 33.9348C-1.13758 32.4556 -1.13758 31.1281 -1.31653 29.9397C-1.52105 28.6375 -1.89173 27.5882 -2.4158 26.779C-2.93987 25.9699 -3.65566 25.1481 -4.57598 24.2884C-5.79028 23.0368 -6.45495 21.9748 -6.59556 21.1151C-6.64669 20.7864 -6.63391 20.1796 -6.55721 19.2819C-6.33992 17.8027 -5.52186 16.6523 -4.07747 15.8178C-2.64587 14.9834 -0.447352 14.3387 2.50532 13.8709L75.3764 2.45454C79.4283 1.82241 82.7133 2.18904 85.2314 3.57974L85.2058 3.54181Z" fill="#FAD6B3"/>
<path d="M194.482 50.3824C190.225 54.6556 184.512 57.8036 177.315 59.8138C182.633 59.4219 186.813 60.3195 189.855 62.5067C192.897 64.6939 194.75 67.8925 195.428 72.1151C195.683 73.7334 195.735 75.7815 195.568 78.2468L195.032 86.4899C194.98 87.6024 194.993 88.3863 195.07 88.8161C195.3 90.2194 195.786 91.2309 196.565 91.8251C197.332 92.4319 198.317 92.6342 199.518 92.4446C201.819 92.0906 203.532 92.1538 204.682 92.6342C205.82 93.1273 206.369 94.2525 206.318 96.0351C206.28 98.5889 205.36 101.231 203.544 103.962C201.742 106.693 198.968 109.146 195.223 111.345C191.478 113.533 186.761 115.088 181.073 115.973C173.852 117.098 167.857 116.402 163.076 113.887C158.296 111.358 155.432 107.123 154.474 101.168C154.103 98.8923 154.052 96.4144 154.282 93.7088L155.241 82.912C155.458 81.4328 155.432 79.941 155.19 78.4238C154.793 75.9332 153.656 74.277 151.79 73.4679C149.923 72.6588 147.124 72.5323 143.404 73.1139L137.167 74.0874L133.933 102.217C133.818 102.9 133.843 103.734 133.997 104.708C134.24 106.225 134.828 107.464 135.773 108.425C136.707 109.386 137.934 110.359 139.442 111.345C140.554 111.952 141.423 112.559 142.088 113.179C142.753 113.798 143.136 114.481 143.264 115.239C143.558 117.085 142.893 118.514 141.257 119.55C139.621 120.587 137.116 121.358 133.728 121.889L92.5315 128.337C89.6811 128.78 87.4698 128.603 85.8848 127.793C84.2998 126.984 83.584 125.632 83.7246 123.723C83.7885 122.711 84.0697 121.864 84.581 121.181C85.0923 120.499 85.8848 119.677 86.9585 118.729C88.6457 117.363 89.9367 115.985 90.8442 114.62C91.7518 113.254 92.327 111.282 92.5826 108.69L101.402 35.5905C101.62 34.1113 101.62 32.7332 101.402 31.431C101.211 30.2426 100.865 29.2691 100.341 28.5232C99.8301 27.7773 99.1526 26.9049 98.3218 25.9315C97.1075 24.6798 96.4428 23.6178 96.3022 22.7581C96.2511 22.4294 96.2639 21.8226 96.3406 20.9249C96.5579 19.4458 97.3503 18.2953 98.7308 17.4735C100.111 16.6517 102.335 15.9943 105.403 15.5139L160.379 6.90422C167.933 5.71581 174.708 5.8296 180.703 7.22029C186.698 8.61099 191.516 11.051 195.159 14.5278C198.802 18.0045 201.026 22.2398 201.819 27.2084C202.19 29.484 202.215 31.8103 201.921 34.1871C201.18 40.736 198.674 46.1471 194.431 50.4203L194.482 50.3824ZM159.612 33.2895C158.692 27.5497 155.062 25.1855 148.709 26.1717L141.819 27.2463L139.199 57.1083L146.089 56.0337C150.358 55.3636 153.553 53.8085 155.688 51.3685C157.823 48.9285 159.152 44.8322 159.689 39.0925C159.842 36.5134 159.804 34.579 159.599 33.2768L159.612 33.2895Z" fill="#FAD6B3"/>
<path d="M273.667 5.0843C275.035 5.59 275.828 6.48763 276.032 7.78983C276.122 8.33346 276.07 9.06674 275.879 9.97701C275.674 10.7861 275.316 11.5321 274.805 12.2274C274.294 12.9228 273.821 13.4411 273.373 13.7825C272.926 14.1364 272.607 14.4272 272.428 14.6801C270.83 15.9317 269.577 17.2339 268.682 18.5993C267.775 19.9647 267.136 21.9496 266.778 24.554L258.124 97.6287C257.907 99.1079 257.907 100.486 258.124 101.788C258.329 103.09 258.7 104.14 259.224 104.949C259.748 105.758 260.463 106.58 261.384 107.439C262.598 108.691 263.263 109.753 263.403 110.613C263.442 110.828 263.403 111.384 263.339 112.282C263.148 113.862 262.33 115.076 260.885 115.91C259.454 116.744 257.204 117.402 254.136 117.882L215.573 123.925C213.272 124.279 211.431 124.191 210.051 123.622C208.67 123.066 207.878 122.13 207.673 120.828C207.571 120.183 207.622 119.45 207.827 118.641C208.069 117.377 208.632 116.352 209.514 115.543C210.396 114.734 210.933 114.266 211.137 114.127C212.709 112.775 213.962 111.434 214.87 110.132C215.777 108.83 216.416 106.807 216.761 104.089L225.581 30.9891C225.798 29.5099 225.798 28.1319 225.581 26.8297C225.389 25.6413 225.044 24.6678 224.52 23.9219C224.009 23.176 223.331 22.3036 222.501 21.3301C221.286 20.0785 220.622 19.0165 220.481 18.1568C220.43 17.8281 220.443 17.2213 220.519 16.3236C220.737 14.8444 221.529 13.694 222.91 12.8722C224.29 12.0504 226.514 11.393 229.582 10.9126L268.146 4.86937C270.446 4.51538 272.274 4.57859 273.655 5.0843H273.667Z" fill="#FAD6B3"/>
<path d="M378.019 4.03443C380.537 5.41249 382.045 7.62495 382.531 10.6466C382.774 12.1637 382.786 13.6555 382.582 15.1347L380.728 30.9001C380.434 33.947 379.629 36.1468 378.338 37.5122C377.047 38.8776 375.028 39.7753 372.292 40.2051C369.672 40.6223 367.524 40.3695 365.863 39.4592C364.201 38.5489 362.782 36.8675 361.606 34.3895L357.503 25.5523C356.647 23.6938 355.778 22.4927 354.909 21.9617C354.039 21.4308 352.506 21.3423 350.32 21.6836L333.089 24.3891L329.51 54.5672L336.732 53.442C337.499 53.3282 338.445 52.6202 339.596 51.3307L344.389 45.5909C345.808 43.9347 347.06 42.6704 348.16 41.836C349.259 41.0016 350.678 40.4453 352.429 40.1672C354.397 39.8638 356.097 40.1166 357.516 40.951C358.935 41.7855 359.779 43.0118 360.034 44.6301C360.098 45.0599 360.098 45.73 360.021 46.6276L356.903 70.2441C356.621 72.7347 355.791 74.669 354.384 76.0471C352.978 77.4378 351.342 78.2722 349.489 78.563C346.421 79.0434 343.878 77.8297 341.845 74.9345L338.151 69.6878C337.129 68.1834 335.786 67.5639 334.15 67.8167L327.746 68.8155L323.579 104.746L338.023 102.483C340.094 102.154 341.871 101.459 343.328 100.41C344.785 99.3475 346.281 97.6408 347.802 95.3019L355.931 83.0511C357.388 80.9398 358.845 79.3468 360.303 78.2848C361.76 77.2229 363.639 76.5149 365.94 76.1609C368.343 75.7816 370.401 76.0218 372.113 76.8562C373.813 77.7033 374.849 79.2078 375.194 81.3697C375.334 82.242 375.334 83.2914 375.194 84.5303L373.059 101.674C372.51 105.972 371.219 109.12 369.186 111.105C367.154 113.09 363.946 114.418 359.561 115.113L281.271 127.376C278.97 127.73 277.129 127.642 275.749 127.073C274.368 126.517 273.576 125.581 273.371 124.279C273.269 123.634 273.32 122.901 273.525 122.092C273.767 120.827 274.33 119.803 275.212 118.994C276.094 118.185 276.631 117.717 276.835 117.578C278.407 116.226 279.66 114.885 280.568 113.583C281.475 112.281 282.114 110.258 282.459 107.54L291.445 34.4148C291.662 32.9356 291.662 31.6081 291.484 30.4197C291.279 29.1175 290.908 28.0682 290.384 27.259C289.86 26.4499 289.144 25.6281 288.224 24.7684C287.01 23.5168 286.345 22.4548 286.204 21.5951C286.153 21.2664 286.166 20.6596 286.243 19.7619C286.46 18.2827 287.278 17.1322 288.71 16.2978C290.141 15.4634 292.34 14.8186 295.293 14.3509L368.164 2.93452C372.216 2.30239 375.501 2.66903 378.019 4.05972V4.03443Z" fill="#FAD6B3"/>
<path d="M132.156 143.761C133.536 144.318 134.316 145.203 134.508 146.391C134.597 146.935 134.546 147.668 134.354 148.578C134.15 149.387 133.792 150.133 133.28 150.829C132.769 151.524 132.296 152.042 131.849 152.384C131.402 152.738 131.082 153.029 130.903 153.281C129.305 154.533 128.053 155.835 127.158 157.201C126.25 158.566 125.611 160.551 125.253 163.155L116.267 236.281C116.05 237.76 116.05 239.138 116.267 240.44C116.472 241.742 116.83 242.741 117.341 243.436C117.84 244.132 118.568 245.017 119.527 246.091C119.655 246.18 120.025 246.546 120.626 247.166C121.227 247.798 121.598 248.481 121.713 249.239C121.751 249.454 121.713 250.011 121.649 250.908C121.342 252.514 120.473 253.727 119.041 254.562C117.61 255.396 115.36 256.054 112.292 256.534L73.7285 262.577C71.4277 262.944 69.5871 262.843 68.2066 262.274C66.8261 261.718 66.0336 260.782 65.8291 259.48C65.7268 258.835 65.778 258.102 65.9825 257.293C66.2765 256.357 66.7622 255.535 67.4396 254.815C68.1043 254.107 68.7946 253.462 69.4848 252.918C71.0826 251.667 72.3224 250.339 73.2172 248.923C74.1119 247.507 74.7382 245.447 75.0834 242.728L78.624 214.383L49.5702 218.935L46.0295 247.28C45.8122 248.759 45.8122 250.137 46.0295 251.439C46.2341 252.741 46.5919 253.74 47.1032 254.435C47.6017 255.131 48.3303 256.016 49.289 257.09C49.4168 257.179 49.7875 257.546 50.3883 258.165C50.989 258.797 51.3597 259.48 51.4747 260.238C51.5131 260.453 51.4747 261.01 51.4108 261.907C51.1041 263.513 50.2349 264.727 48.8033 265.561C47.3717 266.395 45.122 267.053 42.0543 267.533L3.49054 273.576C1.18975 273.943 -0.65088 273.842 -2.03135 273.273C-3.41182 272.717 -4.20432 271.781 -4.40883 270.479C-4.51109 269.834 -4.45996 269.101 -4.25544 268.292C-3.96145 267.356 -3.47573 266.534 -2.79828 265.814C-2.12083 265.106 -1.44337 264.461 -0.753137 263.917C0.844632 262.666 2.0845 261.338 2.97925 259.922C3.874 258.506 4.50032 256.446 4.84544 253.727L13.8313 180.602C14.0486 179.123 14.0486 177.745 13.8313 176.443C13.6396 175.254 13.2944 174.281 12.7704 173.535C12.2591 172.789 11.5816 171.917 10.7508 170.943C10.2267 170.475 9.75379 169.97 9.33198 169.413C8.91017 168.87 8.64174 168.276 8.53948 167.618C8.50114 167.403 8.5267 166.847 8.6034 165.949C8.82069 164.47 9.63875 163.32 11.0831 162.485C12.5147 161.651 14.7644 160.993 17.8321 160.513L56.3959 154.47C58.6967 154.116 60.5373 154.217 61.9178 154.773C63.2982 155.33 64.0779 156.215 64.2697 157.403C64.3591 157.947 64.308 158.68 64.1163 159.59C63.9118 160.399 63.5539 161.145 63.0426 161.841C62.5313 162.536 62.0584 163.054 61.611 163.396C61.1636 163.75 60.844 164.04 60.6651 164.293C59.0673 165.545 57.8147 166.847 56.9199 168.212C56.0124 169.578 55.3733 171.563 55.0154 174.167L51.5642 201.994L80.618 197.442L84.0692 169.616C84.2865 168.137 84.2865 166.759 84.0692 165.456C83.8775 164.268 83.5324 163.294 83.0083 162.549C82.497 161.803 81.8196 160.93 80.9887 159.957C80.4647 159.489 79.9917 158.983 79.5699 158.427C79.1481 157.883 78.8797 157.289 78.7774 156.632C78.7391 156.417 78.7774 155.861 78.8413 154.963C79.0586 153.484 79.8767 152.333 81.3211 151.499C82.7527 150.664 85.0023 150.007 88.07 149.527L126.634 143.483C128.935 143.129 130.775 143.231 132.156 143.787V143.761Z" fill="#FAD6B3"/>
<path d="M197.856 149.198C199.224 149.703 200.016 150.601 200.221 151.903C200.31 152.447 200.259 153.18 200.067 154.09C199.863 154.899 199.505 155.645 198.994 156.341C198.482 157.036 198.009 157.554 197.562 157.896C197.115 158.25 196.795 158.541 196.616 158.793C195.018 160.045 193.766 161.347 192.871 162.713C191.963 164.078 191.324 166.063 190.966 168.667L182.313 241.742C182.096 243.221 182.096 244.599 182.313 245.901C182.517 247.204 182.888 248.253 183.412 249.062C183.936 249.871 184.652 250.693 185.572 251.553C186.787 252.804 187.451 253.866 187.592 254.726C187.63 254.941 187.592 255.497 187.528 256.408C187.336 257.988 186.518 259.202 185.074 260.036C183.642 260.87 181.393 261.528 178.325 262.008L139.761 268.051C137.46 268.418 135.62 268.317 134.239 267.748C132.859 267.192 132.066 266.256 131.862 264.954C131.759 264.309 131.811 263.576 132.015 262.767C132.258 261.503 132.82 260.478 133.702 259.669C134.584 258.86 135.121 258.392 135.326 258.253C136.898 256.901 138.15 255.56 139.058 254.258C139.966 252.956 140.605 250.933 140.95 248.215L149.769 175.115C149.987 173.636 149.987 172.258 149.769 170.956C149.578 169.767 149.233 168.794 148.709 168.048C148.197 167.302 147.52 166.43 146.689 165.456C145.475 164.204 144.81 163.142 144.669 162.283C144.618 161.954 144.631 161.347 144.708 160.45C144.925 158.97 145.718 157.82 147.098 156.998C148.478 156.176 150.703 155.519 153.77 155.039L192.334 148.995C194.635 148.641 196.463 148.705 197.843 149.21L197.856 149.198Z" fill="#FAD6B3"/>
<path d="M234.198 263.096C226.324 260.896 219.715 256.851 214.334 250.984C208.966 245.118 205.54 237.533 204.045 228.215C203.009 221.717 203.022 214.51 204.108 206.571C206.537 189.554 212.276 176.646 221.288 167.859C230.312 159.072 240.614 153.762 252.22 151.942C258.458 150.968 264.133 151.019 269.233 152.106C274.346 153.193 279.204 155.153 283.805 157.972L287.691 153.863C290.286 151.133 292.523 149.173 294.402 147.985C296.281 146.809 298.492 146.012 301.01 145.62C303.745 145.191 306.033 145.443 307.861 146.379C309.689 147.315 310.788 148.92 311.159 151.183C311.351 152.372 311.325 153.598 311.069 154.862L305.931 181.627C305.42 184.699 304.563 186.949 303.387 188.353C302.211 189.756 300.256 190.679 297.52 191.096C294.67 191.539 292.19 190.907 290.068 189.187C287.947 187.468 285.339 184.358 282.258 179.844C278.82 175.166 276.149 172.145 274.244 170.779C272.34 169.414 269.809 168.984 266.626 169.477C262.139 170.185 258.254 173.586 254.969 179.705C251.684 185.824 249.217 194.611 247.581 206.078C246.2 215.724 246.021 223.626 247.005 229.795C247.874 235.206 249.562 239.075 252.067 241.401C254.572 243.728 257.576 244.613 261.078 244.069C266.217 243.26 270.282 241.465 273.247 238.671C276.225 235.877 279.14 232.261 282.028 227.81C283.831 225.092 285.326 223.044 286.515 221.704C287.704 220.351 289.059 219.555 290.592 219.315C292.561 219.011 294.798 219.656 297.303 221.262C299.808 222.867 301.151 224.65 301.355 226.622C301.841 228.986 300.499 232.969 297.303 238.569C294.108 244.17 289.301 249.505 282.872 254.562C276.443 259.619 268.748 262.843 259.775 264.259C250.584 265.701 242.059 265.321 234.185 263.109L234.198 263.096Z" fill="#FAD6B3"/>
<path d="M430.4 148.441C433.928 150.881 436.101 154.598 436.894 159.566C437.801 165.192 436.83 170.009 433.992 174.004C431.155 177.999 427.384 180.363 422.68 181.097C419.612 181.577 416.902 181.451 414.538 180.705C412.173 179.972 409.821 178.556 407.469 176.482L395.224 190.376L418.602 234.474C420.021 237.028 421.427 239.025 422.846 240.467C424.252 241.908 425.914 243.311 427.806 244.677C429.199 245.676 430.196 246.497 430.809 247.117C431.41 247.749 431.794 248.545 431.947 249.519C432.228 251.251 431.64 252.73 430.221 253.944C428.79 255.17 426.106 256.08 422.169 256.7L400.669 260.063C395.301 260.897 391.159 260.366 388.207 258.432C385.267 256.51 382.531 252.97 380.026 247.812L367.448 221.831L363.307 226.471L360.981 246.636C360.763 248.116 360.763 249.494 360.981 250.796C361.185 252.098 361.556 253.147 362.08 253.956C362.604 254.766 363.32 255.587 364.24 256.447C365.454 257.699 366.119 258.761 366.26 259.62C366.298 259.835 366.26 260.392 366.196 261.302C366.004 262.882 365.186 264.096 363.742 264.93C362.31 265.765 360.06 266.422 356.993 266.903L318.429 272.946C316.128 273.312 314.287 273.211 312.907 272.642C311.526 272.086 310.734 271.15 310.529 269.848C310.427 269.204 310.478 268.47 310.683 267.661C310.926 266.397 311.488 265.373 312.37 264.564C313.252 263.755 313.789 263.287 313.993 263.148C315.566 261.795 316.818 260.455 317.726 259.153C318.633 257.85 319.272 255.828 319.617 253.109L328.437 180.009C328.654 178.53 328.654 177.152 328.437 175.85C328.245 174.662 327.9 173.688 327.376 172.942C326.865 172.196 326.188 171.324 325.357 170.35C324.142 169.099 323.478 168.037 323.337 167.177C323.286 166.848 323.299 166.242 323.375 165.344C323.593 163.865 324.385 162.714 325.766 161.892C327.146 161.071 329.37 160.413 332.438 159.933L371.002 153.89C373.303 153.536 375.13 153.599 376.511 154.105C377.879 154.61 378.671 155.508 378.876 156.81C378.965 157.354 378.914 158.087 378.722 158.997C378.518 159.806 378.16 160.552 377.648 161.248C377.137 161.943 376.664 162.461 376.217 162.803C375.769 163.157 375.45 163.448 375.271 163.7C373.673 164.952 372.421 166.254 371.526 167.62C370.618 168.985 369.979 170.97 369.621 173.574L366.605 198.847L404.146 154.863C406.613 152.044 408.914 149.933 411.035 148.542C413.17 147.151 415.548 146.254 418.168 145.836C422.757 145.116 426.821 145.975 430.362 148.415L430.4 148.441Z" fill="#FAD6B3"/>
</g>
<g opacity="0.1">
<path d="M85.2058 572.542C87.7239 573.92 89.2322 576.132 89.7179 579.154C89.9608 580.671 89.9736 582.163 89.7691 583.642L87.9157 599.407C87.5961 602.341 86.663 604.54 85.1036 606.007C83.5442 607.474 81.3456 608.422 78.4952 608.877C75.7598 609.307 73.4846 609.079 71.6568 608.207C69.8289 607.322 68.3334 605.653 67.1447 603.175L63.0416 594.338C62.3386 592.783 61.6228 591.784 60.8814 591.354C60.14 590.912 58.7212 590.861 56.6505 591.19L40.2382 593.756L36.1991 627.335L39.3179 626.842C40.8518 626.602 42.1556 626.172 43.2293 625.565C44.303 624.958 45.415 623.947 46.527 622.556L50.9369 617.537C52.5347 615.628 54.0174 614.199 55.3851 613.264C56.7528 612.328 58.2483 611.734 59.8972 611.481C61.9679 611.153 63.7957 611.481 65.3552 612.455C66.9146 613.428 67.8605 615.009 68.2184 617.17C68.359 618.043 68.359 619.092 68.2184 620.331L64.9461 646.135C64.1536 651.698 61.6228 654.808 57.3535 655.478C53.8512 656.021 50.8346 654.669 48.291 651.407L44.4563 646.35C43.4466 644.959 42.5774 644.087 41.8488 643.758C41.1202 643.429 40.0976 643.366 38.7938 643.568L34.0389 644.314L31.0223 669.587C30.9073 670.27 30.9328 671.155 31.1118 672.242C31.3546 673.759 31.9043 674.947 32.7735 675.807C33.6427 676.667 34.8697 677.527 36.4675 678.386C37.8224 679.17 38.7683 679.828 39.3051 680.359C39.842 680.89 40.1743 681.585 40.3149 682.445C40.6217 684.392 39.9698 685.883 38.3337 686.92C36.6976 687.957 34.1923 688.728 30.805 689.259L-10.3919 695.707C-13.2423 696.149 -15.4536 695.972 -17.0386 695.163C-18.6236 694.354 -19.3394 693.001 -19.1988 691.092C-19.1348 690.081 -18.8536 689.234 -18.3424 688.551C-17.8311 687.868 -17.0386 687.047 -15.9649 686.098C-14.2776 684.733 -12.9866 683.355 -12.0791 681.989C-11.1716 680.624 -10.5964 678.652 -10.3407 676.06L-1.35488 602.935C-1.13758 601.456 -1.13758 600.128 -1.31653 598.94C-1.52105 597.638 -1.89173 596.588 -2.4158 595.779C-2.93987 594.97 -3.65566 594.148 -4.57598 593.288C-5.79028 592.037 -6.45495 590.975 -6.59556 590.115C-6.64669 589.786 -6.63391 589.18 -6.55721 588.282C-6.33992 586.803 -5.52186 585.652 -4.07747 584.818C-2.64587 583.983 -0.447352 583.339 2.50532 582.871L75.3764 571.455C79.4283 570.822 82.7133 571.189 85.2314 572.58L85.2058 572.542Z" fill="#FAD6B3"/>
<path d="M194.482 619.383C190.225 623.656 184.512 626.804 177.315 628.814C182.633 628.422 186.813 629.32 189.855 631.507C192.897 633.694 194.75 636.893 195.428 641.116C195.683 642.734 195.735 644.782 195.568 647.247L195.032 655.49C194.98 656.603 194.993 657.387 195.07 657.817C195.3 659.22 195.786 660.231 196.565 660.826C197.332 661.432 198.317 661.635 199.518 661.445C201.819 661.091 203.532 661.154 204.682 661.635C205.82 662.128 206.369 663.253 206.318 665.036C206.28 667.589 205.36 670.232 203.544 672.963C201.742 675.693 198.968 678.146 195.223 680.346C191.478 682.533 186.761 684.088 181.073 684.973C173.852 686.098 167.857 685.403 163.076 682.887C158.296 680.358 155.432 676.123 154.474 670.168C154.103 667.893 154.052 665.415 154.282 662.709L155.241 651.912C155.458 650.433 155.432 648.941 155.19 647.424C154.793 644.934 153.656 643.278 151.79 642.468C149.923 641.659 147.124 641.533 143.404 642.114L137.167 643.088L133.933 671.218C133.818 671.901 133.843 672.735 133.997 673.708C134.24 675.226 134.828 676.465 135.773 677.425C136.707 678.386 137.934 679.36 139.442 680.346C140.554 680.953 141.423 681.56 142.088 682.179C142.753 682.799 143.136 683.481 143.264 684.24C143.558 686.086 142.893 687.514 141.257 688.551C139.621 689.588 137.116 690.359 133.728 690.89L92.5315 697.338C89.6811 697.78 87.4698 697.603 85.8848 696.794C84.2998 695.985 83.584 694.632 83.7246 692.723C83.7885 691.712 84.0697 690.865 84.581 690.182C85.0923 689.499 85.8848 688.677 86.9585 687.729C88.6457 686.364 89.9367 684.986 90.8442 683.62C91.7518 682.255 92.327 680.283 92.5826 677.691L101.402 604.591C101.62 603.112 101.62 601.734 101.402 600.432C101.211 599.243 100.865 598.27 100.341 597.524C99.8301 596.778 99.1526 595.905 98.3218 594.932C97.1075 593.68 96.4428 592.618 96.3022 591.759C96.2511 591.43 96.2639 590.823 96.3406 589.925C96.5579 588.446 97.3503 587.296 98.7308 586.474C100.111 585.652 102.335 584.995 105.403 584.514L160.379 575.905C167.933 574.716 174.708 574.83 180.703 576.221C186.698 577.611 191.516 580.052 195.159 583.528C198.802 587.005 201.026 591.24 201.819 596.209C202.19 598.485 202.215 600.811 201.921 603.188C201.18 609.737 198.674 615.148 194.431 619.421L194.482 619.383ZM159.612 602.29C158.692 596.55 155.062 594.186 148.709 595.172L141.819 596.247L139.199 626.109L146.089 625.034C150.358 624.364 153.553 622.809 155.688 620.369C157.823 617.929 159.152 613.833 159.689 608.093C159.842 605.514 159.804 603.58 159.599 602.277L159.612 602.29Z" fill="#FAD6B3"/>
<path d="M273.667 574.084C275.035 574.59 275.828 575.487 276.032 576.789C276.122 577.333 276.07 578.066 275.879 578.977C275.674 579.786 275.316 580.532 274.805 581.227C274.294 581.922 273.821 582.441 273.373 582.782C272.926 583.136 272.607 583.427 272.428 583.68C270.83 584.931 269.577 586.233 268.682 587.599C267.775 588.964 267.136 590.949 266.778 593.554L258.124 666.628C257.907 668.107 257.907 669.485 258.124 670.788C258.329 672.09 258.7 673.139 259.224 673.948C259.748 674.757 260.463 675.579 261.384 676.439C262.598 677.691 263.263 678.752 263.403 679.612C263.442 679.827 263.403 680.383 263.339 681.281C263.148 682.861 262.33 684.075 260.885 684.909C259.454 685.744 257.204 686.401 254.136 686.882L215.573 692.925C213.272 693.279 211.431 693.19 210.051 692.622C208.67 692.065 207.878 691.13 207.673 689.827C207.571 689.183 207.622 688.449 207.827 687.64C208.069 686.376 208.632 685.352 209.514 684.543C210.396 683.734 210.933 683.266 211.137 683.127C212.709 681.774 213.962 680.434 214.87 679.132C215.777 677.83 216.416 675.807 216.761 673.089L225.581 599.989C225.798 598.509 225.798 597.131 225.581 595.829C225.389 594.641 225.044 593.667 224.52 592.921C224.009 592.175 223.331 591.303 222.501 590.33C221.286 589.078 220.622 588.016 220.481 587.156C220.43 586.828 220.443 586.221 220.519 585.323C220.737 583.844 221.529 582.693 222.91 581.872C224.29 581.05 226.514 580.393 229.582 579.912L268.146 573.869C270.446 573.515 272.274 573.578 273.655 574.084H273.667Z" fill="#FAD6B3"/>
<path d="M378.019 573.035C380.537 574.413 382.045 576.625 382.531 579.647C382.774 581.164 382.786 582.656 382.582 584.135L380.728 599.901C380.434 602.947 379.629 605.147 378.338 606.513C377.047 607.878 375.028 608.776 372.292 609.206C369.672 609.623 367.524 609.37 365.863 608.46C364.201 607.549 362.782 605.868 361.606 603.39L357.503 594.553C356.647 592.694 355.778 591.493 354.909 590.962C354.039 590.431 352.506 590.343 350.32 590.684L333.089 593.39L329.51 623.568L336.732 622.442C337.499 622.329 338.445 621.621 339.596 620.331L344.389 614.591C345.808 612.935 347.06 611.671 348.16 610.837C349.259 610.002 350.678 609.446 352.429 609.168C354.397 608.864 356.097 609.117 357.516 609.952C358.935 610.786 359.779 612.012 360.034 613.631C360.098 614.06 360.098 614.73 360.021 615.628L356.903 639.245C356.621 641.735 355.791 643.67 354.384 645.048C352.978 646.438 351.342 647.273 349.489 647.563C346.421 648.044 343.878 646.83 341.845 643.935L338.151 638.688C337.129 637.184 335.786 636.564 334.15 636.817L327.746 637.816L323.579 673.746L338.023 671.483C340.094 671.155 341.871 670.459 343.328 669.41C344.785 668.348 346.281 666.641 347.802 664.302L355.931 652.052C357.388 649.94 358.845 648.347 360.303 647.285C361.76 646.223 363.639 645.515 365.94 645.161C368.343 644.782 370.401 645.022 372.113 645.857C373.813 646.704 374.849 648.208 375.194 650.37C375.334 651.242 375.334 652.292 375.194 653.531L373.059 670.674C372.51 674.973 371.219 678.121 369.186 680.106C367.154 682.091 363.946 683.418 359.561 684.113L281.271 696.377C278.97 696.731 277.129 696.642 275.749 696.073C274.368 695.517 273.576 694.582 273.371 693.279C273.269 692.635 273.32 691.901 273.525 691.092C273.767 689.828 274.33 688.804 275.212 687.995C276.094 687.186 276.631 686.718 276.835 686.579C278.407 685.226 279.66 683.886 280.568 682.584C281.475 681.281 282.114 679.259 282.459 676.54L291.445 603.415C291.662 601.936 291.662 600.609 291.484 599.42C291.279 598.118 290.908 597.069 290.384 596.26C289.86 595.45 289.144 594.629 288.224 593.769C287.01 592.517 286.345 591.455 286.204 590.596C286.153 590.267 286.166 589.66 286.243 588.762C286.46 587.283 287.278 586.133 288.71 585.298C290.141 584.464 292.34 583.819 295.293 583.351L368.164 571.935C372.216 571.303 375.501 571.67 378.019 573.06V573.035Z" fill="#FAD6B3"/>
<path d="M132.156 712.761C133.536 713.317 134.316 714.202 134.508 715.391C134.597 715.934 134.546 716.668 134.354 717.578C134.15 718.387 133.792 719.133 133.28 719.828C132.769 720.524 132.296 721.042 131.849 721.383C131.402 721.737 131.082 722.028 130.903 722.281C129.305 723.533 128.053 724.835 127.158 726.2C126.25 727.566 125.611 729.55 125.253 732.155L116.267 805.28C116.05 806.759 116.05 808.137 116.267 809.44C116.472 810.742 116.83 811.74 117.341 812.436C117.84 813.131 118.568 814.016 119.527 815.091C119.655 815.179 120.025 815.546 120.626 816.165C121.227 816.798 121.598 817.48 121.713 818.239C121.751 818.454 121.713 819.01 121.649 819.908C121.342 821.513 120.473 822.727 119.041 823.561C117.61 824.396 115.36 825.053 112.292 825.534L73.7285 831.577C71.4277 831.943 69.5871 831.842 68.2066 831.273C66.8261 830.717 66.0336 829.782 65.8291 828.479C65.7268 827.835 65.778 827.101 65.9825 826.292C66.2765 825.357 66.7622 824.535 67.4396 823.814C68.1043 823.106 68.7946 822.461 69.4848 821.918C71.0826 820.666 72.3224 819.339 73.2172 817.923C74.1119 816.507 74.7382 814.446 75.0834 811.728L78.624 783.383L49.5702 787.934L46.0295 816.279C45.8122 817.758 45.8122 819.136 46.0295 820.439C46.2341 821.741 46.5919 822.74 47.1032 823.435C47.6017 824.13 48.3303 825.015 49.289 826.09C49.4168 826.178 49.7875 826.545 50.3883 827.165C50.989 827.797 51.3597 828.479 51.4747 829.238C51.5131 829.453 51.4747 830.009 51.4108 830.907C51.1041 832.512 50.2349 833.726 48.8033 834.561C47.3717 835.395 45.122 836.052 42.0543 836.533L3.49054 842.576C1.18975 842.943 -0.65088 842.841 -2.03135 842.273C-3.41182 841.716 -4.20432 840.781 -4.40883 839.479C-4.51109 838.834 -4.45996 838.1 -4.25544 837.291C-3.96145 836.356 -3.47573 835.534 -2.79828 834.813C-2.12083 834.105 -1.44337 833.461 -0.753137 832.917C0.844632 831.665 2.0845 830.338 2.97925 828.922C3.874 827.506 4.50032 825.445 4.84544 822.727L13.8313 749.602C14.0486 748.123 14.0486 746.745 13.8313 745.442C13.6396 744.254 13.2944 743.28 12.7704 742.535C12.2591 741.789 11.5816 740.916 10.7508 739.943C10.2267 739.475 9.75379 738.969 9.33198 738.413C8.91017 737.869 8.64174 737.275 8.53948 736.618C8.50114 736.403 8.5267 735.847 8.6034 734.949C8.82069 733.47 9.63875 732.319 11.0831 731.485C12.5147 730.65 14.7644 729.993 17.8321 729.513L56.3959 723.469C58.6967 723.115 60.5373 723.217 61.9178 723.773C63.2982 724.329 64.0779 725.214 64.2697 726.402C64.3591 726.946 64.308 727.679 64.1163 728.59C63.9118 729.399 63.5539 730.145 63.0426 730.84C62.5313 731.535 62.0584 732.054 61.611 732.395C61.1636 732.749 60.844 733.04 60.6651 733.293C59.0673 734.544 57.8147 735.847 56.9199 737.212C56.0124 738.577 55.3733 740.562 55.0154 743.167L51.5642 770.993L80.618 766.442L84.0692 738.615C84.2865 737.136 84.2865 735.758 84.0692 734.456C83.8775 733.267 83.5324 732.294 83.0083 731.548C82.497 730.802 81.8196 729.93 80.9887 728.956C80.4647 728.488 79.9917 727.983 79.5699 727.427C79.1481 726.883 78.8797 726.289 78.7774 725.631C78.7391 725.416 78.7774 724.86 78.8413 723.962C79.0586 722.483 79.8767 721.333 81.3211 720.498C82.7527 719.664 85.0023 719.006 88.07 718.526L126.634 712.483C128.935 712.129 130.775 712.23 132.156 712.786V712.761Z" fill="#FAD6B3"/>
<path d="M197.856 718.198C199.224 718.704 200.016 719.601 200.221 720.904C200.31 721.447 200.259 722.181 200.067 723.091C199.863 723.9 199.505 724.646 198.994 725.341C198.482 726.037 198.009 726.555 197.562 726.896C197.115 727.25 196.795 727.541 196.616 727.794C195.018 729.046 193.766 730.348 192.871 731.713C191.963 733.079 191.324 735.063 190.966 737.668L182.313 810.743C182.096 812.222 182.096 813.6 182.313 814.902C182.517 816.204 182.888 817.253 183.412 818.063C183.936 818.872 184.652 819.694 185.572 820.553C186.787 821.805 187.451 822.867 187.592 823.727C187.63 823.941 187.592 824.498 187.528 825.408C187.336 826.988 186.518 828.202 185.074 829.036C183.642 829.871 181.393 830.528 178.325 831.009L139.761 837.052C137.46 837.419 135.62 837.317 134.239 836.748C132.859 836.192 132.066 835.257 131.862 833.954C131.759 833.31 131.811 832.576 132.015 831.767C132.258 830.503 132.82 829.479 133.702 828.67C134.584 827.861 135.121 827.393 135.326 827.254C136.898 825.901 138.15 824.561 139.058 823.259C139.966 821.957 140.605 819.934 140.95 817.216L149.769 744.116C149.987 742.636 149.987 741.258 149.769 739.956C149.578 738.768 149.233 737.794 148.709 737.048C148.197 736.302 147.52 735.43 146.689 734.457C145.475 733.205 144.81 732.143 144.669 731.283C144.618 730.955 144.631 730.348 144.708 729.45C144.925 727.971 145.718 726.82 147.098 725.999C148.478 725.177 150.703 724.519 153.77 724.039L192.334 717.996C194.635 717.642 196.463 717.705 197.843 718.211L197.856 718.198Z" fill="#FAD6B3"/>
<path d="M234.198 832.097C226.324 829.897 219.715 825.851 214.334 819.985C208.966 814.119 205.54 806.533 204.045 797.216C203.009 790.717 203.022 783.511 204.108 775.571C206.537 758.554 212.276 745.646 221.288 736.859C230.312 728.073 240.614 722.763 252.22 720.942C258.458 719.969 264.133 720.019 269.233 721.107C274.346 722.194 279.204 724.154 283.805 726.973L287.691 722.864C290.286 720.133 292.523 718.174 294.402 716.985C296.281 715.809 298.492 715.013 301.01 714.621C303.745 714.191 306.033 714.444 307.861 715.38C309.689 716.315 310.788 717.921 311.159 720.184C311.351 721.372 311.325 722.598 311.069 723.863L305.931 750.627C305.42 753.699 304.563 755.95 303.387 757.353C302.211 758.757 300.256 759.679 297.52 760.097C294.67 760.539 292.19 759.907 290.068 758.188C287.947 756.468 285.339 753.358 282.258 748.845C278.82 744.167 276.149 741.145 274.244 739.78C272.34 738.414 269.809 737.985 266.626 738.478C262.139 739.186 258.254 742.587 254.969 748.706C251.684 754.825 249.217 763.611 247.581 775.078C246.2 784.725 246.021 792.626 247.005 798.796C247.874 804.207 249.562 808.076 252.067 810.402C254.572 812.728 257.576 813.613 261.078 813.069C266.217 812.26 270.282 810.465 273.247 807.671C276.225 804.877 279.14 801.261 282.028 796.811C283.831 794.093 285.326 792.045 286.515 790.705C287.704 789.352 289.059 788.555 290.592 788.315C292.561 788.012 294.798 788.656 297.303 790.262C299.808 791.868 301.151 793.65 301.355 795.623C301.841 797.987 300.499 801.969 297.303 807.57C294.108 813.171 289.301 818.506 282.872 823.563C276.443 828.62 268.748 831.844 259.775 833.26C250.584 834.701 242.059 834.322 234.185 832.109L234.198 832.097Z" fill="#FAD6B3"/>
<path d="M430.4 717.441C433.928 719.881 436.101 723.598 436.894 728.566C437.801 734.192 436.83 739.009 433.992 743.004C431.155 746.999 427.384 749.363 422.68 750.097C419.612 750.577 416.902 750.451 414.538 749.705C412.173 748.972 409.821 747.556 407.469 745.482L395.224 759.376L418.602 803.474C420.021 806.028 421.427 808.025 422.846 809.467C424.252 810.908 425.914 812.311 427.806 813.677C429.199 814.676 430.196 815.497 430.809 816.117C431.41 816.749 431.794 817.545 431.947 818.519C432.228 820.251 431.64 821.73 430.221 822.944C428.79 824.17 426.106 825.08 422.169 825.7L400.669 829.063C395.301 829.897 391.159 829.366 388.207 827.432C385.267 825.51 382.531 821.97 380.026 816.812L367.448 790.831L363.307 795.471L360.981 815.636C360.763 817.116 360.763 818.494 360.981 819.796C361.185 821.098 361.556 822.147 362.08 822.956C362.604 823.766 363.32 824.587 364.24 825.447C365.454 826.699 366.119 827.761 366.26 828.62C366.298 828.835 366.26 829.392 366.196 830.302C366.004 831.882 365.186 833.096 363.742 833.93C362.31 834.765 360.06 835.422 356.993 835.903L318.429 841.946C316.128 842.312 314.287 842.211 312.907 841.642C311.526 841.086 310.734 840.15 310.529 838.848C310.427 838.204 310.478 837.47 310.683 836.661C310.926 835.397 311.488 834.373 312.37 833.564C313.252 832.755 313.789 832.287 313.993 832.148C315.566 830.795 316.818 829.455 317.726 828.153C318.633 826.85 319.272 824.828 319.617 822.109L328.437 749.009C328.654 747.53 328.654 746.152 328.437 744.85C328.245 743.662 327.9 742.688 327.376 741.942C326.865 741.196 326.188 740.324 325.357 739.35C324.142 738.099 323.478 737.037 323.337 736.177C323.286 735.848 323.299 735.242 323.375 734.344C323.593 732.865 324.385 731.714 325.766 730.892C327.146 730.071 329.37 729.413 332.438 728.933L371.002 722.89C373.303 722.536 375.13 722.599 376.511 723.105C377.879 723.61 378.671 724.508 378.876 725.81C378.965 726.354 378.914 727.087 378.722 727.997C378.518 728.806 378.16 729.552 377.648 730.248C377.137 730.943 376.664 731.461 376.217 731.803C375.769 732.157 375.45 732.448 375.271 732.7C373.673 733.952 372.421 735.254 371.526 736.62C370.618 737.985 369.979 739.97 369.621 742.574L366.605 767.847L404.146 723.863C406.613 721.044 408.914 718.933 411.035 717.542C413.17 716.151 415.548 715.254 418.168 714.836C422.757 714.116 426.821 714.975 430.362 717.415L430.4 717.441Z" fill="#FAD6B3"/>
</g>
</g>
<defs>
<clipPath id="clip0_558_20309">
<rect width="375" height="812" fill="white"/>
</clipPath>
</defs>
</svg>
