<svg width="375" height="812" viewBox="0 0 375 812" fill="none" xmlns="http://www.w3.org/2000/svg">
<g clip-path="url(#clip0_558_20015)">
<rect width="375" height="812" fill="#77C290"/>
<path d="M0 0H375V87C375 104.673 360.673 119 343 119H32C14.3269 119 0 104.673 0 87V0Z" fill="#77C290"/>
<path d="M-14.6901 870.012L-29.3412 840.037L-25.8769 838.344C-22.0509 836.474 -19.9103 834.118 -19.5042 831.352C-19.1052 828.607 -20.1824 825.98 -22.7503 823.547L-26.5787 819.594L-56.5049 834.221L-55.724 839.733C-55.3951 843.157 -54.0465 845.634 -51.7464 847.06C-49.3981 848.514 -46.2172 848.286 -42.3078 846.375L-38.6627 844.594L-24.0116 874.568L-76.2536 900.103L-90.9047 870.129L-88.6787 869.041C-83.9762 866.742 -81.3147 864.218 -80.5753 861.358C-79.9152 858.829 -79.6978 855.501 -79.9379 851.448L-83.6677 797.903C-84.0969 793.322 -85.2891 790.39 -87.3322 788.89C-89.5062 787.298 -92.9448 787.704 -97.8421 790.098L-98.3012 790.322L-112.952 760.348L-24.9546 717.336L-10.3035 747.31L-10.6792 747.494C-15.6599 749.928 -18.093 752.462 -18.1114 755.245C-18.1354 757.876 -16.5324 760.556 -13.2071 763.48L26.7237 799.296C28.2698 800.625 29.6169 801.759 30.7856 802.704C32.0643 803.734 33.4145 804.521 34.8158 805.025C36.3067 805.572 37.9955 805.677 39.8334 805.382C41.5743 805.099 43.5613 804.404 45.9125 803.255L48.1385 802.167L62.7896 832.141L-14.704 870.019L-14.6901 870.012ZM-58.2863 821.478L-35.6087 810.394L-59.9579 785.263L-62.6708 786.589L-58.2863 821.478Z" fill="#FFFDEE" fill-opacity="0.12"/>
<path d="M-50.7908 400.522L-65.9157 370.767C-61.2576 368.243 -58.2197 365.778 -56.6781 363.24C-54.8554 360.265 -55.0456 356.575 -57.2274 352.283L-79.7604 307.953C-81.9702 303.606 -84.8526 301.25 -88.3309 300.969C-91.2896 300.719 -95.0711 301.72 -99.8555 303.996L-114.98 274.24L-21.8126 226.883C-13.3641 222.588 -5.70117 219.961 0.982751 219.065C7.58362 218.176 13.5422 218.62 18.6784 220.386C23.7938 222.145 28.3981 225.188 32.3385 229.42C36.3555 233.735 39.9564 239.008 43.0572 245.108C46.1579 251.208 48.2394 257.114 49.1751 262.544C50.1031 267.855 49.7076 273.058 48.0017 278.006C46.2957 282.955 43.0167 287.748 38.2539 292.253C33.4152 296.814 26.6717 301.318 18.1956 305.626L-11.6639 320.804L-8.28957 327.443C-6.54277 330.879 -4.25645 333.156 -1.46545 334.238C1.40883 335.347 5.01998 334.762 9.56172 332.454L17.1129 328.615L32.2307 358.357L-50.7768 400.55L-50.7908 400.522ZM-20.812 302.773L-9.96153 297.257C-4.60532 294.535 -1.58048 291.121 -0.935007 287.094C-0.329815 283.261 -1.16753 279.05 -3.44749 274.564C-5.60117 270.327 -8.47474 267.203 -11.9985 265.26C-15.7307 263.215 -20.3337 263.557 -25.7038 266.287L-36.5542 271.802L-20.812 302.773Z" fill="#FFFDEE" fill-opacity="0.12"/>
<path d="M19.4388 542.086L11.3175 509.709C16.4206 508.286 19.931 506.559 21.9988 504.428C24.4382 501.933 25.074 498.294 23.9026 493.624L11.8035 445.39C10.6169 440.66 8.33127 437.722 5.00287 436.673C2.17411 435.77 -1.73556 435.905 -6.90642 437.059L-15.0277 404.683L69.4017 383.504L77.523 415.88C72.4199 417.304 68.9245 419.027 66.8717 421.154C64.4811 423.653 63.8641 427.303 65.0506 432.033L77.1497 480.267C78.3212 484.937 80.5805 487.834 83.8676 488.909C86.6664 489.819 90.5648 489.703 95.7469 488.531L103.868 520.907L19.4388 542.086Z" fill="#FFFDEE" fill-opacity="0.12"/>
<path d="M64.3032 707.797L53.0181 679.662L87.6622 577.39L66.2902 585.963C63.5594 587.058 61.496 588.486 60.1604 590.19C58.7846 591.959 58.0791 594.111 58.0956 596.606C58.1149 598.9 58.6608 601.717 59.7304 604.925C60.6443 607.661 61.7887 610.805 63.1806 614.317L34.1192 625.973L13.8371 575.409L137.226 525.916L148.511 554.051L113.867 656.323L137.524 646.833C140.255 645.738 142.315 644.344 143.619 642.687C144.984 640.972 145.684 638.806 145.684 636.271C145.691 633.916 145.151 631.113 144.087 627.92C143.184 625.213 142.029 622.04 140.619 618.485L169.681 606.829L189.969 657.408L64.2946 707.817L64.3032 707.797Z" fill="#FFFDEE" fill-opacity="0.12"/>
<path d="M114.751 857.359L105.062 828.636L145.387 728.468L123.568 735.828C120.78 736.769 118.64 738.079 117.211 739.705C115.738 741.394 114.913 743.503 114.79 745.995C114.68 748.287 115.067 751.13 115.955 754.392C116.714 757.175 117.681 760.379 118.873 763.963L89.2039 773.972L71.7896 722.349L197.76 679.854L207.449 708.578L167.124 808.745L191.276 800.598C194.064 799.658 196.199 798.382 197.594 796.8C199.053 795.164 199.873 793.041 200.016 790.51C200.154 788.159 199.772 785.331 198.889 782.083C198.14 779.329 197.164 776.097 195.956 772.468L225.626 762.46L243.045 814.097L114.742 857.379L114.751 857.359Z" fill="#FFFDEE" fill-opacity="0.12"/>
<path d="M65.741 142.798L50.6162 113.043C55.2742 110.519 58.3122 108.054 59.8538 105.516C61.6765 102.54 61.4862 98.8511 59.3045 94.5589L36.7715 50.229C34.5617 45.8816 31.6793 43.526 28.201 43.2447C25.2423 42.9945 21.4607 43.9962 16.6764 46.2718L1.55151 16.5161L94.7193 -30.8413C103.168 -35.1357 110.831 -37.7629 117.515 -38.6595C124.115 -39.5486 130.074 -39.1039 135.21 -37.3381C140.326 -35.5791 144.93 -32.5357 148.87 -28.3037C152.887 -23.9892 156.488 -18.7164 159.589 -12.6162C162.69 -6.51602 164.771 -0.609784 165.707 4.81945C166.635 10.131 166.239 15.3338 164.534 20.2822C162.828 25.2306 159.549 30.0234 154.786 34.5285C149.947 39.0894 143.204 43.5939 134.727 47.9023L104.868 63.08L108.242 69.7184C109.989 73.155 112.275 75.4315 115.066 76.5137C117.941 77.6231 121.552 77.038 126.094 74.7294L133.645 70.8911L148.763 100.633L65.7551 142.826L65.741 142.798ZM95.7198 45.0484L106.57 39.5331C111.927 36.8105 114.951 33.3974 115.597 29.37C116.202 25.5369 115.364 21.3257 113.084 16.8402C110.931 12.6032 108.057 9.47892 104.533 7.53611C100.801 5.49083 96.1981 5.83333 90.8281 8.56293L79.9776 14.0783L95.7198 45.0484Z" fill="#FFFDEE" fill-opacity="0.12"/>
<path d="M135.971 284.362L127.849 251.986C132.952 250.563 136.463 248.836 138.531 246.705C140.97 244.21 141.606 240.571 140.434 235.901L128.335 187.667C127.149 182.937 124.863 179.998 121.535 178.95C118.706 178.047 114.796 178.182 109.625 179.335L101.504 146.959L185.934 125.781L194.055 158.157C188.952 159.581 185.456 161.303 183.404 163.431C181.013 165.93 180.396 169.58 181.582 174.31L193.682 222.544C194.853 227.214 197.112 230.111 200.399 231.186C203.198 232.096 207.097 231.98 212.279 230.808L220.4 263.184L135.971 284.362Z" fill="#FFFDEE" fill-opacity="0.12"/>
<path d="M180.835 450.073L169.55 421.938L204.194 319.667L182.822 328.239C180.091 329.335 178.028 330.763 176.692 332.466C175.316 334.236 174.611 336.387 174.627 338.882C174.647 341.177 175.193 343.994 176.262 347.201C177.176 349.937 178.321 353.081 179.712 356.593L150.651 368.25L130.369 317.685L253.758 268.192L265.043 296.327L230.399 398.599L254.056 389.11C256.787 388.014 258.847 386.621 260.151 384.963C261.516 383.248 262.215 381.083 262.216 378.547C262.223 376.192 261.683 373.39 260.619 370.197C259.716 367.489 258.56 364.317 257.151 360.762L286.213 349.105L306.5 399.684L180.826 450.093L180.835 450.073Z" fill="#FFFDEE" fill-opacity="0.12"/>
<path d="M231.283 599.634L221.594 570.911L261.919 470.743L240.1 478.104C237.312 479.044 235.172 480.354 233.743 481.98C232.27 483.67 231.445 485.778 231.321 488.27C231.212 490.562 231.599 493.405 232.487 496.668C233.246 499.451 234.212 502.654 235.405 506.238L205.736 516.247L188.321 464.624L314.292 422.13L323.981 450.853L283.656 551.021L307.808 542.873C310.596 541.933 312.731 540.657 314.126 539.075C315.585 537.44 316.405 535.317 316.548 532.785C316.686 530.434 316.304 527.606 315.421 524.358C314.672 521.605 313.696 518.372 312.488 514.744L342.158 504.735L359.577 556.372L231.273 599.654L231.283 599.634Z" fill="#FFFDEE" fill-opacity="0.12"/>
<path d="M353.345 735.43L338.694 705.455L342.158 703.762C345.984 701.892 348.125 699.536 348.531 696.77C348.93 694.025 347.853 691.398 345.285 688.965L341.457 685.012L311.53 699.639L312.311 705.151C312.64 708.575 313.989 711.052 316.289 712.478C318.637 713.932 321.818 713.704 325.727 711.793L329.373 710.012L344.024 739.986L291.782 765.521L277.131 735.547L279.357 734.459C284.059 732.16 286.721 729.636 287.46 726.776C288.12 724.247 288.337 720.919 288.097 716.866L284.368 663.321C283.938 658.74 282.746 655.808 280.703 654.308C278.529 652.716 275.09 653.122 270.193 655.516L269.734 655.74L255.083 625.766L343.081 582.754L357.732 612.728L357.356 612.912C352.375 615.346 349.942 617.88 349.924 620.663C349.9 623.294 351.503 625.974 354.828 628.898L394.759 664.714C396.305 666.043 397.652 667.177 398.821 668.122C400.1 669.152 401.45 669.939 402.851 670.443C404.342 670.99 406.031 671.095 407.869 670.8C409.61 670.517 411.597 669.822 413.948 668.673L416.174 667.585L430.825 697.559L353.331 735.437L353.345 735.43ZM309.749 686.896L332.427 675.812L308.077 650.681L305.364 652.007L309.749 686.896Z" fill="#FFFDEE" fill-opacity="0.12"/>
<path d="M429.982 9.60446L414.857 -20.1512C419.515 -22.6752 422.553 -25.1399 424.095 -27.6776C425.917 -30.6534 425.727 -34.3427 423.545 -38.6349L401.012 -82.9648C398.803 -87.3122 395.92 -89.6679 392.442 -89.9492C389.483 -90.1994 385.702 -89.1976 380.917 -86.9221L365.792 -116.678L458.96 -164.035C467.409 -168.329 475.072 -170.957 481.756 -171.853C488.356 -172.742 494.315 -172.298 499.451 -170.532C504.567 -168.773 509.171 -165.73 513.111 -161.498C517.128 -157.183 520.729 -151.91 523.83 -145.81C526.931 -139.71 529.012 -133.804 529.948 -128.374C530.876 -123.063 530.48 -117.86 528.775 -112.912C527.069 -107.963 523.79 -103.17 519.027 -98.6654C514.188 -94.1044 507.445 -89.5999 498.968 -85.2915L469.109 -70.1138L472.483 -63.4754C474.23 -60.0389 476.516 -57.7623 479.307 -56.6801C482.182 -55.5708 485.793 -56.1559 490.335 -58.4645L497.886 -62.3027L513.004 -32.5609L429.996 9.63205L429.982 9.60446ZM459.961 -88.1454L470.811 -93.6607C476.168 -96.3833 479.192 -99.7965 479.838 -103.824C480.443 -107.657 479.605 -111.868 477.325 -116.354C475.172 -120.591 472.298 -123.715 468.774 -125.658C465.042 -127.703 460.439 -127.361 455.069 -124.631L444.219 -119.116L459.961 -88.1454Z" fill="#FFFDEE" fill-opacity="0.12"/>
<path d="M317.244 265.943L302.12 236.187C306.778 233.663 309.816 231.198 311.357 228.661C313.18 225.685 312.99 221.996 310.808 217.703L288.275 173.374C286.065 169.026 283.183 166.67 279.704 166.389C276.746 166.139 272.964 167.141 268.18 169.416L253.055 139.661L346.223 92.3033C354.671 88.0089 362.334 85.3816 369.018 84.485C375.619 83.5959 381.577 84.0406 386.714 85.8064C391.829 87.5654 396.433 90.6088 400.374 94.8408C404.391 99.1553 407.992 104.428 411.092 110.528C414.193 116.629 416.275 122.535 417.21 127.964C418.138 133.276 417.743 138.478 416.037 143.427C414.331 148.375 411.052 153.168 406.289 157.673C401.45 162.234 394.707 166.738 386.231 171.047L356.371 186.225L359.746 192.863C361.493 196.3 363.779 198.576 366.57 199.658C369.444 200.768 373.055 200.182 377.597 197.874L385.148 194.036L400.266 223.778L317.258 265.97L317.244 265.943ZM347.223 168.193L358.074 162.678C363.43 159.955 366.455 156.542 367.1 152.515C367.705 148.681 366.868 144.47 364.588 139.985C362.434 135.748 359.561 132.623 356.037 130.681C352.305 128.635 347.702 128.978 342.332 131.707L331.481 137.223L347.223 168.193Z" fill="#FFFDEE" fill-opacity="0.12"/>
<path d="M387.474 407.505L379.353 375.129C384.456 373.706 387.966 371.979 390.034 369.848C392.474 367.353 393.11 363.714 391.938 359.044L379.839 310.81C378.652 306.08 376.367 303.142 373.038 302.093C370.21 301.19 366.3 301.325 361.129 302.479L353.008 270.103L437.437 248.924L445.558 281.3C440.455 282.724 436.96 284.447 434.907 286.574C432.517 289.073 431.9 292.723 433.086 297.453L445.185 345.687C446.357 350.357 448.616 353.254 451.903 354.329C454.702 355.239 458.6 355.123 463.782 353.951L471.904 386.327L387.474 407.505Z" fill="#FFFDEE" fill-opacity="0.12"/>
<path d="M-77.108 189.219L-91.7591 159.244L-88.2949 157.551C-84.4689 155.681 -82.3283 153.325 -81.9222 150.559C-81.5232 147.813 -82.6004 145.186 -85.1683 142.754L-88.9967 138.8L-118.923 153.428L-118.142 158.94C-117.813 162.363 -116.464 164.84 -114.164 166.266C-111.816 167.721 -108.635 167.493 -104.726 165.582L-101.081 163.8L-86.4295 193.775L-138.672 219.31L-153.323 189.335L-151.097 188.247C-146.394 185.949 -143.733 183.424 -142.993 180.564C-142.333 178.036 -142.116 174.707 -142.356 170.654L-146.086 117.11C-146.515 112.529 -147.707 109.596 -149.75 108.096C-151.924 106.505 -155.363 106.911 -160.26 109.304L-160.719 109.529L-175.37 79.5541L-87.3726 36.5422L-72.7215 66.5168L-73.0972 66.7004C-78.0779 69.1349 -80.511 71.6683 -80.5294 74.4517C-80.5534 77.0827 -78.9504 79.7629 -75.6251 82.6869L-35.6942 118.502C-34.1481 119.832 -32.8011 120.966 -31.6324 121.911C-30.3536 122.94 -29.0034 123.728 -27.6022 124.232C-26.1113 124.778 -24.4225 124.883 -22.5845 124.588C-20.8437 124.306 -18.8567 123.61 -16.5055 122.461L-14.2794 121.373L0.371672 151.348L-77.1219 189.225L-77.108 189.219ZM-120.704 140.685L-98.0266 129.6L-122.376 104.47L-125.089 105.796L-120.704 140.685Z" fill="#FFFDEE" fill-opacity="0.12"/>
<path d="M287.133 56.0252L272.482 26.0507L275.946 24.3574C279.772 22.4873 281.913 20.1314 282.319 17.3652C282.718 14.6198 281.641 11.9928 279.073 9.56025L275.244 5.60694L245.318 20.2344L246.099 25.7462C246.428 29.1698 247.777 31.6469 250.077 33.073C252.425 34.5273 255.606 34.2994 259.515 32.3886L263.16 30.6069L277.811 60.5814L225.569 86.1166L210.918 56.142L213.144 55.054C217.847 52.7555 220.508 50.231 221.248 47.371C221.908 44.8425 222.125 41.5138 221.885 37.461L218.155 -16.0836C217.726 -20.6644 216.534 -23.5971 214.491 -25.0972C212.317 -26.6884 208.878 -26.2828 203.981 -23.8891L203.522 -23.6647L188.871 -53.6392L276.868 -96.6512L291.519 -66.6766L291.144 -66.493C286.163 -64.0585 283.73 -61.5251 283.712 -58.7417C283.688 -56.1106 285.291 -53.4305 288.616 -50.5064L328.547 -14.6909C330.093 -13.3615 331.44 -12.2277 332.609 -11.2825C333.887 -10.2532 335.238 -9.46565 336.639 -8.96153C338.13 -8.41506 339.819 -8.30999 341.656 -8.6052C343.397 -8.88743 345.384 -9.58292 347.735 -10.7322L349.962 -11.8202L364.613 18.1543L287.119 56.032L287.133 56.0252ZM243.537 7.49156L266.214 -3.59293L241.865 -28.7238L239.152 -27.3977L243.537 7.49156Z" fill="#FFFDEE" fill-opacity="0.12"/>
<path d="M358.082 944.311L342.957 914.555C347.615 912.031 350.653 909.566 352.194 907.028C354.017 904.053 353.827 900.363 351.645 896.071L329.112 851.741C326.902 847.394 324.02 845.038 320.542 844.757C317.583 844.507 313.801 845.508 309.017 847.784L293.892 818.028L387.06 770.671C395.508 766.377 403.171 763.749 409.855 762.853C416.456 761.964 422.415 762.408 427.551 764.174C432.666 765.933 437.271 768.977 441.211 773.208C445.228 777.523 448.829 782.796 451.93 788.896C455.03 794.996 457.112 800.902 458.047 806.332C458.975 811.643 458.58 816.846 456.874 821.794C455.168 826.743 451.889 831.536 447.126 836.041C442.288 840.602 435.544 845.106 427.068 849.415L397.209 864.592L400.583 871.231C402.33 874.667 404.616 876.944 407.407 878.026C410.281 879.135 413.892 878.55 418.434 876.242L425.985 872.403L441.103 902.145L358.096 944.338L358.082 944.311ZM388.06 846.561L398.911 841.045C404.267 838.323 407.292 834.91 407.937 830.882C408.543 827.049 407.705 822.838 405.425 818.352C403.271 814.115 400.398 810.991 396.874 809.048C393.142 807.003 388.539 807.346 383.169 810.075L372.318 815.59L388.06 846.561Z" fill="#FFFDEE" fill-opacity="0.12"/>
</g>
<defs>
<clipPath id="clip0_558_20015">
<rect width="375" height="812" fill="white"/>
</clipPath>
</defs>
</svg>
